#define clockscreen3144copy_width 128
#define clockscreen3144copy_height 96
static unsigned char clockscreen3_1_44_bits[] = {
  0x00, 0x00, 0x00, 0x00, 0x00, 0x00, 0x00, 0x00, 0x00, 0x00, 0x00, 0x00, 
  0x00, 0x00, 0x00, 0x00, 0x00, 0x00, 0x00, 0x00, 0x00, 0x00, 0x00, 0x00, 
  0x00, 0x00, 0x00, 0x00, 0x00, 0x00, 0x00, 0x00, 0x00, 0x00, 0x00, 0x00, 
  0x00, 0x00, 0x00, 0x00, 0x00, 0x00, 0x00, 0x00, 0x00, 0x00, 0x00, 0x00, 
  0x00, 0x00, 0x00, 0x00, 0x00, 0x00, 0x00, 0x00, 0x00, 0x80, 0xC3, 0x01, 
  0x00, 0x00, 0x00, 0x00, 0x00, 0x00, 0x00, 0x00, 0x00, 0x00, 0x00, 0x00, 
  0x00, 0xC0, 0xE7, 0x07, 0x00, 0x00, 0x00, 0x00, 0xF0, 0xFF, 0xFF, 0x00, 
  0x60, 0x00, 0x00, 0x00, 0x00, 0xF0, 0xFF, 0x07, 0x00, 0x00, 0x00, 0x00, 
  0x10, 0x00, 0x80, 0x00, 0xE0, 0x00, 0x00, 0x00, 0x00, 0xF0, 0xFF, 0x0F, 
  0x00, 0x00, 0x00, 0x00, 0x10, 0x00, 0x80, 0x00, 0xA0, 0x01, 0x00, 0x00, 
  0x00, 0xF0, 0xFF, 0x0F, 0xE0, 0xF0, 0xC1, 0x01, 0x10, 0x00, 0x80, 0x03, 
  0x6C, 0x03, 0x00, 0x00, 0x00, 0xF0, 0xFF, 0x0F, 0xF0, 0xB8, 0xE1, 0x01, 
  0x10, 0x00, 0x80, 0x02, 0xF8, 0x02, 0x00, 0x00, 0x00, 0xE0, 0xFF, 0x07, 
  0xE0, 0x18, 0xB0, 0x01, 0x10, 0x00, 0x80, 0x02, 0xE0, 0x03, 0x00, 0x00, 
  0x00, 0xE0, 0xFF, 0x07, 0xE0, 0xF8, 0x99, 0x01, 0x10, 0x00, 0x80, 0x03, 
  0xE0, 0x02, 0x00, 0x00, 0x00, 0xC0, 0xFF, 0x03, 0xE0, 0x98, 0xFB, 0x03, 
  0x10, 0x00, 0x80, 0x00, 0x78, 0x03, 0x00, 0x00, 0x00, 0x80, 0xFF, 0x01, 
  0xE0, 0x98, 0x83, 0x01, 0x10, 0x00, 0x80, 0x00, 0xAC, 0x03, 0x00, 0x00, 
  0x00, 0x00, 0xFF, 0x00, 0xF0, 0xF9, 0x81, 0x01, 0xF0, 0xFF, 0xFF, 0x00, 
  0xE0, 0x01, 0x00, 0x00, 0x00, 0x00, 0x7E, 0x00, 0xF0, 0xF1, 0x80, 0x01, 
  0x00, 0x00, 0x00, 0x00, 0xE0, 0x00, 0x00, 0x00, 0x00, 0x00, 0x3C, 0x00, 
  0x00, 0x00, 0x00, 0x00, 0x00, 0x00, 0x00, 0x00, 0x60, 0x00, 0x00, 0x00, 
  0x00, 0x00, 0x18, 0x00, 0x00, 0x00, 0x00, 0x00, 0x00, 0x00, 0x00, 0x00, 
  0x00, 0x00, 0x00, 0x00, 0x00, 0x00, 0x00, 0x00, 0x00, 0x00, 0x00, 0x00, 
  0x00, 0x00, 0x00, 0x00, 0x00, 0x00, 0x00, 0x00, 0x00, 0x00, 0x00, 0x00, 
  0x00, 0x00, 0x00, 0x00, 0x00, 0x00, 0x00, 0x00, 0x00, 0x00, 0x00, 0x00, 
  0x00, 0x00, 0x00, 0x00, 0x00, 0x00, 0x00, 0x00, 0x00, 0x00, 0x00, 0x00, 
  0x00, 0x00, 0x00, 0x00, 0x00, 0x00, 0x00, 0x00, 0x00, 0x00, 0x00, 0x00, 
  0x00, 0x00, 0x00, 0x00, 0x00, 0x00, 0x00, 0x00, 0x00, 0x00, 0x00, 0x00, 
  0x00, 0x00, 0x00, 0x00, 0x00, 0x00, 0x00, 0x00, 0x00, 0x00, 0x00, 0x00, 
  0x00, 0x00, 0x00, 0x00, 0x00, 0x00, 0x00, 0x00, 0x00, 0x00, 0x00, 0x00, 
  0x00, 0x00, 0x00, 0x00, 0x00, 0x00, 0x00, 0x00, 0x00, 0x00, 0x00, 0x00, 
  0x00, 0x00, 0x00, 0x00, 0x00, 0x00, 0x00, 0x00, 0x00, 0x00, 0x00, 0x00, 
  0x00, 0x00, 0x00, 0x00, 0x00, 0x00, 0x00, 0x00, 0x00, 0x00, 0x00, 0x00, 
  0x00, 0x00, 0x00, 0x00, 0x00, 0x00, 0x00, 0x00, 0x00, 0x00, 0x00, 0x00, 
  0x00, 0x00, 0x00, 0x00, 0x00, 0x00, 0x00, 0x00, 0x00, 0x00, 0x00, 0x00, 
  0x00, 0x00, 0x00, 0x00, 0x00, 0x00, 0x00, 0x00, 0x00, 0x00, 0x00, 0x00, 
  0x00, 0x00, 0x00, 0x00, 0x00, 0x00, 0x00, 0x00, 0x00, 0x00, 0x00, 0x00, 
  0x00, 0x00, 0x00, 0x00, 0x00, 0x00, 0x00, 0x00, 0x00, 0x00, 0x00, 0x00, 
  0x00, 0x00, 0x00, 0x00, 0x00, 0x00, 0x00, 0x00, 0x00, 0x00, 0x00, 0x00, 
  0x00, 0x00, 0x00, 0x00, 0x00, 0x00, 0x00, 0x00, 0x00, 0x00, 0x00, 0x00, 
  0x00, 0x00, 0x00, 0x00, 0x00, 0x00, 0x00, 0x00, 0x00, 0x00, 0x00, 0x00, 
  0x00, 0x00, 0x00, 0x00, 0x00, 0x00, 0x00, 0x00, 0x00, 0x00, 0x00, 0x00, 
  0x00, 0x00, 0x00, 0x00, 0x00, 0x00, 0x00, 0x00, 0x00, 0x00, 0x00, 0x00, 
  0x00, 0x00, 0x00, 0x00, 0x00, 0x00, 0x00, 0x00, 0x00, 0x00, 0x00, 0x00, 
  0x00, 0x00, 0x00, 0x00, 0x00, 0xC0, 0x07, 0x00, 0xE0, 0x0F, 0x00, 0x00, 
  0x00, 0x00, 0x3E, 0x00, 0x00, 0x00, 0x00, 0x00, 0x00, 0xE0, 0x07, 0x00, 
  0xF8, 0x7F, 0x00, 0x00, 0x00, 0xE0, 0xFF, 0x03, 0xE0, 0xFF, 0xFF, 0x03, 
  0x00, 0xF8, 0x07, 0x00, 0xFE, 0xFF, 0x00, 0x00, 0x00, 0xF8, 0xFF, 0x07, 
  0xE0, 0xFF, 0xFF, 0x03, 0xC0, 0xFF, 0x07, 0x00, 0xFF, 0xFF, 0x01, 0x00, 
  0x00, 0xFC, 0xFF, 0x0F, 0xE0, 0xFF, 0xFF, 0x03, 0xC0, 0xFF, 0x07, 0x80, 
  0xFF, 0xFF, 0x03, 0x00, 0x00, 0xFC, 0xFF, 0x1F, 0xE0, 0xFF, 0xFF, 0x03, 
  0xC0, 0xFF, 0x07, 0x80, 0x7F, 0xFE, 0x07, 0x00, 0x00, 0xFE, 0xFF, 0x3F, 
  0xE0, 0xFF, 0xFF, 0x03, 0xC0, 0xFF, 0x07, 0xC0, 0x3F, 0xFC, 0x07, 0x00, 
  0x00, 0xFE, 0xE1, 0x3F, 0xE0, 0x07, 0xE0, 0x03, 0xC0, 0xFF, 0x07, 0xC0, 
  0x1F, 0xF8, 0x07, 0x00, 0x00, 0xFF, 0xE0, 0x3F, 0xE0, 0x07, 0xE0, 0x03, 
  0xC0, 0xFF, 0x07, 0xC0, 0x1F, 0xFC, 0x07, 0x00, 0x00, 0xFE, 0xE0, 0x3F, 
  0xE0, 0x07, 0x00, 0x00, 0xC0, 0xFF, 0x07, 0x00, 0x00, 0xFC, 0x07, 0xFC, 
  0x0F, 0x00, 0xE0, 0x3F, 0xE0, 0x07, 0x00, 0x00, 0x00, 0xFC, 0x07, 0x00, 
  0x00, 0xFE, 0x07, 0xFC, 0x0F, 0x00, 0xE0, 0x1F, 0xE0, 0xE7, 0x1F, 0x00, 
  0x00, 0xFC, 0x07, 0x00, 0x00, 0xFE, 0x03, 0xFC, 0x0F, 0x00, 0xFC, 0x1F, 
  0xE0, 0xFF, 0x3F, 0x00, 0x00, 0xFC, 0x07, 0x00, 0x80, 0xFF, 0x03, 0xFC, 
  0x0F, 0x00, 0xFC, 0x0F, 0xE0, 0xFF, 0xFF, 0x00, 0x00, 0xFC, 0x07, 0x00, 
  0xC0, 0xFF, 0x01, 0xFC, 0x0F, 0x00, 0xFC, 0x03, 0xE0, 0xFF, 0xFF, 0x01, 
  0x00, 0xFC, 0x07, 0x00, 0xE0, 0xFF, 0x00, 0xFC, 0x0F, 0x00, 0xFE, 0x0F, 
  0xE0, 0xFF, 0xFF, 0x03, 0x00, 0xFC, 0x07, 0x00, 0xF0, 0x3F, 0x00, 0xFC, 
  0x0F, 0x00, 0xFC, 0x3F, 0xC0, 0xBF, 0xFF, 0x03, 0x00, 0xFC, 0x07, 0x00, 
  0xFC, 0x1F, 0x00, 0x00, 0x00, 0x00, 0xF0, 0x3F, 0x00, 0x0E, 0xFE, 0x07, 
  0x00, 0xFC, 0x07, 0x00, 0xFE, 0x07, 0x00, 0x00, 0x00, 0x00, 0xC0, 0x7F, 
  0x00, 0x00, 0xFC, 0x07, 0x00, 0xFC, 0x07, 0x00, 0xFF, 0x01, 0x00, 0x00, 
  0x00, 0x3F, 0xC0, 0x7F, 0x00, 0x00, 0xFC, 0x07, 0x00, 0xFC, 0x07, 0x00, 
  0x7F, 0xC0, 0x07, 0x00, 0x00, 0x7F, 0xC0, 0x7F, 0x00, 0x00, 0xFC, 0x07, 
  0x00, 0xFC, 0x07, 0x80, 0x3F, 0xC0, 0x07, 0x00, 0x00, 0x7F, 0xC0, 0x7F, 
  0xF0, 0x07, 0xFE, 0x07, 0x00, 0xFC, 0x07, 0x80, 0x3F, 0xE0, 0x07, 0xFC, 
  0x0F, 0xFF, 0xE0, 0x7F, 0xF0, 0x0F, 0xFE, 0x03, 0xC0, 0xFF, 0x7F, 0xC0, 
  0xFF, 0xFF, 0x07, 0xFC, 0x0F, 0xFE, 0xFB, 0x7F, 0xF0, 0xFF, 0xFF, 0x03, 
  0xC0, 0xFF, 0x7F, 0xC0, 0xFF, 0xFF, 0x07, 0xFC, 0x0F, 0xFE, 0xFF, 0x3F, 
  0xE0, 0xFF, 0xFF, 0x03, 0xC0, 0xFF, 0x7F, 0xC0, 0xFF, 0xFF, 0x07, 0xFC, 
  0x0F, 0xFC, 0xFF, 0x3F, 0xE0, 0xFF, 0xFF, 0x01, 0xC0, 0xFF, 0x7F, 0xC0, 
  0xFF, 0xFF, 0x07, 0xFC, 0x0F, 0xFC, 0xFF, 0x0F, 0x80, 0xFF, 0xFF, 0x00, 
  0xC0, 0xFF, 0x7F, 0xC0, 0xFF, 0xFF, 0x07, 0xFC, 0x0F, 0xF0, 0xFF, 0x07, 
  0x00, 0xFF, 0x3F, 0x00, 0xC0, 0xFF, 0x7F, 0xC0, 0xFF, 0xFF, 0x07, 0xFC, 
  0x0F, 0xC0, 0xFF, 0x01, 0x00, 0xFC, 0x0F, 0x00, 0x00, 0x00, 0x00, 0x00, 
  0x00, 0x00, 0x00, 0x00, 0x00, 0x00, 0x00, 0x00, 0x00, 0x00, 0x00, 0x00, 
  0x00, 0x00, 0x00, 0x00, 0x00, 0x00, 0x00, 0x00, 0x00, 0x00, 0x00, 0x00, 
  0x00, 0x00, 0x00, 0x00, 0x00, 0x00, 0x00, 0x00, 0x00, 0x00, 0x00, 0x00, 
  0x00, 0x00, 0x00, 0x00, 0x00, 0x00, 0x00, 0x00, 0x00, 0x00, 0x00, 0x00, 
  0x00, 0x00, 0x00, 0x00, 0x00, 0x00, 0x00, 0x00, 0x00, 0x00, 0x00, 0x00, 
  0x00, 0x00, 0x00, 0x00, 0x00, 0x00, 0x00, 0x00, 0x00, 0x00, 0x00, 0x00, 
  0x00, 0x00, 0x00, 0x00, 0x00, 0x00, 0x00, 0x00, 0x00, 0x00, 0x00, 0x00, 
  0x00, 0x00, 0x00, 0x00, 0x00, 0x00, 0x00, 0x00, 0x00, 0x00, 0x00, 0x00, 
  0x00, 0x00, 0x00, 0x00, 0x00, 0x00, 0x00, 0x00, 0x00, 0x00, 0x00, 0x00, 
  0x00, 0x00, 0x00, 0x00, 0x00, 0x00, 0x00, 0x00, 0x00, 0x00, 0x00, 0x00, 
  0x00, 0x00, 0x00, 0x00, 0x00, 0x00, 0x00, 0x00, 0x00, 0x00, 0x00, 0x00, 
  0x00, 0x00, 0x00, 0x00, 0x00, 0x00, 0x00, 0x00, 0x00, 0x00, 0x00, 0x00, 
  0x00, 0x00, 0x00, 0x00, 0x00, 0x00, 0x00, 0x00, 0x00, 0x00, 0x00, 0x00, 
  0x00, 0x00, 0x00, 0x00, 0x00, 0x00, 0x00, 0x00, 0x00, 0x00, 0x00, 0x00, 
  0x00, 0x00, 0x00, 0x00, 0x00, 0x00, 0x00, 0x00, 0x00, 0x00, 0x00, 0x00, 
  0x00, 0x00, 0x00, 0x00, 0x00, 0x00, 0x00, 0x00, 0x00, 0x00, 0x00, 0x00, 
  0x00, 0x00, 0x00, 0x00, 0x00, 0x00, 0x00, 0x00, 0x00, 0x00, 0x00, 0x00, 
  0x00, 0x00, 0x00, 0x00, 0x00, 0x00, 0x00, 0x00, 0x00, 0x00, 0x00, 0x00, 
  0x00, 0x00, 0x00, 0x00, 0x00, 0x00, 0x00, 0x00, 0x00, 0x00, 0x00, 0x00, 
  0x00, 0x00, 0x00, 0x00, 0x00, 0x00, 0x00, 0x00, 0x00, 0x00, 0x00, 0x00, 
  0x00, 0x00, 0x00, 0x00, 0x00, 0x00, 0x00, 0x00, 0x00, 0x00, 0x00, 0x00, 
  0x00, 0x00, 0x00, 0x00, 0x00, 0x00, 0x00, 0x00, 0x00, 0x00, 0x00, 0x00, 
  0x00, 0x00, 0x00, 0x00, 0x00, 0x00, 0x00, 0x00, 0x00, 0x00, 0x00, 0x00, 
  0x00, 0x00, 0x00, 0x00, 0x00, 0x00, 0x00, 0x00, 0x00, 0x00, 0x00, 0x00, 
  0x00, 0x00, 0x00, 0x00, 0x00, 0x00, 0x00, 0x78, 0x87, 0xE7, 0x1C, 0x00, 
  0x00, 0x00, 0x00, 0x00, 0x00, 0x00, 0x00, 0x00, 0x00, 0x00, 0x00, 0xFC, 
  0xCF, 0xFF, 0x3F, 0x00, 0x00, 0x00, 0x00, 0x00, 0x00, 0x00, 0x00, 0x00, 
  0x00, 0x00, 0x00, 0xF8, 0x9F, 0xFF, 0x7F, 0x00, 0x00, 0x00, 0x00, 0x00, 
  0x00, 0x00, 0x00, 0x00, 0x00, 0x00, 0x00, 0x78, 0x9C, 0xE7, 0x79, 0x00, 
  0x00, 0x00, 0x00, 0x00, 0x00, 0x00, 0x00, 0x00, 0x00, 0x00, 0x00, 0x78, 
  0x9C, 0xE7, 0x39, 0x00, 0x00, 0x00, 0x00, 0x00, 0x00, 0x00, 0x00, 0x00, 
  0x00, 0x00, 0x00, 0x78, 0x9C, 0xEF, 0x79, 0x00, 0x00, 0x00, 0x00, 0x00, 
  0x00, 0x00, 0x00, 0x00, 0x00, 0x00, 0x00, 0xF8, 0x9F, 0xEF, 0xFB, 0x00, 
  0x00, 0x00, 0x00, 0x00, 0x00, 0x00, 0x00, 0x00, 0x00, 0x00, 0x00, 0xF8, 
  0xCF, 0xEF, 0xFB, 0x00, 0x00, 0x00, 0x00, 0x00, 0x00, 0x00, 0x00, 0x00, 
  0x00, 0x00, 0x00, 0x78, 0x00, 0x00, 0x00, 0x00, 0x00, 0x00, 0x00, 0x00, 
  0x00, 0x00, 0x00, 0x00, 0x00, 0x00, 0x00, 0xF8, 0x00, 0x00, 0x00, 0x00, 
  0x00, 0x00, 0x00, 0x00, 0x00, 0x00, 0x00, 0x00, 0x00, 0x00, 0x00, 0xFC, 
  0x00, 0x00, 0x00, 0x00, 0x00, 0x00, 0x00, 0x00, 0x00, 0x00, 0x00, 0x00, 
  0x00, 0x00, 0x00, 0x00, 0x00, 0x00, 0x00, 0x00, 0x00, 0x00, 0x00, 0x00, 
  0x00, 0x00, 0x00, 0x00, 0x00, 0x00, 0x00, 0x00, 0x00, 0x00, 0x00, 0x00, 
  0x00, 0x00, 0x00, 0x00, 0x00, 0x00, 0x00, 0x00, 0x00, 0x00, 0x00, 0x00, 
  0x00, 0x00, 0x00, 0x00, 0x00, 0x00, 0x00, 0x00, 0x00, 0x00, 0x00, 0x00, 
  0x00, 0x00, 0x00, 0x00, 0x00, 0x00, 0x00, 0x00, 0x00, 0x00, 0x00, 0x00, 
  0x00, 0x00, 0x00, 0x00, 0x00, 0x00, 0x00, 0x00, 0x00, 0x00, 0x00, 0x00, 
  };
