#define tekbots_2_0_width 200
#define tekbots_2_0_height 96
static unsigned char tekbots_2_0_bits[] = {
  0x00, 0x00, 0x00, 0x00, 0x00, 0x00, 0x00, 0x00, 0x00, 0x00, 0x00, 0x00, 
  0x00, 0x00, 0x00, 0x00, 0x00, 0x00, 0x00, 0x00, 0x00, 0x00, 0x00, 0x00, 
  0x00, 0x00, 0x00, 0x00, 0x00, 0x00, 0x00, 0x00, 0x00, 0x00, 0x00, 0x00, 
  0x00, 0x00, 0x00, 0x00, 0x00, 0x00, 0x00, 0x00, 0x00, 0x00, 0x00, 0x00, 
  0x00, 0x00, 0x00, 0x00, 0x00, 0x00, 0x00, 0x00, 0x00, 0x00, 0x00, 0x00, 
  0x00, 0x00, 0x00, 0x00, 0x00, 0x00, 0x00, 0x00, 0x00, 0x00, 0x00, 0x00, 
  0x00, 0x00, 0x00, 0x00, 0x00, 0x00, 0x00, 0x00, 0x00, 0x00, 0x00, 0x00, 
  0x00, 0x00, 0x00, 0x00, 0x00, 0x00, 0x00, 0x00, 0x00, 0x00, 0x00, 0x00, 
  0x00, 0x00, 0x00, 0x00, 0x00, 0x00, 0x00, 0x00, 0x00, 0x00, 0x00, 0x00, 
  0x00, 0x00, 0x00, 0x00, 0x00, 0x00, 0x00, 0x00, 0x00, 0x00, 0x00, 0x00, 
  0x00, 0x00, 0x00, 0x00, 0x00, 0x00, 0x00, 0x00, 0x00, 0x00, 0x00, 0x00, 
  0x00, 0x00, 0x00, 0x00, 0x00, 0x00, 0x00, 0x00, 0x00, 0x00, 0x00, 0x00, 
  0x00, 0x00, 0x00, 0x00, 0x00, 0x00, 0x00, 0x00, 0x00, 0x00, 0x00, 0x00, 
  0x00, 0x00, 0x00, 0x00, 0x00, 0x00, 0x00, 0x00, 0x00, 0x00, 0x00, 0x00, 
  0x00, 0x00, 0x00, 0x00, 0x00, 0x00, 0x00, 0x00, 0x00, 0x00, 0x00, 0x00, 
  0x00, 0x00, 0x00, 0x00, 0x00, 0x00, 0x00, 0x00, 0x00, 0x00, 0x00, 0x00, 
  0x00, 0x00, 0x00, 0x00, 0x00, 0x00, 0x00, 0x00, 0x00, 0x00, 0x00, 0x00, 
  0x00, 0x00, 0x00, 0x00, 0x00, 0x00, 0x00, 0x00, 0x00, 0x00, 0x00, 0x00, 
  0x00, 0x00, 0x00, 0x00, 0x00, 0x00, 0x00, 0x00, 0x00, 0x00, 0x00, 0x00, 
  0x00, 0x00, 0x00, 0x00, 0x00, 0x00, 0x00, 0x00, 0x00, 0x00, 0x00, 0x00, 
  0x00, 0x00, 0x00, 0x00, 0x00, 0x00, 0x00, 0x00, 0x00, 0x00, 0x00, 0x00, 
  0x00, 0x00, 0x00, 0x00, 0x00, 0x00, 0x00, 0x00, 0x00, 0x00, 0x00, 0x00, 
  0x00, 0x00, 0x00, 0x00, 0x00, 0x00, 0x00, 0x00, 0x00, 0x00, 0x00, 0x00, 
  0x00, 0x00, 0x00, 0x00, 0x00, 0x00, 0x00, 0x00, 0x00, 0x00, 0x00, 0x00, 
  0x00, 0x00, 0x00, 0x00, 0x00, 0x00, 0x00, 0x00, 0x00, 0x00, 0x00, 0x00, 
  0x00, 0x00, 0x00, 0x00, 0x00, 0x00, 0x00, 0x00, 0x00, 0x00, 0x00, 0x00, 
  0x00, 0x00, 0x00, 0x00, 0x00, 0x00, 0x00, 0x00, 0x00, 0x00, 0x00, 0x00, 
  0x00, 0x00, 0x00, 0x00, 0x00, 0x00, 0x00, 0x00, 0x00, 0x00, 0x00, 0x00, 
  0x00, 0x00, 0x00, 0x00, 0x00, 0x00, 0x00, 0x00, 0x00, 0x00, 0x00, 0x00, 
  0x00, 0x00, 0x00, 0x00, 0x00, 0x00, 0x00, 0x00, 0x00, 0x00, 0x00, 0x00, 
  0x00, 0x00, 0x00, 0x00, 0x00, 0x00, 0x00, 0x00, 0x00, 0x00, 0x00, 0x00, 
  0x00, 0x00, 0x00, 0x00, 0x00, 0x00, 0x00, 0x00, 0x00, 0x00, 0x00, 0x00, 
  0x00, 0x00, 0x00, 0x00, 0x00, 0x00, 0x00, 0x00, 0x00, 0x00, 0x00, 0x00, 
  0x00, 0x00, 0x00, 0x00, 0x00, 0x00, 0x00, 0x00, 0x00, 0x00, 0x00, 0x00, 
  0x00, 0x00, 0x00, 0x00, 0x00, 0x00, 0x00, 0x00, 0x00, 0x00, 0x00, 0x00, 
  0x00, 0x00, 0x00, 0x00, 0x00, 0x00, 0x00, 0x00, 0x00, 0x00, 0x00, 0x00, 
  0x00, 0x00, 0x00, 0x00, 0x00, 0x00, 0x00, 0x00, 0x00, 0x00, 0x00, 0x00, 
  0x00, 0x00, 0x00, 0x00, 0x00, 0x00, 0x00, 0x00, 0x00, 0x00, 0x00, 0x00, 
  0x00, 0x00, 0x00, 0x00, 0x00, 0x00, 0x00, 0x00, 0x00, 0x00, 0x00, 0x00, 
  0x00, 0x00, 0x00, 0x00, 0x00, 0x00, 0x00, 0x00, 0x00, 0x00, 0x00, 0x00, 
  0x00, 0x00, 0x00, 0x00, 0x00, 0x00, 0x00, 0x00, 0x00, 0x00, 0x00, 0x00, 
  0x00, 0x00, 0x00, 0x00, 0x00, 0x00, 0x00, 0x00, 0x00, 0x00, 0x00, 0x00, 
  0x00, 0x00, 0x00, 0x00, 0x00, 0x00, 0x00, 0x00, 0x00, 0x00, 0x00, 0x00, 
  0x00, 0x00, 0x00, 0x00, 0x00, 0x00, 0x00, 0x00, 0x00, 0x00, 0x00, 0x00, 
  0x00, 0x00, 0x00, 0x00, 0x00, 0x00, 0x00, 0x00, 0x00, 0x00, 0x00, 0x00, 
  0x00, 0x00, 0x00, 0x00, 0x00, 0x00, 0x00, 0x00, 0x00, 0x00, 0x00, 0x00, 
  0x00, 0x00, 0x00, 0x00, 0x00, 0x00, 0x00, 0x00, 0x00, 0x00, 0x00, 0x00, 
  0x00, 0x00, 0x00, 0x00, 0x00, 0x00, 0x00, 0x00, 0x00, 0x00, 0x00, 0x00, 
  0x00, 0x00, 0x00, 0x00, 0x00, 0x00, 0x00, 0x00, 0x00, 0x00, 0x00, 0x00, 
  0x00, 0x00, 0x00, 0x00, 0x00, 0x00, 0x00, 0x00, 0x00, 0x00, 0x00, 0x00, 
  0x00, 0x00, 0x00, 0x00, 0x00, 0x00, 0x00, 0x00, 0x00, 0x00, 0x00, 0x00, 
  0x00, 0x00, 0x00, 0x00, 0x00, 0x00, 0x00, 0x00, 0x00, 0x00, 0x00, 0x00, 
  0x00, 0x00, 0x00, 0x00, 0x00, 0x00, 0x00, 0x00, 0x00, 0x00, 0x00, 0x00, 
  0x00, 0x00, 0x00, 0x00, 0x00, 0x00, 0x00, 0x00, 0x00, 0x00, 0x00, 0x00, 
  0x00, 0x00, 0x00, 0x00, 0x00, 0x00, 0x00, 0x00, 0x00, 0x00, 0x00, 0x00, 
  0x00, 0x00, 0x00, 0x00, 0x00, 0x00, 0x00, 0x00, 0x00, 0x00, 0x00, 0x00, 
  0x00, 0x00, 0x00, 0x00, 0x00, 0x00, 0x00, 0x00, 0x00, 0x00, 0x00, 0x00, 
  0x00, 0x00, 0x00, 0x00, 0x00, 0x00, 0x00, 0x00, 0x00, 0x00, 0x00, 0x00, 
  0x00, 0x00, 0x00, 0x00, 0x00, 0x00, 0x20, 0x46, 0x42, 0x10, 0x82, 0x19, 
  0x08, 0x84, 0xA6, 0x94, 0x49, 0x01, 0x00, 0xA0, 0x02, 0x10, 0x26, 0x54, 
  0x00, 0xA4, 0x02, 0x00, 0x00, 0x00, 0x00, 0x60, 0x90, 0x39, 0xE1, 0x2D, 
  0x24, 0x74, 0x02, 0x91, 0xA8, 0xA2, 0x0E, 0x00, 0x55, 0x05, 0x48, 0x90, 
  0x49, 0x40, 0x62, 0x02, 0x00, 0x00, 0x00, 0x00, 0xE0, 0xF9, 0xF1, 0x43, 
  0x45, 0x3F, 0xF8, 0x01, 0x3A, 0x50, 0xD3, 0x1A, 0x80, 0xC5, 0x0F, 0x78, 
  0xFE, 0xF9, 0x20, 0xE1, 0x03, 0x00, 0x00, 0x00, 0x00, 0xB0, 0xA0, 0x43, 
  0xC1, 0x0F, 0x30, 0xA8, 0x01, 0x0F, 0xF0, 0x01, 0x3F, 0x60, 0x03, 0x1D, 
  0x38, 0xD0, 0x60, 0xF0, 0x81, 0x03, 0x00, 0x00, 0x00, 0x00, 0xE0, 0x60, 
  0xC3, 0xC1, 0x0F, 0x18, 0xF8, 0x01, 0x0F, 0x60, 0x01, 0x2B, 0x60, 0x01, 
  0x3E, 0x38, 0x7C, 0xE1, 0x50, 0x80, 0x03, 0x00, 0x00, 0x00, 0x00, 0x60, 
  0xF0, 0x81, 0x81, 0x06, 0x38, 0x58, 0x01, 0x05, 0xF0, 0x03, 0x7E, 0xF0, 
  0x01, 0x26, 0x28, 0xE8, 0x60, 0xF8, 0x00, 0x02, 0x00, 0x00, 0x00, 0x00, 
  0x30, 0xA0, 0x43, 0xC2, 0x0F, 0x00, 0xD0, 0x80, 0x06, 0xF0, 0x03, 0x36, 
  0xA8, 0x00, 0x3E, 0x28, 0xE8, 0xC0, 0xF8, 0x01, 0x02, 0x00, 0x00, 0x00, 
  0x00, 0x00, 0xF0, 0x01, 0x80, 0x06, 0x00, 0x78, 0x41, 0x03, 0x90, 0x01, 
  0x2E, 0xF8, 0x00, 0x7C, 0x00, 0x78, 0x00, 0xD8, 0x01, 0x00, 0x00, 0x00, 
  0x00, 0x00, 0x00, 0xB0, 0x01, 0xC0, 0x0E, 0x00, 0xD0, 0xC1, 0x00, 0xF0, 
  0x01, 0x3E, 0xF8, 0x00, 0x76, 0x00, 0xD8, 0x00, 0x58, 0x03, 0x00, 0x00, 
  0x00, 0x00, 0x00, 0x00, 0xE0, 0x01, 0x80, 0x07, 0x02, 0xF8, 0xE1, 0x00, 
  0xA0, 0x03, 0x17, 0x5C, 0x00, 0x7C, 0x00, 0xF8, 0x00, 0xF0, 0x06, 0x00, 
  0x00, 0x00, 0x00, 0x00, 0x00, 0xF0, 0x01, 0xC0, 0x0E, 0x03, 0xF8, 0xF1, 
  0x00, 0xF0, 0x03, 0x06, 0xDC, 0x00, 0xE8, 0x00, 0x7C, 0x00, 0xF0, 0x07, 
  0x00, 0x00, 0x00, 0x00, 0x00, 0x00, 0xB0, 0x03, 0xC0, 0x8F, 0x07, 0xD0, 
  0x69, 0x00, 0xB0, 0x91, 0x0B, 0xF8, 0x00, 0x7C, 0x00, 0xE8, 0x00, 0x60, 
  0x3F, 0x00, 0x00, 0x00, 0x00, 0x00, 0x00, 0xF0, 0x03, 0xC0, 0x6F, 0x03, 
  0xF8, 0xFC, 0x00, 0xF0, 0xA5, 0x03, 0xFC, 0x00, 0xFC, 0x00, 0xD8, 0x00, 
  0xE0, 0x7F, 0x00, 0x00, 0x00, 0x00, 0x00, 0x00, 0xF0, 0x01, 0xC0, 0x97, 
  0x07, 0xF8, 0xFF, 0x01, 0xB0, 0xFB, 0x0F, 0xFC, 0x00, 0xFC, 0x00, 0xFC, 
  0x00, 0xC0, 0xFF, 0x00, 0x00, 0x00, 0x00, 0x00, 0x00, 0xE0, 0x03, 0xC0, 
  0x8F, 0x07, 0xF0, 0xF9, 0x01, 0xF0, 0x83, 0x1F, 0xFC, 0x00, 0x7C, 0x00, 
  0xF8, 0x00, 0x00, 0xFF, 0x03, 0x00, 0x00, 0x00, 0x00, 0x00, 0xF0, 0x01, 
  0xC0, 0x07, 0x03, 0xF8, 0x79, 0x01, 0xF0, 0x03, 0x3E, 0x6C, 0x00, 0xFC, 
  0x00, 0xF8, 0x00, 0x00, 0xFE, 0x03, 0x00, 0x00, 0x00, 0x00, 0x00, 0xE0, 
  0x03, 0xC0, 0x0F, 0x02, 0xF0, 0xF1, 0x03, 0xF0, 0x03, 0x3E, 0xFC, 0x00, 
  0xFC, 0x00, 0xFC, 0x00, 0x00, 0xF8, 0x03, 0x00, 0x00, 0x00, 0x00, 0x00, 
  0xF0, 0x03, 0xC0, 0x0F, 0x00, 0xF8, 0xE1, 0x07, 0xE0, 0x03, 0x7E, 0xFC, 
  0x00, 0x7C, 0x00, 0xF8, 0x01, 0x00, 0xF0, 0x07, 0x00, 0x00, 0x00, 0x00, 
  0x00, 0xF0, 0x03, 0xC0, 0x07, 0x00, 0xF8, 0xE1, 0x0F, 0xF0, 0x01, 0x7E, 
  0xF8, 0x00, 0x7E, 0x00, 0xF8, 0x00, 0x00, 0xE0, 0x07, 0x00, 0x00, 0x00, 
  0x00, 0x00, 0xF0, 0x01, 0xC0, 0x0F, 0x20, 0xF0, 0xC1, 0x0F, 0xF0, 0x03, 
  0x7E, 0xF8, 0x01, 0x7C, 0x00, 0xFC, 0x00, 0x00, 0xE0, 0x03, 0x00, 0x00, 
  0x00, 0x00, 0x00, 0xF0, 0x03, 0xC0, 0x0F, 0x38, 0xF8, 0xC1, 0x0F, 0xF0, 
  0x03, 0x7E, 0xF8, 0x01, 0x7E, 0x00, 0xFC, 0x00, 0x18, 0xC0, 0x07, 0x00, 
  0x00, 0x00, 0x00, 0x00, 0xF0, 0x03, 0xC0, 0x0F, 0x38, 0xF0, 0x81, 0x3F, 
  0xF0, 0x03, 0x3E, 0xF0, 0x01, 0x3E, 0x00, 0xF8, 0x00, 0x38, 0xE0, 0x03, 
  0x00, 0x00, 0x00, 0x00, 0x00, 0xF0, 0x01, 0xC0, 0x07, 0x3C, 0xF8, 0x01, 
  0x3F, 0xE0, 0x03, 0x3F, 0xF0, 0x03, 0x1F, 0x00, 0xF8, 0x00, 0x3C, 0xE0, 
  0x03, 0x00, 0x00, 0x00, 0x00, 0x00, 0xF0, 0x03, 0xC0, 0x0F, 0x3C, 0xF8, 
  0x01, 0x7F, 0xF0, 0x83, 0x3F, 0xE0, 0x87, 0x1F, 0x00, 0xFC, 0x01, 0x78, 
  0xF0, 0x01, 0x00, 0x00, 0x00, 0x00, 0x00, 0xF8, 0x07, 0xE0, 0x5F, 0x3E, 
  0xF8, 0x01, 0xFF, 0xF0, 0x5B, 0x07, 0xC0, 0xAF, 0x07, 0x00, 0xFC, 0x01, 
  0xF8, 0xFA, 0x00, 0x00, 0x00, 0x00, 0x00, 0x00, 0xB4, 0x0D, 0xD0, 0xEB, 
  0x3B, 0xBC, 0x87, 0xDE, 0xF5, 0xA6, 0x04, 0x80, 0x5F, 0x02, 0x00, 0xBA, 
  0x03, 0xBC, 0x15, 0x00, 0x00, 0x00, 0x00, 0x00, 0x00, 0x88, 0x06, 0x00, 
  0x24, 0x09, 0x82, 0x06, 0x66, 0xCC, 0x59, 0x00, 0x00, 0xB4, 0x00, 0x00, 
  0x96, 0x01, 0xC0, 0x29, 0x00, 0x00, 0x00, 0x00, 0x00, 0x00, 0xA4, 0x00, 
  0x60, 0x92, 0x24, 0x64, 0x00, 0x09, 0x28, 0x22, 0x01, 0x00, 0x46, 0x00, 
  0x00, 0x44, 0x02, 0xA0, 0x16, 0x00, 0x00, 0x00, 0x00, 0x00, 0x00, 0x28, 
  0x05, 0xD0, 0xDB, 0x14, 0x5A, 0x01, 0xA9, 0x68, 0xB5, 0x05, 0x80, 0xAA, 
  0x02, 0x00, 0x4A, 0x01, 0x60, 0x55, 0x00, 0x00, 0x00, 0x00, 0x00, 0x00, 
  0x90, 0x02, 0x00, 0x04, 0x0A, 0x20, 0x01, 0x46, 0x90, 0x41, 0x08, 0x20, 
  0x05, 0x06, 0x00, 0xA4, 0x00, 0x98, 0x60, 0x01, 0x00, 0x00, 0x00, 0x00, 
  0x00, 0xA0, 0x01, 0x80, 0x01, 0x28, 0xA0, 0x00, 0x30, 0x00, 0x00, 0x16, 
  0x40, 0x02, 0x01, 0x00, 0x88, 0x00, 0x04, 0x20, 0x00, 0x00, 0x00, 0x00, 
  0x00, 0x00, 0x20, 0x00, 0x00, 0x04, 0x10, 0x48, 0x01, 0x0D, 0x60, 0x02, 
  0x02, 0x20, 0x00, 0x2C, 0x00, 0x30, 0x00, 0x20, 0x80, 0x01, 0x00, 0x00, 
  0x00, 0x00, 0x00, 0x40, 0x00, 0x80, 0x02, 0x20, 0x20, 0x00, 0x01, 0xA0, 
  0x00, 0x0C, 0xC0, 0x00, 0x00, 0x00, 0x88, 0x00, 0x00, 0x40, 0x01, 0x00, 
  0x00, 0x00, 0x00, 0x00, 0x20, 0x02, 0x00, 0x04, 0x00, 0xA0, 0x00, 0x04, 
  0x20, 0x01, 0x20, 0x10, 0x00, 0x26, 0x00, 0x20, 0x00, 0x00, 0x40, 0x00, 
  0x00, 0x00, 0x00, 0x00, 0x00, 0xA0, 0x02, 0x80, 0x05, 0x00, 0x00, 0x40, 
  0x05, 0x00, 0x00, 0x10, 0x90, 0x00, 0x10, 0x00, 0xA8, 0x00, 0x00, 0x00, 
  0x01, 0x00, 0x00, 0x00, 0x00, 0x00, 0x00, 0x00, 0x00, 0x00, 0x00, 0xA0, 
  0x20, 0x00, 0x20, 0x01, 0x0A, 0x08, 0x00, 0x08, 0x00, 0x00, 0x00, 0x00, 
  0x40, 0x00, 0x00, 0x00, 0x00, 0x00, 0x00, 0x20, 0x00, 0x80, 0x00, 0x00, 
  0x80, 0x00, 0x02, 0x20, 0x01, 0x04, 0x80, 0x00, 0x00, 0x00, 0x90, 0x00, 
  0x00, 0x40, 0x02, 0x00, 0x00, 0x00, 0x00, 0x00, 0x00, 0x00, 0x00, 0x04, 
  0x00, 0x10, 0x50, 0x00, 0x00, 0x00, 0x20, 0x10, 0x00, 0x48, 0x00, 0x00, 
  0x00, 0x00, 0x08, 0x00, 0x00, 0x00, 0x00, 0x00, 0x00, 0x80, 0x00, 0x00, 
  0x02, 0x00, 0x00, 0x00, 0x00, 0x00, 0x00, 0x00, 0x40, 0x00, 0x10, 0x00, 
  0x20, 0x00, 0x00, 0x00, 0x00, 0x00, 0x00, 0x00, 0x00, 0x00, 0x00, 0x01, 
  0x00, 0x00, 0x00, 0x40, 0x10, 0x00, 0x20, 0x00, 0x01, 0x08, 0x00, 0x00, 
  0x00, 0x00, 0x00, 0x00, 0x40, 0x00, 0x00, 0x00, 0x00, 0x00, 0x00, 0x00, 
  0x00, 0x00, 0x00, 0x02, 0x00, 0x00, 0x00, 0x00, 0x00, 0x00, 0x00, 0x00, 
  0x00, 0x00, 0x00, 0x00, 0x00, 0x01, 0x00, 0x00, 0x00, 0x00, 0x00, 0x00, 
  0x00, 0x00, 0x00, 0x00, 0x00, 0x00, 0x00, 0x00, 0x00, 0x00, 0x00, 0x00, 
  0x00, 0x00, 0x00, 0x00, 0x00, 0x00, 0x00, 0x00, 0x00, 0x00, 0x00, 0x00, 
  0x00, 0x00, 0x00, 0x00, 0x00, 0x00, 0x00, 0x00, 0x00, 0x00, 0x00, 0x00, 
  0x00, 0x00, 0x00, 0x00, 0x00, 0x00, 0x00, 0x00, 0x00, 0x00, 0x00, 0x00, 
  0x00, 0x00, 0x00, 0x00, 0x00, 0x00, 0x00, 0x00, 0x00, 0x00, 0x00, 0x00, 
  0x00, 0x00, 0x00, 0x00, 0x00, 0x00, 0x00, 0x00, 0x00, 0x00, 0x00, 0x00, 
  0x00, 0x00, 0x00, 0x00, 0x00, 0x00, 0x00, 0x00, 0x00, 0x00, 0x00, 0x00, 
  0x00, 0x00, 0x00, 0x00, 0x00, 0x00, 0x00, 0x00, 0x00, 0x00, 0x00, 0x00, 
  0x00, 0x00, 0x00, 0x00, 0x00, 0x00, 0x00, 0x00, 0x00, 0x00, 0x00, 0x00, 
  0x00, 0x00, 0x00, 0x00, 0x00, 0x00, 0x00, 0x00, 0x00, 0x00, 0x00, 0x00, 
  0x00, 0x00, 0x00, 0x00, 0x00, 0x00, 0x00, 0x00, 0x00, 0x00, 0x00, 0x00, 
  0x00, 0x00, 0x00, 0x00, 0x00, 0x00, 0x00, 0x00, 0x00, 0x00, 0x00, 0x00, 
  0x00, 0x00, 0x00, 0x00, 0x00, 0x00, 0x00, 0x00, 0x00, 0x00, 0x00, 0x00, 
  0x00, 0x00, 0x00, 0x00, 0x00, 0x00, 0x00, 0x00, 0x00, 0x00, 0x00, 0x00, 
  0x00, 0x00, 0x00, 0x00, 0x00, 0x00, 0x00, 0x00, 0x00, 0x00, 0x00, 0x00, 
  0x00, 0x00, 0x00, 0x00, 0x00, 0x00, 0x00, 0x00, 0x00, 0x00, 0x00, 0x00, 
  0x00, 0x00, 0x00, 0x00, 0x00, 0x00, 0x00, 0x00, 0x00, 0x00, 0x00, 0x00, 
  0x00, 0x00, 0x00, 0x00, 0x00, 0x00, 0x00, 0x00, 0x00, 0x00, 0x00, 0x00, 
  0x00, 0x00, 0x00, 0x00, 0x00, 0x00, 0x00, 0x00, 0x00, 0x00, 0x00, 0x00, 
  0x00, 0x00, 0x00, 0x00, 0x00, 0x00, 0x00, 0x00, 0x00, 0x00, 0x00, 0x00, 
  0x00, 0x00, 0x00, 0x00, 0x00, 0x00, 0x00, 0x00, 0x00, 0x00, 0x00, 0x00, 
  0x00, 0x00, 0x00, 0x00, 0x00, 0x00, 0x00, 0x00, 0x00, 0x00, 0x00, 0x00, 
  0x00, 0x00, 0x00, 0x00, 0x00, 0x00, 0x00, 0x00, 0x00, 0x00, 0x00, 0x00, 
  0x00, 0x00, 0x00, 0x00, 0x00, 0x00, 0x00, 0x00, 0x00, 0x00, 0x00, 0x00, 
  0x00, 0x00, 0x00, 0x00, 0x00, 0x00, 0x00, 0x00, 0x00, 0x00, 0x00, 0x00, 
  0x00, 0x00, 0x00, 0x00, 0x00, 0x00, 0x00, 0x00, 0x00, 0x00, 0x00, 0x00, 
  0x00, 0x00, 0x00, 0x00, 0x00, 0x00, 0x00, 0x00, 0x00, 0x00, 0x00, 0x00, 
  0x00, 0x00, 0x00, 0x00, 0x00, 0x00, 0x00, 0x00, 0x00, 0x00, 0x00, 0x00, 
  0x00, 0x00, 0x00, 0x00, 0x00, 0x00, 0x00, 0x00, 0x00, 0x00, 0x00, 0x00, 
  0x00, 0x00, 0x00, 0x00, 0x00, 0x00, 0x00, 0x00, 0x00, 0x00, 0x00, 0x00, 
  0x00, 0x00, 0x00, 0x00, 0x00, 0x00, 0x00, 0x00, 0x00, 0x00, 0x00, 0x00, 
  0x00, 0x00, 0x00, 0x00, 0x00, 0x00, 0x00, 0x00, 0x00, 0x00, 0x00, 0x00, 
  0x00, 0x00, 0x00, 0x00, 0x00, 0x00, 0x00, 0x00, 0x00, 0x00, 0x00, 0x00, 
  0x00, 0x00, 0x00, 0x00, 0x00, 0x00, 0x00, 0x00, 0x00, 0x00, 0x00, 0x00, 
  0x00, 0x00, 0x00, 0x00, 0x00, 0x00, 0x00, 0x00, 0x00, 0x00, 0x00, 0x00, 
  0x00, 0x00, 0x00, 0x00, 0x00, 0x00, 0x00, 0x00, 0x00, 0x00, 0x00, 0x00, 
  0x00, 0x00, 0x00, 0x00, 0x00, 0x00, 0x00, 0x00, 0x00, 0x00, 0x00, 0x00, 
  0x00, 0x00, 0x00, 0x00, 0x00, 0x00, 0x00, 0x00, 0x00, 0x00, 0x00, 0x00, 
  0x00, 0x00, 0x00, 0x00, 0x00, 0x00, 0x00, 0x00, 0x00, 0x00, 0x00, 0x00, 
  0x00, 0x00, 0x00, 0x00, 0x00, 0x00, 0x00, 0x00, 0x00, 0x00, 0x00, 0x00, 
  0x00, 0x00, 0x00, 0x00, 0x00, 0x00, 0x00, 0x00, 0x00, 0x00, 0x00, 0x00, 
  0x00, 0x00, 0x00, 0x00, 0x00, 0x00, 0x00, 0x00, 0x00, 0x00, 0x00, 0x00, 
  0x00, 0x00, 0x00, 0x00, 0x00, 0x00, 0x00, 0x00, 0x00, 0x00, 0x00, 0x00, 
  0x00, 0x00, 0x00, 0x00, 0x00, 0x00, 0x00, 0x00, 0x00, 0x00, 0x00, 0x00, 
  0x00, 0x00, 0x00, 0x00, 0x00, 0x00, 0x00, 0x00, 0x00, 0x00, 0x00, 0x00, 
  0x00, 0x00, 0x00, 0x00, 0x00, 0x00, 0x00, 0x00, 0x00, 0x00, 0x00, 0x00, 
  0x00, 0x00, 0x00, 0x00, 0x00, 0x00, 0x00, 0x00, 0x00, 0x00, 0x00, 0x00, 
  0x00, 0x00, 0x00, 0x00, 0x00, 0x00, 0x00, 0x00, 0x00, 0x00, 0x00, 0x00, 
  0x00, 0x00, 0x00, 0x00, 0x00, 0x00, 0x00, 0x00, 0x00, 0x00, 0x00, 0x00, 
  0x00, 0x00, 0x00, 0x00, 0x00, 0x00, 0x00, 0x00, 0x00, 0x00, 0x00, 0x00, 
  0x00, 0x00, 0x00, 0x00, 0x00, 0x00, 0x00, 0x00, 0x00, 0x00, 0x00, 0x00, 
  0x00, 0x00, 0x00, 0x00, 0x00, 0x00, 0x00, 0x00, 0x00, 0x00, 0x00, 0x00, 
  0x00, 0x00, 0x00, 0x00, 0x00, 0x00, 0x00, 0x00, 0x00, 0x00, 0x00, 0x00, 
  0x00, 0x00, 0x00, 0x00, 0x00, 0x00, 0x00, 0x00, 0x00, 0x00, 0x00, 0x00, 
  0x00, 0x00, 0x00, 0x00, 0x00, 0x00, 0x00, 0x00, 0x00, 0x00, 0x00, 0x00, 
  0x00, 0x00, 0x00, 0x00, 0x00, 0x00, 0x00, 0x00, 0x00, 0x00, 0x00, 0x00, 
  };
