#define tuan_1_44_width 128
#define tuan_1_44_height 96
static char tuan_1_44_bits[] = {
  0x00, 0x00, 0x00, 0x00, 0x00, 0x00, 0x00, 0x00, 0x00, 0x00, 0x00, 0x00, 
  0x00, 0x00, 0x00, 0x00, 0x00, 0x00, 0x00, 0x00, 0x00, 0x00, 0x02, 0x00, 
  0x00, 0x00, 0x00, 0x00, 0x00, 0x00, 0x00, 0x00, 0x00, 0x00, 0x00, 0x00, 
  0x00, 0x00, 0x06, 0x00, 0x00, 0x00, 0x00, 0x00, 0x00, 0x00, 0x00, 0x00, 
  0x00, 0x00, 0x00, 0x00, 0x00, 0x00, 0x07, 0x00, 0x00, 0x00, 0x00, 0x00, 
  0x00, 0x00, 0x00, 0x00, 0x00, 0x00, 0x00, 0x00, 0x00, 0x00, 0x1F, 0x00, 
  0x00, 0x0C, 0x00, 0x00, 0x00, 0x00, 0x00, 0x00, 0x00, 0x00, 0x00, 0x00, 
  0x00, 0x00, 0x3F, 0x00, 0x00, 0x0C, 0x00, 0x00, 0x00, 0x00, 0x00, 0x00, 
  0x00, 0x00, 0x00, 0x00, 0x00, 0x00, 0x7E, 0x00, 0x00, 0x3C, 0x60, 0x00, 
  0x00, 0x00, 0x00, 0x00, 0x00, 0x00, 0x00, 0x00, 0x00, 0x00, 0xFF, 0xE9, 
  0x9D, 0x3E, 0x7C, 0x00, 0x00, 0x00, 0x00, 0x00, 0x00, 0x00, 0x00, 0x00, 
  0x00, 0x00, 0xFF, 0x1F, 0xD0, 0xFF, 0x3C, 0x00, 0x00, 0x00, 0x00, 0x00, 
  0x00, 0x00, 0x00, 0x00, 0x00, 0xF0, 0xFE, 0x07, 0x00, 0xF0, 0x3F, 0x00, 
  0x00, 0x00, 0x00, 0x00, 0x00, 0x00, 0x00, 0x00, 0x00, 0x5C, 0xFC, 0xFF, 
  0x01, 0xC0, 0x7F, 0x00, 0x00, 0x00, 0x00, 0x00, 0x00, 0x00, 0x00, 0x80, 
  0x0B, 0x07, 0xFE, 0xFF, 0x0F, 0x00, 0xFE, 0x07, 0x00, 0x00, 0x00, 0x00, 
  0x00, 0x00, 0x00, 0x00, 0xFF, 0xFF, 0xFF, 0xFF, 0xFF, 0x01, 0xF0, 0x0F, 
  0x00, 0x00, 0x00, 0x00, 0x00, 0x00, 0x00, 0x00, 0xFF, 0xFF, 0xFF, 0xFF, 
  0xFF, 0x0F, 0xE0, 0x07, 0x00, 0x00, 0x00, 0x00, 0x00, 0x00, 0x00, 0x00, 
  0xFE, 0xFF, 0xFF, 0xFF, 0xFF, 0x3F, 0x80, 0x03, 0x00, 0x00, 0x00, 0x00, 
  0x00, 0x00, 0x00, 0x00, 0xFC, 0xFF, 0xFF, 0xFF, 0xFF, 0x7F, 0x00, 0x0F, 
  0x00, 0x00, 0x00, 0x00, 0x00, 0x00, 0x00, 0x00, 0xF6, 0x7F, 0xFF, 0xFF, 
  0xF7, 0xFF, 0x01, 0x1E, 0x00, 0x00, 0x00, 0x00, 0x00, 0x00, 0x00, 0x00, 
  0xC2, 0x83, 0xEF, 0x3F, 0xE7, 0xEF, 0x03, 0x3C, 0x00, 0x00, 0x00, 0x00, 
  0x00, 0x00, 0x00, 0x00, 0xE1, 0xC1, 0x20, 0x45, 0x10, 0xC6, 0x07, 0x7C, 
  0x00, 0x00, 0x00, 0x00, 0x00, 0x00, 0x00, 0x80, 0xB9, 0x04, 0x80, 0x00, 
  0x00, 0x90, 0x0C, 0xFC, 0x00, 0x00, 0x00, 0x00, 0x00, 0x00, 0x00, 0xC0, 
  0xF8, 0x01, 0x00, 0x00, 0x80, 0x01, 0x0C, 0xE8, 0x00, 0x00, 0x00, 0x00, 
  0x00, 0x00, 0x00, 0x40, 0xFE, 0x09, 0x0C, 0x08, 0xC2, 0x21, 0x00, 0xE0, 
  0x00, 0x00, 0x00, 0x00, 0x00, 0x00, 0x00, 0x20, 0xFF, 0x95, 0x17, 0x04, 
  0xE2, 0xA0, 0x12, 0xE0, 0x00, 0x00, 0x00, 0x00, 0x00, 0x00, 0x00, 0x30, 
  0xFF, 0xFB, 0x8B, 0xE3, 0xF3, 0x1D, 0x32, 0xE0, 0x01, 0x00, 0x00, 0x00, 
  0x00, 0x00, 0x00, 0x90, 0xFF, 0xFF, 0xEF, 0xFB, 0xFB, 0xBF, 0x3B, 0xE0, 
  0x01, 0x00, 0x00, 0x00, 0x00, 0x00, 0x00, 0x90, 0xFF, 0xFF, 0xFF, 0xFF, 
  0xFF, 0xFF, 0x3B, 0xE0, 0x03, 0x00, 0x00, 0x00, 0x00, 0x00, 0x00, 0x98, 
  0xFF, 0xFF, 0xFF, 0xFF, 0xFF, 0xFF, 0x7F, 0xE0, 0x03, 0x00, 0x00, 0x00, 
  0x00, 0x00, 0x00, 0xC8, 0xFF, 0xFF, 0xFF, 0xFF, 0xFF, 0xFF, 0x7F, 0xE0, 
  0x03, 0x00, 0x00, 0x00, 0x00, 0x00, 0x00, 0xC4, 0xFF, 0xFF, 0xFF, 0xFF, 
  0xFF, 0xFF, 0x7F, 0xC0, 0x03, 0x00, 0x00, 0x00, 0x00, 0x00, 0x00, 0xFC, 
  0xFF, 0xFF, 0xFF, 0xFF, 0xFF, 0xFF, 0x7F, 0xC0, 0x01, 0x00, 0x00, 0x00, 
  0x00, 0x00, 0x00, 0xFC, 0xFF, 0xFF, 0xFF, 0xFF, 0xFF, 0xFF, 0x7F, 0x80, 
  0x03, 0x00, 0x00, 0x00, 0x00, 0x00, 0x00, 0xFC, 0xFF, 0xFF, 0xFF, 0xFF, 
  0xFF, 0xBF, 0xFF, 0xC0, 0x03, 0x00, 0x00, 0x00, 0x00, 0x00, 0x00, 0xFE, 
  0xFF, 0xFF, 0xFF, 0xFF, 0xFB, 0x87, 0x7F, 0xC0, 0x01, 0x00, 0x00, 0x00, 
  0x00, 0x00, 0x00, 0xED, 0xFF, 0xFF, 0xFF, 0xFF, 0x7B, 0xC1, 0x7F, 0xC0, 
  0x03, 0x00, 0x00, 0x00, 0x00, 0x00, 0x00, 0xFC, 0xFF, 0xF7, 0xFF, 0x7F, 
  0x14, 0xC0, 0x7F, 0x00, 0x0C, 0x00, 0x00, 0x00, 0x00, 0x00, 0x00, 0xE6, 
  0xFF, 0xF9, 0x3F, 0x1F, 0x00, 0xC0, 0x7E, 0x00, 0x10, 0x00, 0x00, 0x00, 
  0x00, 0x00, 0x00, 0xE3, 0x1F, 0xFE, 0x81, 0x07, 0x37, 0x40, 0x1F, 0x02, 
  0x60, 0x00, 0x00, 0x00, 0x00, 0x00, 0x80, 0xC1, 0xFF, 0x57, 0xE0, 0xC0, 
  0x7F, 0x60, 0x0E, 0x00, 0xC0, 0x00, 0x00, 0x00, 0x00, 0x00, 0x80, 0x70, 
  0xFC, 0x0F, 0x00, 0xFC, 0xFF, 0x00, 0x0E, 0x00, 0x80, 0x00, 0x00, 0x00, 
  0x00, 0x00, 0x80, 0x10, 0x64, 0x3A, 0x08, 0x16, 0x00, 0xC0, 0x0F, 0x10, 
  0x00, 0x01, 0x00, 0x00, 0x00, 0x00, 0xC0, 0x00, 0xFB, 0x2B, 0x04, 0x70, 
  0x76, 0xFD, 0x07, 0x30, 0x00, 0x01, 0x00, 0x00, 0x00, 0x00, 0x80, 0x80, 
  0x0F, 0xD4, 0xFF, 0x0F, 0x80, 0x7F, 0x07, 0x10, 0x00, 0x01, 0x00, 0x00, 
  0x00, 0x00, 0x80, 0x80, 0x87, 0x8B, 0xEF, 0x83, 0x03, 0x1E, 0x06, 0xB0, 
  0x03, 0x01, 0x00, 0x00, 0x00, 0x00, 0x80, 0x90, 0xEF, 0x9E, 0x07, 0xF1, 
  0x3E, 0x07, 0x03, 0x70, 0x02, 0x00, 0x00, 0x00, 0x00, 0x00, 0x80, 0x11, 
  0x03, 0x90, 0x01, 0x13, 0x00, 0x03, 0x03, 0x30, 0x06, 0x01, 0x00, 0x00, 
  0x00, 0x00, 0x00, 0x00, 0x1B, 0xE2, 0x81, 0x07, 0x80, 0x01, 0x07, 0x60, 
  0x03, 0x01, 0x00, 0x00, 0x00, 0x00, 0x80, 0x01, 0xDA, 0xFF, 0x00, 0xDD, 
  0x7F, 0x20, 0x00, 0x60, 0x00, 0x01, 0x00, 0x00, 0x00, 0x00, 0x00, 0x11, 
  0x00, 0x00, 0x00, 0x80, 0x00, 0x80, 0x00, 0x00, 0x80, 0x01, 0x00, 0x00, 
  0x00, 0x00, 0x00, 0x21, 0x10, 0x10, 0x01, 0x00, 0x00, 0x00, 0x02, 0x00, 
  0x80, 0x00, 0x00, 0x00, 0x00, 0x00, 0x00, 0x42, 0x00, 0x00, 0x00, 0x04, 
  0x00, 0x00, 0x0C, 0x00, 0xC0, 0x00, 0x00, 0x00, 0x00, 0x00, 0x00, 0x00, 
  0x00, 0x00, 0x00, 0x02, 0x00, 0x40, 0x0E, 0x00, 0x20, 0x00, 0x00, 0x00, 
  0x00, 0x00, 0x00, 0x1C, 0x34, 0x01, 0xA4, 0x00, 0x00, 0x08, 0x1F, 0x00, 
  0x30, 0x00, 0x00, 0x00, 0x01, 0x00, 0x00, 0xE0, 0x1F, 0x00, 0x28, 0x02, 
  0x00, 0x80, 0x3F, 0x00, 0x0C, 0x00, 0x00, 0x00, 0x00, 0x00, 0x00, 0x00, 
  0x10, 0x01, 0x00, 0x00, 0x00, 0x10, 0xFF, 0x40, 0x05, 0x00, 0x00, 0x00, 
  0x00, 0x00, 0x00, 0x00, 0x20, 0x20, 0x80, 0x44, 0x01, 0xD8, 0xFF, 0xFF, 
  0x00, 0x00, 0x00, 0x00, 0x00, 0x00, 0x00, 0x00, 0x60, 0x00, 0x0A, 0x00, 
  0x00, 0xC0, 0xFF, 0x78, 0x00, 0x00, 0x00, 0x00, 0x00, 0x00, 0x00, 0x00, 
  0x80, 0x00, 0x00, 0x00, 0x00, 0xCA, 0x7F, 0x7C, 0x00, 0x00, 0x00, 0x00, 
  0x00, 0x00, 0x00, 0x00, 0x00, 0x83, 0x40, 0x08, 0x20, 0xC5, 0x6B, 0x38, 
  0x00, 0x00, 0x00, 0x00, 0x00, 0x00, 0x00, 0x00, 0x00, 0x0C, 0x42, 0x00, 
  0x80, 0xC0, 0x3F, 0x3C, 0x00, 0x00, 0x00, 0x00, 0x00, 0x00, 0x00, 0x00, 
  0x00, 0x60, 0x00, 0x20, 0xAA, 0xC0, 0x27, 0x1C, 0x00, 0x00, 0x00, 0x00, 
  0x00, 0x00, 0x00, 0x00, 0x00, 0xE0, 0x02, 0x00, 0x03, 0x80, 0x3E, 0x1C, 
  0x00, 0x00, 0x00, 0x00, 0x01, 0x04, 0x00, 0x00, 0x00, 0x20, 0x0F, 0xA0, 
  0x00, 0xA0, 0x2F, 0x1C, 0x00, 0x00, 0x00, 0x00, 0x00, 0x00, 0x00, 0x00, 
  0x00, 0x90, 0x7F, 0x24, 0x02, 0xD8, 0x7F, 0x0E, 0x00, 0x00, 0x00, 0x00, 
  0x80, 0x00, 0x00, 0x00, 0x00, 0x50, 0xFF, 0x07, 0x40, 0xC9, 0x57, 0x0E, 
  0x00, 0x00, 0x00, 0x00, 0x00, 0x20, 0x00, 0x00, 0x00, 0x10, 0xFF, 0x07, 
  0x24, 0xFA, 0xD3, 0x0F, 0x00, 0x00, 0x00, 0x00, 0x00, 0x00, 0x00, 0x00, 
  0x00, 0xF0, 0xFF, 0x7F, 0x99, 0xFE, 0xC7, 0x05, 0x00, 0x00, 0x00, 0x00, 
  0x00, 0x00, 0x00, 0x00, 0x00, 0xD0, 0xFF, 0x57, 0xF9, 0xFF, 0xD7, 0x07, 
  0x00, 0x00, 0x00, 0x00, 0x08, 0x00, 0x00, 0x00, 0x00, 0x98, 0xFF, 0x33, 
  0xFC, 0xFF, 0xC7, 0x07, 0x00, 0x00, 0x00, 0x00, 0x21, 0x00, 0x00, 0x00, 
  0x00, 0xB0, 0xFF, 0x9F, 0xFD, 0xFF, 0xAB, 0x07, 0x00, 0x00, 0x00, 0x00, 
  0x00, 0x00, 0x00, 0x00, 0x00, 0xDE, 0x7F, 0x49, 0xFF, 0xFF, 0x85, 0x0E, 
  0x00, 0x00, 0x00, 0x00, 0x01, 0x04, 0x00, 0x00, 0xF0, 0xF1, 0x7F, 0xCF, 
  0xFF, 0xFF, 0x5B, 0x74, 0x00, 0x00, 0x00, 0x00, 0x00, 0x00, 0x00, 0x80, 
  0x1F, 0xEA, 0xFF, 0x15, 0xFD, 0xFF, 0xE7, 0xC0, 0x03, 0x00, 0x00, 0x00, 
  0x00, 0x10, 0x00, 0xF8, 0x48, 0xDA, 0xFF, 0x13, 0xCA, 0xFF, 0x2B, 0x18, 
  0x3C, 0x00, 0x00, 0x00, 0x00, 0x00, 0x00, 0x1E, 0xBA, 0xF5, 0xFF, 0x6B, 
  0xF0, 0xFF, 0x67, 0x43, 0xC0, 0x01, 0x00, 0x00, 0x08, 0x00, 0x00, 0xE0, 
  0xD7, 0xDF, 0xFF, 0x83, 0xE1, 0xFF, 0x55, 0x55, 0x20, 0x02, 0x00, 0x00, 
  0x40, 0x00, 0x00, 0xFE, 0xFF, 0xFF, 0xFF, 0xEF, 0xFD, 0xFF, 0xFF, 0xBF, 
  0xAF, 0x00, 0x00, 0x00, 0x04, 0x04, 0x00, 0xFE, 0xFF, 0xFF, 0xFF, 0xD3, 
  0xFE, 0xFF, 0xFD, 0xFF, 0x5F, 0x01, 0x00, 0x00, 0x00, 0x00, 0x00, 0xF8, 
  0xFF, 0xFF, 0xFF, 0x47, 0xFF, 0xFF, 0xFF, 0xFF, 0x37, 0x00, 0x00, 0x00, 
  0x80, 0x20, 0x00, 0xFC, 0xFF, 0xFF, 0xFF, 0xEF, 0xFA, 0xFF, 0xFF, 0xDF, 
  0xAF, 0x00, 0x00, 0x00, 0x00, 0x00, 0x00, 0xF8, 0xFF, 0xFF, 0xFF, 0x57, 
  0xF8, 0xFF, 0xEF, 0xFF, 0x05, 0x00, 0x00, 0x00, 0x80, 0x00, 0x00, 0xB0, 
  0xFF, 0xFF, 0xFF, 0x4F, 0xFA, 0xFF, 0xFF, 0x6F, 0x0F, 0x00, 0x00, 0x00, 
  0x01, 0x04, 0x01, 0x80, 0xFF, 0xFF, 0xFF, 0x57, 0xFC, 0xFF, 0xFF, 0xFF, 
  0x01, 0x00, 0x00, 0x00, 0x00, 0x10, 0x00, 0x00, 0xFE, 0xFF, 0xFF, 0x9F, 
  0xFE, 0xFF, 0xFF, 0xFF, 0x00, 0x00, 0x00, 0x00, 0x42, 0x00, 0x00, 0x00, 
  0xDA, 0xFF, 0xFF, 0x4F, 0xD9, 0xFF, 0xFF, 0x07, 0x00, 0x00, 0x00, 0x00, 
  0x04, 0x02, 0x00, 0x00, 0xE8, 0xFF, 0xFF, 0x8F, 0xEE, 0xFF, 0xFF, 0x1E, 
  0x00, 0x00, 0x00, 0x00, 0x00, 0x00, 0x00, 0x00, 0x68, 0xFF, 0xFF, 0x97, 
  0xF0, 0xFF, 0xFF, 0x0B, 0x00, 0x00, 0x00, 0x00, 0x40, 0x20, 0x00, 0x00, 
  0xE0, 0xFF, 0xFF, 0xDF, 0xD8, 0xFF, 0x7F, 0x06, 0x00, 0x00, 0x00, 0x00, 
  0x01, 0x00, 0x04, 0x00, 0xA0, 0xFE, 0xFF, 0x4F, 0xE9, 0xFF, 0xFF, 0x01, 
  0x00, 0x00, 0x00, 0x00, 0x22, 0x04, 0x00, 0x00, 0x00, 0xD6, 0xFF, 0x17, 
  0xE8, 0xFF, 0xBF, 0x02, 0x00, 0x00, 0x00, 0x00, 0x00, 0x00, 0x00, 0x00, 
  0x00, 0xF4, 0xFF, 0xDF, 0xF2, 0xFF, 0x3F, 0x00, 0x00, 0x00, 0x00, 0x00, 
  0x00, 0x01, 0x02, 0x00, 0x00, 0xFC, 0xFF, 0x8F, 0xF5, 0xFF, 0x17, 0x00, 
  0x00, 0x00, 0x00, 0x00, 0x84, 0x40, 0x40, 0x00, 0x00, 0x80, 0xFF, 0x7F, 
  0xE8, 0xFD, 0x07, 0x00, 0x00, 0x00, 0x00, 0x00, 0x01, 0x80, 0x00, 0x00, 
  0x00, 0xC0, 0xFF, 0x1F, 0xF5, 0xFF, 0x02, 0x00, 0x00, 0x00, 0x00, 0x00, 
  0x24, 0x02, 0x12, 0x00, 0x00, 0x00, 0xB6, 0xDF, 0xC1, 0xFF, 0x00, 0x00, 
  0x00, 0x00, 0x00, 0x00, 0x01, 0x00, 0x00, 0x00, 0x00, 0x00, 0xEA, 0x97, 
  0xF9, 0x0F, 0x00, 0x00, 0x00, 0x00, 0x00, 0x00, 0x80, 0x10, 0x00, 0x08, 
  0x00, 0x00, 0xA2, 0x46, 0x84, 0x00, 0x00, 0x00, 0x00, 0x00, 0x00, 0x00, 
  };
