  0
SECTION
  2
HEADER
  9
$ACADVER
  1
AC1009
  9
$MEASUREMENT
 70
     1
  0
ENDSEC
  0
SECTION
  2
ENTITIES
  0
LWPOLYLINE
  8
0
 62
7
 90
9
 70
1
 10
7.620000
 20
6.016563
 10
8.118438
 20
6.016563
 10
8.118438
 20
7.113438
 10
7.121563
 20
7.113438
 10
7.121563
 20
6.016563
 10
8.118438
 20
6.016563
 10
8.118438
 20
7.113438
 10
7.121563
 20
7.113438
 10
7.121563
 20
6.016563
  0
LWPOLYLINE
  8
0
 62
7
 90
9
 70
1
 10
7.620000
 20
4.316562
 10
8.118438
 20
4.316562
 10
8.118438
 20
5.413438
 10
7.121563
 20
5.413438
 10
7.121563
 20
4.316562
 10
8.118438
 20
4.316562
 10
8.118438
 20
5.413438
 10
7.121563
 20
5.413438
 10
7.121563
 20
4.316562
  0
LWPOLYLINE
  8
0
 62
7
 90
9
 70
1
 10
3.810000
 20
14.938438
 10
3.311562
 20
14.938438
 10
3.311562
 20
13.841563
 10
4.308438
 20
13.841563
 10
4.308438
 20
14.938438
 10
3.311562
 20
14.938438
 10
3.311562
 20
13.841563
 10
4.308438
 20
13.841563
 10
4.308438
 20
14.938438
  0
LWPOLYLINE
  8
0
 62
7
 90
9
 70
1
 10
3.810000
 20
16.638437
 10
3.311562
 20
16.638437
 10
3.311562
 20
15.541562
 10
4.308438
 20
15.541562
 10
4.308438
 20
16.638437
 10
3.311562
 20
16.638437
 10
3.311562
 20
15.541562
 10
4.308438
 20
15.541562
 10
4.308438
 20
16.638437
  0
LWPOLYLINE
  8
0
 62
7
 90
9
 70
1
 10
18.716563
 20
16.510000
 10
18.716563
 20
16.011563
 10
19.813437
 20
16.011563
 10
19.813437
 20
17.008438
 10
18.716563
 20
17.008438
 10
18.716563
 20
16.011563
 10
19.813437
 20
16.011563
 10
19.813437
 20
17.008438
 10
18.716563
 20
17.008438
  0
LWPOLYLINE
  8
0
 62
7
 90
9
 70
1
 10
17.016563
 20
16.510000
 10
17.016563
 20
16.011563
 10
18.113437
 20
16.011563
 10
18.113437
 20
17.008438
 10
17.016563
 20
17.008438
 10
17.016563
 20
16.011563
 10
18.113437
 20
16.011563
 10
18.113437
 20
17.008438
 10
17.016563
 20
17.008438
  0
LWPOLYLINE
  8
0
 62
7
 90
9
 70
1
 10
15.541562
 20
14.605000
 10
15.541562
 20
14.106563
 10
16.638437
 20
14.106563
 10
16.638437
 20
15.103438
 10
15.541562
 20
15.103438
 10
15.541562
 20
14.106563
 10
16.638437
 20
14.106563
 10
16.638437
 20
15.103438
 10
15.541562
 20
15.103438
  0
LWPOLYLINE
  8
0
 62
7
 90
9
 70
1
 10
13.841563
 20
14.605000
 10
13.841563
 20
14.106563
 10
14.938438
 20
14.106563
 10
14.938438
 20
15.103438
 10
13.841563
 20
15.103438
 10
13.841563
 20
14.106563
 10
14.938438
 20
14.106563
 10
14.938438
 20
15.103438
 10
13.841563
 20
15.103438
  0
LWPOLYLINE
  8
0
 62
7
 90
9
 70
1
 10
21.590000
 20
16.811563
 10
22.088438
 20
16.811563
 10
22.088438
 20
17.908437
 10
21.091562
 20
17.908437
 10
21.091562
 20
16.811563
 10
22.088438
 20
16.811563
 10
22.088438
 20
17.908437
 10
21.091562
 20
17.908437
 10
21.091562
 20
16.811563
  0
LWPOLYLINE
  8
0
 62
7
 90
9
 70
1
 10
21.590000
 20
15.111562
 10
22.088438
 20
15.111562
 10
22.088438
 20
16.208437
 10
21.091562
 20
16.208437
 10
21.091562
 20
15.111562
 10
22.088438
 20
15.111562
 10
22.088438
 20
16.208437
 10
21.091562
 20
16.208437
 10
21.091562
 20
15.111562
  0
LWPOLYLINE
  8
0
 62
7
 90
9
 70
1
 10
5.253437
 20
5.715000
 10
5.253437
 20
5.888438
 10
3.856562
 20
5.888438
 10
3.856562
 20
5.541562
 10
5.253437
 20
5.541562
 10
5.253437
 20
5.888438
 10
3.856562
 20
5.888438
 10
3.856562
 20
5.541562
 10
5.253437
 20
5.541562
  0
LWPOLYLINE
  8
0
 62
7
 90
9
 70
1
 10
5.253437
 20
6.365000
 10
5.253437
 20
6.538438
 10
3.856562
 20
6.538438
 10
3.856562
 20
6.191562
 10
5.253437
 20
6.191562
 10
5.253437
 20
6.538438
 10
3.856562
 20
6.538438
 10
3.856562
 20
6.191562
 10
5.253437
 20
6.191562
  0
LWPOLYLINE
  8
0
 62
7
 90
9
 70
1
 10
5.253437
 20
4.415000
 10
5.253437
 20
4.588438
 10
3.856562
 20
4.588438
 10
3.856562
 20
4.241562
 10
5.253437
 20
4.241562
 10
5.253437
 20
4.588438
 10
3.856562
 20
4.588438
 10
3.856562
 20
4.241562
 10
5.253437
 20
4.241562
  0
LWPOLYLINE
  8
0
 62
7
 90
9
 70
1
 10
5.253437
 20
5.065000
 10
5.253437
 20
5.238438
 10
3.856562
 20
5.238438
 10
3.856562
 20
4.891563
 10
5.253437
 20
4.891563
 10
5.253437
 20
5.238438
 10
3.856562
 20
5.238438
 10
3.856562
 20
4.891563
 10
5.253437
 20
4.891563
  0
LWPOLYLINE
  8
0
 62
7
 90
9
 70
1
 10
1.905000
 20
8.816562
 10
2.853437
 20
8.816562
 10
2.853438
 20
10.613437
 10
0.956563
 20
10.613437
 10
0.956562
 20
8.816562
 10
2.853437
 20
8.816562
 10
2.853438
 20
10.613437
 10
0.956563
 20
10.613437
 10
0.956562
 20
8.816562
  0
LWPOLYLINE
  8
0
 62
7
 90
9
 70
1
 10
1.905000
 20
0.816563
 10
2.853437
 20
0.816562
 10
2.853438
 20
2.613437
 10
0.956563
 20
2.613437
 10
0.956562
 20
0.816563
 10
2.853437
 20
0.816562
 10
2.853438
 20
2.613437
 10
0.956563
 20
2.613437
 10
0.956562
 20
0.816563
  0
LWPOLYLINE
  8
0
 62
7
 90
9
 70
1
 10
1.905000
 20
6.036563
 10
2.853437
 20
6.036563
 10
2.853438
 20
7.933438
 10
0.956563
 20
7.933438
 10
0.956562
 20
6.036563
 10
2.853437
 20
6.036563
 10
2.853438
 20
7.933438
 10
0.956563
 20
7.933438
 10
0.956562
 20
6.036563
  0
LWPOLYLINE
  8
0
 62
7
 90
9
 70
1
 10
1.905000
 20
3.496563
 10
2.853437
 20
3.496563
 10
2.853438
 20
5.393438
 10
0.956563
 20
5.393438
 10
0.956562
 20
3.496563
 10
2.853437
 20
3.496563
 10
2.853438
 20
5.393438
 10
0.956563
 20
5.393438
 10
0.956562
 20
3.496563
  0
LWPOLYLINE
  8
0
 62
7
 90
9
 70
1
 10
5.253437
 20
7.015000
 10
5.253437
 20
7.188438
 10
3.856562
 20
7.188438
 10
3.856562
 20
6.841562
 10
5.253437
 20
6.841562
 10
5.253437
 20
7.188438
 10
3.856562
 20
7.188438
 10
3.856562
 20
6.841562
 10
5.253437
 20
6.841562
  0
LWPOLYLINE
  8
0
 62
7
 90
9
 70
1
 10
18.113437
 20
12.065000
 10
18.113437
 20
12.563437
 10
17.016563
 20
12.563437
 10
17.016563
 20
11.566562
 10
18.113437
 20
11.566562
 10
18.113437
 20
12.563437
 10
17.016563
 20
12.563437
 10
17.016563
 20
11.566562
 10
18.113437
 20
11.566562
  0
LWPOLYLINE
  8
0
 62
7
 90
9
 70
1
 10
19.813437
 20
12.065000
 10
19.813437
 20
12.563437
 10
18.716563
 20
12.563437
 10
18.716563
 20
11.566562
 10
19.813437
 20
11.566562
 10
19.813437
 20
12.563437
 10
18.716563
 20
12.563437
 10
18.716563
 20
11.566562
 10
19.813437
 20
11.566562
  0
LWPOLYLINE
  8
0
 62
7
 90
9
 70
1
 10
13.220000
 20
0.871563
 10
13.618438
 20
0.871562
 10
13.618438
 20
1.668438
 10
12.821563
 20
1.668438
 10
12.821563
 20
0.871563
 10
13.618438
 20
0.871562
 10
13.618438
 20
1.668438
 10
12.821563
 20
1.668438
 10
12.821563
 20
0.871563
  0
LWPOLYLINE
  8
0
 62
7
 90
9
 70
1
 10
14.720000
 20
0.871563
 10
15.118438
 20
0.871562
 10
15.118438
 20
1.668438
 10
14.321563
 20
1.668438
 10
14.321563
 20
0.871563
 10
15.118438
 20
0.871562
 10
15.118438
 20
1.668438
 10
14.321563
 20
1.668438
 10
14.321563
 20
0.871563
  0
LWPOLYLINE
  8
0
 62
7
 90
9
 70
1
 10
13.220000
 20
3.411563
 10
13.618438
 20
3.411563
 10
13.618438
 20
4.208438
 10
12.821563
 20
4.208438
 10
12.821563
 20
3.411563
 10
13.618438
 20
3.411563
 10
13.618438
 20
4.208438
 10
12.821563
 20
4.208438
 10
12.821563
 20
3.411563
  0
LWPOLYLINE
  8
0
 62
7
 90
9
 70
1
 10
14.720000
 20
3.411563
 10
15.118438
 20
3.411563
 10
15.118438
 20
4.208438
 10
14.321563
 20
4.208438
 10
14.321563
 20
3.411563
 10
15.118438
 20
3.411563
 10
15.118438
 20
4.208438
 10
14.321563
 20
4.208438
 10
14.321563
 20
3.411563
  0
LWPOLYLINE
  8
0
 62
7
 90
9
 70
1
 10
13.220000
 20
5.951562
 10
13.618438
 20
5.951562
 10
13.618438
 20
6.748437
 10
12.821563
 20
6.748437
 10
12.821563
 20
5.951562
 10
13.618438
 20
5.951562
 10
13.618438
 20
6.748437
 10
12.821563
 20
6.748437
 10
12.821563
 20
5.951562
  0
LWPOLYLINE
  8
0
 62
7
 90
9
 70
1
 10
14.720000
 20
5.951562
 10
15.118438
 20
5.951562
 10
15.118438
 20
6.748437
 10
14.321563
 20
6.748437
 10
14.321563
 20
5.951562
 10
15.118438
 20
5.951562
 10
15.118438
 20
6.748437
 10
14.321563
 20
6.748437
 10
14.321563
 20
5.951562
  0
LWPOLYLINE
  8
0
 62
7
 90
9
 70
1
 10
12.700000
 20
9.191562
 10
13.198437
 20
9.191562
 10
13.198437
 20
10.288438
 10
12.201562
 20
10.288438
 10
12.201562
 20
9.191562
 10
13.198437
 20
9.191562
 10
13.198437
 20
10.288438
 10
12.201562
 20
10.288438
 10
12.201562
 20
9.191562
  0
LWPOLYLINE
  8
0
 62
7
 90
9
 70
1
 10
12.700000
 20
7.491562
 10
13.198437
 20
7.491562
 10
13.198437
 20
8.588437
 10
12.201562
 20
8.588437
 10
12.201562
 20
7.491562
 10
13.198437
 20
7.491562
 10
13.198437
 20
8.588437
 10
12.201562
 20
8.588437
 10
12.201562
 20
7.491562
  0
LWPOLYLINE
  8
0
 62
7
 90
9
 70
1
 10
18.113437
 20
14.605000
 10
18.113437
 20
15.103438
 10
17.016563
 20
15.103438
 10
17.016563
 20
14.106563
 10
18.113437
 20
14.106563
 10
18.113437
 20
15.103438
 10
17.016563
 20
15.103438
 10
17.016563
 20
14.106563
 10
18.113437
 20
14.106563
  0
LWPOLYLINE
  8
0
 62
7
 90
9
 70
1
 10
19.813437
 20
14.605000
 10
19.813437
 20
15.103438
 10
18.716563
 20
15.103438
 10
18.716563
 20
14.106563
 10
19.813437
 20
14.106563
 10
19.813437
 20
15.103438
 10
18.716563
 20
15.103438
 10
18.716563
 20
14.106563
 10
19.813437
 20
14.106563
  0
LWPOLYLINE
  8
0
 62
7
 90
9
 70
1
 10
15.541562
 20
16.510000
 10
15.541562
 20
16.011563
 10
16.638437
 20
16.011563
 10
16.638437
 20
17.008438
 10
15.541562
 20
17.008438
 10
15.541562
 20
16.011563
 10
16.638437
 20
16.011563
 10
16.638437
 20
17.008438
 10
15.541562
 20
17.008438
  0
LWPOLYLINE
  8
0
 62
7
 90
9
 70
1
 10
13.841563
 20
16.510000
 10
13.841563
 20
16.011563
 10
14.938438
 20
16.011563
 10
14.938438
 20
17.008438
 10
13.841563
 20
17.008438
 10
13.841563
 20
16.011563
 10
14.938438
 20
16.011563
 10
14.938438
 20
17.008438
 10
13.841563
 20
17.008438
  0
LWPOLYLINE
  8
0
 62
7
 90
9
 70
1
 10
10.461562
 20
1.270000
 10
10.461562
 20
0.771563
 10
11.558438
 20
0.771563
 10
11.558438
 20
1.768438
 10
10.461562
 20
1.768438
 10
10.461562
 20
0.771563
 10
11.558438
 20
0.771563
 10
11.558438
 20
1.768438
 10
10.461562
 20
1.768438
  0
LWPOLYLINE
  8
0
 62
7
 90
9
 70
1
 10
8.761563
 20
1.270000
 10
8.761563
 20
0.771563
 10
9.858438
 20
0.771563
 10
9.858438
 20
1.768438
 10
8.761563
 20
1.768438
 10
8.761563
 20
0.771563
 10
9.858438
 20
0.771563
 10
9.858438
 20
1.768438
 10
8.761563
 20
1.768438
  0
LWPOLYLINE
  8
0
 62
7
 90
9
 70
1
 10
10.461562
 20
3.810000
 10
10.461562
 20
3.311562
 10
11.558438
 20
3.311562
 10
11.558438
 20
4.308438
 10
10.461562
 20
4.308438
 10
10.461562
 20
3.311562
 10
11.558438
 20
3.311562
 10
11.558438
 20
4.308438
 10
10.461562
 20
4.308438
  0
LWPOLYLINE
  8
0
 62
7
 90
9
 70
1
 10
8.761563
 20
3.810000
 10
8.761563
 20
3.311562
 10
9.858438
 20
3.311562
 10
9.858438
 20
4.308438
 10
8.761563
 20
4.308438
 10
8.761563
 20
3.311562
 10
9.858438
 20
3.311562
 10
9.858438
 20
4.308438
 10
8.761563
 20
4.308438
  0
LWPOLYLINE
  8
0
 62
7
 90
9
 70
1
 10
10.461562
 20
6.350000
 10
10.461562
 20
5.851562
 10
11.558438
 20
5.851562
 10
11.558438
 20
6.848437
 10
10.461562
 20
6.848437
 10
10.461562
 20
5.851562
 10
11.558438
 20
5.851562
 10
11.558438
 20
6.848437
 10
10.461562
 20
6.848437
  0
LWPOLYLINE
  8
0
 62
7
 90
9
 70
1
 10
8.761563
 20
6.350000
 10
8.761563
 20
5.851562
 10
9.858438
 20
5.851562
 10
9.858438
 20
6.848437
 10
8.761563
 20
6.848437
 10
8.761563
 20
5.851562
 10
9.858438
 20
5.851562
 10
9.858438
 20
6.848437
 10
8.761563
 20
6.848437
  0
LWPOLYLINE
  8
0
 62
7
 90
9
 70
1
 10
8.620000
 20
14.741563
 10
8.743437
 20
14.741563
 10
8.743437
 20
15.738437
 10
8.496562
 20
15.738437
 10
8.496562
 20
14.741563
 10
8.743437
 20
14.741563
 10
8.743437
 20
15.738437
 10
8.496562
 20
15.738437
 10
8.496562
 20
14.741563
  0
LWPOLYLINE
  8
0
 62
7
 90
9
 70
1
 10
8.118438
 20
14.790000
 10
8.118438
 20
14.913437
 10
7.121563
 20
14.913437
 10
7.121563
 20
14.666562
 10
8.118438
 20
14.666562
 10
8.118438
 20
14.913437
 10
7.121563
 20
14.913437
 10
7.121563
 20
14.666562
 10
8.118438
 20
14.666562
  0
LWPOLYLINE
  8
0
 62
7
 90
9
 70
1
 10
8.118438
 20
14.290000
 10
8.118438
 20
14.413437
 10
7.121563
 20
14.413437
 10
7.121563
 20
14.166562
 10
8.118438
 20
14.166562
 10
8.118438
 20
14.413437
 10
7.121563
 20
14.413437
 10
7.121563
 20
14.166562
 10
8.118438
 20
14.166562
  0
LWPOLYLINE
  8
0
 62
7
 90
9
 70
1
 10
8.118438
 20
13.790000
 10
8.118438
 20
13.913437
 10
7.121563
 20
13.913437
 10
7.121563
 20
13.666562
 10
8.118438
 20
13.666562
 10
8.118438
 20
13.913437
 10
7.121563
 20
13.913437
 10
7.121563
 20
13.666562
 10
8.118438
 20
13.666562
  0
LWPOLYLINE
  8
0
 62
7
 90
9
 70
1
 10
8.118438
 20
13.290000
 10
8.118438
 20
13.413437
 10
7.121563
 20
13.413437
 10
7.121563
 20
13.166562
 10
8.118438
 20
13.166562
 10
8.118438
 20
13.413437
 10
7.121563
 20
13.413437
 10
7.121563
 20
13.166562
 10
8.118438
 20
13.166562
  0
LWPOLYLINE
  8
0
 62
7
 90
9
 70
1
 10
8.118438
 20
12.790000
 10
8.118438
 20
12.913437
 10
7.121563
 20
12.913437
 10
7.121563
 20
12.666562
 10
8.118438
 20
12.666562
 10
8.118438
 20
12.913437
 10
7.121563
 20
12.913437
 10
7.121563
 20
12.666562
 10
8.118438
 20
12.666562
  0
LWPOLYLINE
  8
0
 62
7
 90
9
 70
1
 10
8.118438
 20
12.290000
 10
8.118438
 20
12.413437
 10
7.121563
 20
12.413437
 10
7.121563
 20
12.166562
 10
8.118438
 20
12.166562
 10
8.118438
 20
12.413437
 10
7.121563
 20
12.413437
 10
7.121563
 20
12.166562
 10
8.118438
 20
12.166562
  0
LWPOLYLINE
  8
0
 62
7
 90
9
 70
1
 10
8.118438
 20
11.790000
 10
8.118438
 20
11.913437
 10
7.121563
 20
11.913437
 10
7.121563
 20
11.666562
 10
8.118438
 20
11.666562
 10
8.118438
 20
11.913437
 10
7.121563
 20
11.913437
 10
7.121563
 20
11.666562
 10
8.118438
 20
11.666562
  0
LWPOLYLINE
  8
0
 62
7
 90
9
 70
1
 10
8.118438
 20
11.290000
 10
8.118438
 20
11.413437
 10
7.121563
 20
11.413437
 10
7.121563
 20
11.166562
 10
8.118438
 20
11.166562
 10
8.118438
 20
11.413437
 10
7.121563
 20
11.413437
 10
7.121563
 20
11.166562
 10
8.118438
 20
11.166562
  0
LWPOLYLINE
  8
0
 62
7
 90
9
 70
1
 10
8.620000
 20
10.241563
 10
8.743437
 20
10.241563
 10
8.743437
 20
11.238437
 10
8.496562
 20
11.238437
 10
8.496562
 20
10.241563
 10
8.743437
 20
10.241563
 10
8.743437
 20
11.238437
 10
8.496562
 20
11.238437
 10
8.496562
 20
10.241563
  0
LWPOLYLINE
  8
0
 62
7
 90
9
 70
1
 10
10.120000
 20
10.241563
 10
10.243437
 20
10.241563
 10
10.243437
 20
11.238437
 10
9.996562
 20
11.238437
 10
9.996562
 20
10.241563
 10
10.243437
 20
10.241563
 10
10.243437
 20
11.238437
 10
9.996562
 20
11.238437
 10
9.996562
 20
10.241563
  0
LWPOLYLINE
  8
0
 62
7
 90
9
 70
1
 10
10.621562
 20
11.290000
 10
10.621562
 20
11.166562
 10
11.618437
 20
11.166562
 10
11.618437
 20
11.413437
 10
10.621562
 20
11.413437
 10
10.621562
 20
11.166562
 10
11.618437
 20
11.166562
 10
11.618437
 20
11.413437
 10
10.621562
 20
11.413437
  0
LWPOLYLINE
  8
0
 62
7
 90
9
 70
1
 10
10.621562
 20
11.790000
 10
10.621562
 20
11.666562
 10
11.618437
 20
11.666562
 10
11.618437
 20
11.913437
 10
10.621562
 20
11.913437
 10
10.621562
 20
11.666562
 10
11.618437
 20
11.666562
 10
11.618437
 20
11.913437
 10
10.621562
 20
11.913437
  0
LWPOLYLINE
  8
0
 62
7
 90
9
 70
1
 10
10.621562
 20
12.290000
 10
10.621562
 20
12.166562
 10
11.618437
 20
12.166562
 10
11.618437
 20
12.413437
 10
10.621562
 20
12.413437
 10
10.621562
 20
12.166562
 10
11.618437
 20
12.166562
 10
11.618437
 20
12.413437
 10
10.621562
 20
12.413437
  0
LWPOLYLINE
  8
0
 62
7
 90
9
 70
1
 10
10.621562
 20
12.790000
 10
10.621562
 20
12.666562
 10
11.618437
 20
12.666562
 10
11.618437
 20
12.913437
 10
10.621562
 20
12.913437
 10
10.621562
 20
12.666562
 10
11.618437
 20
12.666562
 10
11.618437
 20
12.913437
 10
10.621562
 20
12.913437
  0
LWPOLYLINE
  8
0
 62
7
 90
9
 70
1
 10
10.621562
 20
13.290000
 10
10.621562
 20
13.166562
 10
11.618437
 20
13.166562
 10
11.618437
 20
13.413437
 10
10.621562
 20
13.413437
 10
10.621562
 20
13.166562
 10
11.618437
 20
13.166562
 10
11.618437
 20
13.413437
 10
10.621562
 20
13.413437
  0
LWPOLYLINE
  8
0
 62
7
 90
9
 70
1
 10
10.621562
 20
13.790000
 10
10.621562
 20
13.666562
 10
11.618437
 20
13.666562
 10
11.618437
 20
13.913437
 10
10.621562
 20
13.913437
 10
10.621562
 20
13.666562
 10
11.618437
 20
13.666562
 10
11.618437
 20
13.913437
 10
10.621562
 20
13.913437
  0
LWPOLYLINE
  8
0
 62
7
 90
9
 70
1
 10
10.621562
 20
14.290000
 10
10.621562
 20
14.166562
 10
11.618437
 20
14.166562
 10
11.618437
 20
14.413437
 10
10.621562
 20
14.413437
 10
10.621562
 20
14.166562
 10
11.618437
 20
14.166562
 10
11.618437
 20
14.413437
 10
10.621562
 20
14.413437
  0
LWPOLYLINE
  8
0
 62
7
 90
9
 70
1
 10
10.621562
 20
14.790000
 10
10.621562
 20
14.666562
 10
11.618437
 20
14.666562
 10
11.618437
 20
14.913437
 10
10.621562
 20
14.913437
 10
10.621562
 20
14.666562
 10
11.618437
 20
14.666562
 10
11.618437
 20
14.913437
 10
10.621562
 20
14.913437
  0
LWPOLYLINE
  8
0
 62
7
 90
9
 70
1
 10
10.120000
 20
15.738437
 10
9.996562
 20
15.738437
 10
9.996562
 20
14.741563
 10
10.243437
 20
14.741563
 10
10.243437
 20
15.738437
 10
9.996562
 20
15.738437
 10
9.996562
 20
14.741563
 10
10.243437
 20
14.741563
 10
10.243437
 20
15.738437
  0
ENDSEC
  0
EOF
