G75*
%MOIN*%
%OFA0B0*%
%FSLAX24Y24*%
%IPPOS*%
%LPD*%
%AMOC8*
5,1,8,0,0,1.08239X$1,22.5*
%
%ADD10C,0.0000*%
%ADD11C,0.0050*%
%ADD12C,0.0197*%
%ADD13C,0.0250*%
%ADD14R,0.0280X0.0160*%
%ADD15C,0.0010*%
%ADD16R,0.0160X0.0280*%
%ADD17C,0.0160*%
%ADD18C,0.0040*%
%ADD19C,0.0080*%
%ADD20C,0.0060*%
D10*
X000100Y000480D02*
X000100Y015480D01*
X026100Y015480D01*
X026100Y000480D01*
X000100Y000480D01*
X003213Y004640D02*
X003213Y004650D01*
X003210Y004650D02*
X003217Y004650D01*
X003219Y004650D02*
X003224Y004650D01*
X003226Y004648D01*
X003226Y004645D01*
X003224Y004643D01*
X003219Y004643D01*
X003219Y004640D02*
X003219Y004650D01*
X003228Y004650D02*
X003233Y004650D01*
X003235Y004648D01*
X003235Y004647D01*
X003233Y004645D01*
X003228Y004645D01*
X003228Y004640D02*
X003233Y004640D01*
X003235Y004642D01*
X003235Y004643D01*
X003233Y004645D01*
X003238Y004647D02*
X003241Y004650D01*
X003241Y004640D01*
X003238Y004640D02*
X003244Y004640D01*
X003247Y004637D02*
X003250Y004640D01*
X003248Y004640D01*
X003248Y004642D01*
X003250Y004642D01*
X003250Y004640D01*
X003253Y004640D02*
X003260Y004647D01*
X003260Y004648D01*
X003258Y004650D01*
X003255Y004650D01*
X003253Y004648D01*
X003253Y004640D02*
X003260Y004640D01*
X003262Y004642D02*
X003262Y004640D01*
X003262Y004642D02*
X003269Y004648D01*
X003269Y004650D01*
X003262Y004650D01*
X003228Y004650D02*
X003228Y004640D01*
X004100Y004740D02*
X004107Y004740D01*
X004109Y004740D02*
X004114Y004740D01*
X004116Y004738D01*
X004116Y004735D01*
X004114Y004733D01*
X004109Y004733D01*
X004109Y004730D02*
X004109Y004740D01*
X004103Y004740D02*
X004103Y004730D01*
X004118Y004730D02*
X004123Y004730D01*
X004125Y004732D01*
X004125Y004733D01*
X004123Y004735D01*
X004118Y004735D01*
X004118Y004730D02*
X004118Y004740D01*
X004123Y004740D01*
X004125Y004738D01*
X004125Y004737D01*
X004123Y004735D01*
X004128Y004737D02*
X004131Y004740D01*
X004131Y004730D01*
X004128Y004730D02*
X004134Y004730D01*
X004137Y004727D02*
X004140Y004730D01*
X004138Y004730D01*
X004138Y004732D01*
X004140Y004732D01*
X004140Y004730D01*
X004143Y004730D02*
X004150Y004737D01*
X004150Y004738D01*
X004148Y004740D01*
X004145Y004740D01*
X004143Y004738D01*
X004143Y004730D02*
X004150Y004730D01*
X004152Y004732D02*
X004152Y004730D01*
X004152Y004732D02*
X004159Y004738D01*
X004159Y004740D01*
X004152Y004740D01*
X004433Y005470D02*
X004433Y005480D01*
X004430Y005480D02*
X004437Y005480D01*
X004439Y005480D02*
X004444Y005480D01*
X004446Y005478D01*
X004446Y005475D01*
X004444Y005473D01*
X004439Y005473D01*
X004439Y005470D02*
X004439Y005480D01*
X004448Y005480D02*
X004453Y005480D01*
X004455Y005478D01*
X004455Y005477D01*
X004453Y005475D01*
X004448Y005475D01*
X004448Y005470D02*
X004453Y005470D01*
X004455Y005472D01*
X004455Y005473D01*
X004453Y005475D01*
X004458Y005477D02*
X004461Y005480D01*
X004461Y005470D01*
X004458Y005470D02*
X004464Y005470D01*
X004467Y005467D02*
X004470Y005470D01*
X004468Y005470D01*
X004468Y005472D01*
X004470Y005472D01*
X004470Y005470D01*
X004473Y005470D02*
X004480Y005477D01*
X004480Y005478D01*
X004478Y005480D01*
X004475Y005480D01*
X004473Y005478D01*
X004473Y005470D02*
X004480Y005470D01*
X004482Y005472D02*
X004482Y005470D01*
X004482Y005472D02*
X004489Y005478D01*
X004489Y005480D01*
X004482Y005480D01*
X004448Y005480D02*
X004448Y005470D01*
X007630Y006170D02*
X007637Y006170D01*
X007639Y006170D02*
X007644Y006170D01*
X007646Y006168D01*
X007646Y006165D01*
X007644Y006163D01*
X007639Y006163D01*
X007639Y006160D02*
X007639Y006170D01*
X007633Y006170D02*
X007633Y006160D01*
X007648Y006160D02*
X007653Y006160D01*
X007655Y006162D01*
X007655Y006163D01*
X007653Y006165D01*
X007648Y006165D01*
X007648Y006160D02*
X007648Y006170D01*
X007653Y006170D01*
X007655Y006168D01*
X007655Y006167D01*
X007653Y006165D01*
X007658Y006167D02*
X007661Y006170D01*
X007661Y006160D01*
X007658Y006160D02*
X007664Y006160D01*
X007667Y006157D02*
X007670Y006160D01*
X007668Y006160D01*
X007668Y006162D01*
X007670Y006162D01*
X007670Y006160D01*
X007673Y006160D02*
X007680Y006167D01*
X007680Y006168D01*
X007678Y006170D01*
X007675Y006170D01*
X007673Y006168D01*
X007673Y006160D02*
X007680Y006160D01*
X007682Y006162D02*
X007682Y006160D01*
X007682Y006162D02*
X007689Y006168D01*
X007689Y006170D01*
X007682Y006170D01*
X010290Y006830D02*
X010297Y006830D01*
X010299Y006830D02*
X010304Y006830D01*
X010306Y006828D01*
X010306Y006825D01*
X010304Y006823D01*
X010299Y006823D01*
X010299Y006820D02*
X010299Y006830D01*
X010293Y006830D02*
X010293Y006820D01*
X010308Y006820D02*
X010313Y006820D01*
X010315Y006822D01*
X010315Y006823D01*
X010313Y006825D01*
X010308Y006825D01*
X010308Y006820D02*
X010308Y006830D01*
X010313Y006830D01*
X010315Y006828D01*
X010315Y006827D01*
X010313Y006825D01*
X010318Y006827D02*
X010321Y006830D01*
X010321Y006820D01*
X010318Y006820D02*
X010324Y006820D01*
X010327Y006817D02*
X010330Y006820D01*
X010328Y006820D01*
X010328Y006822D01*
X010330Y006822D01*
X010330Y006820D01*
X010333Y006820D02*
X010340Y006827D01*
X010340Y006828D01*
X010338Y006830D01*
X010335Y006830D01*
X010333Y006828D01*
X010333Y006820D02*
X010340Y006820D01*
X010342Y006822D02*
X010342Y006820D01*
X010342Y006822D02*
X010349Y006828D01*
X010349Y006830D01*
X010342Y006830D01*
X011213Y007320D02*
X011213Y007330D01*
X011210Y007330D02*
X011217Y007330D01*
X011219Y007330D02*
X011224Y007330D01*
X011226Y007328D01*
X011226Y007325D01*
X011224Y007323D01*
X011219Y007323D01*
X011219Y007320D02*
X011219Y007330D01*
X011228Y007330D02*
X011233Y007330D01*
X011235Y007328D01*
X011235Y007327D01*
X011233Y007325D01*
X011228Y007325D01*
X011228Y007320D02*
X011233Y007320D01*
X011235Y007322D01*
X011235Y007323D01*
X011233Y007325D01*
X011238Y007327D02*
X011241Y007330D01*
X011241Y007320D01*
X011238Y007320D02*
X011244Y007320D01*
X011247Y007317D02*
X011250Y007320D01*
X011248Y007320D01*
X011248Y007322D01*
X011250Y007322D01*
X011250Y007320D01*
X011253Y007320D02*
X011260Y007327D01*
X011260Y007328D01*
X011258Y007330D01*
X011255Y007330D01*
X011253Y007328D01*
X011253Y007320D02*
X011260Y007320D01*
X011262Y007322D02*
X011262Y007320D01*
X011262Y007322D02*
X011269Y007328D01*
X011269Y007330D01*
X011262Y007330D01*
X011228Y007330D02*
X011228Y007320D01*
X013053Y008250D02*
X013053Y008260D01*
X013050Y008260D02*
X013057Y008260D01*
X013059Y008260D02*
X013064Y008260D01*
X013066Y008258D01*
X013066Y008255D01*
X013064Y008253D01*
X013059Y008253D01*
X013059Y008250D02*
X013059Y008260D01*
X013068Y008260D02*
X013073Y008260D01*
X013075Y008258D01*
X013075Y008257D01*
X013073Y008255D01*
X013068Y008255D01*
X013068Y008250D02*
X013073Y008250D01*
X013075Y008252D01*
X013075Y008253D01*
X013073Y008255D01*
X013078Y008257D02*
X013081Y008260D01*
X013081Y008250D01*
X013078Y008250D02*
X013084Y008250D01*
X013087Y008247D02*
X013090Y008250D01*
X013088Y008250D01*
X013088Y008252D01*
X013090Y008252D01*
X013090Y008250D01*
X013093Y008250D02*
X013100Y008257D01*
X013100Y008258D01*
X013098Y008260D01*
X013095Y008260D01*
X013093Y008258D01*
X013093Y008250D02*
X013100Y008250D01*
X013102Y008252D02*
X013102Y008250D01*
X013102Y008252D02*
X013109Y008258D01*
X013109Y008260D01*
X013102Y008260D01*
X013068Y008260D02*
X013068Y008250D01*
X012059Y008588D02*
X012052Y008582D01*
X012052Y008580D01*
X012050Y008580D02*
X012043Y008580D01*
X012050Y008587D01*
X012050Y008588D01*
X012048Y008590D01*
X012045Y008590D01*
X012043Y008588D01*
X012040Y008582D02*
X012038Y008582D01*
X012038Y008580D01*
X012040Y008580D01*
X012040Y008582D01*
X012040Y008580D02*
X012037Y008577D01*
X012034Y008580D02*
X012028Y008580D01*
X012031Y008580D02*
X012031Y008590D01*
X012028Y008587D01*
X012025Y008587D02*
X012023Y008585D01*
X012018Y008585D01*
X012016Y008585D02*
X012014Y008583D01*
X012009Y008583D01*
X012009Y008580D02*
X012009Y008590D01*
X012014Y008590D01*
X012016Y008588D01*
X012016Y008585D01*
X012018Y008580D02*
X012023Y008580D01*
X012025Y008582D01*
X012025Y008583D01*
X012023Y008585D01*
X012025Y008587D02*
X012025Y008588D01*
X012023Y008590D01*
X012018Y008590D01*
X012018Y008580D01*
X012003Y008580D02*
X012003Y008590D01*
X012000Y008590D02*
X012007Y008590D01*
X012052Y008590D02*
X012059Y008590D01*
X012059Y008588D01*
X014200Y007020D02*
X014207Y007020D01*
X014209Y007020D02*
X014214Y007020D01*
X014216Y007018D01*
X014216Y007015D01*
X014214Y007013D01*
X014209Y007013D01*
X014209Y007010D02*
X014209Y007020D01*
X014203Y007020D02*
X014203Y007010D01*
X014218Y007010D02*
X014223Y007010D01*
X014225Y007012D01*
X014225Y007013D01*
X014223Y007015D01*
X014218Y007015D01*
X014218Y007010D02*
X014218Y007020D01*
X014223Y007020D01*
X014225Y007018D01*
X014225Y007017D01*
X014223Y007015D01*
X014228Y007017D02*
X014231Y007020D01*
X014231Y007010D01*
X014228Y007010D02*
X014234Y007010D01*
X014237Y007007D02*
X014240Y007010D01*
X014238Y007010D01*
X014238Y007012D01*
X014240Y007012D01*
X014240Y007010D01*
X014243Y007010D02*
X014250Y007017D01*
X014250Y007018D01*
X014248Y007020D01*
X014245Y007020D01*
X014243Y007018D01*
X014243Y007010D02*
X014250Y007010D01*
X014252Y007012D02*
X014252Y007010D01*
X014252Y007012D02*
X014259Y007018D01*
X014259Y007020D01*
X014252Y007020D01*
X010539Y005680D02*
X010539Y005678D01*
X010532Y005672D01*
X010532Y005670D01*
X010530Y005670D02*
X010523Y005670D01*
X010530Y005677D01*
X010530Y005678D01*
X010528Y005680D01*
X010525Y005680D01*
X010523Y005678D01*
X010520Y005672D02*
X010518Y005672D01*
X010518Y005670D01*
X010520Y005670D01*
X010520Y005672D01*
X010520Y005670D02*
X010517Y005667D01*
X010514Y005670D02*
X010508Y005670D01*
X010511Y005670D02*
X010511Y005680D01*
X010508Y005677D01*
X010505Y005677D02*
X010503Y005675D01*
X010498Y005675D01*
X010496Y005675D02*
X010494Y005673D01*
X010489Y005673D01*
X010489Y005670D02*
X010489Y005680D01*
X010494Y005680D01*
X010496Y005678D01*
X010496Y005675D01*
X010498Y005670D02*
X010503Y005670D01*
X010505Y005672D01*
X010505Y005673D01*
X010503Y005675D01*
X010505Y005677D02*
X010505Y005678D01*
X010503Y005680D01*
X010498Y005680D01*
X010498Y005670D01*
X010483Y005670D02*
X010483Y005680D01*
X010480Y005680D02*
X010487Y005680D01*
X010532Y005680D02*
X010539Y005680D01*
X010489Y004470D02*
X010489Y004468D01*
X010482Y004462D01*
X010482Y004460D01*
X010480Y004460D02*
X010473Y004460D01*
X010480Y004467D01*
X010480Y004468D01*
X010478Y004470D01*
X010475Y004470D01*
X010473Y004468D01*
X010470Y004462D02*
X010468Y004462D01*
X010468Y004460D01*
X010470Y004460D01*
X010470Y004462D01*
X010470Y004460D02*
X010467Y004457D01*
X010464Y004460D02*
X010458Y004460D01*
X010461Y004460D02*
X010461Y004470D01*
X010458Y004467D01*
X010455Y004467D02*
X010453Y004465D01*
X010448Y004465D01*
X010446Y004465D02*
X010444Y004463D01*
X010439Y004463D01*
X010439Y004460D02*
X010439Y004470D01*
X010444Y004470D01*
X010446Y004468D01*
X010446Y004465D01*
X010448Y004460D02*
X010453Y004460D01*
X010455Y004462D01*
X010455Y004463D01*
X010453Y004465D01*
X010455Y004467D02*
X010455Y004468D01*
X010453Y004470D01*
X010448Y004470D01*
X010448Y004460D01*
X010433Y004460D02*
X010433Y004470D01*
X010430Y004470D02*
X010437Y004470D01*
X010482Y004470D02*
X010489Y004470D01*
X009539Y004010D02*
X009539Y004008D01*
X009532Y004002D01*
X009532Y004000D01*
X009530Y004000D02*
X009523Y004000D01*
X009530Y004007D01*
X009530Y004008D01*
X009528Y004010D01*
X009525Y004010D01*
X009523Y004008D01*
X009520Y004002D02*
X009518Y004002D01*
X009518Y004000D01*
X009520Y004000D01*
X009520Y004002D01*
X009520Y004000D02*
X009517Y003997D01*
X009514Y004000D02*
X009508Y004000D01*
X009511Y004000D02*
X009511Y004010D01*
X009508Y004007D01*
X009505Y004007D02*
X009503Y004005D01*
X009498Y004005D01*
X009496Y004005D02*
X009494Y004003D01*
X009489Y004003D01*
X009489Y004000D02*
X009489Y004010D01*
X009494Y004010D01*
X009496Y004008D01*
X009496Y004005D01*
X009498Y004000D02*
X009503Y004000D01*
X009505Y004002D01*
X009505Y004003D01*
X009503Y004005D01*
X009505Y004007D02*
X009505Y004008D01*
X009503Y004010D01*
X009498Y004010D01*
X009498Y004000D01*
X009483Y004000D02*
X009483Y004010D01*
X009480Y004010D02*
X009487Y004010D01*
X009532Y004010D02*
X009539Y004010D01*
X010610Y003630D02*
X010617Y003630D01*
X010619Y003630D02*
X010624Y003630D01*
X010626Y003628D01*
X010626Y003625D01*
X010624Y003623D01*
X010619Y003623D01*
X010619Y003620D02*
X010619Y003630D01*
X010613Y003630D02*
X010613Y003620D01*
X010628Y003620D02*
X010633Y003620D01*
X010635Y003622D01*
X010635Y003623D01*
X010633Y003625D01*
X010628Y003625D01*
X010628Y003620D02*
X010628Y003630D01*
X010633Y003630D01*
X010635Y003628D01*
X010635Y003627D01*
X010633Y003625D01*
X010638Y003627D02*
X010641Y003630D01*
X010641Y003620D01*
X010638Y003620D02*
X010644Y003620D01*
X010647Y003617D02*
X010650Y003620D01*
X010648Y003620D01*
X010648Y003622D01*
X010650Y003622D01*
X010650Y003620D01*
X010653Y003620D02*
X010660Y003627D01*
X010660Y003628D01*
X010658Y003630D01*
X010655Y003630D01*
X010653Y003628D01*
X010653Y003620D02*
X010660Y003620D01*
X010662Y003622D02*
X010662Y003620D01*
X010662Y003622D02*
X010669Y003628D01*
X010669Y003630D01*
X010662Y003630D01*
X013090Y000920D02*
X013097Y000920D01*
X013099Y000920D02*
X013104Y000920D01*
X013106Y000918D01*
X013106Y000915D01*
X013104Y000913D01*
X013099Y000913D01*
X013099Y000910D02*
X013099Y000920D01*
X013093Y000920D02*
X013093Y000910D01*
X013108Y000910D02*
X013113Y000910D01*
X013115Y000912D01*
X013115Y000913D01*
X013113Y000915D01*
X013108Y000915D01*
X013108Y000910D02*
X013108Y000920D01*
X013113Y000920D01*
X013115Y000918D01*
X013115Y000917D01*
X013113Y000915D01*
X013118Y000917D02*
X013121Y000920D01*
X013121Y000910D01*
X013118Y000910D02*
X013124Y000910D01*
X013127Y000907D02*
X013130Y000910D01*
X013128Y000910D01*
X013128Y000912D01*
X013130Y000912D01*
X013130Y000910D01*
X013133Y000910D02*
X013140Y000917D01*
X013140Y000918D01*
X013138Y000920D01*
X013135Y000920D01*
X013133Y000918D01*
X013133Y000910D02*
X013140Y000910D01*
X013142Y000912D02*
X013142Y000910D01*
X013142Y000912D02*
X013149Y000918D01*
X013149Y000920D01*
X013142Y000920D01*
X019913Y004870D02*
X019913Y004880D01*
X019910Y004880D02*
X019917Y004880D01*
X019919Y004880D02*
X019924Y004880D01*
X019926Y004878D01*
X019926Y004875D01*
X019924Y004873D01*
X019919Y004873D01*
X019919Y004870D02*
X019919Y004880D01*
X019928Y004880D02*
X019933Y004880D01*
X019935Y004878D01*
X019935Y004877D01*
X019933Y004875D01*
X019928Y004875D01*
X019928Y004870D02*
X019933Y004870D01*
X019935Y004872D01*
X019935Y004873D01*
X019933Y004875D01*
X019938Y004877D02*
X019941Y004880D01*
X019941Y004870D01*
X019938Y004870D02*
X019944Y004870D01*
X019947Y004867D02*
X019950Y004870D01*
X019948Y004870D01*
X019948Y004872D01*
X019950Y004872D01*
X019950Y004870D01*
X019953Y004870D02*
X019960Y004877D01*
X019960Y004878D01*
X019958Y004880D01*
X019955Y004880D01*
X019953Y004878D01*
X019953Y004870D02*
X019960Y004870D01*
X019962Y004872D02*
X019962Y004870D01*
X019962Y004872D02*
X019969Y004878D01*
X019969Y004880D01*
X019962Y004880D01*
X019928Y004880D02*
X019928Y004870D01*
X020650Y004850D02*
X020657Y004850D01*
X020659Y004850D02*
X020664Y004850D01*
X020666Y004848D01*
X020666Y004845D01*
X020664Y004843D01*
X020659Y004843D01*
X020659Y004840D02*
X020659Y004850D01*
X020653Y004850D02*
X020653Y004840D01*
X020668Y004840D02*
X020673Y004840D01*
X020675Y004842D01*
X020675Y004843D01*
X020673Y004845D01*
X020668Y004845D01*
X020668Y004840D02*
X020668Y004850D01*
X020673Y004850D01*
X020675Y004848D01*
X020675Y004847D01*
X020673Y004845D01*
X020678Y004847D02*
X020681Y004850D01*
X020681Y004840D01*
X020678Y004840D02*
X020684Y004840D01*
X020687Y004837D02*
X020690Y004840D01*
X020688Y004840D01*
X020688Y004842D01*
X020690Y004842D01*
X020690Y004840D01*
X020693Y004840D02*
X020700Y004847D01*
X020700Y004848D01*
X020698Y004850D01*
X020695Y004850D01*
X020693Y004848D01*
X020693Y004840D02*
X020700Y004840D01*
X020702Y004842D02*
X020702Y004840D01*
X020702Y004842D02*
X020709Y004848D01*
X020709Y004850D01*
X020702Y004850D01*
X021260Y004840D02*
X021267Y004840D01*
X021269Y004840D02*
X021274Y004840D01*
X021276Y004838D01*
X021276Y004835D01*
X021274Y004833D01*
X021269Y004833D01*
X021269Y004830D02*
X021269Y004840D01*
X021263Y004840D02*
X021263Y004830D01*
X021278Y004830D02*
X021283Y004830D01*
X021285Y004832D01*
X021285Y004833D01*
X021283Y004835D01*
X021278Y004835D01*
X021278Y004830D02*
X021278Y004840D01*
X021283Y004840D01*
X021285Y004838D01*
X021285Y004837D01*
X021283Y004835D01*
X021288Y004837D02*
X021291Y004840D01*
X021291Y004830D01*
X021288Y004830D02*
X021294Y004830D01*
X021297Y004827D02*
X021300Y004830D01*
X021298Y004830D01*
X021298Y004832D01*
X021300Y004832D01*
X021300Y004830D01*
X021303Y004830D02*
X021310Y004837D01*
X021310Y004838D01*
X021308Y004840D01*
X021305Y004840D01*
X021303Y004838D01*
X021303Y004830D02*
X021310Y004830D01*
X021312Y004832D02*
X021312Y004830D01*
X021312Y004832D02*
X021319Y004838D01*
X021319Y004840D01*
X021312Y004840D01*
X021850Y004780D02*
X021857Y004780D01*
X021859Y004780D02*
X021864Y004780D01*
X021866Y004778D01*
X021866Y004775D01*
X021864Y004773D01*
X021859Y004773D01*
X021859Y004770D02*
X021859Y004780D01*
X021853Y004780D02*
X021853Y004770D01*
X021868Y004770D02*
X021873Y004770D01*
X021875Y004772D01*
X021875Y004773D01*
X021873Y004775D01*
X021868Y004775D01*
X021868Y004770D02*
X021868Y004780D01*
X021873Y004780D01*
X021875Y004778D01*
X021875Y004777D01*
X021873Y004775D01*
X021878Y004777D02*
X021881Y004780D01*
X021881Y004770D01*
X021878Y004770D02*
X021884Y004770D01*
X021887Y004767D02*
X021890Y004770D01*
X021888Y004770D01*
X021888Y004772D01*
X021890Y004772D01*
X021890Y004770D01*
X021893Y004770D02*
X021900Y004777D01*
X021900Y004778D01*
X021898Y004780D01*
X021895Y004780D01*
X021893Y004778D01*
X021893Y004770D02*
X021900Y004770D01*
X021902Y004772D02*
X021902Y004770D01*
X021902Y004772D02*
X021909Y004778D01*
X021909Y004780D01*
X021902Y004780D01*
X022200Y004140D02*
X022207Y004140D01*
X022209Y004140D02*
X022214Y004140D01*
X022216Y004138D01*
X022216Y004135D01*
X022214Y004133D01*
X022209Y004133D01*
X022209Y004130D02*
X022209Y004140D01*
X022203Y004140D02*
X022203Y004130D01*
X022218Y004130D02*
X022223Y004130D01*
X022225Y004132D01*
X022225Y004133D01*
X022223Y004135D01*
X022218Y004135D01*
X022218Y004130D02*
X022218Y004140D01*
X022223Y004140D01*
X022225Y004138D01*
X022225Y004137D01*
X022223Y004135D01*
X022228Y004137D02*
X022231Y004140D01*
X022231Y004130D01*
X022228Y004130D02*
X022234Y004130D01*
X022237Y004127D02*
X022240Y004130D01*
X022238Y004130D01*
X022238Y004132D01*
X022240Y004132D01*
X022240Y004130D01*
X022243Y004130D02*
X022250Y004137D01*
X022250Y004138D01*
X022248Y004140D01*
X022245Y004140D01*
X022243Y004138D01*
X022243Y004130D02*
X022250Y004130D01*
X022252Y004132D02*
X022252Y004130D01*
X022252Y004132D02*
X022259Y004138D01*
X022259Y004140D01*
X022252Y004140D01*
X019942Y008950D02*
X019942Y008952D01*
X019949Y008958D01*
X019949Y008960D01*
X019942Y008960D01*
X019940Y008958D02*
X019938Y008960D01*
X019935Y008960D01*
X019933Y008958D01*
X019940Y008957D02*
X019940Y008958D01*
X019940Y008957D02*
X019933Y008950D01*
X019940Y008950D01*
X019930Y008950D02*
X019928Y008950D01*
X019928Y008952D01*
X019930Y008952D01*
X019930Y008950D01*
X019927Y008947D01*
X019924Y008950D02*
X019918Y008950D01*
X019921Y008950D02*
X019921Y008960D01*
X019918Y008957D01*
X019915Y008957D02*
X019913Y008955D01*
X019908Y008955D01*
X019906Y008955D02*
X019904Y008953D01*
X019899Y008953D01*
X019899Y008950D02*
X019899Y008960D01*
X019904Y008960D01*
X019906Y008958D01*
X019906Y008955D01*
X019908Y008950D02*
X019913Y008950D01*
X019915Y008952D01*
X019915Y008953D01*
X019913Y008955D01*
X019915Y008957D02*
X019915Y008958D01*
X019913Y008960D01*
X019908Y008960D01*
X019908Y008950D01*
X019893Y008950D02*
X019893Y008960D01*
X019890Y008960D02*
X019897Y008960D01*
X021420Y009110D02*
X021427Y009110D01*
X021429Y009110D02*
X021434Y009110D01*
X021436Y009108D01*
X021436Y009105D01*
X021434Y009103D01*
X021429Y009103D01*
X021429Y009100D02*
X021429Y009110D01*
X021423Y009110D02*
X021423Y009100D01*
X021438Y009100D02*
X021443Y009100D01*
X021445Y009102D01*
X021445Y009103D01*
X021443Y009105D01*
X021438Y009105D01*
X021438Y009100D02*
X021438Y009110D01*
X021443Y009110D01*
X021445Y009108D01*
X021445Y009107D01*
X021443Y009105D01*
X021448Y009107D02*
X021451Y009110D01*
X021451Y009100D01*
X021448Y009100D02*
X021454Y009100D01*
X021457Y009097D02*
X021460Y009100D01*
X021458Y009100D01*
X021458Y009102D01*
X021460Y009102D01*
X021460Y009100D01*
X021463Y009100D02*
X021470Y009107D01*
X021470Y009108D01*
X021468Y009110D01*
X021465Y009110D01*
X021463Y009108D01*
X021463Y009100D02*
X021470Y009100D01*
X021472Y009102D02*
X021472Y009100D01*
X021472Y009102D02*
X021479Y009108D01*
X021479Y009110D01*
X021472Y009110D01*
X021687Y011407D02*
X021690Y011410D01*
X021688Y011410D01*
X021688Y011412D01*
X021690Y011412D01*
X021690Y011410D01*
X021693Y011410D02*
X021700Y011417D01*
X021700Y011418D01*
X021698Y011420D01*
X021695Y011420D01*
X021693Y011418D01*
X021693Y011410D02*
X021700Y011410D01*
X021702Y011412D02*
X021702Y011410D01*
X021702Y011412D02*
X021709Y011418D01*
X021709Y011420D01*
X021702Y011420D01*
X021684Y011410D02*
X021678Y011410D01*
X021681Y011410D02*
X021681Y011420D01*
X021678Y011417D01*
X021675Y011417D02*
X021673Y011415D01*
X021668Y011415D01*
X021666Y011415D02*
X021664Y011413D01*
X021659Y011413D01*
X021659Y011410D02*
X021659Y011420D01*
X021664Y011420D01*
X021666Y011418D01*
X021666Y011415D01*
X021668Y011410D02*
X021673Y011410D01*
X021675Y011412D01*
X021675Y011413D01*
X021673Y011415D01*
X021675Y011417D02*
X021675Y011418D01*
X021673Y011420D01*
X021668Y011420D01*
X021668Y011410D01*
X021653Y011410D02*
X021653Y011420D01*
X021650Y011420D02*
X021657Y011420D01*
X022510Y011360D02*
X022517Y011360D01*
X022519Y011360D02*
X022524Y011360D01*
X022526Y011358D01*
X022526Y011355D01*
X022524Y011353D01*
X022519Y011353D01*
X022519Y011350D02*
X022519Y011360D01*
X022513Y011360D02*
X022513Y011350D01*
X022528Y011350D02*
X022533Y011350D01*
X022535Y011352D01*
X022535Y011353D01*
X022533Y011355D01*
X022528Y011355D01*
X022528Y011350D02*
X022528Y011360D01*
X022533Y011360D01*
X022535Y011358D01*
X022535Y011357D01*
X022533Y011355D01*
X022538Y011357D02*
X022541Y011360D01*
X022541Y011350D01*
X022538Y011350D02*
X022544Y011350D01*
X022547Y011347D02*
X022550Y011350D01*
X022548Y011350D01*
X022548Y011352D01*
X022550Y011352D01*
X022550Y011350D01*
X022553Y011350D02*
X022560Y011357D01*
X022560Y011358D01*
X022558Y011360D01*
X022555Y011360D01*
X022553Y011358D01*
X022553Y011350D02*
X022560Y011350D01*
X022562Y011352D02*
X022562Y011350D01*
X022562Y011352D02*
X022569Y011358D01*
X022569Y011360D01*
X022562Y011360D01*
X012719Y012228D02*
X012712Y012222D01*
X012712Y012220D01*
X012710Y012220D02*
X012703Y012220D01*
X012710Y012227D01*
X012710Y012228D01*
X012708Y012230D01*
X012705Y012230D01*
X012703Y012228D01*
X012700Y012222D02*
X012698Y012222D01*
X012698Y012220D01*
X012700Y012220D01*
X012700Y012222D01*
X012700Y012220D02*
X012697Y012217D01*
X012694Y012220D02*
X012688Y012220D01*
X012691Y012220D02*
X012691Y012230D01*
X012688Y012227D01*
X012685Y012227D02*
X012683Y012225D01*
X012678Y012225D01*
X012676Y012225D02*
X012674Y012223D01*
X012669Y012223D01*
X012669Y012220D02*
X012669Y012230D01*
X012674Y012230D01*
X012676Y012228D01*
X012676Y012225D01*
X012678Y012220D02*
X012683Y012220D01*
X012685Y012222D01*
X012685Y012223D01*
X012683Y012225D01*
X012685Y012227D02*
X012685Y012228D01*
X012683Y012230D01*
X012678Y012230D01*
X012678Y012220D01*
X012663Y012220D02*
X012663Y012230D01*
X012660Y012230D02*
X012667Y012230D01*
X012712Y012230D02*
X012719Y012230D01*
X012719Y012228D01*
X011929Y012248D02*
X011922Y012242D01*
X011922Y012240D01*
X011920Y012240D02*
X011913Y012240D01*
X011920Y012247D01*
X011920Y012248D01*
X011918Y012250D01*
X011915Y012250D01*
X011913Y012248D01*
X011910Y012242D02*
X011908Y012242D01*
X011908Y012240D01*
X011910Y012240D01*
X011910Y012242D01*
X011910Y012240D02*
X011907Y012237D01*
X011904Y012240D02*
X011898Y012240D01*
X011901Y012240D02*
X011901Y012250D01*
X011898Y012247D01*
X011895Y012247D02*
X011893Y012245D01*
X011888Y012245D01*
X011886Y012245D02*
X011884Y012243D01*
X011879Y012243D01*
X011879Y012240D02*
X011879Y012250D01*
X011884Y012250D01*
X011886Y012248D01*
X011886Y012245D01*
X011888Y012240D02*
X011893Y012240D01*
X011895Y012242D01*
X011895Y012243D01*
X011893Y012245D01*
X011895Y012247D02*
X011895Y012248D01*
X011893Y012250D01*
X011888Y012250D01*
X011888Y012240D01*
X011873Y012240D02*
X011873Y012250D01*
X011870Y012250D02*
X011877Y012250D01*
X011922Y012250D02*
X011929Y012250D01*
X011929Y012248D01*
X011169Y012258D02*
X011162Y012252D01*
X011162Y012250D01*
X011160Y012250D02*
X011153Y012250D01*
X011160Y012257D01*
X011160Y012258D01*
X011158Y012260D01*
X011155Y012260D01*
X011153Y012258D01*
X011150Y012252D02*
X011148Y012252D01*
X011148Y012250D01*
X011150Y012250D01*
X011150Y012252D01*
X011150Y012250D02*
X011147Y012247D01*
X011144Y012250D02*
X011138Y012250D01*
X011141Y012250D02*
X011141Y012260D01*
X011138Y012257D01*
X011135Y012257D02*
X011133Y012255D01*
X011128Y012255D01*
X011126Y012255D02*
X011124Y012253D01*
X011119Y012253D01*
X011119Y012250D02*
X011119Y012260D01*
X011124Y012260D01*
X011126Y012258D01*
X011126Y012255D01*
X011128Y012250D02*
X011133Y012250D01*
X011135Y012252D01*
X011135Y012253D01*
X011133Y012255D01*
X011135Y012257D02*
X011135Y012258D01*
X011133Y012260D01*
X011128Y012260D01*
X011128Y012250D01*
X011113Y012250D02*
X011113Y012260D01*
X011110Y012260D02*
X011117Y012260D01*
X011162Y012260D02*
X011169Y012260D01*
X011169Y012258D01*
X000779Y006270D02*
X000779Y006268D01*
X000772Y006262D01*
X000772Y006260D01*
X000770Y006260D02*
X000763Y006260D01*
X000770Y006267D01*
X000770Y006268D01*
X000768Y006270D01*
X000765Y006270D01*
X000763Y006268D01*
X000760Y006262D02*
X000758Y006262D01*
X000758Y006260D01*
X000760Y006260D01*
X000760Y006262D01*
X000760Y006260D02*
X000757Y006257D01*
X000754Y006260D02*
X000748Y006260D01*
X000751Y006260D02*
X000751Y006270D01*
X000748Y006267D01*
X000745Y006267D02*
X000743Y006265D01*
X000738Y006265D01*
X000736Y006265D02*
X000734Y006263D01*
X000729Y006263D01*
X000729Y006260D02*
X000729Y006270D01*
X000734Y006270D01*
X000736Y006268D01*
X000736Y006265D01*
X000738Y006260D02*
X000743Y006260D01*
X000745Y006262D01*
X000745Y006263D01*
X000743Y006265D01*
X000745Y006267D02*
X000745Y006268D01*
X000743Y006270D01*
X000738Y006270D01*
X000738Y006260D01*
X000723Y006260D02*
X000723Y006270D01*
X000720Y006270D02*
X000727Y006270D01*
X000772Y006270D02*
X000779Y006270D01*
D11*
X000241Y000241D02*
X002604Y000241D01*
X002604Y000438D01*
X002289Y000438D01*
X002289Y001934D01*
X002269Y001934D02*
X000517Y001934D01*
X000517Y000438D01*
X000241Y000438D01*
X000241Y000241D01*
X000517Y000399D02*
X002289Y000399D01*
X002289Y000438D01*
X002791Y000438D02*
X002791Y000241D01*
X005154Y000241D01*
X005154Y000438D01*
X004839Y000438D01*
X004839Y001934D01*
X004819Y001934D02*
X003067Y001934D01*
X003067Y000438D01*
X002791Y000438D01*
X003067Y000438D02*
X003067Y000399D01*
X004839Y000399D01*
X004839Y000438D01*
X005341Y000438D02*
X005341Y000241D01*
X007704Y000241D01*
X007704Y000438D01*
X007389Y000438D01*
X007389Y001934D01*
X007369Y001934D02*
X005617Y001934D01*
X005617Y000438D01*
X005341Y000438D01*
X005617Y000438D02*
X005617Y000399D01*
X007389Y000399D01*
X007389Y000438D01*
X007891Y000438D02*
X007891Y000241D01*
X010254Y000241D01*
X010254Y000438D01*
X009939Y000438D01*
X009939Y001934D01*
X009919Y001934D02*
X008167Y001934D01*
X008167Y000438D01*
X007891Y000438D01*
X008167Y000438D02*
X008167Y000399D01*
X009939Y000399D01*
X009939Y000438D01*
X008167Y001934D02*
X008147Y001934D01*
X005617Y001934D02*
X005597Y001934D01*
X003067Y001934D02*
X003047Y001934D01*
X000517Y001934D02*
X000497Y001934D01*
X000517Y000438D02*
X000517Y000399D01*
X012584Y001964D02*
X016600Y001964D01*
X016600Y005980D01*
X012584Y005980D01*
X012584Y001964D01*
X022726Y007945D02*
X022726Y009520D01*
X023710Y009520D01*
X023710Y007945D01*
X022726Y007945D01*
X023710Y009520D02*
X023712Y009545D01*
X023718Y009569D01*
X023727Y009591D01*
X023740Y009612D01*
X023756Y009631D01*
X023775Y009647D01*
X023796Y009660D01*
X023818Y009669D01*
X023842Y009675D01*
X023867Y009677D01*
X023892Y009675D01*
X023916Y009669D01*
X023938Y009660D01*
X023959Y009647D01*
X023978Y009631D01*
X023994Y009612D01*
X024007Y009591D01*
X024016Y009569D01*
X024022Y009545D01*
X024024Y009520D01*
X024022Y009495D01*
X024016Y009471D01*
X024007Y009449D01*
X023994Y009428D01*
X023978Y009409D01*
X023959Y009393D01*
X023938Y009380D01*
X023916Y009371D01*
X023892Y009365D01*
X023867Y009363D01*
X023842Y009365D01*
X023818Y009371D01*
X023796Y009380D01*
X023775Y009393D01*
X023756Y009409D01*
X023740Y009428D01*
X023727Y009449D01*
X023718Y009471D01*
X023712Y009495D01*
X023710Y009520D01*
X020672Y011200D02*
X018400Y011200D01*
X018400Y013137D01*
X020672Y013137D01*
X020672Y011200D01*
D12*
X012426Y005940D02*
X012428Y005967D01*
X012434Y005994D01*
X012443Y006020D01*
X012456Y006044D01*
X012472Y006067D01*
X012491Y006086D01*
X012513Y006103D01*
X012537Y006117D01*
X012562Y006127D01*
X012589Y006134D01*
X012616Y006137D01*
X012644Y006136D01*
X012671Y006131D01*
X012697Y006123D01*
X012721Y006111D01*
X012744Y006095D01*
X012765Y006077D01*
X012782Y006056D01*
X012797Y006032D01*
X012808Y006007D01*
X012816Y005981D01*
X012820Y005954D01*
X012820Y005926D01*
X012816Y005899D01*
X012808Y005873D01*
X012797Y005848D01*
X012782Y005824D01*
X012765Y005803D01*
X012744Y005785D01*
X012722Y005769D01*
X012697Y005757D01*
X012671Y005749D01*
X012644Y005744D01*
X012616Y005743D01*
X012589Y005746D01*
X012562Y005753D01*
X012537Y005763D01*
X012513Y005777D01*
X012491Y005794D01*
X012472Y005813D01*
X012456Y005836D01*
X012443Y005860D01*
X012434Y005886D01*
X012428Y005913D01*
X012426Y005940D01*
D13*
X018250Y011200D02*
X018252Y011224D01*
X018258Y011248D01*
X018267Y011270D01*
X018280Y011290D01*
X018296Y011308D01*
X018315Y011323D01*
X018336Y011336D01*
X018358Y011344D01*
X018382Y011349D01*
X018406Y011350D01*
X018430Y011347D01*
X018453Y011340D01*
X018475Y011330D01*
X018495Y011316D01*
X018512Y011299D01*
X018527Y011280D01*
X018538Y011259D01*
X018546Y011236D01*
X018550Y011212D01*
X018550Y011188D01*
X018546Y011164D01*
X018538Y011141D01*
X018527Y011120D01*
X018512Y011101D01*
X018495Y011084D01*
X018475Y011070D01*
X018453Y011060D01*
X018430Y011053D01*
X018406Y011050D01*
X018382Y011051D01*
X018358Y011056D01*
X018336Y011064D01*
X018315Y011077D01*
X018296Y011092D01*
X018280Y011110D01*
X018267Y011130D01*
X018258Y011152D01*
X018252Y011176D01*
X018250Y011200D01*
D14*
X019250Y009980D03*
X020350Y006200D03*
X020910Y006200D03*
X021410Y006200D03*
X021930Y006200D03*
X022430Y006200D03*
X008570Y013650D03*
D15*
X008850Y013674D02*
X008850Y013729D01*
X008868Y013747D01*
X008905Y013747D01*
X008923Y013729D01*
X008923Y013674D01*
X008923Y013710D02*
X008960Y013747D01*
X008960Y013784D02*
X008960Y013857D01*
X008960Y013821D02*
X008850Y013821D01*
X008887Y013784D01*
X008850Y013674D02*
X008960Y013674D01*
X008942Y013895D02*
X008960Y013895D01*
X008942Y013895D02*
X008868Y013968D01*
X008850Y013968D01*
X008850Y013895D01*
X009238Y013049D02*
X009312Y012976D01*
X009330Y012994D01*
X009330Y013031D01*
X009312Y013049D01*
X009238Y013049D01*
X009220Y013031D01*
X009220Y012994D01*
X009238Y012976D01*
X009312Y012976D01*
X009330Y012939D02*
X009330Y012865D01*
X009257Y012939D01*
X009238Y012939D01*
X009220Y012921D01*
X009220Y012884D01*
X009238Y012865D01*
X009238Y012828D02*
X009220Y012810D01*
X009220Y012773D01*
X009238Y012755D01*
X009312Y012755D01*
X009330Y012773D01*
X009330Y012810D01*
X009312Y012828D01*
X010655Y011755D02*
X010655Y011663D01*
X010673Y011645D01*
X010710Y011645D01*
X010728Y011663D01*
X010728Y011755D01*
X010765Y011737D02*
X010784Y011755D01*
X010821Y011755D01*
X010839Y011737D01*
X010821Y011700D02*
X010784Y011700D01*
X010765Y011718D01*
X010765Y011737D01*
X010802Y011773D02*
X010802Y011627D01*
X010784Y011645D02*
X010821Y011645D01*
X010839Y011663D01*
X010839Y011682D01*
X010821Y011700D01*
X010876Y011718D02*
X010913Y011755D01*
X010913Y011645D01*
X010949Y011645D02*
X010876Y011645D01*
X010784Y011645D02*
X010765Y011663D01*
X010986Y011663D02*
X011060Y011737D01*
X011060Y011663D01*
X011042Y011645D01*
X011005Y011645D01*
X010986Y011663D01*
X010986Y011737D01*
X011005Y011755D01*
X011042Y011755D01*
X011060Y011737D01*
X011152Y012955D02*
X011152Y013065D01*
X011188Y013065D02*
X011115Y013065D01*
X011225Y013065D02*
X011281Y013065D01*
X011299Y013047D01*
X011299Y013010D01*
X011281Y012992D01*
X011225Y012992D01*
X011225Y012955D02*
X011225Y013065D01*
X011336Y013047D02*
X011354Y013065D01*
X011391Y013065D01*
X011409Y013047D01*
X011409Y013028D01*
X011336Y012955D01*
X011409Y012955D01*
X011446Y013010D02*
X011520Y013010D01*
X011502Y012955D02*
X011502Y013065D01*
X011446Y013010D01*
X011875Y013055D02*
X011948Y013055D01*
X011912Y013055D02*
X011912Y012945D01*
X011985Y012945D02*
X011985Y013055D01*
X012041Y013055D01*
X012059Y013037D01*
X012059Y013000D01*
X012041Y012982D01*
X011985Y012982D01*
X012096Y012945D02*
X012169Y013018D01*
X012169Y013037D01*
X012151Y013055D01*
X012114Y013055D01*
X012096Y013037D01*
X012096Y012945D02*
X012169Y012945D01*
X012206Y012963D02*
X012225Y012945D01*
X012262Y012945D01*
X012280Y012963D01*
X012280Y012982D01*
X012262Y013000D01*
X012243Y013000D01*
X012262Y013000D02*
X012280Y013018D01*
X012280Y013037D01*
X012262Y013055D01*
X012225Y013055D01*
X012206Y013037D01*
X012665Y013035D02*
X012738Y013035D01*
X012702Y013035D02*
X012702Y012925D01*
X012775Y012925D02*
X012775Y013035D01*
X012831Y013035D01*
X012849Y013017D01*
X012849Y012980D01*
X012831Y012962D01*
X012775Y012962D01*
X012886Y012925D02*
X012959Y012998D01*
X012959Y013017D01*
X012941Y013035D01*
X012904Y013035D01*
X012886Y013017D01*
X012886Y012925D02*
X012959Y012925D01*
X012996Y012925D02*
X013070Y012998D01*
X013070Y013017D01*
X013052Y013035D01*
X013015Y013035D01*
X012996Y013017D01*
X012996Y012925D02*
X013070Y012925D01*
X018055Y010313D02*
X018055Y010213D01*
X018205Y010213D01*
X018205Y010165D02*
X018105Y010165D01*
X018130Y010213D02*
X018130Y010263D01*
X018205Y010165D02*
X018205Y010090D01*
X018180Y010065D01*
X018105Y010065D01*
X018080Y010018D02*
X018180Y009918D01*
X018205Y009943D01*
X018205Y009993D01*
X018180Y010018D01*
X018080Y010018D01*
X018055Y009993D01*
X018055Y009943D01*
X018080Y009918D01*
X018180Y009918D01*
X018205Y009871D02*
X018205Y009771D01*
X018205Y009821D02*
X018055Y009821D01*
X018105Y009771D01*
X018780Y010082D02*
X018798Y010064D01*
X018872Y010064D01*
X018890Y010082D01*
X018890Y010119D01*
X018872Y010137D01*
X018890Y010175D02*
X018817Y010248D01*
X018798Y010248D01*
X018780Y010230D01*
X018780Y010193D01*
X018798Y010175D01*
X018798Y010137D02*
X018780Y010119D01*
X018780Y010082D01*
X018890Y010175D02*
X018890Y010248D01*
X019545Y009955D02*
X019645Y009855D01*
X019620Y009880D02*
X019695Y009955D01*
X019695Y009855D02*
X019545Y009855D01*
X019545Y009807D02*
X019570Y009757D01*
X019620Y009707D01*
X019620Y009782D01*
X019645Y009807D01*
X019670Y009807D01*
X019695Y009782D01*
X019695Y009732D01*
X019670Y009707D01*
X019620Y009707D01*
X019620Y009660D02*
X019670Y009660D01*
X019695Y009635D01*
X019695Y009585D01*
X019670Y009560D01*
X019620Y009560D02*
X019595Y009610D01*
X019595Y009635D01*
X019620Y009660D01*
X019545Y009660D02*
X019545Y009560D01*
X019620Y009560D01*
X019932Y009655D02*
X019932Y009765D01*
X019968Y009765D02*
X019895Y009765D01*
X020005Y009765D02*
X020005Y009655D01*
X020005Y009692D02*
X020061Y009692D01*
X020079Y009710D01*
X020079Y009747D01*
X020061Y009765D01*
X020005Y009765D01*
X020116Y009747D02*
X020134Y009765D01*
X020171Y009765D01*
X020189Y009747D01*
X020189Y009728D01*
X020116Y009655D01*
X020189Y009655D01*
X018970Y009635D02*
X018860Y009635D01*
X018860Y009690D01*
X018878Y009708D01*
X018915Y009708D01*
X018933Y009690D01*
X018933Y009635D01*
X018933Y009672D02*
X018970Y009708D01*
X018970Y009745D02*
X018970Y009819D01*
X018970Y009782D02*
X018860Y009782D01*
X018897Y009745D01*
X018914Y009080D02*
X018895Y009062D01*
X018914Y009080D02*
X018951Y009080D01*
X018969Y009062D01*
X018969Y009043D01*
X018895Y008970D01*
X018969Y008970D01*
X018858Y008970D02*
X018822Y009007D01*
X018840Y009007D02*
X018785Y009007D01*
X018785Y008970D02*
X018785Y009080D01*
X018840Y009080D01*
X018858Y009062D01*
X018858Y009025D01*
X018840Y009007D01*
X018882Y008395D02*
X018932Y008395D01*
X018957Y008370D01*
X018857Y008270D01*
X018882Y008245D01*
X018932Y008245D01*
X018957Y008270D01*
X018957Y008370D01*
X019005Y008395D02*
X019005Y008245D01*
X019005Y008295D02*
X019105Y008395D01*
X019030Y008320D02*
X019105Y008245D01*
X018857Y008270D02*
X018857Y008370D01*
X018882Y008395D01*
X018760Y008395D02*
X018760Y008245D01*
X018710Y008245D02*
X018810Y008245D01*
X018710Y008345D02*
X018760Y008395D01*
X021005Y008312D02*
X021030Y008337D01*
X021130Y008237D01*
X021155Y008262D01*
X021155Y008312D01*
X021130Y008337D01*
X021030Y008337D01*
X021005Y008312D02*
X021005Y008262D01*
X021030Y008237D01*
X021130Y008237D01*
X021130Y008384D02*
X021130Y008409D01*
X021155Y008409D01*
X021155Y008384D01*
X021130Y008384D01*
X021155Y008458D02*
X021155Y008558D01*
X021155Y008508D02*
X021005Y008508D01*
X021055Y008458D01*
X021055Y008605D02*
X021130Y008605D01*
X021155Y008630D01*
X021155Y008705D01*
X021055Y008705D01*
X021080Y008753D02*
X021080Y008803D01*
X021005Y008753D02*
X021005Y008853D01*
X021005Y008753D02*
X021155Y008753D01*
X021505Y008753D02*
X021505Y008853D01*
X021580Y008803D02*
X021580Y008753D01*
X021555Y008705D02*
X021655Y008705D01*
X021655Y008630D01*
X021630Y008605D01*
X021555Y008605D01*
X021505Y008508D02*
X021655Y008508D01*
X021655Y008458D02*
X021655Y008558D01*
X021730Y008549D02*
X021730Y008512D01*
X021748Y008494D01*
X021822Y008494D01*
X021840Y008512D01*
X021840Y008549D01*
X021822Y008567D01*
X021840Y008604D02*
X021767Y008677D01*
X021748Y008677D01*
X021730Y008659D01*
X021730Y008622D01*
X021748Y008604D01*
X021748Y008567D02*
X021730Y008549D01*
X021840Y008604D02*
X021840Y008677D01*
X021840Y008715D02*
X021767Y008788D01*
X021748Y008788D01*
X021730Y008770D01*
X021730Y008733D01*
X021748Y008715D01*
X021840Y008715D02*
X021840Y008788D01*
X021655Y008753D02*
X021505Y008753D01*
X021505Y008508D02*
X021555Y008458D01*
X021630Y008409D02*
X021655Y008409D01*
X021655Y008384D01*
X021630Y008384D01*
X021630Y008409D01*
X021630Y008337D02*
X021655Y008312D01*
X021655Y008262D01*
X021630Y008237D01*
X021530Y008337D01*
X021630Y008337D01*
X021630Y008237D02*
X021530Y008237D01*
X021505Y008262D01*
X021505Y008312D01*
X021530Y008337D01*
X022230Y008512D02*
X022248Y008494D01*
X022322Y008494D01*
X022340Y008512D01*
X022340Y008549D01*
X022322Y008567D01*
X022340Y008604D02*
X022267Y008677D01*
X022248Y008677D01*
X022230Y008659D01*
X022230Y008622D01*
X022248Y008604D01*
X022248Y008567D02*
X022230Y008549D01*
X022230Y008512D01*
X022340Y008604D02*
X022340Y008677D01*
X022285Y008715D02*
X022285Y008788D01*
X022340Y008770D02*
X022230Y008770D01*
X022285Y008715D01*
X022755Y009695D02*
X022730Y009720D01*
X022830Y009820D01*
X022830Y009720D01*
X022805Y009695D01*
X022755Y009695D01*
X022730Y009720D02*
X022730Y009820D01*
X022755Y009845D01*
X022805Y009845D01*
X022830Y009820D01*
X022877Y009720D02*
X022902Y009720D01*
X022902Y009695D01*
X022877Y009695D01*
X022877Y009720D01*
X022951Y009770D02*
X023051Y009770D01*
X023098Y009720D02*
X023098Y009695D01*
X023098Y009720D02*
X023198Y009820D01*
X023198Y009845D01*
X023098Y009845D01*
X023026Y009845D02*
X022951Y009770D01*
X023026Y009695D02*
X023026Y009845D01*
X023246Y009795D02*
X023246Y009720D01*
X023271Y009695D01*
X023346Y009695D01*
X023346Y009795D01*
X023393Y009770D02*
X023443Y009770D01*
X023393Y009695D02*
X023393Y009845D01*
X023493Y009845D01*
X023081Y010420D02*
X023044Y010420D01*
X023026Y010438D01*
X023026Y010475D02*
X023063Y010493D01*
X023081Y010493D01*
X023099Y010475D01*
X023099Y010438D01*
X023081Y010420D01*
X023026Y010475D02*
X023026Y010530D01*
X023099Y010530D01*
X022989Y010512D02*
X022971Y010530D01*
X022934Y010530D01*
X022915Y010512D01*
X022878Y010512D02*
X022860Y010530D01*
X022823Y010530D01*
X022805Y010512D01*
X022805Y010438D01*
X022823Y010420D01*
X022860Y010420D01*
X022878Y010438D01*
X022915Y010420D02*
X022989Y010493D01*
X022989Y010512D01*
X022989Y010420D02*
X022915Y010420D01*
X021719Y009915D02*
X021719Y009897D01*
X021646Y009823D01*
X021646Y009805D01*
X021609Y009860D02*
X021591Y009842D01*
X021535Y009842D01*
X021535Y009805D02*
X021535Y009915D01*
X021591Y009915D01*
X021609Y009897D01*
X021609Y009860D01*
X021646Y009915D02*
X021719Y009915D01*
X021498Y009915D02*
X021425Y009915D01*
X021462Y009915D02*
X021462Y009805D01*
X022552Y012055D02*
X022552Y012165D01*
X022588Y012165D02*
X022515Y012165D01*
X022625Y012165D02*
X022681Y012165D01*
X022699Y012147D01*
X022699Y012110D01*
X022681Y012092D01*
X022625Y012092D01*
X022625Y012055D02*
X022625Y012165D01*
X022736Y012147D02*
X022736Y012128D01*
X022754Y012110D01*
X022809Y012110D01*
X022809Y012073D02*
X022809Y012147D01*
X022791Y012165D01*
X022754Y012165D01*
X022736Y012147D01*
X022736Y012073D02*
X022754Y012055D01*
X022791Y012055D01*
X022809Y012073D01*
X021949Y012133D02*
X021931Y012115D01*
X021894Y012115D01*
X021876Y012133D01*
X021876Y012152D01*
X021894Y012170D01*
X021931Y012170D01*
X021949Y012152D01*
X021949Y012133D01*
X021931Y012170D02*
X021949Y012188D01*
X021949Y012207D01*
X021931Y012225D01*
X021894Y012225D01*
X021876Y012207D01*
X021876Y012188D01*
X021894Y012170D01*
X021839Y012170D02*
X021821Y012152D01*
X021765Y012152D01*
X021765Y012115D02*
X021765Y012225D01*
X021821Y012225D01*
X021839Y012207D01*
X021839Y012170D01*
X021728Y012225D02*
X021655Y012225D01*
X021692Y012225D02*
X021692Y012115D01*
X021874Y013420D02*
X021874Y013530D01*
X021929Y013530D01*
X021947Y013512D01*
X021947Y013475D01*
X021929Y013457D01*
X021874Y013457D01*
X021911Y013457D02*
X021947Y013420D01*
X021985Y013438D02*
X022003Y013420D01*
X022040Y013420D01*
X022058Y013438D01*
X022058Y013475D01*
X022040Y013493D01*
X022021Y013493D01*
X021985Y013475D01*
X021985Y013530D01*
X022058Y013530D01*
X022023Y014105D02*
X022023Y014255D01*
X021975Y014255D02*
X021925Y014230D01*
X021875Y014180D01*
X021950Y014180D01*
X021975Y014155D01*
X021975Y014130D01*
X021950Y014105D01*
X021900Y014105D01*
X021875Y014130D01*
X021875Y014180D01*
X021827Y014130D02*
X021827Y014105D01*
X021802Y014105D01*
X021802Y014130D01*
X021827Y014130D01*
X021754Y014105D02*
X021654Y014105D01*
X021704Y014105D02*
X021704Y014255D01*
X021654Y014205D01*
X022023Y014155D02*
X022123Y014255D01*
X022048Y014180D02*
X022123Y014105D01*
X018655Y013465D02*
X018555Y013365D01*
X018580Y013390D02*
X018655Y013315D01*
X018555Y013315D02*
X018555Y013465D01*
X018507Y013440D02*
X018407Y013340D01*
X018432Y013315D01*
X018482Y013315D01*
X018507Y013340D01*
X018507Y013440D01*
X018482Y013465D01*
X018432Y013465D01*
X018407Y013440D01*
X018407Y013340D01*
X018360Y013315D02*
X018260Y013315D01*
X018310Y013315D02*
X018310Y013465D01*
X018260Y013415D01*
X018335Y014040D02*
X018335Y014150D01*
X018390Y014150D01*
X018408Y014132D01*
X018408Y014095D01*
X018390Y014077D01*
X018335Y014077D01*
X018372Y014077D02*
X018408Y014040D01*
X018445Y014058D02*
X018464Y014040D01*
X018501Y014040D01*
X018519Y014058D01*
X018519Y014077D01*
X018501Y014095D01*
X018445Y014095D01*
X018445Y014058D01*
X018445Y014095D02*
X018482Y014132D01*
X018519Y014150D01*
X012373Y009395D02*
X012373Y009285D01*
X012336Y009285D02*
X012410Y009285D01*
X012336Y009358D02*
X012373Y009395D01*
X012263Y009395D02*
X012263Y009285D01*
X012299Y009285D02*
X012226Y009285D01*
X012189Y009340D02*
X012171Y009322D01*
X012115Y009322D01*
X012115Y009285D02*
X012115Y009395D01*
X012171Y009395D01*
X012189Y009377D01*
X012189Y009340D01*
X012226Y009358D02*
X012263Y009395D01*
X012078Y009395D02*
X012005Y009395D01*
X012042Y009395D02*
X012042Y009285D01*
X013055Y009065D02*
X013128Y009065D01*
X013092Y009065D02*
X013092Y008955D01*
X013165Y008955D02*
X013165Y009065D01*
X013221Y009065D01*
X013239Y009047D01*
X013239Y009010D01*
X013221Y008992D01*
X013165Y008992D01*
X013276Y009028D02*
X013313Y009065D01*
X013313Y008955D01*
X013349Y008955D02*
X013276Y008955D01*
X013386Y008973D02*
X013386Y008992D01*
X013405Y009010D01*
X013442Y009010D01*
X013460Y008992D01*
X013460Y008973D01*
X013442Y008955D01*
X013405Y008955D01*
X013386Y008973D01*
X013405Y009010D02*
X013386Y009028D01*
X013386Y009047D01*
X013405Y009065D01*
X013442Y009065D01*
X013460Y009047D01*
X013460Y009028D01*
X013442Y009010D01*
X011620Y008117D02*
X011620Y008098D01*
X011546Y008025D01*
X011620Y008025D01*
X011620Y008117D02*
X011602Y008135D01*
X011565Y008135D01*
X011546Y008117D01*
X011473Y008135D02*
X011473Y008025D01*
X011509Y008025D02*
X011436Y008025D01*
X011399Y008080D02*
X011381Y008062D01*
X011325Y008062D01*
X011325Y008025D02*
X011325Y008135D01*
X011381Y008135D01*
X011399Y008117D01*
X011399Y008080D01*
X011436Y008098D02*
X011473Y008135D01*
X011288Y008135D02*
X011215Y008135D01*
X011252Y008135D02*
X011252Y008025D01*
X010700Y007617D02*
X010682Y007635D01*
X010645Y007635D01*
X010626Y007617D01*
X010663Y007580D02*
X010682Y007580D01*
X010700Y007562D01*
X010700Y007543D01*
X010682Y007525D01*
X010645Y007525D01*
X010626Y007543D01*
X010589Y007525D02*
X010516Y007525D01*
X010553Y007525D02*
X010553Y007635D01*
X010516Y007598D01*
X010479Y007580D02*
X010461Y007562D01*
X010405Y007562D01*
X010405Y007525D02*
X010405Y007635D01*
X010461Y007635D01*
X010479Y007617D01*
X010479Y007580D01*
X010368Y007635D02*
X010295Y007635D01*
X010332Y007635D02*
X010332Y007525D01*
X010682Y007580D02*
X010700Y007598D01*
X010700Y007617D01*
X009019Y006795D02*
X008945Y006795D01*
X008945Y006740D01*
X008982Y006758D01*
X009001Y006758D01*
X009019Y006740D01*
X009019Y006703D01*
X009001Y006685D01*
X008964Y006685D01*
X008945Y006703D01*
X008908Y006703D02*
X008890Y006685D01*
X008853Y006685D01*
X008835Y006703D01*
X008835Y006777D01*
X008853Y006795D01*
X008890Y006795D01*
X008908Y006777D01*
X008908Y006703D01*
X008908Y006685D02*
X008872Y006722D01*
X008040Y006883D02*
X008022Y006865D01*
X007985Y006865D01*
X007966Y006883D01*
X008040Y006957D01*
X008040Y006883D01*
X007966Y006883D02*
X007966Y006957D01*
X007985Y006975D01*
X008022Y006975D01*
X008040Y006957D01*
X007929Y006957D02*
X007929Y006938D01*
X007911Y006920D01*
X007929Y006902D01*
X007929Y006883D01*
X007911Y006865D01*
X007874Y006865D01*
X007856Y006883D01*
X007893Y006920D02*
X007911Y006920D01*
X007929Y006957D02*
X007911Y006975D01*
X007874Y006975D01*
X007856Y006957D01*
X007819Y006957D02*
X007819Y006920D01*
X007801Y006902D01*
X007745Y006902D01*
X007745Y006865D02*
X007745Y006975D01*
X007801Y006975D01*
X007819Y006957D01*
X007708Y006975D02*
X007635Y006975D01*
X007672Y006975D02*
X007672Y006865D01*
X006688Y006820D02*
X006615Y006820D01*
X006651Y006820D02*
X006651Y006930D01*
X006615Y006893D01*
X006577Y006820D02*
X006504Y006820D01*
X006541Y006820D02*
X006541Y006930D01*
X006504Y006893D01*
X006467Y006875D02*
X006449Y006857D01*
X006394Y006857D01*
X006430Y006857D02*
X006467Y006820D01*
X006467Y006875D02*
X006467Y006912D01*
X006449Y006930D01*
X006394Y006930D01*
X006394Y006820D01*
X006420Y005898D02*
X006420Y005825D01*
X006420Y005861D02*
X006310Y005861D01*
X006347Y005825D01*
X006347Y005787D02*
X006328Y005787D01*
X006310Y005769D01*
X006310Y005732D01*
X006328Y005714D01*
X006328Y005677D02*
X006310Y005659D01*
X006310Y005622D01*
X006328Y005604D01*
X006402Y005604D01*
X006420Y005622D01*
X006420Y005659D01*
X006402Y005677D01*
X006420Y005714D02*
X006347Y005787D01*
X006420Y005787D02*
X006420Y005714D01*
X004840Y006267D02*
X004766Y006193D01*
X004766Y006175D01*
X004729Y006175D02*
X004656Y006175D01*
X004729Y006248D01*
X004729Y006267D01*
X004711Y006285D01*
X004674Y006285D01*
X004656Y006267D01*
X004619Y006267D02*
X004619Y006230D01*
X004601Y006212D01*
X004545Y006212D01*
X004545Y006175D02*
X004545Y006285D01*
X004601Y006285D01*
X004619Y006267D01*
X004508Y006285D02*
X004435Y006285D01*
X004472Y006285D02*
X004472Y006175D01*
X004766Y006285D02*
X004840Y006285D01*
X004840Y006267D01*
X004259Y006858D02*
X004241Y006840D01*
X004204Y006840D01*
X004186Y006858D01*
X004186Y006877D01*
X004204Y006895D01*
X004241Y006895D01*
X004259Y006877D01*
X004259Y006858D01*
X004241Y006895D02*
X004259Y006913D01*
X004259Y006932D01*
X004241Y006950D01*
X004204Y006950D01*
X004186Y006932D01*
X004186Y006913D01*
X004204Y006895D01*
X004149Y006840D02*
X004075Y006840D01*
X004112Y006840D02*
X004112Y006950D01*
X004075Y006913D01*
X004038Y006932D02*
X004020Y006950D01*
X003983Y006950D01*
X003965Y006932D01*
X003965Y006858D01*
X003983Y006840D01*
X004020Y006840D01*
X004038Y006858D01*
X004020Y007340D02*
X004038Y007358D01*
X004020Y007340D02*
X003983Y007340D01*
X003965Y007358D01*
X003965Y007432D01*
X003983Y007450D01*
X004020Y007450D01*
X004038Y007432D01*
X004075Y007413D02*
X004112Y007450D01*
X004112Y007340D01*
X004075Y007340D02*
X004149Y007340D01*
X004186Y007340D02*
X004186Y007358D01*
X004259Y007432D01*
X004259Y007450D01*
X004186Y007450D01*
X004204Y007840D02*
X004241Y007840D01*
X004259Y007858D01*
X004259Y007877D01*
X004241Y007895D01*
X004186Y007895D01*
X004186Y007858D01*
X004204Y007840D01*
X004149Y007840D02*
X004075Y007840D01*
X004112Y007840D02*
X004112Y007950D01*
X004075Y007913D01*
X004038Y007932D02*
X004020Y007950D01*
X003983Y007950D01*
X003965Y007932D01*
X003965Y007858D01*
X003983Y007840D01*
X004020Y007840D01*
X004038Y007858D01*
X004186Y007895D02*
X004223Y007932D01*
X004259Y007950D01*
X004352Y008270D02*
X004389Y008270D01*
X004407Y008288D01*
X004444Y008270D02*
X004517Y008270D01*
X004481Y008270D02*
X004481Y008380D01*
X004444Y008343D01*
X004407Y008362D02*
X004389Y008380D01*
X004352Y008380D01*
X004334Y008362D01*
X004334Y008288D01*
X004352Y008270D01*
X004259Y008358D02*
X004241Y008340D01*
X004204Y008340D01*
X004186Y008358D01*
X004186Y008395D02*
X004223Y008413D01*
X004241Y008413D01*
X004259Y008395D01*
X004259Y008358D01*
X004186Y008395D02*
X004186Y008450D01*
X004259Y008450D01*
X004112Y008450D02*
X004112Y008340D01*
X004075Y008340D02*
X004149Y008340D01*
X004075Y008413D02*
X004112Y008450D01*
X004038Y008432D02*
X004020Y008450D01*
X003983Y008450D01*
X003965Y008432D01*
X003965Y008358D01*
X003983Y008340D01*
X004020Y008340D01*
X004038Y008358D01*
X004035Y008639D02*
X004135Y008639D01*
X004085Y008715D02*
X004035Y008715D01*
X004035Y008790D02*
X004035Y008639D01*
X003938Y008715D02*
X003888Y008715D01*
X003841Y008689D02*
X003841Y008664D01*
X003816Y008639D01*
X003766Y008639D01*
X003741Y008664D01*
X003693Y008664D02*
X003693Y008765D01*
X003668Y008790D01*
X003618Y008790D01*
X003593Y008765D01*
X003593Y008664D01*
X003618Y008639D01*
X003668Y008639D01*
X003693Y008664D01*
X003766Y008715D02*
X003816Y008715D01*
X003841Y008689D01*
X003888Y008639D02*
X003888Y008790D01*
X003988Y008790D01*
X004035Y008790D02*
X004135Y008790D01*
X004183Y008790D02*
X004283Y008790D01*
X004233Y008790D02*
X004233Y008639D01*
X004330Y008715D02*
X004430Y008715D01*
X004477Y008790D02*
X004577Y008639D01*
X004577Y008790D01*
X004624Y008765D02*
X004624Y008664D01*
X004649Y008639D01*
X004700Y008639D01*
X004725Y008664D01*
X004772Y008639D02*
X004772Y008790D01*
X004725Y008765D02*
X004700Y008790D01*
X004649Y008790D01*
X004624Y008765D01*
X004477Y008790D02*
X004477Y008639D01*
X004772Y008715D02*
X004872Y008715D01*
X004919Y008715D02*
X005019Y008715D01*
X005019Y008740D02*
X005019Y008639D01*
X005066Y008639D02*
X005066Y008790D01*
X005167Y008639D01*
X005167Y008790D01*
X005214Y008790D02*
X005314Y008639D01*
X005314Y008790D01*
X005361Y008790D02*
X005361Y008639D01*
X005461Y008639D01*
X005508Y008639D02*
X005609Y008639D01*
X005656Y008639D02*
X005756Y008740D01*
X005756Y008765D01*
X005731Y008790D01*
X005681Y008790D01*
X005656Y008765D01*
X005656Y008639D02*
X005756Y008639D01*
X005803Y008639D02*
X005803Y008790D01*
X005903Y008639D01*
X005903Y008790D01*
X005950Y008790D02*
X006050Y008790D01*
X006050Y008765D01*
X005950Y008664D01*
X005950Y008639D01*
X006098Y008664D02*
X006198Y008765D01*
X006198Y008664D01*
X006173Y008639D01*
X006123Y008639D01*
X006098Y008664D01*
X006098Y008765D01*
X006123Y008790D01*
X006173Y008790D01*
X006198Y008765D01*
X006245Y008765D02*
X006245Y008664D01*
X006345Y008765D01*
X006345Y008664D01*
X006320Y008639D01*
X006270Y008639D01*
X006245Y008664D01*
X006245Y008765D02*
X006270Y008790D01*
X006320Y008790D01*
X006345Y008765D01*
X006392Y008765D02*
X006417Y008790D01*
X006467Y008790D01*
X006492Y008765D01*
X006492Y008740D01*
X006392Y008639D01*
X006492Y008639D01*
X006540Y008639D02*
X006540Y008790D01*
X006615Y008790D01*
X006640Y008765D01*
X006640Y008715D01*
X006615Y008689D01*
X006540Y008689D01*
X006687Y008639D02*
X006737Y008689D01*
X006787Y008639D01*
X006787Y008790D01*
X006687Y008790D02*
X006687Y008639D01*
X006672Y008566D02*
X006691Y008547D01*
X006691Y008474D01*
X006672Y008456D01*
X006635Y008456D01*
X006617Y008474D01*
X006617Y008547D01*
X006635Y008566D01*
X006672Y008566D01*
X006728Y008566D02*
X006801Y008566D01*
X006801Y008547D01*
X006728Y008474D01*
X006728Y008456D01*
X006691Y008456D02*
X006654Y008492D01*
X005508Y008639D02*
X005508Y008790D01*
X005461Y008790D02*
X005361Y008790D01*
X005361Y008715D02*
X005411Y008715D01*
X005214Y008790D02*
X005214Y008639D01*
X005019Y008740D02*
X004969Y008790D01*
X004919Y008740D01*
X004919Y008639D01*
X004872Y008639D02*
X004872Y008790D01*
X004610Y008380D02*
X004573Y008380D01*
X004555Y008362D01*
X004591Y008325D02*
X004610Y008325D01*
X004628Y008307D01*
X004628Y008288D01*
X004610Y008270D01*
X004573Y008270D01*
X004555Y008288D01*
X004610Y008325D02*
X004628Y008343D01*
X004628Y008362D01*
X004610Y008380D01*
X003841Y008765D02*
X003816Y008790D01*
X003766Y008790D01*
X003741Y008765D01*
X003741Y008740D01*
X003766Y008715D01*
X003546Y008790D02*
X003546Y008639D01*
X003446Y008639D02*
X003446Y008790D01*
X003496Y008740D01*
X003546Y008790D01*
X003983Y009540D02*
X004020Y009540D01*
X004038Y009558D01*
X004075Y009540D02*
X004149Y009540D01*
X004112Y009540D02*
X004112Y009650D01*
X004075Y009613D01*
X004038Y009632D02*
X004020Y009650D01*
X003983Y009650D01*
X003965Y009632D01*
X003965Y009558D01*
X003983Y009540D01*
X004186Y009540D02*
X004259Y009613D01*
X004259Y009632D01*
X004241Y009650D01*
X004204Y009650D01*
X004186Y009632D01*
X004186Y009540D02*
X004259Y009540D01*
X004352Y009870D02*
X004389Y009870D01*
X004407Y009888D01*
X004444Y009870D02*
X004517Y009870D01*
X004481Y009870D02*
X004481Y009980D01*
X004444Y009943D01*
X004407Y009962D02*
X004389Y009980D01*
X004352Y009980D01*
X004334Y009962D01*
X004334Y009888D01*
X004352Y009870D01*
X004259Y010040D02*
X004186Y010040D01*
X004223Y010040D02*
X004223Y010150D01*
X004186Y010113D01*
X004149Y010040D02*
X004075Y010040D01*
X004112Y010040D02*
X004112Y010150D01*
X004075Y010113D01*
X004038Y010132D02*
X004020Y010150D01*
X003983Y010150D01*
X003965Y010132D01*
X003965Y010058D01*
X003983Y010040D01*
X004020Y010040D01*
X004038Y010058D01*
X004555Y009962D02*
X004573Y009980D01*
X004610Y009980D01*
X004628Y009962D01*
X004555Y009888D01*
X004573Y009870D01*
X004610Y009870D01*
X004628Y009888D01*
X004628Y009962D01*
X004555Y009962D02*
X004555Y009888D01*
X004131Y011040D02*
X004149Y011058D01*
X004149Y011132D01*
X004131Y011150D01*
X004094Y011150D01*
X004075Y011132D01*
X004075Y011113D01*
X004094Y011095D01*
X004149Y011095D01*
X004131Y011040D02*
X004094Y011040D01*
X004075Y011058D01*
X004038Y011058D02*
X004020Y011040D01*
X003983Y011040D01*
X003965Y011058D01*
X003965Y011132D01*
X003983Y011150D01*
X004020Y011150D01*
X004038Y011132D01*
X004020Y011540D02*
X004038Y011558D01*
X004020Y011540D02*
X003983Y011540D01*
X003965Y011558D01*
X003965Y011632D01*
X003983Y011650D01*
X004020Y011650D01*
X004038Y011632D01*
X004075Y011632D02*
X004075Y011613D01*
X004094Y011595D01*
X004131Y011595D01*
X004149Y011577D01*
X004149Y011558D01*
X004131Y011540D01*
X004094Y011540D01*
X004075Y011558D01*
X004075Y011577D01*
X004094Y011595D01*
X004131Y011595D02*
X004149Y011613D01*
X004149Y011632D01*
X004131Y011650D01*
X004094Y011650D01*
X004075Y011632D01*
X004075Y012040D02*
X004075Y012058D01*
X004149Y012132D01*
X004149Y012150D01*
X004075Y012150D01*
X004038Y012132D02*
X004020Y012150D01*
X003983Y012150D01*
X003965Y012132D01*
X003965Y012058D01*
X003983Y012040D01*
X004020Y012040D01*
X004038Y012058D01*
X004020Y012540D02*
X004038Y012558D01*
X004020Y012540D02*
X003983Y012540D01*
X003965Y012558D01*
X003965Y012632D01*
X003983Y012650D01*
X004020Y012650D01*
X004038Y012632D01*
X004075Y012595D02*
X004131Y012595D01*
X004149Y012577D01*
X004149Y012558D01*
X004131Y012540D01*
X004094Y012540D01*
X004075Y012558D01*
X004075Y012595D01*
X004112Y012632D01*
X004149Y012650D01*
X004444Y012788D02*
X004462Y012770D01*
X004499Y012770D01*
X004517Y012788D01*
X004555Y012788D02*
X004573Y012770D01*
X004610Y012770D01*
X004628Y012788D01*
X004628Y012825D01*
X004610Y012843D01*
X004591Y012843D01*
X004555Y012825D01*
X004555Y012880D01*
X004628Y012880D01*
X004517Y012862D02*
X004499Y012880D01*
X004462Y012880D01*
X004444Y012862D01*
X004444Y012788D01*
X007244Y012600D02*
X007244Y012490D01*
X007244Y012527D02*
X007299Y012527D01*
X007317Y012545D01*
X007317Y012582D01*
X007299Y012600D01*
X007244Y012600D01*
X007280Y012527D02*
X007317Y012490D01*
X007354Y012490D02*
X007427Y012490D01*
X007391Y012490D02*
X007391Y012600D01*
X007354Y012563D01*
X007465Y012545D02*
X007501Y012563D01*
X007520Y012563D01*
X007538Y012545D01*
X007538Y012508D01*
X007520Y012490D01*
X007483Y012490D01*
X007465Y012508D01*
X007465Y012545D02*
X007465Y012600D01*
X007538Y012600D01*
X007340Y011800D02*
X007303Y011800D01*
X007285Y011782D01*
X007285Y011763D01*
X007303Y011745D01*
X007358Y011745D01*
X007358Y011708D02*
X007358Y011782D01*
X007340Y011800D01*
X007358Y011708D02*
X007340Y011690D01*
X007303Y011690D01*
X007285Y011708D01*
X007247Y011690D02*
X007174Y011690D01*
X007211Y011690D02*
X007211Y011800D01*
X007174Y011763D01*
X007137Y011782D02*
X007119Y011800D01*
X007082Y011800D01*
X007064Y011782D01*
X007064Y011708D01*
X007082Y011690D01*
X007119Y011690D01*
X007137Y011708D01*
X001330Y012972D02*
X001330Y013009D01*
X001312Y013027D01*
X001312Y013065D02*
X001330Y013083D01*
X001330Y013120D01*
X001312Y013138D01*
X001293Y013138D01*
X001275Y013120D01*
X001275Y013101D01*
X001275Y013120D02*
X001257Y013138D01*
X001238Y013138D01*
X001220Y013120D01*
X001220Y013083D01*
X001238Y013065D01*
X001238Y013027D02*
X001220Y013009D01*
X001220Y012972D01*
X001238Y012954D01*
X001312Y012954D01*
X001330Y012972D01*
X000785Y010929D02*
X000785Y010855D01*
X000730Y010911D01*
X000840Y010911D01*
X000822Y010818D02*
X000840Y010800D01*
X000840Y010763D01*
X000822Y010745D01*
X000748Y010745D01*
X000730Y010763D01*
X000730Y010800D01*
X000748Y010818D01*
X000762Y007075D02*
X000762Y006965D01*
X000835Y006965D02*
X000835Y007075D01*
X000891Y007075D01*
X000909Y007057D01*
X000909Y007020D01*
X000891Y007002D01*
X000835Y007002D01*
X000798Y007075D02*
X000725Y007075D01*
X000946Y007057D02*
X000964Y007075D01*
X001001Y007075D01*
X001019Y007057D01*
X001019Y007038D01*
X000946Y006965D01*
X001019Y006965D01*
X001056Y006983D02*
X001075Y006965D01*
X001112Y006965D01*
X001130Y006983D01*
X001130Y007057D01*
X001112Y007075D01*
X001075Y007075D01*
X001056Y007057D01*
X001056Y007038D01*
X001075Y007020D01*
X001130Y007020D01*
X003215Y005455D02*
X003288Y005455D01*
X003252Y005455D02*
X003252Y005345D01*
X003325Y005345D02*
X003325Y005455D01*
X003381Y005455D01*
X003399Y005437D01*
X003399Y005400D01*
X003381Y005382D01*
X003325Y005382D01*
X003436Y005345D02*
X003509Y005418D01*
X003509Y005437D01*
X003491Y005455D01*
X003454Y005455D01*
X003436Y005437D01*
X003436Y005345D02*
X003509Y005345D01*
X003546Y005363D02*
X003546Y005382D01*
X003565Y005400D01*
X003602Y005400D01*
X003620Y005382D01*
X003620Y005363D01*
X003602Y005345D01*
X003565Y005345D01*
X003546Y005363D01*
X003565Y005400D02*
X003546Y005418D01*
X003546Y005437D01*
X003565Y005455D01*
X003602Y005455D01*
X003620Y005437D01*
X003620Y005418D01*
X003602Y005400D01*
X004105Y005545D02*
X004178Y005545D01*
X004142Y005545D02*
X004142Y005435D01*
X004215Y005435D02*
X004215Y005545D01*
X004271Y005545D01*
X004289Y005527D01*
X004289Y005490D01*
X004271Y005472D01*
X004215Y005472D01*
X004326Y005435D02*
X004399Y005508D01*
X004399Y005527D01*
X004381Y005545D01*
X004344Y005545D01*
X004326Y005527D01*
X004326Y005435D02*
X004399Y005435D01*
X004436Y005453D02*
X004455Y005435D01*
X004492Y005435D01*
X004510Y005453D01*
X004510Y005472D01*
X004492Y005490D01*
X004436Y005490D01*
X004436Y005453D01*
X004436Y005490D02*
X004473Y005527D01*
X004510Y005545D01*
X001863Y003630D02*
X001838Y003655D01*
X001788Y003655D01*
X001763Y003630D01*
X001763Y003530D01*
X001863Y003630D01*
X001863Y003530D01*
X001838Y003505D01*
X001788Y003505D01*
X001763Y003530D01*
X001715Y003530D02*
X001690Y003505D01*
X001640Y003505D01*
X001615Y003530D01*
X001615Y003555D01*
X001640Y003580D01*
X001690Y003580D01*
X001715Y003555D01*
X001715Y003530D01*
X001690Y003580D02*
X001715Y003605D01*
X001715Y003630D01*
X001690Y003655D01*
X001640Y003655D01*
X001615Y003630D01*
X001615Y003605D01*
X001640Y003580D01*
X001632Y002930D02*
X001614Y002912D01*
X001632Y002930D02*
X001669Y002930D01*
X001687Y002912D01*
X001687Y002893D01*
X001614Y002820D01*
X001687Y002820D01*
X001725Y002838D02*
X001743Y002820D01*
X001780Y002820D01*
X001798Y002838D01*
X001798Y002857D01*
X001780Y002875D01*
X001761Y002875D01*
X001780Y002875D02*
X001798Y002893D01*
X001798Y002912D01*
X001780Y002930D01*
X001743Y002930D01*
X001725Y002912D01*
X001577Y002912D02*
X001577Y002875D01*
X001559Y002857D01*
X001504Y002857D01*
X001540Y002857D02*
X001577Y002820D01*
X001504Y002820D02*
X001504Y002930D01*
X001559Y002930D01*
X001577Y002912D01*
X001259Y002850D02*
X001185Y002850D01*
X001185Y002795D01*
X001222Y002813D01*
X001241Y002813D01*
X001259Y002795D01*
X001259Y002758D01*
X001241Y002740D01*
X001204Y002740D01*
X001185Y002758D01*
X001148Y002758D02*
X001148Y002832D01*
X001130Y002850D01*
X001075Y002850D01*
X001075Y002740D01*
X001130Y002740D01*
X001148Y002758D01*
X001172Y002190D02*
X001172Y002040D01*
X001272Y002040D01*
X001320Y002065D02*
X001345Y002040D01*
X001395Y002040D01*
X001420Y002065D01*
X001420Y002190D01*
X001467Y002190D02*
X001467Y002040D01*
X001567Y002040D01*
X001517Y002115D02*
X001467Y002115D01*
X001467Y002190D02*
X001567Y002190D01*
X001320Y002190D02*
X001320Y002065D01*
X001125Y002065D02*
X001100Y002040D01*
X001025Y002040D01*
X001025Y002190D01*
X001100Y002190D01*
X001125Y002165D01*
X001125Y002140D01*
X001100Y002115D01*
X001025Y002115D01*
X001100Y002115D02*
X001125Y002090D01*
X001125Y002065D01*
X003595Y002085D02*
X003670Y002085D01*
X003695Y002060D01*
X003695Y002035D01*
X003670Y002010D01*
X003595Y002010D01*
X003595Y002160D01*
X003670Y002160D01*
X003695Y002135D01*
X003695Y002110D01*
X003670Y002085D01*
X003742Y002160D02*
X003742Y002010D01*
X003842Y002010D01*
X003890Y002035D02*
X003915Y002010D01*
X003965Y002010D01*
X003990Y002035D01*
X003990Y002160D01*
X004037Y002160D02*
X004037Y002010D01*
X004137Y002010D01*
X004087Y002085D02*
X004037Y002085D01*
X004037Y002160D02*
X004137Y002160D01*
X003890Y002160D02*
X003890Y002035D01*
X003811Y002710D02*
X003774Y002710D01*
X003755Y002728D01*
X003755Y002765D01*
X003811Y002765D01*
X003829Y002747D01*
X003829Y002728D01*
X003811Y002710D01*
X003755Y002765D02*
X003792Y002802D01*
X003829Y002820D01*
X003718Y002802D02*
X003700Y002820D01*
X003645Y002820D01*
X003645Y002710D01*
X003700Y002710D01*
X003718Y002728D01*
X003718Y002802D01*
X003974Y002790D02*
X003974Y002900D01*
X004029Y002900D01*
X004047Y002882D01*
X004047Y002845D01*
X004029Y002827D01*
X003974Y002827D01*
X004010Y002827D02*
X004047Y002790D01*
X004084Y002790D02*
X004157Y002863D01*
X004157Y002882D01*
X004139Y002900D01*
X004102Y002900D01*
X004084Y002882D01*
X004084Y002790D02*
X004157Y002790D01*
X004195Y002845D02*
X004268Y002845D01*
X004250Y002790D02*
X004250Y002900D01*
X004195Y002845D01*
X004160Y003475D02*
X004110Y003475D01*
X004085Y003500D01*
X004085Y003525D01*
X004110Y003550D01*
X004160Y003550D01*
X004185Y003525D01*
X004185Y003500D01*
X004160Y003475D01*
X004160Y003550D02*
X004185Y003575D01*
X004185Y003600D01*
X004160Y003625D01*
X004110Y003625D01*
X004085Y003600D01*
X004085Y003575D01*
X004110Y003550D01*
X004233Y003500D02*
X004333Y003600D01*
X004333Y003500D01*
X004308Y003475D01*
X004258Y003475D01*
X004233Y003500D01*
X004233Y003600D01*
X004258Y003625D01*
X004308Y003625D01*
X004333Y003600D01*
X006225Y002900D02*
X006225Y002790D01*
X006280Y002790D01*
X006298Y002808D01*
X006298Y002882D01*
X006280Y002900D01*
X006225Y002900D01*
X006335Y002900D02*
X006409Y002900D01*
X006409Y002882D01*
X006335Y002808D01*
X006335Y002790D01*
X006634Y002777D02*
X006689Y002777D01*
X006707Y002795D01*
X006707Y002832D01*
X006689Y002850D01*
X006634Y002850D01*
X006634Y002740D01*
X006670Y002777D02*
X006707Y002740D01*
X006744Y002740D02*
X006817Y002813D01*
X006817Y002832D01*
X006799Y002850D01*
X006762Y002850D01*
X006744Y002832D01*
X006744Y002740D02*
X006817Y002740D01*
X006855Y002758D02*
X006873Y002740D01*
X006910Y002740D01*
X006928Y002758D01*
X006928Y002795D01*
X006910Y002813D01*
X006891Y002813D01*
X006855Y002795D01*
X006855Y002850D01*
X006928Y002850D01*
X006717Y002240D02*
X006617Y002240D01*
X006617Y002090D01*
X006717Y002090D01*
X006667Y002165D02*
X006617Y002165D01*
X006570Y002115D02*
X006570Y002240D01*
X006470Y002240D02*
X006470Y002115D01*
X006495Y002090D01*
X006545Y002090D01*
X006570Y002115D01*
X006422Y002090D02*
X006322Y002090D01*
X006322Y002240D01*
X006275Y002215D02*
X006250Y002240D01*
X006175Y002240D01*
X006175Y002090D01*
X006250Y002090D01*
X006275Y002115D01*
X006275Y002140D01*
X006250Y002165D01*
X006175Y002165D01*
X006250Y002165D02*
X006275Y002190D01*
X006275Y002215D01*
X006770Y003425D02*
X006745Y003450D01*
X006745Y003475D01*
X006770Y003500D01*
X006820Y003500D01*
X006845Y003475D01*
X006845Y003450D01*
X006820Y003425D01*
X006770Y003425D01*
X006770Y003500D02*
X006745Y003525D01*
X006745Y003550D01*
X006770Y003575D01*
X006820Y003575D01*
X006845Y003550D01*
X006845Y003525D01*
X006820Y003500D01*
X006893Y003450D02*
X006993Y003550D01*
X006993Y003450D01*
X006968Y003425D01*
X006918Y003425D01*
X006893Y003450D01*
X006893Y003550D01*
X006918Y003575D01*
X006968Y003575D01*
X006993Y003550D01*
X008584Y004163D02*
X008602Y004145D01*
X008639Y004145D01*
X008657Y004163D01*
X008657Y004237D01*
X008639Y004255D01*
X008602Y004255D01*
X008584Y004237D01*
X008584Y004163D01*
X008621Y004182D02*
X008657Y004145D01*
X008695Y004200D02*
X008768Y004200D01*
X008750Y004145D02*
X008750Y004255D01*
X008695Y004200D01*
X009522Y004705D02*
X009522Y004815D01*
X009558Y004815D02*
X009485Y004815D01*
X009595Y004815D02*
X009651Y004815D01*
X009669Y004797D01*
X009669Y004760D01*
X009651Y004742D01*
X009595Y004742D01*
X009595Y004705D02*
X009595Y004815D01*
X009706Y004778D02*
X009743Y004815D01*
X009743Y004705D01*
X009779Y004705D02*
X009706Y004705D01*
X009816Y004723D02*
X009835Y004705D01*
X009872Y004705D01*
X009890Y004723D01*
X009890Y004742D01*
X009872Y004760D01*
X009816Y004760D01*
X009816Y004723D01*
X009816Y004760D02*
X009853Y004797D01*
X009890Y004815D01*
X010472Y005165D02*
X010472Y005275D01*
X010508Y005275D02*
X010435Y005275D01*
X010545Y005275D02*
X010545Y005165D01*
X010545Y005202D02*
X010601Y005202D01*
X010619Y005220D01*
X010619Y005257D01*
X010601Y005275D01*
X010545Y005275D01*
X010656Y005238D02*
X010693Y005275D01*
X010693Y005165D01*
X010729Y005165D02*
X010656Y005165D01*
X010766Y005183D02*
X010785Y005165D01*
X010822Y005165D01*
X010840Y005183D01*
X010840Y005220D01*
X010822Y005238D01*
X010803Y005238D01*
X010766Y005220D01*
X010766Y005275D01*
X010840Y005275D01*
X010873Y004435D02*
X010873Y004325D01*
X010909Y004325D02*
X010836Y004325D01*
X010799Y004380D02*
X010781Y004362D01*
X010725Y004362D01*
X010725Y004325D02*
X010725Y004435D01*
X010781Y004435D01*
X010799Y004417D01*
X010799Y004380D01*
X010836Y004398D02*
X010873Y004435D01*
X010946Y004435D02*
X011020Y004435D01*
X011020Y004417D01*
X010946Y004343D01*
X010946Y004325D01*
X010688Y004435D02*
X010615Y004435D01*
X010652Y004435D02*
X010652Y004325D01*
X011325Y003963D02*
X011325Y003863D01*
X011475Y003863D01*
X011475Y003815D02*
X011375Y003815D01*
X011400Y003863D02*
X011400Y003913D01*
X011475Y003815D02*
X011475Y003740D01*
X011450Y003715D01*
X011375Y003715D01*
X011325Y003618D02*
X011475Y003618D01*
X011475Y003568D02*
X011475Y003668D01*
X011375Y003568D02*
X011325Y003618D01*
X011450Y003519D02*
X011475Y003519D01*
X011475Y003494D01*
X011450Y003494D01*
X011450Y003519D01*
X011450Y003447D02*
X011475Y003422D01*
X011475Y003372D01*
X011450Y003347D01*
X011350Y003447D01*
X011450Y003447D01*
X011450Y003347D02*
X011350Y003347D01*
X011325Y003372D01*
X011325Y003422D01*
X011350Y003447D01*
X012050Y003622D02*
X012050Y003659D01*
X012068Y003677D01*
X012068Y003714D02*
X012050Y003732D01*
X012050Y003769D01*
X012068Y003787D01*
X012087Y003787D01*
X012160Y003714D01*
X012160Y003787D01*
X012142Y003825D02*
X012123Y003825D01*
X012105Y003843D01*
X012105Y003880D01*
X012123Y003898D01*
X012142Y003898D01*
X012160Y003880D01*
X012160Y003843D01*
X012142Y003825D01*
X012105Y003843D02*
X012087Y003825D01*
X012068Y003825D01*
X012050Y003843D01*
X012050Y003880D01*
X012068Y003898D01*
X012087Y003898D01*
X012105Y003880D01*
X012142Y003677D02*
X012160Y003659D01*
X012160Y003622D01*
X012142Y003604D01*
X012068Y003604D01*
X012050Y003622D01*
X011405Y002543D02*
X011405Y002443D01*
X011555Y002443D01*
X011555Y002395D02*
X011455Y002395D01*
X011480Y002443D02*
X011480Y002493D01*
X011555Y002395D02*
X011555Y002320D01*
X011530Y002295D01*
X011455Y002295D01*
X011430Y002248D02*
X011530Y002148D01*
X011555Y002148D01*
X011555Y002076D02*
X011405Y002076D01*
X011480Y002001D01*
X011480Y002101D01*
X011405Y002148D02*
X011405Y002248D01*
X011430Y002248D01*
X011530Y001952D02*
X011555Y001952D01*
X011555Y001927D01*
X011530Y001927D01*
X011530Y001952D01*
X011530Y001880D02*
X011555Y001855D01*
X011555Y001805D01*
X011530Y001780D01*
X011430Y001880D01*
X011530Y001880D01*
X011430Y001880D02*
X011405Y001855D01*
X011405Y001805D01*
X011430Y001780D01*
X011530Y001780D01*
X012130Y002202D02*
X012148Y002184D01*
X012222Y002184D01*
X012240Y002202D01*
X012240Y002239D01*
X012222Y002257D01*
X012222Y002294D02*
X012240Y002312D01*
X012240Y002349D01*
X012222Y002367D01*
X012203Y002367D01*
X012185Y002349D01*
X012185Y002331D01*
X012185Y002349D02*
X012167Y002367D01*
X012148Y002367D01*
X012130Y002349D01*
X012130Y002312D01*
X012148Y002294D01*
X012148Y002257D02*
X012130Y002239D01*
X012130Y002202D01*
X012148Y002405D02*
X012130Y002423D01*
X012130Y002460D01*
X012148Y002478D01*
X012222Y002405D01*
X012240Y002423D01*
X012240Y002460D01*
X012222Y002478D01*
X012148Y002478D01*
X012148Y002405D02*
X012222Y002405D01*
X013095Y001725D02*
X013168Y001725D01*
X013132Y001725D02*
X013132Y001615D01*
X013205Y001615D02*
X013205Y001725D01*
X013261Y001725D01*
X013279Y001707D01*
X013279Y001670D01*
X013261Y001652D01*
X013205Y001652D01*
X013316Y001688D02*
X013353Y001725D01*
X013353Y001615D01*
X013389Y001615D02*
X013316Y001615D01*
X013426Y001633D02*
X013500Y001707D01*
X013500Y001633D01*
X013482Y001615D01*
X013445Y001615D01*
X013426Y001633D01*
X013426Y001707D01*
X013445Y001725D01*
X013482Y001725D01*
X013500Y001707D01*
X016885Y003932D02*
X016885Y003982D01*
X016910Y004007D01*
X017010Y003907D01*
X017035Y003932D01*
X017035Y003982D01*
X017010Y004007D01*
X016910Y004007D01*
X016885Y003932D02*
X016910Y003907D01*
X017010Y003907D01*
X017010Y004054D02*
X017010Y004079D01*
X017035Y004079D01*
X017035Y004054D01*
X017010Y004054D01*
X017035Y004128D02*
X017035Y004228D01*
X017035Y004178D02*
X016885Y004178D01*
X016935Y004128D01*
X016935Y004275D02*
X017010Y004275D01*
X017035Y004300D01*
X017035Y004375D01*
X016935Y004375D01*
X016960Y004423D02*
X016960Y004473D01*
X016885Y004423D02*
X016885Y004523D01*
X016885Y004423D02*
X017035Y004423D01*
X017610Y004440D02*
X017610Y004403D01*
X017628Y004385D01*
X017647Y004385D01*
X017665Y004403D01*
X017665Y004458D01*
X017702Y004458D02*
X017628Y004458D01*
X017610Y004440D01*
X017702Y004458D02*
X017720Y004440D01*
X017720Y004403D01*
X017702Y004385D01*
X017720Y004347D02*
X017720Y004274D01*
X017647Y004347D01*
X017628Y004347D01*
X017610Y004329D01*
X017610Y004292D01*
X017628Y004274D01*
X017628Y004237D02*
X017610Y004219D01*
X017610Y004182D01*
X017628Y004164D01*
X017702Y004164D01*
X017720Y004182D01*
X017720Y004219D01*
X017702Y004237D01*
X019952Y005575D02*
X019952Y005685D01*
X019988Y005685D02*
X019915Y005685D01*
X020025Y005685D02*
X020081Y005685D01*
X020099Y005667D01*
X020099Y005630D01*
X020081Y005612D01*
X020025Y005612D01*
X020025Y005575D02*
X020025Y005685D01*
X020136Y005630D02*
X020191Y005630D01*
X020209Y005612D01*
X020209Y005593D01*
X020191Y005575D01*
X020154Y005575D01*
X020136Y005593D01*
X020136Y005630D01*
X020173Y005667D01*
X020209Y005685D01*
X020655Y005655D02*
X020728Y005655D01*
X020692Y005655D02*
X020692Y005545D01*
X020765Y005545D02*
X020765Y005655D01*
X020821Y005655D01*
X020839Y005637D01*
X020839Y005600D01*
X020821Y005582D01*
X020765Y005582D01*
X020876Y005563D02*
X020894Y005545D01*
X020931Y005545D01*
X020949Y005563D01*
X020949Y005582D01*
X020931Y005600D01*
X020913Y005600D01*
X020931Y005600D02*
X020949Y005618D01*
X020949Y005637D01*
X020931Y005655D01*
X020894Y005655D01*
X020876Y005637D01*
X021265Y005645D02*
X021338Y005645D01*
X021302Y005645D02*
X021302Y005535D01*
X021375Y005535D02*
X021375Y005645D01*
X021431Y005645D01*
X021449Y005627D01*
X021449Y005590D01*
X021431Y005572D01*
X021375Y005572D01*
X021486Y005590D02*
X021559Y005590D01*
X021541Y005535D02*
X021541Y005645D01*
X021486Y005590D01*
X021855Y005585D02*
X021928Y005585D01*
X021892Y005585D02*
X021892Y005475D01*
X021965Y005475D02*
X021965Y005585D01*
X022021Y005585D01*
X022039Y005567D01*
X022039Y005530D01*
X022021Y005512D01*
X021965Y005512D01*
X022076Y005530D02*
X022113Y005548D01*
X022131Y005548D01*
X022149Y005530D01*
X022149Y005493D01*
X022131Y005475D01*
X022094Y005475D01*
X022076Y005493D01*
X022076Y005530D02*
X022076Y005585D01*
X022149Y005585D01*
X022150Y005855D02*
X022040Y005855D01*
X022040Y005910D01*
X022058Y005928D01*
X022095Y005928D01*
X022113Y005910D01*
X022113Y005855D01*
X022113Y005892D02*
X022150Y005928D01*
X022150Y005965D02*
X022150Y006039D01*
X022150Y006002D02*
X022040Y006002D01*
X022077Y005965D01*
X022077Y006076D02*
X022058Y006076D01*
X022040Y006094D01*
X022040Y006131D01*
X022058Y006149D01*
X022077Y006149D01*
X022095Y006131D01*
X022095Y006094D01*
X022077Y006076D01*
X022095Y006094D02*
X022113Y006076D01*
X022132Y006076D01*
X022150Y006094D01*
X022150Y006131D01*
X022132Y006149D01*
X022113Y006149D01*
X022095Y006131D01*
X022210Y006224D02*
X022210Y006279D01*
X022228Y006297D01*
X022265Y006297D01*
X022283Y006279D01*
X022283Y006224D01*
X022283Y006260D02*
X022320Y006297D01*
X022320Y006334D02*
X022247Y006407D01*
X022228Y006407D01*
X022210Y006389D01*
X022210Y006352D01*
X022228Y006334D01*
X022320Y006334D02*
X022320Y006407D01*
X022302Y006445D02*
X022228Y006518D01*
X022302Y006518D01*
X022320Y006500D01*
X022320Y006463D01*
X022302Y006445D01*
X022228Y006445D01*
X022210Y006463D01*
X022210Y006500D01*
X022228Y006518D01*
X022210Y006224D02*
X022320Y006224D01*
X022520Y006131D02*
X022538Y006149D01*
X022557Y006149D01*
X022575Y006131D01*
X022593Y006149D01*
X022612Y006149D01*
X022630Y006131D01*
X022630Y006094D01*
X022612Y006076D01*
X022630Y006039D02*
X022630Y005965D01*
X022557Y006039D01*
X022538Y006039D01*
X022520Y006021D01*
X022520Y005984D01*
X022538Y005965D01*
X022538Y005928D02*
X022520Y005910D01*
X022520Y005873D01*
X022538Y005855D01*
X022612Y005855D01*
X022630Y005873D01*
X022630Y005910D01*
X022612Y005928D01*
X022725Y005855D02*
X022750Y005880D01*
X022850Y005780D01*
X022875Y005805D01*
X022875Y005855D01*
X022850Y005880D01*
X022750Y005880D01*
X022725Y005855D02*
X022725Y005805D01*
X022750Y005780D01*
X022850Y005780D01*
X022850Y005927D02*
X022850Y005952D01*
X022875Y005952D01*
X022875Y005927D01*
X022850Y005927D01*
X022850Y006001D02*
X022750Y006101D01*
X022850Y006101D01*
X022875Y006076D01*
X022875Y006026D01*
X022850Y006001D01*
X022750Y006001D01*
X022725Y006026D01*
X022725Y006076D01*
X022750Y006101D01*
X022775Y006148D02*
X022725Y006198D01*
X022875Y006198D01*
X022875Y006148D02*
X022875Y006248D01*
X022575Y006131D02*
X022575Y006113D01*
X022538Y006076D02*
X022520Y006094D01*
X022520Y006131D01*
X023205Y006051D02*
X023255Y006001D01*
X023205Y006051D02*
X023355Y006051D01*
X023355Y006001D02*
X023355Y006101D01*
X023330Y006148D02*
X023355Y006173D01*
X023355Y006248D01*
X023255Y006248D01*
X023280Y006296D02*
X023280Y006346D01*
X023205Y006296D02*
X023205Y006396D01*
X023205Y006296D02*
X023355Y006296D01*
X023330Y006148D02*
X023255Y006148D01*
X023330Y005952D02*
X023355Y005952D01*
X023355Y005927D01*
X023330Y005927D01*
X023330Y005952D01*
X023330Y005880D02*
X023355Y005855D01*
X023355Y005805D01*
X023330Y005780D01*
X023230Y005880D01*
X023330Y005880D01*
X023330Y005780D02*
X023230Y005780D01*
X023205Y005805D01*
X023205Y005855D01*
X023230Y005880D01*
X024505Y005361D02*
X024505Y005324D01*
X024523Y005306D01*
X024523Y005269D02*
X024560Y005269D01*
X024578Y005251D01*
X024578Y005195D01*
X024615Y005195D02*
X024505Y005195D01*
X024505Y005251D01*
X024523Y005269D01*
X024505Y005361D02*
X024523Y005379D01*
X024542Y005379D01*
X024615Y005306D01*
X024615Y005379D01*
X024597Y005140D02*
X024505Y005140D01*
X024505Y005122D02*
X024505Y005158D01*
X024597Y005140D02*
X024615Y005122D01*
X024615Y005103D01*
X024597Y005085D01*
X022499Y004835D02*
X022426Y004835D01*
X022463Y004835D02*
X022463Y004945D01*
X022426Y004908D01*
X022389Y004927D02*
X022389Y004890D01*
X022371Y004872D01*
X022315Y004872D01*
X022315Y004835D02*
X022315Y004945D01*
X022371Y004945D01*
X022389Y004927D01*
X022278Y004945D02*
X022205Y004945D01*
X022242Y004945D02*
X022242Y004835D01*
X021635Y006188D02*
X021635Y006288D01*
X021635Y006238D02*
X021485Y006238D01*
X021535Y006188D01*
X021510Y006335D02*
X021485Y006360D01*
X021485Y006410D01*
X021510Y006435D01*
X021610Y006335D01*
X021635Y006360D01*
X021635Y006410D01*
X021610Y006435D01*
X021510Y006435D01*
X021485Y006483D02*
X021635Y006483D01*
X021585Y006483D02*
X021485Y006583D01*
X021560Y006508D02*
X021635Y006583D01*
X021708Y006518D02*
X021690Y006500D01*
X021690Y006463D01*
X021708Y006445D01*
X021727Y006445D01*
X021745Y006463D01*
X021745Y006518D01*
X021782Y006518D02*
X021708Y006518D01*
X021782Y006518D02*
X021800Y006500D01*
X021800Y006463D01*
X021782Y006445D01*
X021800Y006407D02*
X021800Y006334D01*
X021800Y006371D02*
X021690Y006371D01*
X021727Y006334D01*
X021745Y006297D02*
X021763Y006279D01*
X021763Y006224D01*
X021763Y006260D02*
X021800Y006297D01*
X021745Y006297D02*
X021708Y006297D01*
X021690Y006279D01*
X021690Y006224D01*
X021800Y006224D01*
X021610Y006335D02*
X021510Y006335D01*
X021300Y006334D02*
X021227Y006407D01*
X021208Y006407D01*
X021190Y006389D01*
X021190Y006352D01*
X021208Y006334D01*
X021208Y006297D02*
X021245Y006297D01*
X021263Y006279D01*
X021263Y006224D01*
X021263Y006260D02*
X021300Y006297D01*
X021300Y006334D02*
X021300Y006407D01*
X021300Y006445D02*
X021227Y006518D01*
X021208Y006518D01*
X021190Y006500D01*
X021190Y006463D01*
X021208Y006445D01*
X021300Y006445D02*
X021300Y006518D01*
X021115Y006483D02*
X020965Y006483D01*
X020990Y006435D02*
X021090Y006335D01*
X021115Y006360D01*
X021115Y006410D01*
X021090Y006435D01*
X020990Y006435D01*
X020965Y006410D01*
X020965Y006360D01*
X020990Y006335D01*
X021090Y006335D01*
X021115Y006288D02*
X021115Y006188D01*
X021115Y006238D02*
X020965Y006238D01*
X021015Y006188D01*
X021190Y006224D02*
X021190Y006279D01*
X021208Y006297D01*
X021190Y006224D02*
X021300Y006224D01*
X021065Y006483D02*
X020965Y006583D01*
X021040Y006508D02*
X021115Y006583D01*
X020740Y006518D02*
X020740Y006445D01*
X020740Y006481D02*
X020630Y006481D01*
X020667Y006445D01*
X020667Y006407D02*
X020648Y006407D01*
X020630Y006389D01*
X020630Y006352D01*
X020648Y006334D01*
X020648Y006297D02*
X020685Y006297D01*
X020703Y006279D01*
X020703Y006224D01*
X020703Y006260D02*
X020740Y006297D01*
X020740Y006334D02*
X020667Y006407D01*
X020615Y006410D02*
X020615Y006360D01*
X020590Y006335D01*
X020490Y006435D01*
X020590Y006435D01*
X020615Y006410D01*
X020615Y006483D02*
X020465Y006483D01*
X020490Y006435D02*
X020465Y006410D01*
X020465Y006360D01*
X020490Y006335D01*
X020590Y006335D01*
X020615Y006288D02*
X020615Y006188D01*
X020630Y006224D02*
X020630Y006279D01*
X020648Y006297D01*
X020615Y006238D02*
X020465Y006238D01*
X020515Y006188D01*
X020630Y006224D02*
X020740Y006224D01*
X020740Y006334D02*
X020740Y006407D01*
X020565Y006483D02*
X020465Y006583D01*
X020540Y006508D02*
X020615Y006583D01*
X020055Y006583D02*
X019905Y006583D01*
X019955Y006533D01*
X019905Y006483D01*
X020055Y006483D01*
X020030Y006435D02*
X020055Y006410D01*
X020055Y006360D01*
X020030Y006335D01*
X020005Y006335D01*
X019980Y006360D01*
X019980Y006410D01*
X020005Y006435D01*
X020030Y006435D01*
X019980Y006410D02*
X019955Y006435D01*
X019930Y006435D01*
X019905Y006410D01*
X019905Y006360D01*
X019930Y006335D01*
X019955Y006335D01*
X019980Y006360D01*
X020030Y006287D02*
X020055Y006287D01*
X020055Y006262D01*
X020030Y006262D01*
X020030Y006287D01*
X020055Y006214D02*
X020055Y006114D01*
X020055Y006164D02*
X019905Y006164D01*
X019955Y006114D01*
X014610Y007733D02*
X014610Y007807D01*
X014592Y007825D01*
X014555Y007825D01*
X014536Y007807D01*
X014536Y007788D01*
X014555Y007770D01*
X014610Y007770D01*
X014610Y007733D02*
X014592Y007715D01*
X014555Y007715D01*
X014536Y007733D01*
X014499Y007715D02*
X014426Y007715D01*
X014463Y007715D02*
X014463Y007825D01*
X014426Y007788D01*
X014389Y007807D02*
X014389Y007770D01*
X014371Y007752D01*
X014315Y007752D01*
X014315Y007715D02*
X014315Y007825D01*
X014371Y007825D01*
X014389Y007807D01*
X014278Y007825D02*
X014205Y007825D01*
X014242Y007825D02*
X014242Y007715D01*
X010872Y006485D02*
X010816Y006430D01*
X010890Y006430D01*
X010872Y006375D02*
X010872Y006485D01*
X010743Y006485D02*
X010743Y006375D01*
X010779Y006375D02*
X010706Y006375D01*
X010669Y006430D02*
X010651Y006412D01*
X010595Y006412D01*
X010595Y006375D02*
X010595Y006485D01*
X010651Y006485D01*
X010669Y006467D01*
X010669Y006430D01*
X010706Y006448D02*
X010743Y006485D01*
X010558Y006485D02*
X010485Y006485D01*
X010522Y006485D02*
X010522Y006375D01*
X009468Y003625D02*
X009418Y003625D01*
X009393Y003600D01*
X009393Y003500D01*
X009493Y003600D01*
X009493Y003500D01*
X009468Y003475D01*
X009418Y003475D01*
X009393Y003500D01*
X009345Y003500D02*
X009320Y003475D01*
X009270Y003475D01*
X009245Y003500D01*
X009245Y003525D01*
X009270Y003550D01*
X009320Y003550D01*
X009345Y003525D01*
X009345Y003500D01*
X009320Y003550D02*
X009345Y003575D01*
X009345Y003600D01*
X009320Y003625D01*
X009270Y003625D01*
X009245Y003600D01*
X009245Y003575D01*
X009270Y003550D01*
X009468Y003625D02*
X009493Y003600D01*
X009428Y002900D02*
X009391Y002882D01*
X009355Y002845D01*
X009410Y002845D01*
X009428Y002827D01*
X009428Y002808D01*
X009410Y002790D01*
X009373Y002790D01*
X009355Y002808D01*
X009355Y002845D01*
X009317Y002863D02*
X009244Y002790D01*
X009317Y002790D01*
X009317Y002863D02*
X009317Y002882D01*
X009299Y002900D01*
X009262Y002900D01*
X009244Y002882D01*
X009207Y002882D02*
X009207Y002845D01*
X009189Y002827D01*
X009134Y002827D01*
X009170Y002827D02*
X009207Y002790D01*
X009134Y002790D02*
X009134Y002900D01*
X009189Y002900D01*
X009207Y002882D01*
X008909Y002772D02*
X008909Y002753D01*
X008891Y002735D01*
X008854Y002735D01*
X008835Y002753D01*
X008835Y002772D01*
X008854Y002790D01*
X008891Y002790D01*
X008909Y002772D01*
X008891Y002735D02*
X008909Y002717D01*
X008909Y002698D01*
X008891Y002680D01*
X008854Y002680D01*
X008835Y002698D01*
X008835Y002717D01*
X008854Y002735D01*
X008798Y002698D02*
X008798Y002772D01*
X008780Y002790D01*
X008725Y002790D01*
X008725Y002680D01*
X008780Y002680D01*
X008798Y002698D01*
X008822Y002130D02*
X008822Y001980D01*
X008922Y001980D01*
X008970Y002005D02*
X008995Y001980D01*
X009045Y001980D01*
X009070Y002005D01*
X009070Y002130D01*
X009117Y002130D02*
X009117Y001980D01*
X009217Y001980D01*
X009167Y002055D02*
X009117Y002055D01*
X009117Y002130D02*
X009217Y002130D01*
X008970Y002130D02*
X008970Y002005D01*
X008775Y002005D02*
X008750Y001980D01*
X008675Y001980D01*
X008675Y002130D01*
X008750Y002130D01*
X008775Y002105D01*
X008775Y002080D01*
X008750Y002055D01*
X008675Y002055D01*
X008750Y002055D02*
X008775Y002030D01*
X008775Y002005D01*
X022424Y000203D02*
X022442Y000185D01*
X022460Y000185D01*
X022479Y000203D01*
X022479Y000295D01*
X022497Y000295D02*
X022460Y000295D01*
X022534Y000295D02*
X022589Y000295D01*
X022607Y000277D01*
X022607Y000240D01*
X022589Y000222D01*
X022534Y000222D01*
X022534Y000185D02*
X022534Y000295D01*
X022645Y000277D02*
X022663Y000295D01*
X022700Y000295D01*
X022718Y000277D01*
X022718Y000258D01*
X022700Y000240D01*
X022718Y000222D01*
X022718Y000203D01*
X022700Y000185D01*
X022663Y000185D01*
X022645Y000203D01*
X022681Y000240D02*
X022700Y000240D01*
D16*
X009110Y003180D03*
X006610Y003130D03*
X003950Y003180D03*
X001480Y003210D03*
X006370Y007210D03*
X007220Y012880D03*
X018680Y013760D03*
X021740Y013810D03*
X019130Y008690D03*
D17*
X018512Y009930D02*
X018488Y009930D01*
X021438Y008470D02*
X021462Y008470D01*
X021938Y008470D02*
X021962Y008470D01*
X023150Y010128D02*
X023150Y010152D01*
X022922Y006200D02*
X022898Y006200D01*
X017342Y004140D02*
X017318Y004140D01*
X011782Y003580D02*
X011758Y003580D01*
X011838Y002160D02*
X011862Y002160D01*
X006042Y005580D02*
X006018Y005580D01*
X004310Y006548D02*
X004310Y006572D01*
X004310Y007048D02*
X004310Y007072D01*
X004310Y007548D02*
X004310Y007572D01*
X004310Y008048D02*
X004310Y008072D01*
X004310Y008648D02*
X004310Y008672D01*
X004310Y009248D02*
X004310Y009272D01*
X004310Y009748D02*
X004310Y009772D01*
X004310Y010248D02*
X004310Y010272D01*
X004310Y010748D02*
X004310Y010772D01*
X004310Y011248D02*
X004310Y011272D01*
X004310Y011748D02*
X004310Y011772D01*
X004310Y012248D02*
X004310Y012272D01*
X004310Y013148D02*
X004310Y013172D01*
X007040Y012092D02*
X007040Y012068D01*
X009598Y013100D02*
X009622Y013100D01*
X001132Y011090D02*
X001108Y011090D01*
X000952Y012820D02*
X000928Y012820D01*
D18*
X010670Y010120D02*
X010670Y009660D01*
X010900Y009660D01*
X010977Y009737D01*
X010977Y010044D01*
X010900Y010120D01*
X010670Y010120D01*
X011130Y010120D02*
X011284Y009967D01*
X011437Y010120D01*
X011437Y009660D01*
X011591Y009737D02*
X011668Y009660D01*
X011821Y009660D01*
X011898Y009737D01*
X011898Y009890D01*
X011744Y009890D01*
X011591Y009737D02*
X011591Y010044D01*
X011668Y010120D01*
X011821Y010120D01*
X011898Y010044D01*
X012051Y010044D02*
X012128Y010120D01*
X012281Y010120D01*
X012358Y010044D01*
X012358Y009967D01*
X012051Y009660D01*
X012358Y009660D01*
X012512Y009737D02*
X012588Y009660D01*
X012742Y009660D01*
X012818Y009737D01*
X012818Y009813D01*
X012742Y009890D01*
X012665Y009890D01*
X012742Y009890D02*
X012818Y009967D01*
X012818Y010044D01*
X012742Y010120D01*
X012588Y010120D01*
X012512Y010044D01*
X012972Y010044D02*
X012972Y009737D01*
X013279Y010044D01*
X013279Y009737D01*
X013202Y009660D01*
X013049Y009660D01*
X012972Y009737D01*
X013432Y009737D02*
X013509Y009660D01*
X013663Y009660D01*
X013739Y009737D01*
X013739Y009890D01*
X013663Y009967D01*
X013586Y009967D01*
X013432Y009890D01*
X013432Y010120D01*
X013739Y010120D01*
X013893Y010120D02*
X013893Y009737D01*
X013969Y009660D01*
X014123Y009660D01*
X014200Y009737D01*
X014200Y010120D01*
X014353Y010120D02*
X014660Y009660D01*
X014353Y009660D02*
X014660Y010120D01*
X013279Y010044D02*
X013202Y010120D01*
X013049Y010120D01*
X012972Y010044D01*
X011130Y010120D02*
X011130Y009660D01*
X008590Y006240D02*
X008360Y006010D01*
X008667Y006010D01*
X008590Y005780D02*
X008590Y006240D01*
X008206Y006164D02*
X008206Y006087D01*
X008129Y006010D01*
X007976Y006010D01*
X007899Y006087D01*
X007899Y006164D01*
X007976Y006240D01*
X008129Y006240D01*
X008206Y006164D01*
X008129Y006010D02*
X008206Y005933D01*
X008206Y005857D01*
X008129Y005780D01*
X007976Y005780D01*
X007899Y005857D01*
X007899Y005933D01*
X007976Y006010D01*
X007746Y005933D02*
X007746Y005857D01*
X007669Y005780D01*
X007516Y005780D01*
X007439Y005857D01*
X007285Y005857D02*
X007209Y005780D01*
X007055Y005780D01*
X006978Y005857D01*
X006825Y005857D02*
X006748Y005780D01*
X006518Y005780D01*
X006518Y006240D01*
X006748Y006240D01*
X006825Y006164D01*
X006825Y006087D01*
X006748Y006010D01*
X006518Y006010D01*
X006748Y006010D02*
X006825Y005933D01*
X006825Y005857D01*
X006978Y006087D02*
X007055Y006010D01*
X007209Y006010D01*
X007285Y005933D01*
X007285Y005857D01*
X007439Y006087D02*
X007516Y006010D01*
X007669Y006010D01*
X007746Y005933D01*
X007746Y006164D02*
X007669Y006240D01*
X007516Y006240D01*
X007439Y006164D01*
X007439Y006087D01*
X007285Y006164D02*
X007209Y006240D01*
X007055Y006240D01*
X006978Y006164D01*
X006978Y006087D01*
X008850Y005160D02*
X009080Y005160D01*
X009157Y005084D01*
X009157Y005007D01*
X009080Y004930D01*
X008850Y004930D01*
X008850Y004700D02*
X008850Y005160D01*
X009080Y004930D02*
X009157Y004853D01*
X009157Y004777D01*
X009080Y004700D01*
X008850Y004700D01*
X009310Y004777D02*
X009387Y004700D01*
X009541Y004700D01*
X009617Y004777D01*
X009617Y004853D01*
X009541Y004930D01*
X009387Y004930D01*
X009310Y005007D01*
X009310Y005084D01*
X009387Y005160D01*
X009541Y005160D01*
X009617Y005084D01*
X009771Y005084D02*
X009771Y005007D01*
X009848Y004930D01*
X010001Y004930D01*
X010078Y004853D01*
X010078Y004777D01*
X010001Y004700D01*
X009848Y004700D01*
X009771Y004777D01*
X010231Y004777D02*
X010231Y004853D01*
X010308Y004930D01*
X010461Y004930D01*
X010538Y004853D01*
X010538Y004777D01*
X010461Y004700D01*
X010308Y004700D01*
X010231Y004777D01*
X010308Y004930D02*
X010231Y005007D01*
X010231Y005084D01*
X010308Y005160D01*
X010461Y005160D01*
X010538Y005084D01*
X010538Y005007D01*
X010461Y004930D01*
X010692Y004930D02*
X010998Y004930D01*
X010922Y004700D02*
X010922Y005160D01*
X010692Y004930D01*
X010078Y005084D02*
X010001Y005160D01*
X009848Y005160D01*
X009771Y005084D01*
X026110Y005130D02*
X026263Y005283D01*
X026110Y005437D01*
X026570Y005437D01*
X026493Y005590D02*
X026186Y005590D01*
X026110Y005667D01*
X026110Y005821D01*
X026186Y005897D01*
X026493Y005590D01*
X026570Y005667D01*
X026570Y005821D01*
X026493Y005897D01*
X026186Y005897D01*
X026186Y006051D02*
X026110Y006128D01*
X026110Y006281D01*
X026186Y006358D01*
X026263Y006358D01*
X026570Y006051D01*
X026570Y006358D01*
X026570Y006511D02*
X026110Y006511D01*
X026110Y006741D01*
X026186Y006818D01*
X026340Y006818D01*
X026417Y006741D01*
X026417Y006511D01*
X026110Y006972D02*
X026110Y007278D01*
X026110Y007125D02*
X026570Y007125D01*
X026570Y007432D02*
X026110Y007432D01*
X026340Y007432D02*
X026340Y007739D01*
X026110Y007739D02*
X026570Y007739D01*
X026570Y005130D02*
X026110Y005130D01*
D19*
X025840Y005360D02*
X025840Y005860D01*
X025590Y006110D01*
X025840Y006360D01*
X025840Y006860D01*
X025590Y007110D01*
X025090Y007110D01*
X024840Y006860D01*
X024840Y006360D01*
X025090Y006110D01*
X024840Y005860D01*
X024840Y005360D01*
X025090Y005110D01*
X025590Y005110D01*
X025840Y005360D01*
X022470Y001520D02*
X021970Y001520D01*
X021720Y001270D01*
X021470Y001520D01*
X020970Y001520D01*
X020720Y001270D01*
X020470Y001520D01*
X019970Y001520D01*
X019720Y001270D01*
X019720Y000770D01*
X019970Y000520D01*
X020470Y000520D01*
X020720Y000770D01*
X020970Y000520D01*
X021470Y000520D01*
X021720Y000770D01*
X021970Y000520D01*
X022470Y000520D01*
X022720Y000770D01*
X022720Y001270D01*
X022470Y001520D01*
X009137Y002219D02*
X009137Y002400D01*
X009015Y002308D01*
X009137Y002400D02*
X009137Y002581D01*
X009015Y002486D02*
X009131Y002410D01*
X006637Y002329D02*
X006637Y002510D01*
X006515Y002418D01*
X006637Y002510D02*
X006637Y002691D01*
X006515Y002596D02*
X006631Y002520D01*
X004057Y002430D02*
X004057Y002249D01*
X003935Y002338D02*
X004057Y002430D01*
X004057Y002611D01*
X003935Y002516D02*
X004051Y002440D01*
X001487Y002460D02*
X001365Y002368D01*
X001487Y002279D02*
X001487Y002460D01*
X001487Y002641D01*
X001365Y002546D02*
X001481Y002470D01*
X005957Y009034D02*
X005957Y009349D01*
X005957Y009034D02*
X006075Y009034D01*
X006705Y009034D02*
X006823Y009034D01*
X006823Y009349D01*
D20*
X010840Y010817D02*
X010840Y011150D01*
X011141Y011150D01*
X011649Y011150D02*
X011960Y011150D01*
X011960Y010817D01*
M02*
