G75*
%MOIN*%
%OFA0B0*%
%FSLAX24Y24*%
%IPPOS*%
%LPD*%
%AMOC8*
5,1,8,0,0,1.08239X$1,22.5*
%
%ADD10R,0.0375X0.0729*%
%ADD11C,0.0004*%
%ADD12R,0.0729X0.0375*%
%ADD13R,0.0454X0.0729*%
%ADD14C,0.0350*%
%ADD15R,0.0611X0.0198*%
%ADD16R,0.0808X0.0769*%
%ADD17R,0.0808X0.0808*%
%ADD18R,0.0414X0.0336*%
%ADD19R,0.0375X0.0375*%
%ADD20R,0.0336X0.0414*%
%ADD21R,0.0611X0.0182*%
%ADD22R,0.0847X0.0926*%
%ADD23R,0.0336X0.0336*%
%ADD24R,0.0611X0.0454*%
%ADD25C,0.0800*%
%ADD26R,0.2150X0.1060*%
%ADD27R,0.0257X0.0336*%
%ADD28C,0.0330*%
D10*
X016962Y010111D03*
X016962Y014993D03*
X018261Y014993D03*
X018733Y014993D03*
X019206Y014993D03*
X019678Y014993D03*
X020151Y014993D03*
X020623Y014993D03*
X021095Y014993D03*
X021568Y014993D03*
X022040Y014993D03*
X022513Y014993D03*
X022985Y014993D03*
X023458Y014993D03*
D11*
X023273Y010473D02*
X023273Y009749D01*
X023273Y010473D02*
X023643Y010473D01*
X023643Y009749D01*
X023273Y009749D01*
X023273Y009752D02*
X023643Y009752D01*
X023643Y009755D02*
X023273Y009755D01*
X023273Y009758D02*
X023643Y009758D01*
X023643Y009761D02*
X023273Y009761D01*
X023273Y009764D02*
X023643Y009764D01*
X023643Y009767D02*
X023273Y009767D01*
X023273Y009770D02*
X023643Y009770D01*
X023643Y009773D02*
X023273Y009773D01*
X023273Y009776D02*
X023643Y009776D01*
X023643Y009779D02*
X023273Y009779D01*
X023273Y009782D02*
X023643Y009782D01*
X023643Y009785D02*
X023273Y009785D01*
X023273Y009788D02*
X023643Y009788D01*
X023643Y009791D02*
X023273Y009791D01*
X023273Y009794D02*
X023643Y009794D01*
X023643Y009797D02*
X023273Y009797D01*
X023273Y009800D02*
X023643Y009800D01*
X023643Y009803D02*
X023273Y009803D01*
X023273Y009806D02*
X023643Y009806D01*
X023643Y009809D02*
X023273Y009809D01*
X023273Y009812D02*
X023643Y009812D01*
X023643Y009815D02*
X023273Y009815D01*
X023273Y009818D02*
X023643Y009818D01*
X023643Y009821D02*
X023273Y009821D01*
X023273Y009824D02*
X023643Y009824D01*
X023643Y009827D02*
X023273Y009827D01*
X023273Y009830D02*
X023643Y009830D01*
X023643Y009833D02*
X023273Y009833D01*
X023273Y009836D02*
X023643Y009836D01*
X023643Y009839D02*
X023273Y009839D01*
X023273Y009842D02*
X023643Y009842D01*
X023643Y009845D02*
X023273Y009845D01*
X023273Y009848D02*
X023643Y009848D01*
X023643Y009851D02*
X023273Y009851D01*
X023273Y009854D02*
X023643Y009854D01*
X023643Y009857D02*
X023273Y009857D01*
X023273Y009860D02*
X023643Y009860D01*
X023643Y009863D02*
X023273Y009863D01*
X023273Y009866D02*
X023643Y009866D01*
X023643Y009869D02*
X023273Y009869D01*
X023273Y009872D02*
X023643Y009872D01*
X023643Y009875D02*
X023273Y009875D01*
X023273Y009878D02*
X023643Y009878D01*
X023643Y009881D02*
X023273Y009881D01*
X023273Y009884D02*
X023643Y009884D01*
X023643Y009887D02*
X023273Y009887D01*
X023273Y009890D02*
X023643Y009890D01*
X023643Y009893D02*
X023273Y009893D01*
X023273Y009896D02*
X023643Y009896D01*
X023643Y009899D02*
X023273Y009899D01*
X023273Y009902D02*
X023643Y009902D01*
X023643Y009905D02*
X023273Y009905D01*
X023273Y009908D02*
X023643Y009908D01*
X023643Y009911D02*
X023273Y009911D01*
X023273Y009914D02*
X023643Y009914D01*
X023643Y009917D02*
X023273Y009917D01*
X023273Y009920D02*
X023643Y009920D01*
X023643Y009923D02*
X023273Y009923D01*
X023273Y009926D02*
X023643Y009926D01*
X023643Y009929D02*
X023273Y009929D01*
X023273Y009932D02*
X023643Y009932D01*
X023643Y009935D02*
X023273Y009935D01*
X023273Y009938D02*
X023643Y009938D01*
X023643Y009941D02*
X023273Y009941D01*
X023273Y009944D02*
X023643Y009944D01*
X023643Y009947D02*
X023273Y009947D01*
X023273Y009950D02*
X023643Y009950D01*
X023643Y009953D02*
X023273Y009953D01*
X023273Y009956D02*
X023643Y009956D01*
X023643Y009959D02*
X023273Y009959D01*
X023273Y009962D02*
X023643Y009962D01*
X023643Y009965D02*
X023273Y009965D01*
X023273Y009968D02*
X023643Y009968D01*
X023643Y009971D02*
X023273Y009971D01*
X023273Y009974D02*
X023643Y009974D01*
X023643Y009977D02*
X023273Y009977D01*
X023273Y009980D02*
X023643Y009980D01*
X023643Y009983D02*
X023273Y009983D01*
X023273Y009986D02*
X023643Y009986D01*
X023643Y009989D02*
X023273Y009989D01*
X023273Y009992D02*
X023643Y009992D01*
X023643Y009995D02*
X023273Y009995D01*
X023273Y009998D02*
X023643Y009998D01*
X023643Y010001D02*
X023273Y010001D01*
X023273Y010004D02*
X023643Y010004D01*
X023643Y010007D02*
X023273Y010007D01*
X023273Y010010D02*
X023643Y010010D01*
X023643Y010013D02*
X023273Y010013D01*
X023273Y010016D02*
X023643Y010016D01*
X023643Y010019D02*
X023273Y010019D01*
X023273Y010022D02*
X023643Y010022D01*
X023643Y010025D02*
X023273Y010025D01*
X023273Y010028D02*
X023643Y010028D01*
X023643Y010031D02*
X023273Y010031D01*
X023273Y010034D02*
X023643Y010034D01*
X023643Y010037D02*
X023273Y010037D01*
X023273Y010040D02*
X023643Y010040D01*
X023643Y010043D02*
X023273Y010043D01*
X023273Y010046D02*
X023643Y010046D01*
X023643Y010049D02*
X023273Y010049D01*
X023273Y010052D02*
X023643Y010052D01*
X023643Y010055D02*
X023273Y010055D01*
X023273Y010058D02*
X023643Y010058D01*
X023643Y010061D02*
X023273Y010061D01*
X023273Y010064D02*
X023643Y010064D01*
X023643Y010067D02*
X023273Y010067D01*
X023273Y010070D02*
X023643Y010070D01*
X023643Y010073D02*
X023273Y010073D01*
X023273Y010076D02*
X023643Y010076D01*
X023643Y010079D02*
X023273Y010079D01*
X023273Y010082D02*
X023643Y010082D01*
X023643Y010085D02*
X023273Y010085D01*
X023273Y010088D02*
X023643Y010088D01*
X023643Y010091D02*
X023273Y010091D01*
X023273Y010094D02*
X023643Y010094D01*
X023643Y010097D02*
X023273Y010097D01*
X023273Y010100D02*
X023643Y010100D01*
X023643Y010103D02*
X023273Y010103D01*
X023273Y010106D02*
X023643Y010106D01*
X023643Y010109D02*
X023273Y010109D01*
X023273Y010112D02*
X023643Y010112D01*
X023643Y010115D02*
X023273Y010115D01*
X023273Y010118D02*
X023643Y010118D01*
X023643Y010121D02*
X023273Y010121D01*
X023273Y010124D02*
X023643Y010124D01*
X023643Y010127D02*
X023273Y010127D01*
X023273Y010130D02*
X023643Y010130D01*
X023643Y010133D02*
X023273Y010133D01*
X023273Y010136D02*
X023643Y010136D01*
X023643Y010139D02*
X023273Y010139D01*
X023273Y010142D02*
X023643Y010142D01*
X023643Y010145D02*
X023273Y010145D01*
X023273Y010148D02*
X023643Y010148D01*
X023643Y010151D02*
X023273Y010151D01*
X023273Y010154D02*
X023643Y010154D01*
X023643Y010157D02*
X023273Y010157D01*
X023273Y010160D02*
X023643Y010160D01*
X023643Y010163D02*
X023273Y010163D01*
X023273Y010166D02*
X023643Y010166D01*
X023643Y010169D02*
X023273Y010169D01*
X023273Y010172D02*
X023643Y010172D01*
X023643Y010175D02*
X023273Y010175D01*
X023273Y010178D02*
X023643Y010178D01*
X023643Y010181D02*
X023273Y010181D01*
X023273Y010184D02*
X023643Y010184D01*
X023643Y010187D02*
X023273Y010187D01*
X023273Y010190D02*
X023643Y010190D01*
X023643Y010193D02*
X023273Y010193D01*
X023273Y010196D02*
X023643Y010196D01*
X023643Y010199D02*
X023273Y010199D01*
X023273Y010202D02*
X023643Y010202D01*
X023643Y010205D02*
X023273Y010205D01*
X023273Y010208D02*
X023643Y010208D01*
X023643Y010211D02*
X023273Y010211D01*
X023273Y010214D02*
X023643Y010214D01*
X023643Y010217D02*
X023273Y010217D01*
X023273Y010220D02*
X023643Y010220D01*
X023643Y010223D02*
X023273Y010223D01*
X023273Y010226D02*
X023643Y010226D01*
X023643Y010229D02*
X023273Y010229D01*
X023273Y010232D02*
X023643Y010232D01*
X023643Y010235D02*
X023273Y010235D01*
X023273Y010238D02*
X023643Y010238D01*
X023643Y010241D02*
X023273Y010241D01*
X023273Y010244D02*
X023643Y010244D01*
X023643Y010247D02*
X023273Y010247D01*
X023273Y010250D02*
X023643Y010250D01*
X023643Y010253D02*
X023273Y010253D01*
X023273Y010256D02*
X023643Y010256D01*
X023643Y010259D02*
X023273Y010259D01*
X023273Y010262D02*
X023643Y010262D01*
X023643Y010265D02*
X023273Y010265D01*
X023273Y010268D02*
X023643Y010268D01*
X023643Y010271D02*
X023273Y010271D01*
X023273Y010274D02*
X023643Y010274D01*
X023643Y010277D02*
X023273Y010277D01*
X023273Y010280D02*
X023643Y010280D01*
X023643Y010283D02*
X023273Y010283D01*
X023273Y010286D02*
X023643Y010286D01*
X023643Y010289D02*
X023273Y010289D01*
X023273Y010292D02*
X023643Y010292D01*
X023643Y010295D02*
X023273Y010295D01*
X023273Y010298D02*
X023643Y010298D01*
X023643Y010301D02*
X023273Y010301D01*
X023273Y010304D02*
X023643Y010304D01*
X023643Y010307D02*
X023273Y010307D01*
X023273Y010310D02*
X023643Y010310D01*
X023643Y010313D02*
X023273Y010313D01*
X023273Y010316D02*
X023643Y010316D01*
X023643Y010319D02*
X023273Y010319D01*
X023273Y010322D02*
X023643Y010322D01*
X023643Y010325D02*
X023273Y010325D01*
X023273Y010328D02*
X023643Y010328D01*
X023643Y010331D02*
X023273Y010331D01*
X023273Y010334D02*
X023643Y010334D01*
X023643Y010337D02*
X023273Y010337D01*
X023273Y010340D02*
X023643Y010340D01*
X023643Y010343D02*
X023273Y010343D01*
X023273Y010346D02*
X023643Y010346D01*
X023643Y010349D02*
X023273Y010349D01*
X023273Y010352D02*
X023643Y010352D01*
X023643Y010355D02*
X023273Y010355D01*
X023273Y010358D02*
X023643Y010358D01*
X023643Y010361D02*
X023273Y010361D01*
X023273Y010364D02*
X023643Y010364D01*
X023643Y010367D02*
X023273Y010367D01*
X023273Y010370D02*
X023643Y010370D01*
X023643Y010373D02*
X023273Y010373D01*
X023273Y010376D02*
X023643Y010376D01*
X023643Y010379D02*
X023273Y010379D01*
X023273Y010382D02*
X023643Y010382D01*
X023643Y010385D02*
X023273Y010385D01*
X023273Y010388D02*
X023643Y010388D01*
X023643Y010391D02*
X023273Y010391D01*
X023273Y010394D02*
X023643Y010394D01*
X023643Y010397D02*
X023273Y010397D01*
X023273Y010400D02*
X023643Y010400D01*
X023643Y010403D02*
X023273Y010403D01*
X023273Y010406D02*
X023643Y010406D01*
X023643Y010409D02*
X023273Y010409D01*
X023273Y010412D02*
X023643Y010412D01*
X023643Y010415D02*
X023273Y010415D01*
X023273Y010418D02*
X023643Y010418D01*
X023643Y010421D02*
X023273Y010421D01*
X023273Y010424D02*
X023643Y010424D01*
X023643Y010427D02*
X023273Y010427D01*
X023273Y010430D02*
X023643Y010430D01*
X023643Y010433D02*
X023273Y010433D01*
X023273Y010436D02*
X023643Y010436D01*
X023643Y010439D02*
X023273Y010439D01*
X023273Y010442D02*
X023643Y010442D01*
X023643Y010445D02*
X023273Y010445D01*
X023273Y010448D02*
X023643Y010448D01*
X023643Y010451D02*
X023273Y010451D01*
X023273Y010454D02*
X023643Y010454D01*
X023643Y010457D02*
X023273Y010457D01*
X023273Y010460D02*
X023643Y010460D01*
X023643Y010463D02*
X023273Y010463D01*
X023273Y010466D02*
X023643Y010466D01*
X023643Y010469D02*
X023273Y010469D01*
X023273Y010472D02*
X023643Y010472D01*
X022800Y010473D02*
X022800Y009749D01*
X022800Y010473D02*
X023170Y010473D01*
X023170Y009749D01*
X022800Y009749D01*
X022800Y009752D02*
X023170Y009752D01*
X023170Y009755D02*
X022800Y009755D01*
X022800Y009758D02*
X023170Y009758D01*
X023170Y009761D02*
X022800Y009761D01*
X022800Y009764D02*
X023170Y009764D01*
X023170Y009767D02*
X022800Y009767D01*
X022800Y009770D02*
X023170Y009770D01*
X023170Y009773D02*
X022800Y009773D01*
X022800Y009776D02*
X023170Y009776D01*
X023170Y009779D02*
X022800Y009779D01*
X022800Y009782D02*
X023170Y009782D01*
X023170Y009785D02*
X022800Y009785D01*
X022800Y009788D02*
X023170Y009788D01*
X023170Y009791D02*
X022800Y009791D01*
X022800Y009794D02*
X023170Y009794D01*
X023170Y009797D02*
X022800Y009797D01*
X022800Y009800D02*
X023170Y009800D01*
X023170Y009803D02*
X022800Y009803D01*
X022800Y009806D02*
X023170Y009806D01*
X023170Y009809D02*
X022800Y009809D01*
X022800Y009812D02*
X023170Y009812D01*
X023170Y009815D02*
X022800Y009815D01*
X022800Y009818D02*
X023170Y009818D01*
X023170Y009821D02*
X022800Y009821D01*
X022800Y009824D02*
X023170Y009824D01*
X023170Y009827D02*
X022800Y009827D01*
X022800Y009830D02*
X023170Y009830D01*
X023170Y009833D02*
X022800Y009833D01*
X022800Y009836D02*
X023170Y009836D01*
X023170Y009839D02*
X022800Y009839D01*
X022800Y009842D02*
X023170Y009842D01*
X023170Y009845D02*
X022800Y009845D01*
X022800Y009848D02*
X023170Y009848D01*
X023170Y009851D02*
X022800Y009851D01*
X022800Y009854D02*
X023170Y009854D01*
X023170Y009857D02*
X022800Y009857D01*
X022800Y009860D02*
X023170Y009860D01*
X023170Y009863D02*
X022800Y009863D01*
X022800Y009866D02*
X023170Y009866D01*
X023170Y009869D02*
X022800Y009869D01*
X022800Y009872D02*
X023170Y009872D01*
X023170Y009875D02*
X022800Y009875D01*
X022800Y009878D02*
X023170Y009878D01*
X023170Y009881D02*
X022800Y009881D01*
X022800Y009884D02*
X023170Y009884D01*
X023170Y009887D02*
X022800Y009887D01*
X022800Y009890D02*
X023170Y009890D01*
X023170Y009893D02*
X022800Y009893D01*
X022800Y009896D02*
X023170Y009896D01*
X023170Y009899D02*
X022800Y009899D01*
X022800Y009902D02*
X023170Y009902D01*
X023170Y009905D02*
X022800Y009905D01*
X022800Y009908D02*
X023170Y009908D01*
X023170Y009911D02*
X022800Y009911D01*
X022800Y009914D02*
X023170Y009914D01*
X023170Y009917D02*
X022800Y009917D01*
X022800Y009920D02*
X023170Y009920D01*
X023170Y009923D02*
X022800Y009923D01*
X022800Y009926D02*
X023170Y009926D01*
X023170Y009929D02*
X022800Y009929D01*
X022800Y009932D02*
X023170Y009932D01*
X023170Y009935D02*
X022800Y009935D01*
X022800Y009938D02*
X023170Y009938D01*
X023170Y009941D02*
X022800Y009941D01*
X022800Y009944D02*
X023170Y009944D01*
X023170Y009947D02*
X022800Y009947D01*
X022800Y009950D02*
X023170Y009950D01*
X023170Y009953D02*
X022800Y009953D01*
X022800Y009956D02*
X023170Y009956D01*
X023170Y009959D02*
X022800Y009959D01*
X022800Y009962D02*
X023170Y009962D01*
X023170Y009965D02*
X022800Y009965D01*
X022800Y009968D02*
X023170Y009968D01*
X023170Y009971D02*
X022800Y009971D01*
X022800Y009974D02*
X023170Y009974D01*
X023170Y009977D02*
X022800Y009977D01*
X022800Y009980D02*
X023170Y009980D01*
X023170Y009983D02*
X022800Y009983D01*
X022800Y009986D02*
X023170Y009986D01*
X023170Y009989D02*
X022800Y009989D01*
X022800Y009992D02*
X023170Y009992D01*
X023170Y009995D02*
X022800Y009995D01*
X022800Y009998D02*
X023170Y009998D01*
X023170Y010001D02*
X022800Y010001D01*
X022800Y010004D02*
X023170Y010004D01*
X023170Y010007D02*
X022800Y010007D01*
X022800Y010010D02*
X023170Y010010D01*
X023170Y010013D02*
X022800Y010013D01*
X022800Y010016D02*
X023170Y010016D01*
X023170Y010019D02*
X022800Y010019D01*
X022800Y010022D02*
X023170Y010022D01*
X023170Y010025D02*
X022800Y010025D01*
X022800Y010028D02*
X023170Y010028D01*
X023170Y010031D02*
X022800Y010031D01*
X022800Y010034D02*
X023170Y010034D01*
X023170Y010037D02*
X022800Y010037D01*
X022800Y010040D02*
X023170Y010040D01*
X023170Y010043D02*
X022800Y010043D01*
X022800Y010046D02*
X023170Y010046D01*
X023170Y010049D02*
X022800Y010049D01*
X022800Y010052D02*
X023170Y010052D01*
X023170Y010055D02*
X022800Y010055D01*
X022800Y010058D02*
X023170Y010058D01*
X023170Y010061D02*
X022800Y010061D01*
X022800Y010064D02*
X023170Y010064D01*
X023170Y010067D02*
X022800Y010067D01*
X022800Y010070D02*
X023170Y010070D01*
X023170Y010073D02*
X022800Y010073D01*
X022800Y010076D02*
X023170Y010076D01*
X023170Y010079D02*
X022800Y010079D01*
X022800Y010082D02*
X023170Y010082D01*
X023170Y010085D02*
X022800Y010085D01*
X022800Y010088D02*
X023170Y010088D01*
X023170Y010091D02*
X022800Y010091D01*
X022800Y010094D02*
X023170Y010094D01*
X023170Y010097D02*
X022800Y010097D01*
X022800Y010100D02*
X023170Y010100D01*
X023170Y010103D02*
X022800Y010103D01*
X022800Y010106D02*
X023170Y010106D01*
X023170Y010109D02*
X022800Y010109D01*
X022800Y010112D02*
X023170Y010112D01*
X023170Y010115D02*
X022800Y010115D01*
X022800Y010118D02*
X023170Y010118D01*
X023170Y010121D02*
X022800Y010121D01*
X022800Y010124D02*
X023170Y010124D01*
X023170Y010127D02*
X022800Y010127D01*
X022800Y010130D02*
X023170Y010130D01*
X023170Y010133D02*
X022800Y010133D01*
X022800Y010136D02*
X023170Y010136D01*
X023170Y010139D02*
X022800Y010139D01*
X022800Y010142D02*
X023170Y010142D01*
X023170Y010145D02*
X022800Y010145D01*
X022800Y010148D02*
X023170Y010148D01*
X023170Y010151D02*
X022800Y010151D01*
X022800Y010154D02*
X023170Y010154D01*
X023170Y010157D02*
X022800Y010157D01*
X022800Y010160D02*
X023170Y010160D01*
X023170Y010163D02*
X022800Y010163D01*
X022800Y010166D02*
X023170Y010166D01*
X023170Y010169D02*
X022800Y010169D01*
X022800Y010172D02*
X023170Y010172D01*
X023170Y010175D02*
X022800Y010175D01*
X022800Y010178D02*
X023170Y010178D01*
X023170Y010181D02*
X022800Y010181D01*
X022800Y010184D02*
X023170Y010184D01*
X023170Y010187D02*
X022800Y010187D01*
X022800Y010190D02*
X023170Y010190D01*
X023170Y010193D02*
X022800Y010193D01*
X022800Y010196D02*
X023170Y010196D01*
X023170Y010199D02*
X022800Y010199D01*
X022800Y010202D02*
X023170Y010202D01*
X023170Y010205D02*
X022800Y010205D01*
X022800Y010208D02*
X023170Y010208D01*
X023170Y010211D02*
X022800Y010211D01*
X022800Y010214D02*
X023170Y010214D01*
X023170Y010217D02*
X022800Y010217D01*
X022800Y010220D02*
X023170Y010220D01*
X023170Y010223D02*
X022800Y010223D01*
X022800Y010226D02*
X023170Y010226D01*
X023170Y010229D02*
X022800Y010229D01*
X022800Y010232D02*
X023170Y010232D01*
X023170Y010235D02*
X022800Y010235D01*
X022800Y010238D02*
X023170Y010238D01*
X023170Y010241D02*
X022800Y010241D01*
X022800Y010244D02*
X023170Y010244D01*
X023170Y010247D02*
X022800Y010247D01*
X022800Y010250D02*
X023170Y010250D01*
X023170Y010253D02*
X022800Y010253D01*
X022800Y010256D02*
X023170Y010256D01*
X023170Y010259D02*
X022800Y010259D01*
X022800Y010262D02*
X023170Y010262D01*
X023170Y010265D02*
X022800Y010265D01*
X022800Y010268D02*
X023170Y010268D01*
X023170Y010271D02*
X022800Y010271D01*
X022800Y010274D02*
X023170Y010274D01*
X023170Y010277D02*
X022800Y010277D01*
X022800Y010280D02*
X023170Y010280D01*
X023170Y010283D02*
X022800Y010283D01*
X022800Y010286D02*
X023170Y010286D01*
X023170Y010289D02*
X022800Y010289D01*
X022800Y010292D02*
X023170Y010292D01*
X023170Y010295D02*
X022800Y010295D01*
X022800Y010298D02*
X023170Y010298D01*
X023170Y010301D02*
X022800Y010301D01*
X022800Y010304D02*
X023170Y010304D01*
X023170Y010307D02*
X022800Y010307D01*
X022800Y010310D02*
X023170Y010310D01*
X023170Y010313D02*
X022800Y010313D01*
X022800Y010316D02*
X023170Y010316D01*
X023170Y010319D02*
X022800Y010319D01*
X022800Y010322D02*
X023170Y010322D01*
X023170Y010325D02*
X022800Y010325D01*
X022800Y010328D02*
X023170Y010328D01*
X023170Y010331D02*
X022800Y010331D01*
X022800Y010334D02*
X023170Y010334D01*
X023170Y010337D02*
X022800Y010337D01*
X022800Y010340D02*
X023170Y010340D01*
X023170Y010343D02*
X022800Y010343D01*
X022800Y010346D02*
X023170Y010346D01*
X023170Y010349D02*
X022800Y010349D01*
X022800Y010352D02*
X023170Y010352D01*
X023170Y010355D02*
X022800Y010355D01*
X022800Y010358D02*
X023170Y010358D01*
X023170Y010361D02*
X022800Y010361D01*
X022800Y010364D02*
X023170Y010364D01*
X023170Y010367D02*
X022800Y010367D01*
X022800Y010370D02*
X023170Y010370D01*
X023170Y010373D02*
X022800Y010373D01*
X022800Y010376D02*
X023170Y010376D01*
X023170Y010379D02*
X022800Y010379D01*
X022800Y010382D02*
X023170Y010382D01*
X023170Y010385D02*
X022800Y010385D01*
X022800Y010388D02*
X023170Y010388D01*
X023170Y010391D02*
X022800Y010391D01*
X022800Y010394D02*
X023170Y010394D01*
X023170Y010397D02*
X022800Y010397D01*
X022800Y010400D02*
X023170Y010400D01*
X023170Y010403D02*
X022800Y010403D01*
X022800Y010406D02*
X023170Y010406D01*
X023170Y010409D02*
X022800Y010409D01*
X022800Y010412D02*
X023170Y010412D01*
X023170Y010415D02*
X022800Y010415D01*
X022800Y010418D02*
X023170Y010418D01*
X023170Y010421D02*
X022800Y010421D01*
X022800Y010424D02*
X023170Y010424D01*
X023170Y010427D02*
X022800Y010427D01*
X022800Y010430D02*
X023170Y010430D01*
X023170Y010433D02*
X022800Y010433D01*
X022800Y010436D02*
X023170Y010436D01*
X023170Y010439D02*
X022800Y010439D01*
X022800Y010442D02*
X023170Y010442D01*
X023170Y010445D02*
X022800Y010445D01*
X022800Y010448D02*
X023170Y010448D01*
X023170Y010451D02*
X022800Y010451D01*
X022800Y010454D02*
X023170Y010454D01*
X023170Y010457D02*
X022800Y010457D01*
X022800Y010460D02*
X023170Y010460D01*
X023170Y010463D02*
X022800Y010463D01*
X022800Y010466D02*
X023170Y010466D01*
X023170Y010469D02*
X022800Y010469D01*
X022800Y010472D02*
X023170Y010472D01*
X022328Y010473D02*
X022328Y009749D01*
X022328Y010473D02*
X022698Y010473D01*
X022698Y009749D01*
X022328Y009749D01*
X022328Y009752D02*
X022698Y009752D01*
X022698Y009755D02*
X022328Y009755D01*
X022328Y009758D02*
X022698Y009758D01*
X022698Y009761D02*
X022328Y009761D01*
X022328Y009764D02*
X022698Y009764D01*
X022698Y009767D02*
X022328Y009767D01*
X022328Y009770D02*
X022698Y009770D01*
X022698Y009773D02*
X022328Y009773D01*
X022328Y009776D02*
X022698Y009776D01*
X022698Y009779D02*
X022328Y009779D01*
X022328Y009782D02*
X022698Y009782D01*
X022698Y009785D02*
X022328Y009785D01*
X022328Y009788D02*
X022698Y009788D01*
X022698Y009791D02*
X022328Y009791D01*
X022328Y009794D02*
X022698Y009794D01*
X022698Y009797D02*
X022328Y009797D01*
X022328Y009800D02*
X022698Y009800D01*
X022698Y009803D02*
X022328Y009803D01*
X022328Y009806D02*
X022698Y009806D01*
X022698Y009809D02*
X022328Y009809D01*
X022328Y009812D02*
X022698Y009812D01*
X022698Y009815D02*
X022328Y009815D01*
X022328Y009818D02*
X022698Y009818D01*
X022698Y009821D02*
X022328Y009821D01*
X022328Y009824D02*
X022698Y009824D01*
X022698Y009827D02*
X022328Y009827D01*
X022328Y009830D02*
X022698Y009830D01*
X022698Y009833D02*
X022328Y009833D01*
X022328Y009836D02*
X022698Y009836D01*
X022698Y009839D02*
X022328Y009839D01*
X022328Y009842D02*
X022698Y009842D01*
X022698Y009845D02*
X022328Y009845D01*
X022328Y009848D02*
X022698Y009848D01*
X022698Y009851D02*
X022328Y009851D01*
X022328Y009854D02*
X022698Y009854D01*
X022698Y009857D02*
X022328Y009857D01*
X022328Y009860D02*
X022698Y009860D01*
X022698Y009863D02*
X022328Y009863D01*
X022328Y009866D02*
X022698Y009866D01*
X022698Y009869D02*
X022328Y009869D01*
X022328Y009872D02*
X022698Y009872D01*
X022698Y009875D02*
X022328Y009875D01*
X022328Y009878D02*
X022698Y009878D01*
X022698Y009881D02*
X022328Y009881D01*
X022328Y009884D02*
X022698Y009884D01*
X022698Y009887D02*
X022328Y009887D01*
X022328Y009890D02*
X022698Y009890D01*
X022698Y009893D02*
X022328Y009893D01*
X022328Y009896D02*
X022698Y009896D01*
X022698Y009899D02*
X022328Y009899D01*
X022328Y009902D02*
X022698Y009902D01*
X022698Y009905D02*
X022328Y009905D01*
X022328Y009908D02*
X022698Y009908D01*
X022698Y009911D02*
X022328Y009911D01*
X022328Y009914D02*
X022698Y009914D01*
X022698Y009917D02*
X022328Y009917D01*
X022328Y009920D02*
X022698Y009920D01*
X022698Y009923D02*
X022328Y009923D01*
X022328Y009926D02*
X022698Y009926D01*
X022698Y009929D02*
X022328Y009929D01*
X022328Y009932D02*
X022698Y009932D01*
X022698Y009935D02*
X022328Y009935D01*
X022328Y009938D02*
X022698Y009938D01*
X022698Y009941D02*
X022328Y009941D01*
X022328Y009944D02*
X022698Y009944D01*
X022698Y009947D02*
X022328Y009947D01*
X022328Y009950D02*
X022698Y009950D01*
X022698Y009953D02*
X022328Y009953D01*
X022328Y009956D02*
X022698Y009956D01*
X022698Y009959D02*
X022328Y009959D01*
X022328Y009962D02*
X022698Y009962D01*
X022698Y009965D02*
X022328Y009965D01*
X022328Y009968D02*
X022698Y009968D01*
X022698Y009971D02*
X022328Y009971D01*
X022328Y009974D02*
X022698Y009974D01*
X022698Y009977D02*
X022328Y009977D01*
X022328Y009980D02*
X022698Y009980D01*
X022698Y009983D02*
X022328Y009983D01*
X022328Y009986D02*
X022698Y009986D01*
X022698Y009989D02*
X022328Y009989D01*
X022328Y009992D02*
X022698Y009992D01*
X022698Y009995D02*
X022328Y009995D01*
X022328Y009998D02*
X022698Y009998D01*
X022698Y010001D02*
X022328Y010001D01*
X022328Y010004D02*
X022698Y010004D01*
X022698Y010007D02*
X022328Y010007D01*
X022328Y010010D02*
X022698Y010010D01*
X022698Y010013D02*
X022328Y010013D01*
X022328Y010016D02*
X022698Y010016D01*
X022698Y010019D02*
X022328Y010019D01*
X022328Y010022D02*
X022698Y010022D01*
X022698Y010025D02*
X022328Y010025D01*
X022328Y010028D02*
X022698Y010028D01*
X022698Y010031D02*
X022328Y010031D01*
X022328Y010034D02*
X022698Y010034D01*
X022698Y010037D02*
X022328Y010037D01*
X022328Y010040D02*
X022698Y010040D01*
X022698Y010043D02*
X022328Y010043D01*
X022328Y010046D02*
X022698Y010046D01*
X022698Y010049D02*
X022328Y010049D01*
X022328Y010052D02*
X022698Y010052D01*
X022698Y010055D02*
X022328Y010055D01*
X022328Y010058D02*
X022698Y010058D01*
X022698Y010061D02*
X022328Y010061D01*
X022328Y010064D02*
X022698Y010064D01*
X022698Y010067D02*
X022328Y010067D01*
X022328Y010070D02*
X022698Y010070D01*
X022698Y010073D02*
X022328Y010073D01*
X022328Y010076D02*
X022698Y010076D01*
X022698Y010079D02*
X022328Y010079D01*
X022328Y010082D02*
X022698Y010082D01*
X022698Y010085D02*
X022328Y010085D01*
X022328Y010088D02*
X022698Y010088D01*
X022698Y010091D02*
X022328Y010091D01*
X022328Y010094D02*
X022698Y010094D01*
X022698Y010097D02*
X022328Y010097D01*
X022328Y010100D02*
X022698Y010100D01*
X022698Y010103D02*
X022328Y010103D01*
X022328Y010106D02*
X022698Y010106D01*
X022698Y010109D02*
X022328Y010109D01*
X022328Y010112D02*
X022698Y010112D01*
X022698Y010115D02*
X022328Y010115D01*
X022328Y010118D02*
X022698Y010118D01*
X022698Y010121D02*
X022328Y010121D01*
X022328Y010124D02*
X022698Y010124D01*
X022698Y010127D02*
X022328Y010127D01*
X022328Y010130D02*
X022698Y010130D01*
X022698Y010133D02*
X022328Y010133D01*
X022328Y010136D02*
X022698Y010136D01*
X022698Y010139D02*
X022328Y010139D01*
X022328Y010142D02*
X022698Y010142D01*
X022698Y010145D02*
X022328Y010145D01*
X022328Y010148D02*
X022698Y010148D01*
X022698Y010151D02*
X022328Y010151D01*
X022328Y010154D02*
X022698Y010154D01*
X022698Y010157D02*
X022328Y010157D01*
X022328Y010160D02*
X022698Y010160D01*
X022698Y010163D02*
X022328Y010163D01*
X022328Y010166D02*
X022698Y010166D01*
X022698Y010169D02*
X022328Y010169D01*
X022328Y010172D02*
X022698Y010172D01*
X022698Y010175D02*
X022328Y010175D01*
X022328Y010178D02*
X022698Y010178D01*
X022698Y010181D02*
X022328Y010181D01*
X022328Y010184D02*
X022698Y010184D01*
X022698Y010187D02*
X022328Y010187D01*
X022328Y010190D02*
X022698Y010190D01*
X022698Y010193D02*
X022328Y010193D01*
X022328Y010196D02*
X022698Y010196D01*
X022698Y010199D02*
X022328Y010199D01*
X022328Y010202D02*
X022698Y010202D01*
X022698Y010205D02*
X022328Y010205D01*
X022328Y010208D02*
X022698Y010208D01*
X022698Y010211D02*
X022328Y010211D01*
X022328Y010214D02*
X022698Y010214D01*
X022698Y010217D02*
X022328Y010217D01*
X022328Y010220D02*
X022698Y010220D01*
X022698Y010223D02*
X022328Y010223D01*
X022328Y010226D02*
X022698Y010226D01*
X022698Y010229D02*
X022328Y010229D01*
X022328Y010232D02*
X022698Y010232D01*
X022698Y010235D02*
X022328Y010235D01*
X022328Y010238D02*
X022698Y010238D01*
X022698Y010241D02*
X022328Y010241D01*
X022328Y010244D02*
X022698Y010244D01*
X022698Y010247D02*
X022328Y010247D01*
X022328Y010250D02*
X022698Y010250D01*
X022698Y010253D02*
X022328Y010253D01*
X022328Y010256D02*
X022698Y010256D01*
X022698Y010259D02*
X022328Y010259D01*
X022328Y010262D02*
X022698Y010262D01*
X022698Y010265D02*
X022328Y010265D01*
X022328Y010268D02*
X022698Y010268D01*
X022698Y010271D02*
X022328Y010271D01*
X022328Y010274D02*
X022698Y010274D01*
X022698Y010277D02*
X022328Y010277D01*
X022328Y010280D02*
X022698Y010280D01*
X022698Y010283D02*
X022328Y010283D01*
X022328Y010286D02*
X022698Y010286D01*
X022698Y010289D02*
X022328Y010289D01*
X022328Y010292D02*
X022698Y010292D01*
X022698Y010295D02*
X022328Y010295D01*
X022328Y010298D02*
X022698Y010298D01*
X022698Y010301D02*
X022328Y010301D01*
X022328Y010304D02*
X022698Y010304D01*
X022698Y010307D02*
X022328Y010307D01*
X022328Y010310D02*
X022698Y010310D01*
X022698Y010313D02*
X022328Y010313D01*
X022328Y010316D02*
X022698Y010316D01*
X022698Y010319D02*
X022328Y010319D01*
X022328Y010322D02*
X022698Y010322D01*
X022698Y010325D02*
X022328Y010325D01*
X022328Y010328D02*
X022698Y010328D01*
X022698Y010331D02*
X022328Y010331D01*
X022328Y010334D02*
X022698Y010334D01*
X022698Y010337D02*
X022328Y010337D01*
X022328Y010340D02*
X022698Y010340D01*
X022698Y010343D02*
X022328Y010343D01*
X022328Y010346D02*
X022698Y010346D01*
X022698Y010349D02*
X022328Y010349D01*
X022328Y010352D02*
X022698Y010352D01*
X022698Y010355D02*
X022328Y010355D01*
X022328Y010358D02*
X022698Y010358D01*
X022698Y010361D02*
X022328Y010361D01*
X022328Y010364D02*
X022698Y010364D01*
X022698Y010367D02*
X022328Y010367D01*
X022328Y010370D02*
X022698Y010370D01*
X022698Y010373D02*
X022328Y010373D01*
X022328Y010376D02*
X022698Y010376D01*
X022698Y010379D02*
X022328Y010379D01*
X022328Y010382D02*
X022698Y010382D01*
X022698Y010385D02*
X022328Y010385D01*
X022328Y010388D02*
X022698Y010388D01*
X022698Y010391D02*
X022328Y010391D01*
X022328Y010394D02*
X022698Y010394D01*
X022698Y010397D02*
X022328Y010397D01*
X022328Y010400D02*
X022698Y010400D01*
X022698Y010403D02*
X022328Y010403D01*
X022328Y010406D02*
X022698Y010406D01*
X022698Y010409D02*
X022328Y010409D01*
X022328Y010412D02*
X022698Y010412D01*
X022698Y010415D02*
X022328Y010415D01*
X022328Y010418D02*
X022698Y010418D01*
X022698Y010421D02*
X022328Y010421D01*
X022328Y010424D02*
X022698Y010424D01*
X022698Y010427D02*
X022328Y010427D01*
X022328Y010430D02*
X022698Y010430D01*
X022698Y010433D02*
X022328Y010433D01*
X022328Y010436D02*
X022698Y010436D01*
X022698Y010439D02*
X022328Y010439D01*
X022328Y010442D02*
X022698Y010442D01*
X022698Y010445D02*
X022328Y010445D01*
X022328Y010448D02*
X022698Y010448D01*
X022698Y010451D02*
X022328Y010451D01*
X022328Y010454D02*
X022698Y010454D01*
X022698Y010457D02*
X022328Y010457D01*
X022328Y010460D02*
X022698Y010460D01*
X022698Y010463D02*
X022328Y010463D01*
X022328Y010466D02*
X022698Y010466D01*
X022698Y010469D02*
X022328Y010469D01*
X022328Y010472D02*
X022698Y010472D01*
X021855Y010473D02*
X021855Y009749D01*
X021855Y010473D02*
X022225Y010473D01*
X022225Y009749D01*
X021855Y009749D01*
X021855Y009752D02*
X022225Y009752D01*
X022225Y009755D02*
X021855Y009755D01*
X021855Y009758D02*
X022225Y009758D01*
X022225Y009761D02*
X021855Y009761D01*
X021855Y009764D02*
X022225Y009764D01*
X022225Y009767D02*
X021855Y009767D01*
X021855Y009770D02*
X022225Y009770D01*
X022225Y009773D02*
X021855Y009773D01*
X021855Y009776D02*
X022225Y009776D01*
X022225Y009779D02*
X021855Y009779D01*
X021855Y009782D02*
X022225Y009782D01*
X022225Y009785D02*
X021855Y009785D01*
X021855Y009788D02*
X022225Y009788D01*
X022225Y009791D02*
X021855Y009791D01*
X021855Y009794D02*
X022225Y009794D01*
X022225Y009797D02*
X021855Y009797D01*
X021855Y009800D02*
X022225Y009800D01*
X022225Y009803D02*
X021855Y009803D01*
X021855Y009806D02*
X022225Y009806D01*
X022225Y009809D02*
X021855Y009809D01*
X021855Y009812D02*
X022225Y009812D01*
X022225Y009815D02*
X021855Y009815D01*
X021855Y009818D02*
X022225Y009818D01*
X022225Y009821D02*
X021855Y009821D01*
X021855Y009824D02*
X022225Y009824D01*
X022225Y009827D02*
X021855Y009827D01*
X021855Y009830D02*
X022225Y009830D01*
X022225Y009833D02*
X021855Y009833D01*
X021855Y009836D02*
X022225Y009836D01*
X022225Y009839D02*
X021855Y009839D01*
X021855Y009842D02*
X022225Y009842D01*
X022225Y009845D02*
X021855Y009845D01*
X021855Y009848D02*
X022225Y009848D01*
X022225Y009851D02*
X021855Y009851D01*
X021855Y009854D02*
X022225Y009854D01*
X022225Y009857D02*
X021855Y009857D01*
X021855Y009860D02*
X022225Y009860D01*
X022225Y009863D02*
X021855Y009863D01*
X021855Y009866D02*
X022225Y009866D01*
X022225Y009869D02*
X021855Y009869D01*
X021855Y009872D02*
X022225Y009872D01*
X022225Y009875D02*
X021855Y009875D01*
X021855Y009878D02*
X022225Y009878D01*
X022225Y009881D02*
X021855Y009881D01*
X021855Y009884D02*
X022225Y009884D01*
X022225Y009887D02*
X021855Y009887D01*
X021855Y009890D02*
X022225Y009890D01*
X022225Y009893D02*
X021855Y009893D01*
X021855Y009896D02*
X022225Y009896D01*
X022225Y009899D02*
X021855Y009899D01*
X021855Y009902D02*
X022225Y009902D01*
X022225Y009905D02*
X021855Y009905D01*
X021855Y009908D02*
X022225Y009908D01*
X022225Y009911D02*
X021855Y009911D01*
X021855Y009914D02*
X022225Y009914D01*
X022225Y009917D02*
X021855Y009917D01*
X021855Y009920D02*
X022225Y009920D01*
X022225Y009923D02*
X021855Y009923D01*
X021855Y009926D02*
X022225Y009926D01*
X022225Y009929D02*
X021855Y009929D01*
X021855Y009932D02*
X022225Y009932D01*
X022225Y009935D02*
X021855Y009935D01*
X021855Y009938D02*
X022225Y009938D01*
X022225Y009941D02*
X021855Y009941D01*
X021855Y009944D02*
X022225Y009944D01*
X022225Y009947D02*
X021855Y009947D01*
X021855Y009950D02*
X022225Y009950D01*
X022225Y009953D02*
X021855Y009953D01*
X021855Y009956D02*
X022225Y009956D01*
X022225Y009959D02*
X021855Y009959D01*
X021855Y009962D02*
X022225Y009962D01*
X022225Y009965D02*
X021855Y009965D01*
X021855Y009968D02*
X022225Y009968D01*
X022225Y009971D02*
X021855Y009971D01*
X021855Y009974D02*
X022225Y009974D01*
X022225Y009977D02*
X021855Y009977D01*
X021855Y009980D02*
X022225Y009980D01*
X022225Y009983D02*
X021855Y009983D01*
X021855Y009986D02*
X022225Y009986D01*
X022225Y009989D02*
X021855Y009989D01*
X021855Y009992D02*
X022225Y009992D01*
X022225Y009995D02*
X021855Y009995D01*
X021855Y009998D02*
X022225Y009998D01*
X022225Y010001D02*
X021855Y010001D01*
X021855Y010004D02*
X022225Y010004D01*
X022225Y010007D02*
X021855Y010007D01*
X021855Y010010D02*
X022225Y010010D01*
X022225Y010013D02*
X021855Y010013D01*
X021855Y010016D02*
X022225Y010016D01*
X022225Y010019D02*
X021855Y010019D01*
X021855Y010022D02*
X022225Y010022D01*
X022225Y010025D02*
X021855Y010025D01*
X021855Y010028D02*
X022225Y010028D01*
X022225Y010031D02*
X021855Y010031D01*
X021855Y010034D02*
X022225Y010034D01*
X022225Y010037D02*
X021855Y010037D01*
X021855Y010040D02*
X022225Y010040D01*
X022225Y010043D02*
X021855Y010043D01*
X021855Y010046D02*
X022225Y010046D01*
X022225Y010049D02*
X021855Y010049D01*
X021855Y010052D02*
X022225Y010052D01*
X022225Y010055D02*
X021855Y010055D01*
X021855Y010058D02*
X022225Y010058D01*
X022225Y010061D02*
X021855Y010061D01*
X021855Y010064D02*
X022225Y010064D01*
X022225Y010067D02*
X021855Y010067D01*
X021855Y010070D02*
X022225Y010070D01*
X022225Y010073D02*
X021855Y010073D01*
X021855Y010076D02*
X022225Y010076D01*
X022225Y010079D02*
X021855Y010079D01*
X021855Y010082D02*
X022225Y010082D01*
X022225Y010085D02*
X021855Y010085D01*
X021855Y010088D02*
X022225Y010088D01*
X022225Y010091D02*
X021855Y010091D01*
X021855Y010094D02*
X022225Y010094D01*
X022225Y010097D02*
X021855Y010097D01*
X021855Y010100D02*
X022225Y010100D01*
X022225Y010103D02*
X021855Y010103D01*
X021855Y010106D02*
X022225Y010106D01*
X022225Y010109D02*
X021855Y010109D01*
X021855Y010112D02*
X022225Y010112D01*
X022225Y010115D02*
X021855Y010115D01*
X021855Y010118D02*
X022225Y010118D01*
X022225Y010121D02*
X021855Y010121D01*
X021855Y010124D02*
X022225Y010124D01*
X022225Y010127D02*
X021855Y010127D01*
X021855Y010130D02*
X022225Y010130D01*
X022225Y010133D02*
X021855Y010133D01*
X021855Y010136D02*
X022225Y010136D01*
X022225Y010139D02*
X021855Y010139D01*
X021855Y010142D02*
X022225Y010142D01*
X022225Y010145D02*
X021855Y010145D01*
X021855Y010148D02*
X022225Y010148D01*
X022225Y010151D02*
X021855Y010151D01*
X021855Y010154D02*
X022225Y010154D01*
X022225Y010157D02*
X021855Y010157D01*
X021855Y010160D02*
X022225Y010160D01*
X022225Y010163D02*
X021855Y010163D01*
X021855Y010166D02*
X022225Y010166D01*
X022225Y010169D02*
X021855Y010169D01*
X021855Y010172D02*
X022225Y010172D01*
X022225Y010175D02*
X021855Y010175D01*
X021855Y010178D02*
X022225Y010178D01*
X022225Y010181D02*
X021855Y010181D01*
X021855Y010184D02*
X022225Y010184D01*
X022225Y010187D02*
X021855Y010187D01*
X021855Y010190D02*
X022225Y010190D01*
X022225Y010193D02*
X021855Y010193D01*
X021855Y010196D02*
X022225Y010196D01*
X022225Y010199D02*
X021855Y010199D01*
X021855Y010202D02*
X022225Y010202D01*
X022225Y010205D02*
X021855Y010205D01*
X021855Y010208D02*
X022225Y010208D01*
X022225Y010211D02*
X021855Y010211D01*
X021855Y010214D02*
X022225Y010214D01*
X022225Y010217D02*
X021855Y010217D01*
X021855Y010220D02*
X022225Y010220D01*
X022225Y010223D02*
X021855Y010223D01*
X021855Y010226D02*
X022225Y010226D01*
X022225Y010229D02*
X021855Y010229D01*
X021855Y010232D02*
X022225Y010232D01*
X022225Y010235D02*
X021855Y010235D01*
X021855Y010238D02*
X022225Y010238D01*
X022225Y010241D02*
X021855Y010241D01*
X021855Y010244D02*
X022225Y010244D01*
X022225Y010247D02*
X021855Y010247D01*
X021855Y010250D02*
X022225Y010250D01*
X022225Y010253D02*
X021855Y010253D01*
X021855Y010256D02*
X022225Y010256D01*
X022225Y010259D02*
X021855Y010259D01*
X021855Y010262D02*
X022225Y010262D01*
X022225Y010265D02*
X021855Y010265D01*
X021855Y010268D02*
X022225Y010268D01*
X022225Y010271D02*
X021855Y010271D01*
X021855Y010274D02*
X022225Y010274D01*
X022225Y010277D02*
X021855Y010277D01*
X021855Y010280D02*
X022225Y010280D01*
X022225Y010283D02*
X021855Y010283D01*
X021855Y010286D02*
X022225Y010286D01*
X022225Y010289D02*
X021855Y010289D01*
X021855Y010292D02*
X022225Y010292D01*
X022225Y010295D02*
X021855Y010295D01*
X021855Y010298D02*
X022225Y010298D01*
X022225Y010301D02*
X021855Y010301D01*
X021855Y010304D02*
X022225Y010304D01*
X022225Y010307D02*
X021855Y010307D01*
X021855Y010310D02*
X022225Y010310D01*
X022225Y010313D02*
X021855Y010313D01*
X021855Y010316D02*
X022225Y010316D01*
X022225Y010319D02*
X021855Y010319D01*
X021855Y010322D02*
X022225Y010322D01*
X022225Y010325D02*
X021855Y010325D01*
X021855Y010328D02*
X022225Y010328D01*
X022225Y010331D02*
X021855Y010331D01*
X021855Y010334D02*
X022225Y010334D01*
X022225Y010337D02*
X021855Y010337D01*
X021855Y010340D02*
X022225Y010340D01*
X022225Y010343D02*
X021855Y010343D01*
X021855Y010346D02*
X022225Y010346D01*
X022225Y010349D02*
X021855Y010349D01*
X021855Y010352D02*
X022225Y010352D01*
X022225Y010355D02*
X021855Y010355D01*
X021855Y010358D02*
X022225Y010358D01*
X022225Y010361D02*
X021855Y010361D01*
X021855Y010364D02*
X022225Y010364D01*
X022225Y010367D02*
X021855Y010367D01*
X021855Y010370D02*
X022225Y010370D01*
X022225Y010373D02*
X021855Y010373D01*
X021855Y010376D02*
X022225Y010376D01*
X022225Y010379D02*
X021855Y010379D01*
X021855Y010382D02*
X022225Y010382D01*
X022225Y010385D02*
X021855Y010385D01*
X021855Y010388D02*
X022225Y010388D01*
X022225Y010391D02*
X021855Y010391D01*
X021855Y010394D02*
X022225Y010394D01*
X022225Y010397D02*
X021855Y010397D01*
X021855Y010400D02*
X022225Y010400D01*
X022225Y010403D02*
X021855Y010403D01*
X021855Y010406D02*
X022225Y010406D01*
X022225Y010409D02*
X021855Y010409D01*
X021855Y010412D02*
X022225Y010412D01*
X022225Y010415D02*
X021855Y010415D01*
X021855Y010418D02*
X022225Y010418D01*
X022225Y010421D02*
X021855Y010421D01*
X021855Y010424D02*
X022225Y010424D01*
X022225Y010427D02*
X021855Y010427D01*
X021855Y010430D02*
X022225Y010430D01*
X022225Y010433D02*
X021855Y010433D01*
X021855Y010436D02*
X022225Y010436D01*
X022225Y010439D02*
X021855Y010439D01*
X021855Y010442D02*
X022225Y010442D01*
X022225Y010445D02*
X021855Y010445D01*
X021855Y010448D02*
X022225Y010448D01*
X022225Y010451D02*
X021855Y010451D01*
X021855Y010454D02*
X022225Y010454D01*
X022225Y010457D02*
X021855Y010457D01*
X021855Y010460D02*
X022225Y010460D01*
X022225Y010463D02*
X021855Y010463D01*
X021855Y010466D02*
X022225Y010466D01*
X022225Y010469D02*
X021855Y010469D01*
X021855Y010472D02*
X022225Y010472D01*
X021383Y010473D02*
X021383Y009749D01*
X021383Y010473D02*
X021753Y010473D01*
X021753Y009749D01*
X021383Y009749D01*
X021383Y009752D02*
X021753Y009752D01*
X021753Y009755D02*
X021383Y009755D01*
X021383Y009758D02*
X021753Y009758D01*
X021753Y009761D02*
X021383Y009761D01*
X021383Y009764D02*
X021753Y009764D01*
X021753Y009767D02*
X021383Y009767D01*
X021383Y009770D02*
X021753Y009770D01*
X021753Y009773D02*
X021383Y009773D01*
X021383Y009776D02*
X021753Y009776D01*
X021753Y009779D02*
X021383Y009779D01*
X021383Y009782D02*
X021753Y009782D01*
X021753Y009785D02*
X021383Y009785D01*
X021383Y009788D02*
X021753Y009788D01*
X021753Y009791D02*
X021383Y009791D01*
X021383Y009794D02*
X021753Y009794D01*
X021753Y009797D02*
X021383Y009797D01*
X021383Y009800D02*
X021753Y009800D01*
X021753Y009803D02*
X021383Y009803D01*
X021383Y009806D02*
X021753Y009806D01*
X021753Y009809D02*
X021383Y009809D01*
X021383Y009812D02*
X021753Y009812D01*
X021753Y009815D02*
X021383Y009815D01*
X021383Y009818D02*
X021753Y009818D01*
X021753Y009821D02*
X021383Y009821D01*
X021383Y009824D02*
X021753Y009824D01*
X021753Y009827D02*
X021383Y009827D01*
X021383Y009830D02*
X021753Y009830D01*
X021753Y009833D02*
X021383Y009833D01*
X021383Y009836D02*
X021753Y009836D01*
X021753Y009839D02*
X021383Y009839D01*
X021383Y009842D02*
X021753Y009842D01*
X021753Y009845D02*
X021383Y009845D01*
X021383Y009848D02*
X021753Y009848D01*
X021753Y009851D02*
X021383Y009851D01*
X021383Y009854D02*
X021753Y009854D01*
X021753Y009857D02*
X021383Y009857D01*
X021383Y009860D02*
X021753Y009860D01*
X021753Y009863D02*
X021383Y009863D01*
X021383Y009866D02*
X021753Y009866D01*
X021753Y009869D02*
X021383Y009869D01*
X021383Y009872D02*
X021753Y009872D01*
X021753Y009875D02*
X021383Y009875D01*
X021383Y009878D02*
X021753Y009878D01*
X021753Y009881D02*
X021383Y009881D01*
X021383Y009884D02*
X021753Y009884D01*
X021753Y009887D02*
X021383Y009887D01*
X021383Y009890D02*
X021753Y009890D01*
X021753Y009893D02*
X021383Y009893D01*
X021383Y009896D02*
X021753Y009896D01*
X021753Y009899D02*
X021383Y009899D01*
X021383Y009902D02*
X021753Y009902D01*
X021753Y009905D02*
X021383Y009905D01*
X021383Y009908D02*
X021753Y009908D01*
X021753Y009911D02*
X021383Y009911D01*
X021383Y009914D02*
X021753Y009914D01*
X021753Y009917D02*
X021383Y009917D01*
X021383Y009920D02*
X021753Y009920D01*
X021753Y009923D02*
X021383Y009923D01*
X021383Y009926D02*
X021753Y009926D01*
X021753Y009929D02*
X021383Y009929D01*
X021383Y009932D02*
X021753Y009932D01*
X021753Y009935D02*
X021383Y009935D01*
X021383Y009938D02*
X021753Y009938D01*
X021753Y009941D02*
X021383Y009941D01*
X021383Y009944D02*
X021753Y009944D01*
X021753Y009947D02*
X021383Y009947D01*
X021383Y009950D02*
X021753Y009950D01*
X021753Y009953D02*
X021383Y009953D01*
X021383Y009956D02*
X021753Y009956D01*
X021753Y009959D02*
X021383Y009959D01*
X021383Y009962D02*
X021753Y009962D01*
X021753Y009965D02*
X021383Y009965D01*
X021383Y009968D02*
X021753Y009968D01*
X021753Y009971D02*
X021383Y009971D01*
X021383Y009974D02*
X021753Y009974D01*
X021753Y009977D02*
X021383Y009977D01*
X021383Y009980D02*
X021753Y009980D01*
X021753Y009983D02*
X021383Y009983D01*
X021383Y009986D02*
X021753Y009986D01*
X021753Y009989D02*
X021383Y009989D01*
X021383Y009992D02*
X021753Y009992D01*
X021753Y009995D02*
X021383Y009995D01*
X021383Y009998D02*
X021753Y009998D01*
X021753Y010001D02*
X021383Y010001D01*
X021383Y010004D02*
X021753Y010004D01*
X021753Y010007D02*
X021383Y010007D01*
X021383Y010010D02*
X021753Y010010D01*
X021753Y010013D02*
X021383Y010013D01*
X021383Y010016D02*
X021753Y010016D01*
X021753Y010019D02*
X021383Y010019D01*
X021383Y010022D02*
X021753Y010022D01*
X021753Y010025D02*
X021383Y010025D01*
X021383Y010028D02*
X021753Y010028D01*
X021753Y010031D02*
X021383Y010031D01*
X021383Y010034D02*
X021753Y010034D01*
X021753Y010037D02*
X021383Y010037D01*
X021383Y010040D02*
X021753Y010040D01*
X021753Y010043D02*
X021383Y010043D01*
X021383Y010046D02*
X021753Y010046D01*
X021753Y010049D02*
X021383Y010049D01*
X021383Y010052D02*
X021753Y010052D01*
X021753Y010055D02*
X021383Y010055D01*
X021383Y010058D02*
X021753Y010058D01*
X021753Y010061D02*
X021383Y010061D01*
X021383Y010064D02*
X021753Y010064D01*
X021753Y010067D02*
X021383Y010067D01*
X021383Y010070D02*
X021753Y010070D01*
X021753Y010073D02*
X021383Y010073D01*
X021383Y010076D02*
X021753Y010076D01*
X021753Y010079D02*
X021383Y010079D01*
X021383Y010082D02*
X021753Y010082D01*
X021753Y010085D02*
X021383Y010085D01*
X021383Y010088D02*
X021753Y010088D01*
X021753Y010091D02*
X021383Y010091D01*
X021383Y010094D02*
X021753Y010094D01*
X021753Y010097D02*
X021383Y010097D01*
X021383Y010100D02*
X021753Y010100D01*
X021753Y010103D02*
X021383Y010103D01*
X021383Y010106D02*
X021753Y010106D01*
X021753Y010109D02*
X021383Y010109D01*
X021383Y010112D02*
X021753Y010112D01*
X021753Y010115D02*
X021383Y010115D01*
X021383Y010118D02*
X021753Y010118D01*
X021753Y010121D02*
X021383Y010121D01*
X021383Y010124D02*
X021753Y010124D01*
X021753Y010127D02*
X021383Y010127D01*
X021383Y010130D02*
X021753Y010130D01*
X021753Y010133D02*
X021383Y010133D01*
X021383Y010136D02*
X021753Y010136D01*
X021753Y010139D02*
X021383Y010139D01*
X021383Y010142D02*
X021753Y010142D01*
X021753Y010145D02*
X021383Y010145D01*
X021383Y010148D02*
X021753Y010148D01*
X021753Y010151D02*
X021383Y010151D01*
X021383Y010154D02*
X021753Y010154D01*
X021753Y010157D02*
X021383Y010157D01*
X021383Y010160D02*
X021753Y010160D01*
X021753Y010163D02*
X021383Y010163D01*
X021383Y010166D02*
X021753Y010166D01*
X021753Y010169D02*
X021383Y010169D01*
X021383Y010172D02*
X021753Y010172D01*
X021753Y010175D02*
X021383Y010175D01*
X021383Y010178D02*
X021753Y010178D01*
X021753Y010181D02*
X021383Y010181D01*
X021383Y010184D02*
X021753Y010184D01*
X021753Y010187D02*
X021383Y010187D01*
X021383Y010190D02*
X021753Y010190D01*
X021753Y010193D02*
X021383Y010193D01*
X021383Y010196D02*
X021753Y010196D01*
X021753Y010199D02*
X021383Y010199D01*
X021383Y010202D02*
X021753Y010202D01*
X021753Y010205D02*
X021383Y010205D01*
X021383Y010208D02*
X021753Y010208D01*
X021753Y010211D02*
X021383Y010211D01*
X021383Y010214D02*
X021753Y010214D01*
X021753Y010217D02*
X021383Y010217D01*
X021383Y010220D02*
X021753Y010220D01*
X021753Y010223D02*
X021383Y010223D01*
X021383Y010226D02*
X021753Y010226D01*
X021753Y010229D02*
X021383Y010229D01*
X021383Y010232D02*
X021753Y010232D01*
X021753Y010235D02*
X021383Y010235D01*
X021383Y010238D02*
X021753Y010238D01*
X021753Y010241D02*
X021383Y010241D01*
X021383Y010244D02*
X021753Y010244D01*
X021753Y010247D02*
X021383Y010247D01*
X021383Y010250D02*
X021753Y010250D01*
X021753Y010253D02*
X021383Y010253D01*
X021383Y010256D02*
X021753Y010256D01*
X021753Y010259D02*
X021383Y010259D01*
X021383Y010262D02*
X021753Y010262D01*
X021753Y010265D02*
X021383Y010265D01*
X021383Y010268D02*
X021753Y010268D01*
X021753Y010271D02*
X021383Y010271D01*
X021383Y010274D02*
X021753Y010274D01*
X021753Y010277D02*
X021383Y010277D01*
X021383Y010280D02*
X021753Y010280D01*
X021753Y010283D02*
X021383Y010283D01*
X021383Y010286D02*
X021753Y010286D01*
X021753Y010289D02*
X021383Y010289D01*
X021383Y010292D02*
X021753Y010292D01*
X021753Y010295D02*
X021383Y010295D01*
X021383Y010298D02*
X021753Y010298D01*
X021753Y010301D02*
X021383Y010301D01*
X021383Y010304D02*
X021753Y010304D01*
X021753Y010307D02*
X021383Y010307D01*
X021383Y010310D02*
X021753Y010310D01*
X021753Y010313D02*
X021383Y010313D01*
X021383Y010316D02*
X021753Y010316D01*
X021753Y010319D02*
X021383Y010319D01*
X021383Y010322D02*
X021753Y010322D01*
X021753Y010325D02*
X021383Y010325D01*
X021383Y010328D02*
X021753Y010328D01*
X021753Y010331D02*
X021383Y010331D01*
X021383Y010334D02*
X021753Y010334D01*
X021753Y010337D02*
X021383Y010337D01*
X021383Y010340D02*
X021753Y010340D01*
X021753Y010343D02*
X021383Y010343D01*
X021383Y010346D02*
X021753Y010346D01*
X021753Y010349D02*
X021383Y010349D01*
X021383Y010352D02*
X021753Y010352D01*
X021753Y010355D02*
X021383Y010355D01*
X021383Y010358D02*
X021753Y010358D01*
X021753Y010361D02*
X021383Y010361D01*
X021383Y010364D02*
X021753Y010364D01*
X021753Y010367D02*
X021383Y010367D01*
X021383Y010370D02*
X021753Y010370D01*
X021753Y010373D02*
X021383Y010373D01*
X021383Y010376D02*
X021753Y010376D01*
X021753Y010379D02*
X021383Y010379D01*
X021383Y010382D02*
X021753Y010382D01*
X021753Y010385D02*
X021383Y010385D01*
X021383Y010388D02*
X021753Y010388D01*
X021753Y010391D02*
X021383Y010391D01*
X021383Y010394D02*
X021753Y010394D01*
X021753Y010397D02*
X021383Y010397D01*
X021383Y010400D02*
X021753Y010400D01*
X021753Y010403D02*
X021383Y010403D01*
X021383Y010406D02*
X021753Y010406D01*
X021753Y010409D02*
X021383Y010409D01*
X021383Y010412D02*
X021753Y010412D01*
X021753Y010415D02*
X021383Y010415D01*
X021383Y010418D02*
X021753Y010418D01*
X021753Y010421D02*
X021383Y010421D01*
X021383Y010424D02*
X021753Y010424D01*
X021753Y010427D02*
X021383Y010427D01*
X021383Y010430D02*
X021753Y010430D01*
X021753Y010433D02*
X021383Y010433D01*
X021383Y010436D02*
X021753Y010436D01*
X021753Y010439D02*
X021383Y010439D01*
X021383Y010442D02*
X021753Y010442D01*
X021753Y010445D02*
X021383Y010445D01*
X021383Y010448D02*
X021753Y010448D01*
X021753Y010451D02*
X021383Y010451D01*
X021383Y010454D02*
X021753Y010454D01*
X021753Y010457D02*
X021383Y010457D01*
X021383Y010460D02*
X021753Y010460D01*
X021753Y010463D02*
X021383Y010463D01*
X021383Y010466D02*
X021753Y010466D01*
X021753Y010469D02*
X021383Y010469D01*
X021383Y010472D02*
X021753Y010472D01*
X020910Y010473D02*
X020910Y009749D01*
X020910Y010473D02*
X021280Y010473D01*
X021280Y009749D01*
X020910Y009749D01*
X020910Y009752D02*
X021280Y009752D01*
X021280Y009755D02*
X020910Y009755D01*
X020910Y009758D02*
X021280Y009758D01*
X021280Y009761D02*
X020910Y009761D01*
X020910Y009764D02*
X021280Y009764D01*
X021280Y009767D02*
X020910Y009767D01*
X020910Y009770D02*
X021280Y009770D01*
X021280Y009773D02*
X020910Y009773D01*
X020910Y009776D02*
X021280Y009776D01*
X021280Y009779D02*
X020910Y009779D01*
X020910Y009782D02*
X021280Y009782D01*
X021280Y009785D02*
X020910Y009785D01*
X020910Y009788D02*
X021280Y009788D01*
X021280Y009791D02*
X020910Y009791D01*
X020910Y009794D02*
X021280Y009794D01*
X021280Y009797D02*
X020910Y009797D01*
X020910Y009800D02*
X021280Y009800D01*
X021280Y009803D02*
X020910Y009803D01*
X020910Y009806D02*
X021280Y009806D01*
X021280Y009809D02*
X020910Y009809D01*
X020910Y009812D02*
X021280Y009812D01*
X021280Y009815D02*
X020910Y009815D01*
X020910Y009818D02*
X021280Y009818D01*
X021280Y009821D02*
X020910Y009821D01*
X020910Y009824D02*
X021280Y009824D01*
X021280Y009827D02*
X020910Y009827D01*
X020910Y009830D02*
X021280Y009830D01*
X021280Y009833D02*
X020910Y009833D01*
X020910Y009836D02*
X021280Y009836D01*
X021280Y009839D02*
X020910Y009839D01*
X020910Y009842D02*
X021280Y009842D01*
X021280Y009845D02*
X020910Y009845D01*
X020910Y009848D02*
X021280Y009848D01*
X021280Y009851D02*
X020910Y009851D01*
X020910Y009854D02*
X021280Y009854D01*
X021280Y009857D02*
X020910Y009857D01*
X020910Y009860D02*
X021280Y009860D01*
X021280Y009863D02*
X020910Y009863D01*
X020910Y009866D02*
X021280Y009866D01*
X021280Y009869D02*
X020910Y009869D01*
X020910Y009872D02*
X021280Y009872D01*
X021280Y009875D02*
X020910Y009875D01*
X020910Y009878D02*
X021280Y009878D01*
X021280Y009881D02*
X020910Y009881D01*
X020910Y009884D02*
X021280Y009884D01*
X021280Y009887D02*
X020910Y009887D01*
X020910Y009890D02*
X021280Y009890D01*
X021280Y009893D02*
X020910Y009893D01*
X020910Y009896D02*
X021280Y009896D01*
X021280Y009899D02*
X020910Y009899D01*
X020910Y009902D02*
X021280Y009902D01*
X021280Y009905D02*
X020910Y009905D01*
X020910Y009908D02*
X021280Y009908D01*
X021280Y009911D02*
X020910Y009911D01*
X020910Y009914D02*
X021280Y009914D01*
X021280Y009917D02*
X020910Y009917D01*
X020910Y009920D02*
X021280Y009920D01*
X021280Y009923D02*
X020910Y009923D01*
X020910Y009926D02*
X021280Y009926D01*
X021280Y009929D02*
X020910Y009929D01*
X020910Y009932D02*
X021280Y009932D01*
X021280Y009935D02*
X020910Y009935D01*
X020910Y009938D02*
X021280Y009938D01*
X021280Y009941D02*
X020910Y009941D01*
X020910Y009944D02*
X021280Y009944D01*
X021280Y009947D02*
X020910Y009947D01*
X020910Y009950D02*
X021280Y009950D01*
X021280Y009953D02*
X020910Y009953D01*
X020910Y009956D02*
X021280Y009956D01*
X021280Y009959D02*
X020910Y009959D01*
X020910Y009962D02*
X021280Y009962D01*
X021280Y009965D02*
X020910Y009965D01*
X020910Y009968D02*
X021280Y009968D01*
X021280Y009971D02*
X020910Y009971D01*
X020910Y009974D02*
X021280Y009974D01*
X021280Y009977D02*
X020910Y009977D01*
X020910Y009980D02*
X021280Y009980D01*
X021280Y009983D02*
X020910Y009983D01*
X020910Y009986D02*
X021280Y009986D01*
X021280Y009989D02*
X020910Y009989D01*
X020910Y009992D02*
X021280Y009992D01*
X021280Y009995D02*
X020910Y009995D01*
X020910Y009998D02*
X021280Y009998D01*
X021280Y010001D02*
X020910Y010001D01*
X020910Y010004D02*
X021280Y010004D01*
X021280Y010007D02*
X020910Y010007D01*
X020910Y010010D02*
X021280Y010010D01*
X021280Y010013D02*
X020910Y010013D01*
X020910Y010016D02*
X021280Y010016D01*
X021280Y010019D02*
X020910Y010019D01*
X020910Y010022D02*
X021280Y010022D01*
X021280Y010025D02*
X020910Y010025D01*
X020910Y010028D02*
X021280Y010028D01*
X021280Y010031D02*
X020910Y010031D01*
X020910Y010034D02*
X021280Y010034D01*
X021280Y010037D02*
X020910Y010037D01*
X020910Y010040D02*
X021280Y010040D01*
X021280Y010043D02*
X020910Y010043D01*
X020910Y010046D02*
X021280Y010046D01*
X021280Y010049D02*
X020910Y010049D01*
X020910Y010052D02*
X021280Y010052D01*
X021280Y010055D02*
X020910Y010055D01*
X020910Y010058D02*
X021280Y010058D01*
X021280Y010061D02*
X020910Y010061D01*
X020910Y010064D02*
X021280Y010064D01*
X021280Y010067D02*
X020910Y010067D01*
X020910Y010070D02*
X021280Y010070D01*
X021280Y010073D02*
X020910Y010073D01*
X020910Y010076D02*
X021280Y010076D01*
X021280Y010079D02*
X020910Y010079D01*
X020910Y010082D02*
X021280Y010082D01*
X021280Y010085D02*
X020910Y010085D01*
X020910Y010088D02*
X021280Y010088D01*
X021280Y010091D02*
X020910Y010091D01*
X020910Y010094D02*
X021280Y010094D01*
X021280Y010097D02*
X020910Y010097D01*
X020910Y010100D02*
X021280Y010100D01*
X021280Y010103D02*
X020910Y010103D01*
X020910Y010106D02*
X021280Y010106D01*
X021280Y010109D02*
X020910Y010109D01*
X020910Y010112D02*
X021280Y010112D01*
X021280Y010115D02*
X020910Y010115D01*
X020910Y010118D02*
X021280Y010118D01*
X021280Y010121D02*
X020910Y010121D01*
X020910Y010124D02*
X021280Y010124D01*
X021280Y010127D02*
X020910Y010127D01*
X020910Y010130D02*
X021280Y010130D01*
X021280Y010133D02*
X020910Y010133D01*
X020910Y010136D02*
X021280Y010136D01*
X021280Y010139D02*
X020910Y010139D01*
X020910Y010142D02*
X021280Y010142D01*
X021280Y010145D02*
X020910Y010145D01*
X020910Y010148D02*
X021280Y010148D01*
X021280Y010151D02*
X020910Y010151D01*
X020910Y010154D02*
X021280Y010154D01*
X021280Y010157D02*
X020910Y010157D01*
X020910Y010160D02*
X021280Y010160D01*
X021280Y010163D02*
X020910Y010163D01*
X020910Y010166D02*
X021280Y010166D01*
X021280Y010169D02*
X020910Y010169D01*
X020910Y010172D02*
X021280Y010172D01*
X021280Y010175D02*
X020910Y010175D01*
X020910Y010178D02*
X021280Y010178D01*
X021280Y010181D02*
X020910Y010181D01*
X020910Y010184D02*
X021280Y010184D01*
X021280Y010187D02*
X020910Y010187D01*
X020910Y010190D02*
X021280Y010190D01*
X021280Y010193D02*
X020910Y010193D01*
X020910Y010196D02*
X021280Y010196D01*
X021280Y010199D02*
X020910Y010199D01*
X020910Y010202D02*
X021280Y010202D01*
X021280Y010205D02*
X020910Y010205D01*
X020910Y010208D02*
X021280Y010208D01*
X021280Y010211D02*
X020910Y010211D01*
X020910Y010214D02*
X021280Y010214D01*
X021280Y010217D02*
X020910Y010217D01*
X020910Y010220D02*
X021280Y010220D01*
X021280Y010223D02*
X020910Y010223D01*
X020910Y010226D02*
X021280Y010226D01*
X021280Y010229D02*
X020910Y010229D01*
X020910Y010232D02*
X021280Y010232D01*
X021280Y010235D02*
X020910Y010235D01*
X020910Y010238D02*
X021280Y010238D01*
X021280Y010241D02*
X020910Y010241D01*
X020910Y010244D02*
X021280Y010244D01*
X021280Y010247D02*
X020910Y010247D01*
X020910Y010250D02*
X021280Y010250D01*
X021280Y010253D02*
X020910Y010253D01*
X020910Y010256D02*
X021280Y010256D01*
X021280Y010259D02*
X020910Y010259D01*
X020910Y010262D02*
X021280Y010262D01*
X021280Y010265D02*
X020910Y010265D01*
X020910Y010268D02*
X021280Y010268D01*
X021280Y010271D02*
X020910Y010271D01*
X020910Y010274D02*
X021280Y010274D01*
X021280Y010277D02*
X020910Y010277D01*
X020910Y010280D02*
X021280Y010280D01*
X021280Y010283D02*
X020910Y010283D01*
X020910Y010286D02*
X021280Y010286D01*
X021280Y010289D02*
X020910Y010289D01*
X020910Y010292D02*
X021280Y010292D01*
X021280Y010295D02*
X020910Y010295D01*
X020910Y010298D02*
X021280Y010298D01*
X021280Y010301D02*
X020910Y010301D01*
X020910Y010304D02*
X021280Y010304D01*
X021280Y010307D02*
X020910Y010307D01*
X020910Y010310D02*
X021280Y010310D01*
X021280Y010313D02*
X020910Y010313D01*
X020910Y010316D02*
X021280Y010316D01*
X021280Y010319D02*
X020910Y010319D01*
X020910Y010322D02*
X021280Y010322D01*
X021280Y010325D02*
X020910Y010325D01*
X020910Y010328D02*
X021280Y010328D01*
X021280Y010331D02*
X020910Y010331D01*
X020910Y010334D02*
X021280Y010334D01*
X021280Y010337D02*
X020910Y010337D01*
X020910Y010340D02*
X021280Y010340D01*
X021280Y010343D02*
X020910Y010343D01*
X020910Y010346D02*
X021280Y010346D01*
X021280Y010349D02*
X020910Y010349D01*
X020910Y010352D02*
X021280Y010352D01*
X021280Y010355D02*
X020910Y010355D01*
X020910Y010358D02*
X021280Y010358D01*
X021280Y010361D02*
X020910Y010361D01*
X020910Y010364D02*
X021280Y010364D01*
X021280Y010367D02*
X020910Y010367D01*
X020910Y010370D02*
X021280Y010370D01*
X021280Y010373D02*
X020910Y010373D01*
X020910Y010376D02*
X021280Y010376D01*
X021280Y010379D02*
X020910Y010379D01*
X020910Y010382D02*
X021280Y010382D01*
X021280Y010385D02*
X020910Y010385D01*
X020910Y010388D02*
X021280Y010388D01*
X021280Y010391D02*
X020910Y010391D01*
X020910Y010394D02*
X021280Y010394D01*
X021280Y010397D02*
X020910Y010397D01*
X020910Y010400D02*
X021280Y010400D01*
X021280Y010403D02*
X020910Y010403D01*
X020910Y010406D02*
X021280Y010406D01*
X021280Y010409D02*
X020910Y010409D01*
X020910Y010412D02*
X021280Y010412D01*
X021280Y010415D02*
X020910Y010415D01*
X020910Y010418D02*
X021280Y010418D01*
X021280Y010421D02*
X020910Y010421D01*
X020910Y010424D02*
X021280Y010424D01*
X021280Y010427D02*
X020910Y010427D01*
X020910Y010430D02*
X021280Y010430D01*
X021280Y010433D02*
X020910Y010433D01*
X020910Y010436D02*
X021280Y010436D01*
X021280Y010439D02*
X020910Y010439D01*
X020910Y010442D02*
X021280Y010442D01*
X021280Y010445D02*
X020910Y010445D01*
X020910Y010448D02*
X021280Y010448D01*
X021280Y010451D02*
X020910Y010451D01*
X020910Y010454D02*
X021280Y010454D01*
X021280Y010457D02*
X020910Y010457D01*
X020910Y010460D02*
X021280Y010460D01*
X021280Y010463D02*
X020910Y010463D01*
X020910Y010466D02*
X021280Y010466D01*
X021280Y010469D02*
X020910Y010469D01*
X020910Y010472D02*
X021280Y010472D01*
X020438Y010473D02*
X020438Y009749D01*
X020438Y010473D02*
X020808Y010473D01*
X020808Y009749D01*
X020438Y009749D01*
X020438Y009752D02*
X020808Y009752D01*
X020808Y009755D02*
X020438Y009755D01*
X020438Y009758D02*
X020808Y009758D01*
X020808Y009761D02*
X020438Y009761D01*
X020438Y009764D02*
X020808Y009764D01*
X020808Y009767D02*
X020438Y009767D01*
X020438Y009770D02*
X020808Y009770D01*
X020808Y009773D02*
X020438Y009773D01*
X020438Y009776D02*
X020808Y009776D01*
X020808Y009779D02*
X020438Y009779D01*
X020438Y009782D02*
X020808Y009782D01*
X020808Y009785D02*
X020438Y009785D01*
X020438Y009788D02*
X020808Y009788D01*
X020808Y009791D02*
X020438Y009791D01*
X020438Y009794D02*
X020808Y009794D01*
X020808Y009797D02*
X020438Y009797D01*
X020438Y009800D02*
X020808Y009800D01*
X020808Y009803D02*
X020438Y009803D01*
X020438Y009806D02*
X020808Y009806D01*
X020808Y009809D02*
X020438Y009809D01*
X020438Y009812D02*
X020808Y009812D01*
X020808Y009815D02*
X020438Y009815D01*
X020438Y009818D02*
X020808Y009818D01*
X020808Y009821D02*
X020438Y009821D01*
X020438Y009824D02*
X020808Y009824D01*
X020808Y009827D02*
X020438Y009827D01*
X020438Y009830D02*
X020808Y009830D01*
X020808Y009833D02*
X020438Y009833D01*
X020438Y009836D02*
X020808Y009836D01*
X020808Y009839D02*
X020438Y009839D01*
X020438Y009842D02*
X020808Y009842D01*
X020808Y009845D02*
X020438Y009845D01*
X020438Y009848D02*
X020808Y009848D01*
X020808Y009851D02*
X020438Y009851D01*
X020438Y009854D02*
X020808Y009854D01*
X020808Y009857D02*
X020438Y009857D01*
X020438Y009860D02*
X020808Y009860D01*
X020808Y009863D02*
X020438Y009863D01*
X020438Y009866D02*
X020808Y009866D01*
X020808Y009869D02*
X020438Y009869D01*
X020438Y009872D02*
X020808Y009872D01*
X020808Y009875D02*
X020438Y009875D01*
X020438Y009878D02*
X020808Y009878D01*
X020808Y009881D02*
X020438Y009881D01*
X020438Y009884D02*
X020808Y009884D01*
X020808Y009887D02*
X020438Y009887D01*
X020438Y009890D02*
X020808Y009890D01*
X020808Y009893D02*
X020438Y009893D01*
X020438Y009896D02*
X020808Y009896D01*
X020808Y009899D02*
X020438Y009899D01*
X020438Y009902D02*
X020808Y009902D01*
X020808Y009905D02*
X020438Y009905D01*
X020438Y009908D02*
X020808Y009908D01*
X020808Y009911D02*
X020438Y009911D01*
X020438Y009914D02*
X020808Y009914D01*
X020808Y009917D02*
X020438Y009917D01*
X020438Y009920D02*
X020808Y009920D01*
X020808Y009923D02*
X020438Y009923D01*
X020438Y009926D02*
X020808Y009926D01*
X020808Y009929D02*
X020438Y009929D01*
X020438Y009932D02*
X020808Y009932D01*
X020808Y009935D02*
X020438Y009935D01*
X020438Y009938D02*
X020808Y009938D01*
X020808Y009941D02*
X020438Y009941D01*
X020438Y009944D02*
X020808Y009944D01*
X020808Y009947D02*
X020438Y009947D01*
X020438Y009950D02*
X020808Y009950D01*
X020808Y009953D02*
X020438Y009953D01*
X020438Y009956D02*
X020808Y009956D01*
X020808Y009959D02*
X020438Y009959D01*
X020438Y009962D02*
X020808Y009962D01*
X020808Y009965D02*
X020438Y009965D01*
X020438Y009968D02*
X020808Y009968D01*
X020808Y009971D02*
X020438Y009971D01*
X020438Y009974D02*
X020808Y009974D01*
X020808Y009977D02*
X020438Y009977D01*
X020438Y009980D02*
X020808Y009980D01*
X020808Y009983D02*
X020438Y009983D01*
X020438Y009986D02*
X020808Y009986D01*
X020808Y009989D02*
X020438Y009989D01*
X020438Y009992D02*
X020808Y009992D01*
X020808Y009995D02*
X020438Y009995D01*
X020438Y009998D02*
X020808Y009998D01*
X020808Y010001D02*
X020438Y010001D01*
X020438Y010004D02*
X020808Y010004D01*
X020808Y010007D02*
X020438Y010007D01*
X020438Y010010D02*
X020808Y010010D01*
X020808Y010013D02*
X020438Y010013D01*
X020438Y010016D02*
X020808Y010016D01*
X020808Y010019D02*
X020438Y010019D01*
X020438Y010022D02*
X020808Y010022D01*
X020808Y010025D02*
X020438Y010025D01*
X020438Y010028D02*
X020808Y010028D01*
X020808Y010031D02*
X020438Y010031D01*
X020438Y010034D02*
X020808Y010034D01*
X020808Y010037D02*
X020438Y010037D01*
X020438Y010040D02*
X020808Y010040D01*
X020808Y010043D02*
X020438Y010043D01*
X020438Y010046D02*
X020808Y010046D01*
X020808Y010049D02*
X020438Y010049D01*
X020438Y010052D02*
X020808Y010052D01*
X020808Y010055D02*
X020438Y010055D01*
X020438Y010058D02*
X020808Y010058D01*
X020808Y010061D02*
X020438Y010061D01*
X020438Y010064D02*
X020808Y010064D01*
X020808Y010067D02*
X020438Y010067D01*
X020438Y010070D02*
X020808Y010070D01*
X020808Y010073D02*
X020438Y010073D01*
X020438Y010076D02*
X020808Y010076D01*
X020808Y010079D02*
X020438Y010079D01*
X020438Y010082D02*
X020808Y010082D01*
X020808Y010085D02*
X020438Y010085D01*
X020438Y010088D02*
X020808Y010088D01*
X020808Y010091D02*
X020438Y010091D01*
X020438Y010094D02*
X020808Y010094D01*
X020808Y010097D02*
X020438Y010097D01*
X020438Y010100D02*
X020808Y010100D01*
X020808Y010103D02*
X020438Y010103D01*
X020438Y010106D02*
X020808Y010106D01*
X020808Y010109D02*
X020438Y010109D01*
X020438Y010112D02*
X020808Y010112D01*
X020808Y010115D02*
X020438Y010115D01*
X020438Y010118D02*
X020808Y010118D01*
X020808Y010121D02*
X020438Y010121D01*
X020438Y010124D02*
X020808Y010124D01*
X020808Y010127D02*
X020438Y010127D01*
X020438Y010130D02*
X020808Y010130D01*
X020808Y010133D02*
X020438Y010133D01*
X020438Y010136D02*
X020808Y010136D01*
X020808Y010139D02*
X020438Y010139D01*
X020438Y010142D02*
X020808Y010142D01*
X020808Y010145D02*
X020438Y010145D01*
X020438Y010148D02*
X020808Y010148D01*
X020808Y010151D02*
X020438Y010151D01*
X020438Y010154D02*
X020808Y010154D01*
X020808Y010157D02*
X020438Y010157D01*
X020438Y010160D02*
X020808Y010160D01*
X020808Y010163D02*
X020438Y010163D01*
X020438Y010166D02*
X020808Y010166D01*
X020808Y010169D02*
X020438Y010169D01*
X020438Y010172D02*
X020808Y010172D01*
X020808Y010175D02*
X020438Y010175D01*
X020438Y010178D02*
X020808Y010178D01*
X020808Y010181D02*
X020438Y010181D01*
X020438Y010184D02*
X020808Y010184D01*
X020808Y010187D02*
X020438Y010187D01*
X020438Y010190D02*
X020808Y010190D01*
X020808Y010193D02*
X020438Y010193D01*
X020438Y010196D02*
X020808Y010196D01*
X020808Y010199D02*
X020438Y010199D01*
X020438Y010202D02*
X020808Y010202D01*
X020808Y010205D02*
X020438Y010205D01*
X020438Y010208D02*
X020808Y010208D01*
X020808Y010211D02*
X020438Y010211D01*
X020438Y010214D02*
X020808Y010214D01*
X020808Y010217D02*
X020438Y010217D01*
X020438Y010220D02*
X020808Y010220D01*
X020808Y010223D02*
X020438Y010223D01*
X020438Y010226D02*
X020808Y010226D01*
X020808Y010229D02*
X020438Y010229D01*
X020438Y010232D02*
X020808Y010232D01*
X020808Y010235D02*
X020438Y010235D01*
X020438Y010238D02*
X020808Y010238D01*
X020808Y010241D02*
X020438Y010241D01*
X020438Y010244D02*
X020808Y010244D01*
X020808Y010247D02*
X020438Y010247D01*
X020438Y010250D02*
X020808Y010250D01*
X020808Y010253D02*
X020438Y010253D01*
X020438Y010256D02*
X020808Y010256D01*
X020808Y010259D02*
X020438Y010259D01*
X020438Y010262D02*
X020808Y010262D01*
X020808Y010265D02*
X020438Y010265D01*
X020438Y010268D02*
X020808Y010268D01*
X020808Y010271D02*
X020438Y010271D01*
X020438Y010274D02*
X020808Y010274D01*
X020808Y010277D02*
X020438Y010277D01*
X020438Y010280D02*
X020808Y010280D01*
X020808Y010283D02*
X020438Y010283D01*
X020438Y010286D02*
X020808Y010286D01*
X020808Y010289D02*
X020438Y010289D01*
X020438Y010292D02*
X020808Y010292D01*
X020808Y010295D02*
X020438Y010295D01*
X020438Y010298D02*
X020808Y010298D01*
X020808Y010301D02*
X020438Y010301D01*
X020438Y010304D02*
X020808Y010304D01*
X020808Y010307D02*
X020438Y010307D01*
X020438Y010310D02*
X020808Y010310D01*
X020808Y010313D02*
X020438Y010313D01*
X020438Y010316D02*
X020808Y010316D01*
X020808Y010319D02*
X020438Y010319D01*
X020438Y010322D02*
X020808Y010322D01*
X020808Y010325D02*
X020438Y010325D01*
X020438Y010328D02*
X020808Y010328D01*
X020808Y010331D02*
X020438Y010331D01*
X020438Y010334D02*
X020808Y010334D01*
X020808Y010337D02*
X020438Y010337D01*
X020438Y010340D02*
X020808Y010340D01*
X020808Y010343D02*
X020438Y010343D01*
X020438Y010346D02*
X020808Y010346D01*
X020808Y010349D02*
X020438Y010349D01*
X020438Y010352D02*
X020808Y010352D01*
X020808Y010355D02*
X020438Y010355D01*
X020438Y010358D02*
X020808Y010358D01*
X020808Y010361D02*
X020438Y010361D01*
X020438Y010364D02*
X020808Y010364D01*
X020808Y010367D02*
X020438Y010367D01*
X020438Y010370D02*
X020808Y010370D01*
X020808Y010373D02*
X020438Y010373D01*
X020438Y010376D02*
X020808Y010376D01*
X020808Y010379D02*
X020438Y010379D01*
X020438Y010382D02*
X020808Y010382D01*
X020808Y010385D02*
X020438Y010385D01*
X020438Y010388D02*
X020808Y010388D01*
X020808Y010391D02*
X020438Y010391D01*
X020438Y010394D02*
X020808Y010394D01*
X020808Y010397D02*
X020438Y010397D01*
X020438Y010400D02*
X020808Y010400D01*
X020808Y010403D02*
X020438Y010403D01*
X020438Y010406D02*
X020808Y010406D01*
X020808Y010409D02*
X020438Y010409D01*
X020438Y010412D02*
X020808Y010412D01*
X020808Y010415D02*
X020438Y010415D01*
X020438Y010418D02*
X020808Y010418D01*
X020808Y010421D02*
X020438Y010421D01*
X020438Y010424D02*
X020808Y010424D01*
X020808Y010427D02*
X020438Y010427D01*
X020438Y010430D02*
X020808Y010430D01*
X020808Y010433D02*
X020438Y010433D01*
X020438Y010436D02*
X020808Y010436D01*
X020808Y010439D02*
X020438Y010439D01*
X020438Y010442D02*
X020808Y010442D01*
X020808Y010445D02*
X020438Y010445D01*
X020438Y010448D02*
X020808Y010448D01*
X020808Y010451D02*
X020438Y010451D01*
X020438Y010454D02*
X020808Y010454D01*
X020808Y010457D02*
X020438Y010457D01*
X020438Y010460D02*
X020808Y010460D01*
X020808Y010463D02*
X020438Y010463D01*
X020438Y010466D02*
X020808Y010466D01*
X020808Y010469D02*
X020438Y010469D01*
X020438Y010472D02*
X020808Y010472D01*
X019966Y010473D02*
X019966Y009749D01*
X019966Y010473D02*
X020336Y010473D01*
X020336Y009749D01*
X019966Y009749D01*
X019966Y009752D02*
X020336Y009752D01*
X020336Y009755D02*
X019966Y009755D01*
X019966Y009758D02*
X020336Y009758D01*
X020336Y009761D02*
X019966Y009761D01*
X019966Y009764D02*
X020336Y009764D01*
X020336Y009767D02*
X019966Y009767D01*
X019966Y009770D02*
X020336Y009770D01*
X020336Y009773D02*
X019966Y009773D01*
X019966Y009776D02*
X020336Y009776D01*
X020336Y009779D02*
X019966Y009779D01*
X019966Y009782D02*
X020336Y009782D01*
X020336Y009785D02*
X019966Y009785D01*
X019966Y009788D02*
X020336Y009788D01*
X020336Y009791D02*
X019966Y009791D01*
X019966Y009794D02*
X020336Y009794D01*
X020336Y009797D02*
X019966Y009797D01*
X019966Y009800D02*
X020336Y009800D01*
X020336Y009803D02*
X019966Y009803D01*
X019966Y009806D02*
X020336Y009806D01*
X020336Y009809D02*
X019966Y009809D01*
X019966Y009812D02*
X020336Y009812D01*
X020336Y009815D02*
X019966Y009815D01*
X019966Y009818D02*
X020336Y009818D01*
X020336Y009821D02*
X019966Y009821D01*
X019966Y009824D02*
X020336Y009824D01*
X020336Y009827D02*
X019966Y009827D01*
X019966Y009830D02*
X020336Y009830D01*
X020336Y009833D02*
X019966Y009833D01*
X019966Y009836D02*
X020336Y009836D01*
X020336Y009839D02*
X019966Y009839D01*
X019966Y009842D02*
X020336Y009842D01*
X020336Y009845D02*
X019966Y009845D01*
X019966Y009848D02*
X020336Y009848D01*
X020336Y009851D02*
X019966Y009851D01*
X019966Y009854D02*
X020336Y009854D01*
X020336Y009857D02*
X019966Y009857D01*
X019966Y009860D02*
X020336Y009860D01*
X020336Y009863D02*
X019966Y009863D01*
X019966Y009866D02*
X020336Y009866D01*
X020336Y009869D02*
X019966Y009869D01*
X019966Y009872D02*
X020336Y009872D01*
X020336Y009875D02*
X019966Y009875D01*
X019966Y009878D02*
X020336Y009878D01*
X020336Y009881D02*
X019966Y009881D01*
X019966Y009884D02*
X020336Y009884D01*
X020336Y009887D02*
X019966Y009887D01*
X019966Y009890D02*
X020336Y009890D01*
X020336Y009893D02*
X019966Y009893D01*
X019966Y009896D02*
X020336Y009896D01*
X020336Y009899D02*
X019966Y009899D01*
X019966Y009902D02*
X020336Y009902D01*
X020336Y009905D02*
X019966Y009905D01*
X019966Y009908D02*
X020336Y009908D01*
X020336Y009911D02*
X019966Y009911D01*
X019966Y009914D02*
X020336Y009914D01*
X020336Y009917D02*
X019966Y009917D01*
X019966Y009920D02*
X020336Y009920D01*
X020336Y009923D02*
X019966Y009923D01*
X019966Y009926D02*
X020336Y009926D01*
X020336Y009929D02*
X019966Y009929D01*
X019966Y009932D02*
X020336Y009932D01*
X020336Y009935D02*
X019966Y009935D01*
X019966Y009938D02*
X020336Y009938D01*
X020336Y009941D02*
X019966Y009941D01*
X019966Y009944D02*
X020336Y009944D01*
X020336Y009947D02*
X019966Y009947D01*
X019966Y009950D02*
X020336Y009950D01*
X020336Y009953D02*
X019966Y009953D01*
X019966Y009956D02*
X020336Y009956D01*
X020336Y009959D02*
X019966Y009959D01*
X019966Y009962D02*
X020336Y009962D01*
X020336Y009965D02*
X019966Y009965D01*
X019966Y009968D02*
X020336Y009968D01*
X020336Y009971D02*
X019966Y009971D01*
X019966Y009974D02*
X020336Y009974D01*
X020336Y009977D02*
X019966Y009977D01*
X019966Y009980D02*
X020336Y009980D01*
X020336Y009983D02*
X019966Y009983D01*
X019966Y009986D02*
X020336Y009986D01*
X020336Y009989D02*
X019966Y009989D01*
X019966Y009992D02*
X020336Y009992D01*
X020336Y009995D02*
X019966Y009995D01*
X019966Y009998D02*
X020336Y009998D01*
X020336Y010001D02*
X019966Y010001D01*
X019966Y010004D02*
X020336Y010004D01*
X020336Y010007D02*
X019966Y010007D01*
X019966Y010010D02*
X020336Y010010D01*
X020336Y010013D02*
X019966Y010013D01*
X019966Y010016D02*
X020336Y010016D01*
X020336Y010019D02*
X019966Y010019D01*
X019966Y010022D02*
X020336Y010022D01*
X020336Y010025D02*
X019966Y010025D01*
X019966Y010028D02*
X020336Y010028D01*
X020336Y010031D02*
X019966Y010031D01*
X019966Y010034D02*
X020336Y010034D01*
X020336Y010037D02*
X019966Y010037D01*
X019966Y010040D02*
X020336Y010040D01*
X020336Y010043D02*
X019966Y010043D01*
X019966Y010046D02*
X020336Y010046D01*
X020336Y010049D02*
X019966Y010049D01*
X019966Y010052D02*
X020336Y010052D01*
X020336Y010055D02*
X019966Y010055D01*
X019966Y010058D02*
X020336Y010058D01*
X020336Y010061D02*
X019966Y010061D01*
X019966Y010064D02*
X020336Y010064D01*
X020336Y010067D02*
X019966Y010067D01*
X019966Y010070D02*
X020336Y010070D01*
X020336Y010073D02*
X019966Y010073D01*
X019966Y010076D02*
X020336Y010076D01*
X020336Y010079D02*
X019966Y010079D01*
X019966Y010082D02*
X020336Y010082D01*
X020336Y010085D02*
X019966Y010085D01*
X019966Y010088D02*
X020336Y010088D01*
X020336Y010091D02*
X019966Y010091D01*
X019966Y010094D02*
X020336Y010094D01*
X020336Y010097D02*
X019966Y010097D01*
X019966Y010100D02*
X020336Y010100D01*
X020336Y010103D02*
X019966Y010103D01*
X019966Y010106D02*
X020336Y010106D01*
X020336Y010109D02*
X019966Y010109D01*
X019966Y010112D02*
X020336Y010112D01*
X020336Y010115D02*
X019966Y010115D01*
X019966Y010118D02*
X020336Y010118D01*
X020336Y010121D02*
X019966Y010121D01*
X019966Y010124D02*
X020336Y010124D01*
X020336Y010127D02*
X019966Y010127D01*
X019966Y010130D02*
X020336Y010130D01*
X020336Y010133D02*
X019966Y010133D01*
X019966Y010136D02*
X020336Y010136D01*
X020336Y010139D02*
X019966Y010139D01*
X019966Y010142D02*
X020336Y010142D01*
X020336Y010145D02*
X019966Y010145D01*
X019966Y010148D02*
X020336Y010148D01*
X020336Y010151D02*
X019966Y010151D01*
X019966Y010154D02*
X020336Y010154D01*
X020336Y010157D02*
X019966Y010157D01*
X019966Y010160D02*
X020336Y010160D01*
X020336Y010163D02*
X019966Y010163D01*
X019966Y010166D02*
X020336Y010166D01*
X020336Y010169D02*
X019966Y010169D01*
X019966Y010172D02*
X020336Y010172D01*
X020336Y010175D02*
X019966Y010175D01*
X019966Y010178D02*
X020336Y010178D01*
X020336Y010181D02*
X019966Y010181D01*
X019966Y010184D02*
X020336Y010184D01*
X020336Y010187D02*
X019966Y010187D01*
X019966Y010190D02*
X020336Y010190D01*
X020336Y010193D02*
X019966Y010193D01*
X019966Y010196D02*
X020336Y010196D01*
X020336Y010199D02*
X019966Y010199D01*
X019966Y010202D02*
X020336Y010202D01*
X020336Y010205D02*
X019966Y010205D01*
X019966Y010208D02*
X020336Y010208D01*
X020336Y010211D02*
X019966Y010211D01*
X019966Y010214D02*
X020336Y010214D01*
X020336Y010217D02*
X019966Y010217D01*
X019966Y010220D02*
X020336Y010220D01*
X020336Y010223D02*
X019966Y010223D01*
X019966Y010226D02*
X020336Y010226D01*
X020336Y010229D02*
X019966Y010229D01*
X019966Y010232D02*
X020336Y010232D01*
X020336Y010235D02*
X019966Y010235D01*
X019966Y010238D02*
X020336Y010238D01*
X020336Y010241D02*
X019966Y010241D01*
X019966Y010244D02*
X020336Y010244D01*
X020336Y010247D02*
X019966Y010247D01*
X019966Y010250D02*
X020336Y010250D01*
X020336Y010253D02*
X019966Y010253D01*
X019966Y010256D02*
X020336Y010256D01*
X020336Y010259D02*
X019966Y010259D01*
X019966Y010262D02*
X020336Y010262D01*
X020336Y010265D02*
X019966Y010265D01*
X019966Y010268D02*
X020336Y010268D01*
X020336Y010271D02*
X019966Y010271D01*
X019966Y010274D02*
X020336Y010274D01*
X020336Y010277D02*
X019966Y010277D01*
X019966Y010280D02*
X020336Y010280D01*
X020336Y010283D02*
X019966Y010283D01*
X019966Y010286D02*
X020336Y010286D01*
X020336Y010289D02*
X019966Y010289D01*
X019966Y010292D02*
X020336Y010292D01*
X020336Y010295D02*
X019966Y010295D01*
X019966Y010298D02*
X020336Y010298D01*
X020336Y010301D02*
X019966Y010301D01*
X019966Y010304D02*
X020336Y010304D01*
X020336Y010307D02*
X019966Y010307D01*
X019966Y010310D02*
X020336Y010310D01*
X020336Y010313D02*
X019966Y010313D01*
X019966Y010316D02*
X020336Y010316D01*
X020336Y010319D02*
X019966Y010319D01*
X019966Y010322D02*
X020336Y010322D01*
X020336Y010325D02*
X019966Y010325D01*
X019966Y010328D02*
X020336Y010328D01*
X020336Y010331D02*
X019966Y010331D01*
X019966Y010334D02*
X020336Y010334D01*
X020336Y010337D02*
X019966Y010337D01*
X019966Y010340D02*
X020336Y010340D01*
X020336Y010343D02*
X019966Y010343D01*
X019966Y010346D02*
X020336Y010346D01*
X020336Y010349D02*
X019966Y010349D01*
X019966Y010352D02*
X020336Y010352D01*
X020336Y010355D02*
X019966Y010355D01*
X019966Y010358D02*
X020336Y010358D01*
X020336Y010361D02*
X019966Y010361D01*
X019966Y010364D02*
X020336Y010364D01*
X020336Y010367D02*
X019966Y010367D01*
X019966Y010370D02*
X020336Y010370D01*
X020336Y010373D02*
X019966Y010373D01*
X019966Y010376D02*
X020336Y010376D01*
X020336Y010379D02*
X019966Y010379D01*
X019966Y010382D02*
X020336Y010382D01*
X020336Y010385D02*
X019966Y010385D01*
X019966Y010388D02*
X020336Y010388D01*
X020336Y010391D02*
X019966Y010391D01*
X019966Y010394D02*
X020336Y010394D01*
X020336Y010397D02*
X019966Y010397D01*
X019966Y010400D02*
X020336Y010400D01*
X020336Y010403D02*
X019966Y010403D01*
X019966Y010406D02*
X020336Y010406D01*
X020336Y010409D02*
X019966Y010409D01*
X019966Y010412D02*
X020336Y010412D01*
X020336Y010415D02*
X019966Y010415D01*
X019966Y010418D02*
X020336Y010418D01*
X020336Y010421D02*
X019966Y010421D01*
X019966Y010424D02*
X020336Y010424D01*
X020336Y010427D02*
X019966Y010427D01*
X019966Y010430D02*
X020336Y010430D01*
X020336Y010433D02*
X019966Y010433D01*
X019966Y010436D02*
X020336Y010436D01*
X020336Y010439D02*
X019966Y010439D01*
X019966Y010442D02*
X020336Y010442D01*
X020336Y010445D02*
X019966Y010445D01*
X019966Y010448D02*
X020336Y010448D01*
X020336Y010451D02*
X019966Y010451D01*
X019966Y010454D02*
X020336Y010454D01*
X020336Y010457D02*
X019966Y010457D01*
X019966Y010460D02*
X020336Y010460D01*
X020336Y010463D02*
X019966Y010463D01*
X019966Y010466D02*
X020336Y010466D01*
X020336Y010469D02*
X019966Y010469D01*
X019966Y010472D02*
X020336Y010472D01*
X019493Y010473D02*
X019493Y009749D01*
X019493Y010473D02*
X019863Y010473D01*
X019863Y009749D01*
X019493Y009749D01*
X019493Y009752D02*
X019863Y009752D01*
X019863Y009755D02*
X019493Y009755D01*
X019493Y009758D02*
X019863Y009758D01*
X019863Y009761D02*
X019493Y009761D01*
X019493Y009764D02*
X019863Y009764D01*
X019863Y009767D02*
X019493Y009767D01*
X019493Y009770D02*
X019863Y009770D01*
X019863Y009773D02*
X019493Y009773D01*
X019493Y009776D02*
X019863Y009776D01*
X019863Y009779D02*
X019493Y009779D01*
X019493Y009782D02*
X019863Y009782D01*
X019863Y009785D02*
X019493Y009785D01*
X019493Y009788D02*
X019863Y009788D01*
X019863Y009791D02*
X019493Y009791D01*
X019493Y009794D02*
X019863Y009794D01*
X019863Y009797D02*
X019493Y009797D01*
X019493Y009800D02*
X019863Y009800D01*
X019863Y009803D02*
X019493Y009803D01*
X019493Y009806D02*
X019863Y009806D01*
X019863Y009809D02*
X019493Y009809D01*
X019493Y009812D02*
X019863Y009812D01*
X019863Y009815D02*
X019493Y009815D01*
X019493Y009818D02*
X019863Y009818D01*
X019863Y009821D02*
X019493Y009821D01*
X019493Y009824D02*
X019863Y009824D01*
X019863Y009827D02*
X019493Y009827D01*
X019493Y009830D02*
X019863Y009830D01*
X019863Y009833D02*
X019493Y009833D01*
X019493Y009836D02*
X019863Y009836D01*
X019863Y009839D02*
X019493Y009839D01*
X019493Y009842D02*
X019863Y009842D01*
X019863Y009845D02*
X019493Y009845D01*
X019493Y009848D02*
X019863Y009848D01*
X019863Y009851D02*
X019493Y009851D01*
X019493Y009854D02*
X019863Y009854D01*
X019863Y009857D02*
X019493Y009857D01*
X019493Y009860D02*
X019863Y009860D01*
X019863Y009863D02*
X019493Y009863D01*
X019493Y009866D02*
X019863Y009866D01*
X019863Y009869D02*
X019493Y009869D01*
X019493Y009872D02*
X019863Y009872D01*
X019863Y009875D02*
X019493Y009875D01*
X019493Y009878D02*
X019863Y009878D01*
X019863Y009881D02*
X019493Y009881D01*
X019493Y009884D02*
X019863Y009884D01*
X019863Y009887D02*
X019493Y009887D01*
X019493Y009890D02*
X019863Y009890D01*
X019863Y009893D02*
X019493Y009893D01*
X019493Y009896D02*
X019863Y009896D01*
X019863Y009899D02*
X019493Y009899D01*
X019493Y009902D02*
X019863Y009902D01*
X019863Y009905D02*
X019493Y009905D01*
X019493Y009908D02*
X019863Y009908D01*
X019863Y009911D02*
X019493Y009911D01*
X019493Y009914D02*
X019863Y009914D01*
X019863Y009917D02*
X019493Y009917D01*
X019493Y009920D02*
X019863Y009920D01*
X019863Y009923D02*
X019493Y009923D01*
X019493Y009926D02*
X019863Y009926D01*
X019863Y009929D02*
X019493Y009929D01*
X019493Y009932D02*
X019863Y009932D01*
X019863Y009935D02*
X019493Y009935D01*
X019493Y009938D02*
X019863Y009938D01*
X019863Y009941D02*
X019493Y009941D01*
X019493Y009944D02*
X019863Y009944D01*
X019863Y009947D02*
X019493Y009947D01*
X019493Y009950D02*
X019863Y009950D01*
X019863Y009953D02*
X019493Y009953D01*
X019493Y009956D02*
X019863Y009956D01*
X019863Y009959D02*
X019493Y009959D01*
X019493Y009962D02*
X019863Y009962D01*
X019863Y009965D02*
X019493Y009965D01*
X019493Y009968D02*
X019863Y009968D01*
X019863Y009971D02*
X019493Y009971D01*
X019493Y009974D02*
X019863Y009974D01*
X019863Y009977D02*
X019493Y009977D01*
X019493Y009980D02*
X019863Y009980D01*
X019863Y009983D02*
X019493Y009983D01*
X019493Y009986D02*
X019863Y009986D01*
X019863Y009989D02*
X019493Y009989D01*
X019493Y009992D02*
X019863Y009992D01*
X019863Y009995D02*
X019493Y009995D01*
X019493Y009998D02*
X019863Y009998D01*
X019863Y010001D02*
X019493Y010001D01*
X019493Y010004D02*
X019863Y010004D01*
X019863Y010007D02*
X019493Y010007D01*
X019493Y010010D02*
X019863Y010010D01*
X019863Y010013D02*
X019493Y010013D01*
X019493Y010016D02*
X019863Y010016D01*
X019863Y010019D02*
X019493Y010019D01*
X019493Y010022D02*
X019863Y010022D01*
X019863Y010025D02*
X019493Y010025D01*
X019493Y010028D02*
X019863Y010028D01*
X019863Y010031D02*
X019493Y010031D01*
X019493Y010034D02*
X019863Y010034D01*
X019863Y010037D02*
X019493Y010037D01*
X019493Y010040D02*
X019863Y010040D01*
X019863Y010043D02*
X019493Y010043D01*
X019493Y010046D02*
X019863Y010046D01*
X019863Y010049D02*
X019493Y010049D01*
X019493Y010052D02*
X019863Y010052D01*
X019863Y010055D02*
X019493Y010055D01*
X019493Y010058D02*
X019863Y010058D01*
X019863Y010061D02*
X019493Y010061D01*
X019493Y010064D02*
X019863Y010064D01*
X019863Y010067D02*
X019493Y010067D01*
X019493Y010070D02*
X019863Y010070D01*
X019863Y010073D02*
X019493Y010073D01*
X019493Y010076D02*
X019863Y010076D01*
X019863Y010079D02*
X019493Y010079D01*
X019493Y010082D02*
X019863Y010082D01*
X019863Y010085D02*
X019493Y010085D01*
X019493Y010088D02*
X019863Y010088D01*
X019863Y010091D02*
X019493Y010091D01*
X019493Y010094D02*
X019863Y010094D01*
X019863Y010097D02*
X019493Y010097D01*
X019493Y010100D02*
X019863Y010100D01*
X019863Y010103D02*
X019493Y010103D01*
X019493Y010106D02*
X019863Y010106D01*
X019863Y010109D02*
X019493Y010109D01*
X019493Y010112D02*
X019863Y010112D01*
X019863Y010115D02*
X019493Y010115D01*
X019493Y010118D02*
X019863Y010118D01*
X019863Y010121D02*
X019493Y010121D01*
X019493Y010124D02*
X019863Y010124D01*
X019863Y010127D02*
X019493Y010127D01*
X019493Y010130D02*
X019863Y010130D01*
X019863Y010133D02*
X019493Y010133D01*
X019493Y010136D02*
X019863Y010136D01*
X019863Y010139D02*
X019493Y010139D01*
X019493Y010142D02*
X019863Y010142D01*
X019863Y010145D02*
X019493Y010145D01*
X019493Y010148D02*
X019863Y010148D01*
X019863Y010151D02*
X019493Y010151D01*
X019493Y010154D02*
X019863Y010154D01*
X019863Y010157D02*
X019493Y010157D01*
X019493Y010160D02*
X019863Y010160D01*
X019863Y010163D02*
X019493Y010163D01*
X019493Y010166D02*
X019863Y010166D01*
X019863Y010169D02*
X019493Y010169D01*
X019493Y010172D02*
X019863Y010172D01*
X019863Y010175D02*
X019493Y010175D01*
X019493Y010178D02*
X019863Y010178D01*
X019863Y010181D02*
X019493Y010181D01*
X019493Y010184D02*
X019863Y010184D01*
X019863Y010187D02*
X019493Y010187D01*
X019493Y010190D02*
X019863Y010190D01*
X019863Y010193D02*
X019493Y010193D01*
X019493Y010196D02*
X019863Y010196D01*
X019863Y010199D02*
X019493Y010199D01*
X019493Y010202D02*
X019863Y010202D01*
X019863Y010205D02*
X019493Y010205D01*
X019493Y010208D02*
X019863Y010208D01*
X019863Y010211D02*
X019493Y010211D01*
X019493Y010214D02*
X019863Y010214D01*
X019863Y010217D02*
X019493Y010217D01*
X019493Y010220D02*
X019863Y010220D01*
X019863Y010223D02*
X019493Y010223D01*
X019493Y010226D02*
X019863Y010226D01*
X019863Y010229D02*
X019493Y010229D01*
X019493Y010232D02*
X019863Y010232D01*
X019863Y010235D02*
X019493Y010235D01*
X019493Y010238D02*
X019863Y010238D01*
X019863Y010241D02*
X019493Y010241D01*
X019493Y010244D02*
X019863Y010244D01*
X019863Y010247D02*
X019493Y010247D01*
X019493Y010250D02*
X019863Y010250D01*
X019863Y010253D02*
X019493Y010253D01*
X019493Y010256D02*
X019863Y010256D01*
X019863Y010259D02*
X019493Y010259D01*
X019493Y010262D02*
X019863Y010262D01*
X019863Y010265D02*
X019493Y010265D01*
X019493Y010268D02*
X019863Y010268D01*
X019863Y010271D02*
X019493Y010271D01*
X019493Y010274D02*
X019863Y010274D01*
X019863Y010277D02*
X019493Y010277D01*
X019493Y010280D02*
X019863Y010280D01*
X019863Y010283D02*
X019493Y010283D01*
X019493Y010286D02*
X019863Y010286D01*
X019863Y010289D02*
X019493Y010289D01*
X019493Y010292D02*
X019863Y010292D01*
X019863Y010295D02*
X019493Y010295D01*
X019493Y010298D02*
X019863Y010298D01*
X019863Y010301D02*
X019493Y010301D01*
X019493Y010304D02*
X019863Y010304D01*
X019863Y010307D02*
X019493Y010307D01*
X019493Y010310D02*
X019863Y010310D01*
X019863Y010313D02*
X019493Y010313D01*
X019493Y010316D02*
X019863Y010316D01*
X019863Y010319D02*
X019493Y010319D01*
X019493Y010322D02*
X019863Y010322D01*
X019863Y010325D02*
X019493Y010325D01*
X019493Y010328D02*
X019863Y010328D01*
X019863Y010331D02*
X019493Y010331D01*
X019493Y010334D02*
X019863Y010334D01*
X019863Y010337D02*
X019493Y010337D01*
X019493Y010340D02*
X019863Y010340D01*
X019863Y010343D02*
X019493Y010343D01*
X019493Y010346D02*
X019863Y010346D01*
X019863Y010349D02*
X019493Y010349D01*
X019493Y010352D02*
X019863Y010352D01*
X019863Y010355D02*
X019493Y010355D01*
X019493Y010358D02*
X019863Y010358D01*
X019863Y010361D02*
X019493Y010361D01*
X019493Y010364D02*
X019863Y010364D01*
X019863Y010367D02*
X019493Y010367D01*
X019493Y010370D02*
X019863Y010370D01*
X019863Y010373D02*
X019493Y010373D01*
X019493Y010376D02*
X019863Y010376D01*
X019863Y010379D02*
X019493Y010379D01*
X019493Y010382D02*
X019863Y010382D01*
X019863Y010385D02*
X019493Y010385D01*
X019493Y010388D02*
X019863Y010388D01*
X019863Y010391D02*
X019493Y010391D01*
X019493Y010394D02*
X019863Y010394D01*
X019863Y010397D02*
X019493Y010397D01*
X019493Y010400D02*
X019863Y010400D01*
X019863Y010403D02*
X019493Y010403D01*
X019493Y010406D02*
X019863Y010406D01*
X019863Y010409D02*
X019493Y010409D01*
X019493Y010412D02*
X019863Y010412D01*
X019863Y010415D02*
X019493Y010415D01*
X019493Y010418D02*
X019863Y010418D01*
X019863Y010421D02*
X019493Y010421D01*
X019493Y010424D02*
X019863Y010424D01*
X019863Y010427D02*
X019493Y010427D01*
X019493Y010430D02*
X019863Y010430D01*
X019863Y010433D02*
X019493Y010433D01*
X019493Y010436D02*
X019863Y010436D01*
X019863Y010439D02*
X019493Y010439D01*
X019493Y010442D02*
X019863Y010442D01*
X019863Y010445D02*
X019493Y010445D01*
X019493Y010448D02*
X019863Y010448D01*
X019863Y010451D02*
X019493Y010451D01*
X019493Y010454D02*
X019863Y010454D01*
X019863Y010457D02*
X019493Y010457D01*
X019493Y010460D02*
X019863Y010460D01*
X019863Y010463D02*
X019493Y010463D01*
X019493Y010466D02*
X019863Y010466D01*
X019863Y010469D02*
X019493Y010469D01*
X019493Y010472D02*
X019863Y010472D01*
X019021Y010473D02*
X019021Y009749D01*
X019021Y010473D02*
X019391Y010473D01*
X019391Y009749D01*
X019021Y009749D01*
X019021Y009752D02*
X019391Y009752D01*
X019391Y009755D02*
X019021Y009755D01*
X019021Y009758D02*
X019391Y009758D01*
X019391Y009761D02*
X019021Y009761D01*
X019021Y009764D02*
X019391Y009764D01*
X019391Y009767D02*
X019021Y009767D01*
X019021Y009770D02*
X019391Y009770D01*
X019391Y009773D02*
X019021Y009773D01*
X019021Y009776D02*
X019391Y009776D01*
X019391Y009779D02*
X019021Y009779D01*
X019021Y009782D02*
X019391Y009782D01*
X019391Y009785D02*
X019021Y009785D01*
X019021Y009788D02*
X019391Y009788D01*
X019391Y009791D02*
X019021Y009791D01*
X019021Y009794D02*
X019391Y009794D01*
X019391Y009797D02*
X019021Y009797D01*
X019021Y009800D02*
X019391Y009800D01*
X019391Y009803D02*
X019021Y009803D01*
X019021Y009806D02*
X019391Y009806D01*
X019391Y009809D02*
X019021Y009809D01*
X019021Y009812D02*
X019391Y009812D01*
X019391Y009815D02*
X019021Y009815D01*
X019021Y009818D02*
X019391Y009818D01*
X019391Y009821D02*
X019021Y009821D01*
X019021Y009824D02*
X019391Y009824D01*
X019391Y009827D02*
X019021Y009827D01*
X019021Y009830D02*
X019391Y009830D01*
X019391Y009833D02*
X019021Y009833D01*
X019021Y009836D02*
X019391Y009836D01*
X019391Y009839D02*
X019021Y009839D01*
X019021Y009842D02*
X019391Y009842D01*
X019391Y009845D02*
X019021Y009845D01*
X019021Y009848D02*
X019391Y009848D01*
X019391Y009851D02*
X019021Y009851D01*
X019021Y009854D02*
X019391Y009854D01*
X019391Y009857D02*
X019021Y009857D01*
X019021Y009860D02*
X019391Y009860D01*
X019391Y009863D02*
X019021Y009863D01*
X019021Y009866D02*
X019391Y009866D01*
X019391Y009869D02*
X019021Y009869D01*
X019021Y009872D02*
X019391Y009872D01*
X019391Y009875D02*
X019021Y009875D01*
X019021Y009878D02*
X019391Y009878D01*
X019391Y009881D02*
X019021Y009881D01*
X019021Y009884D02*
X019391Y009884D01*
X019391Y009887D02*
X019021Y009887D01*
X019021Y009890D02*
X019391Y009890D01*
X019391Y009893D02*
X019021Y009893D01*
X019021Y009896D02*
X019391Y009896D01*
X019391Y009899D02*
X019021Y009899D01*
X019021Y009902D02*
X019391Y009902D01*
X019391Y009905D02*
X019021Y009905D01*
X019021Y009908D02*
X019391Y009908D01*
X019391Y009911D02*
X019021Y009911D01*
X019021Y009914D02*
X019391Y009914D01*
X019391Y009917D02*
X019021Y009917D01*
X019021Y009920D02*
X019391Y009920D01*
X019391Y009923D02*
X019021Y009923D01*
X019021Y009926D02*
X019391Y009926D01*
X019391Y009929D02*
X019021Y009929D01*
X019021Y009932D02*
X019391Y009932D01*
X019391Y009935D02*
X019021Y009935D01*
X019021Y009938D02*
X019391Y009938D01*
X019391Y009941D02*
X019021Y009941D01*
X019021Y009944D02*
X019391Y009944D01*
X019391Y009947D02*
X019021Y009947D01*
X019021Y009950D02*
X019391Y009950D01*
X019391Y009953D02*
X019021Y009953D01*
X019021Y009956D02*
X019391Y009956D01*
X019391Y009959D02*
X019021Y009959D01*
X019021Y009962D02*
X019391Y009962D01*
X019391Y009965D02*
X019021Y009965D01*
X019021Y009968D02*
X019391Y009968D01*
X019391Y009971D02*
X019021Y009971D01*
X019021Y009974D02*
X019391Y009974D01*
X019391Y009977D02*
X019021Y009977D01*
X019021Y009980D02*
X019391Y009980D01*
X019391Y009983D02*
X019021Y009983D01*
X019021Y009986D02*
X019391Y009986D01*
X019391Y009989D02*
X019021Y009989D01*
X019021Y009992D02*
X019391Y009992D01*
X019391Y009995D02*
X019021Y009995D01*
X019021Y009998D02*
X019391Y009998D01*
X019391Y010001D02*
X019021Y010001D01*
X019021Y010004D02*
X019391Y010004D01*
X019391Y010007D02*
X019021Y010007D01*
X019021Y010010D02*
X019391Y010010D01*
X019391Y010013D02*
X019021Y010013D01*
X019021Y010016D02*
X019391Y010016D01*
X019391Y010019D02*
X019021Y010019D01*
X019021Y010022D02*
X019391Y010022D01*
X019391Y010025D02*
X019021Y010025D01*
X019021Y010028D02*
X019391Y010028D01*
X019391Y010031D02*
X019021Y010031D01*
X019021Y010034D02*
X019391Y010034D01*
X019391Y010037D02*
X019021Y010037D01*
X019021Y010040D02*
X019391Y010040D01*
X019391Y010043D02*
X019021Y010043D01*
X019021Y010046D02*
X019391Y010046D01*
X019391Y010049D02*
X019021Y010049D01*
X019021Y010052D02*
X019391Y010052D01*
X019391Y010055D02*
X019021Y010055D01*
X019021Y010058D02*
X019391Y010058D01*
X019391Y010061D02*
X019021Y010061D01*
X019021Y010064D02*
X019391Y010064D01*
X019391Y010067D02*
X019021Y010067D01*
X019021Y010070D02*
X019391Y010070D01*
X019391Y010073D02*
X019021Y010073D01*
X019021Y010076D02*
X019391Y010076D01*
X019391Y010079D02*
X019021Y010079D01*
X019021Y010082D02*
X019391Y010082D01*
X019391Y010085D02*
X019021Y010085D01*
X019021Y010088D02*
X019391Y010088D01*
X019391Y010091D02*
X019021Y010091D01*
X019021Y010094D02*
X019391Y010094D01*
X019391Y010097D02*
X019021Y010097D01*
X019021Y010100D02*
X019391Y010100D01*
X019391Y010103D02*
X019021Y010103D01*
X019021Y010106D02*
X019391Y010106D01*
X019391Y010109D02*
X019021Y010109D01*
X019021Y010112D02*
X019391Y010112D01*
X019391Y010115D02*
X019021Y010115D01*
X019021Y010118D02*
X019391Y010118D01*
X019391Y010121D02*
X019021Y010121D01*
X019021Y010124D02*
X019391Y010124D01*
X019391Y010127D02*
X019021Y010127D01*
X019021Y010130D02*
X019391Y010130D01*
X019391Y010133D02*
X019021Y010133D01*
X019021Y010136D02*
X019391Y010136D01*
X019391Y010139D02*
X019021Y010139D01*
X019021Y010142D02*
X019391Y010142D01*
X019391Y010145D02*
X019021Y010145D01*
X019021Y010148D02*
X019391Y010148D01*
X019391Y010151D02*
X019021Y010151D01*
X019021Y010154D02*
X019391Y010154D01*
X019391Y010157D02*
X019021Y010157D01*
X019021Y010160D02*
X019391Y010160D01*
X019391Y010163D02*
X019021Y010163D01*
X019021Y010166D02*
X019391Y010166D01*
X019391Y010169D02*
X019021Y010169D01*
X019021Y010172D02*
X019391Y010172D01*
X019391Y010175D02*
X019021Y010175D01*
X019021Y010178D02*
X019391Y010178D01*
X019391Y010181D02*
X019021Y010181D01*
X019021Y010184D02*
X019391Y010184D01*
X019391Y010187D02*
X019021Y010187D01*
X019021Y010190D02*
X019391Y010190D01*
X019391Y010193D02*
X019021Y010193D01*
X019021Y010196D02*
X019391Y010196D01*
X019391Y010199D02*
X019021Y010199D01*
X019021Y010202D02*
X019391Y010202D01*
X019391Y010205D02*
X019021Y010205D01*
X019021Y010208D02*
X019391Y010208D01*
X019391Y010211D02*
X019021Y010211D01*
X019021Y010214D02*
X019391Y010214D01*
X019391Y010217D02*
X019021Y010217D01*
X019021Y010220D02*
X019391Y010220D01*
X019391Y010223D02*
X019021Y010223D01*
X019021Y010226D02*
X019391Y010226D01*
X019391Y010229D02*
X019021Y010229D01*
X019021Y010232D02*
X019391Y010232D01*
X019391Y010235D02*
X019021Y010235D01*
X019021Y010238D02*
X019391Y010238D01*
X019391Y010241D02*
X019021Y010241D01*
X019021Y010244D02*
X019391Y010244D01*
X019391Y010247D02*
X019021Y010247D01*
X019021Y010250D02*
X019391Y010250D01*
X019391Y010253D02*
X019021Y010253D01*
X019021Y010256D02*
X019391Y010256D01*
X019391Y010259D02*
X019021Y010259D01*
X019021Y010262D02*
X019391Y010262D01*
X019391Y010265D02*
X019021Y010265D01*
X019021Y010268D02*
X019391Y010268D01*
X019391Y010271D02*
X019021Y010271D01*
X019021Y010274D02*
X019391Y010274D01*
X019391Y010277D02*
X019021Y010277D01*
X019021Y010280D02*
X019391Y010280D01*
X019391Y010283D02*
X019021Y010283D01*
X019021Y010286D02*
X019391Y010286D01*
X019391Y010289D02*
X019021Y010289D01*
X019021Y010292D02*
X019391Y010292D01*
X019391Y010295D02*
X019021Y010295D01*
X019021Y010298D02*
X019391Y010298D01*
X019391Y010301D02*
X019021Y010301D01*
X019021Y010304D02*
X019391Y010304D01*
X019391Y010307D02*
X019021Y010307D01*
X019021Y010310D02*
X019391Y010310D01*
X019391Y010313D02*
X019021Y010313D01*
X019021Y010316D02*
X019391Y010316D01*
X019391Y010319D02*
X019021Y010319D01*
X019021Y010322D02*
X019391Y010322D01*
X019391Y010325D02*
X019021Y010325D01*
X019021Y010328D02*
X019391Y010328D01*
X019391Y010331D02*
X019021Y010331D01*
X019021Y010334D02*
X019391Y010334D01*
X019391Y010337D02*
X019021Y010337D01*
X019021Y010340D02*
X019391Y010340D01*
X019391Y010343D02*
X019021Y010343D01*
X019021Y010346D02*
X019391Y010346D01*
X019391Y010349D02*
X019021Y010349D01*
X019021Y010352D02*
X019391Y010352D01*
X019391Y010355D02*
X019021Y010355D01*
X019021Y010358D02*
X019391Y010358D01*
X019391Y010361D02*
X019021Y010361D01*
X019021Y010364D02*
X019391Y010364D01*
X019391Y010367D02*
X019021Y010367D01*
X019021Y010370D02*
X019391Y010370D01*
X019391Y010373D02*
X019021Y010373D01*
X019021Y010376D02*
X019391Y010376D01*
X019391Y010379D02*
X019021Y010379D01*
X019021Y010382D02*
X019391Y010382D01*
X019391Y010385D02*
X019021Y010385D01*
X019021Y010388D02*
X019391Y010388D01*
X019391Y010391D02*
X019021Y010391D01*
X019021Y010394D02*
X019391Y010394D01*
X019391Y010397D02*
X019021Y010397D01*
X019021Y010400D02*
X019391Y010400D01*
X019391Y010403D02*
X019021Y010403D01*
X019021Y010406D02*
X019391Y010406D01*
X019391Y010409D02*
X019021Y010409D01*
X019021Y010412D02*
X019391Y010412D01*
X019391Y010415D02*
X019021Y010415D01*
X019021Y010418D02*
X019391Y010418D01*
X019391Y010421D02*
X019021Y010421D01*
X019021Y010424D02*
X019391Y010424D01*
X019391Y010427D02*
X019021Y010427D01*
X019021Y010430D02*
X019391Y010430D01*
X019391Y010433D02*
X019021Y010433D01*
X019021Y010436D02*
X019391Y010436D01*
X019391Y010439D02*
X019021Y010439D01*
X019021Y010442D02*
X019391Y010442D01*
X019391Y010445D02*
X019021Y010445D01*
X019021Y010448D02*
X019391Y010448D01*
X019391Y010451D02*
X019021Y010451D01*
X019021Y010454D02*
X019391Y010454D01*
X019391Y010457D02*
X019021Y010457D01*
X019021Y010460D02*
X019391Y010460D01*
X019391Y010463D02*
X019021Y010463D01*
X019021Y010466D02*
X019391Y010466D01*
X019391Y010469D02*
X019021Y010469D01*
X019021Y010472D02*
X019391Y010472D01*
X018548Y010473D02*
X018548Y009749D01*
X018548Y010473D02*
X018918Y010473D01*
X018918Y009749D01*
X018548Y009749D01*
X018548Y009752D02*
X018918Y009752D01*
X018918Y009755D02*
X018548Y009755D01*
X018548Y009758D02*
X018918Y009758D01*
X018918Y009761D02*
X018548Y009761D01*
X018548Y009764D02*
X018918Y009764D01*
X018918Y009767D02*
X018548Y009767D01*
X018548Y009770D02*
X018918Y009770D01*
X018918Y009773D02*
X018548Y009773D01*
X018548Y009776D02*
X018918Y009776D01*
X018918Y009779D02*
X018548Y009779D01*
X018548Y009782D02*
X018918Y009782D01*
X018918Y009785D02*
X018548Y009785D01*
X018548Y009788D02*
X018918Y009788D01*
X018918Y009791D02*
X018548Y009791D01*
X018548Y009794D02*
X018918Y009794D01*
X018918Y009797D02*
X018548Y009797D01*
X018548Y009800D02*
X018918Y009800D01*
X018918Y009803D02*
X018548Y009803D01*
X018548Y009806D02*
X018918Y009806D01*
X018918Y009809D02*
X018548Y009809D01*
X018548Y009812D02*
X018918Y009812D01*
X018918Y009815D02*
X018548Y009815D01*
X018548Y009818D02*
X018918Y009818D01*
X018918Y009821D02*
X018548Y009821D01*
X018548Y009824D02*
X018918Y009824D01*
X018918Y009827D02*
X018548Y009827D01*
X018548Y009830D02*
X018918Y009830D01*
X018918Y009833D02*
X018548Y009833D01*
X018548Y009836D02*
X018918Y009836D01*
X018918Y009839D02*
X018548Y009839D01*
X018548Y009842D02*
X018918Y009842D01*
X018918Y009845D02*
X018548Y009845D01*
X018548Y009848D02*
X018918Y009848D01*
X018918Y009851D02*
X018548Y009851D01*
X018548Y009854D02*
X018918Y009854D01*
X018918Y009857D02*
X018548Y009857D01*
X018548Y009860D02*
X018918Y009860D01*
X018918Y009863D02*
X018548Y009863D01*
X018548Y009866D02*
X018918Y009866D01*
X018918Y009869D02*
X018548Y009869D01*
X018548Y009872D02*
X018918Y009872D01*
X018918Y009875D02*
X018548Y009875D01*
X018548Y009878D02*
X018918Y009878D01*
X018918Y009881D02*
X018548Y009881D01*
X018548Y009884D02*
X018918Y009884D01*
X018918Y009887D02*
X018548Y009887D01*
X018548Y009890D02*
X018918Y009890D01*
X018918Y009893D02*
X018548Y009893D01*
X018548Y009896D02*
X018918Y009896D01*
X018918Y009899D02*
X018548Y009899D01*
X018548Y009902D02*
X018918Y009902D01*
X018918Y009905D02*
X018548Y009905D01*
X018548Y009908D02*
X018918Y009908D01*
X018918Y009911D02*
X018548Y009911D01*
X018548Y009914D02*
X018918Y009914D01*
X018918Y009917D02*
X018548Y009917D01*
X018548Y009920D02*
X018918Y009920D01*
X018918Y009923D02*
X018548Y009923D01*
X018548Y009926D02*
X018918Y009926D01*
X018918Y009929D02*
X018548Y009929D01*
X018548Y009932D02*
X018918Y009932D01*
X018918Y009935D02*
X018548Y009935D01*
X018548Y009938D02*
X018918Y009938D01*
X018918Y009941D02*
X018548Y009941D01*
X018548Y009944D02*
X018918Y009944D01*
X018918Y009947D02*
X018548Y009947D01*
X018548Y009950D02*
X018918Y009950D01*
X018918Y009953D02*
X018548Y009953D01*
X018548Y009956D02*
X018918Y009956D01*
X018918Y009959D02*
X018548Y009959D01*
X018548Y009962D02*
X018918Y009962D01*
X018918Y009965D02*
X018548Y009965D01*
X018548Y009968D02*
X018918Y009968D01*
X018918Y009971D02*
X018548Y009971D01*
X018548Y009974D02*
X018918Y009974D01*
X018918Y009977D02*
X018548Y009977D01*
X018548Y009980D02*
X018918Y009980D01*
X018918Y009983D02*
X018548Y009983D01*
X018548Y009986D02*
X018918Y009986D01*
X018918Y009989D02*
X018548Y009989D01*
X018548Y009992D02*
X018918Y009992D01*
X018918Y009995D02*
X018548Y009995D01*
X018548Y009998D02*
X018918Y009998D01*
X018918Y010001D02*
X018548Y010001D01*
X018548Y010004D02*
X018918Y010004D01*
X018918Y010007D02*
X018548Y010007D01*
X018548Y010010D02*
X018918Y010010D01*
X018918Y010013D02*
X018548Y010013D01*
X018548Y010016D02*
X018918Y010016D01*
X018918Y010019D02*
X018548Y010019D01*
X018548Y010022D02*
X018918Y010022D01*
X018918Y010025D02*
X018548Y010025D01*
X018548Y010028D02*
X018918Y010028D01*
X018918Y010031D02*
X018548Y010031D01*
X018548Y010034D02*
X018918Y010034D01*
X018918Y010037D02*
X018548Y010037D01*
X018548Y010040D02*
X018918Y010040D01*
X018918Y010043D02*
X018548Y010043D01*
X018548Y010046D02*
X018918Y010046D01*
X018918Y010049D02*
X018548Y010049D01*
X018548Y010052D02*
X018918Y010052D01*
X018918Y010055D02*
X018548Y010055D01*
X018548Y010058D02*
X018918Y010058D01*
X018918Y010061D02*
X018548Y010061D01*
X018548Y010064D02*
X018918Y010064D01*
X018918Y010067D02*
X018548Y010067D01*
X018548Y010070D02*
X018918Y010070D01*
X018918Y010073D02*
X018548Y010073D01*
X018548Y010076D02*
X018918Y010076D01*
X018918Y010079D02*
X018548Y010079D01*
X018548Y010082D02*
X018918Y010082D01*
X018918Y010085D02*
X018548Y010085D01*
X018548Y010088D02*
X018918Y010088D01*
X018918Y010091D02*
X018548Y010091D01*
X018548Y010094D02*
X018918Y010094D01*
X018918Y010097D02*
X018548Y010097D01*
X018548Y010100D02*
X018918Y010100D01*
X018918Y010103D02*
X018548Y010103D01*
X018548Y010106D02*
X018918Y010106D01*
X018918Y010109D02*
X018548Y010109D01*
X018548Y010112D02*
X018918Y010112D01*
X018918Y010115D02*
X018548Y010115D01*
X018548Y010118D02*
X018918Y010118D01*
X018918Y010121D02*
X018548Y010121D01*
X018548Y010124D02*
X018918Y010124D01*
X018918Y010127D02*
X018548Y010127D01*
X018548Y010130D02*
X018918Y010130D01*
X018918Y010133D02*
X018548Y010133D01*
X018548Y010136D02*
X018918Y010136D01*
X018918Y010139D02*
X018548Y010139D01*
X018548Y010142D02*
X018918Y010142D01*
X018918Y010145D02*
X018548Y010145D01*
X018548Y010148D02*
X018918Y010148D01*
X018918Y010151D02*
X018548Y010151D01*
X018548Y010154D02*
X018918Y010154D01*
X018918Y010157D02*
X018548Y010157D01*
X018548Y010160D02*
X018918Y010160D01*
X018918Y010163D02*
X018548Y010163D01*
X018548Y010166D02*
X018918Y010166D01*
X018918Y010169D02*
X018548Y010169D01*
X018548Y010172D02*
X018918Y010172D01*
X018918Y010175D02*
X018548Y010175D01*
X018548Y010178D02*
X018918Y010178D01*
X018918Y010181D02*
X018548Y010181D01*
X018548Y010184D02*
X018918Y010184D01*
X018918Y010187D02*
X018548Y010187D01*
X018548Y010190D02*
X018918Y010190D01*
X018918Y010193D02*
X018548Y010193D01*
X018548Y010196D02*
X018918Y010196D01*
X018918Y010199D02*
X018548Y010199D01*
X018548Y010202D02*
X018918Y010202D01*
X018918Y010205D02*
X018548Y010205D01*
X018548Y010208D02*
X018918Y010208D01*
X018918Y010211D02*
X018548Y010211D01*
X018548Y010214D02*
X018918Y010214D01*
X018918Y010217D02*
X018548Y010217D01*
X018548Y010220D02*
X018918Y010220D01*
X018918Y010223D02*
X018548Y010223D01*
X018548Y010226D02*
X018918Y010226D01*
X018918Y010229D02*
X018548Y010229D01*
X018548Y010232D02*
X018918Y010232D01*
X018918Y010235D02*
X018548Y010235D01*
X018548Y010238D02*
X018918Y010238D01*
X018918Y010241D02*
X018548Y010241D01*
X018548Y010244D02*
X018918Y010244D01*
X018918Y010247D02*
X018548Y010247D01*
X018548Y010250D02*
X018918Y010250D01*
X018918Y010253D02*
X018548Y010253D01*
X018548Y010256D02*
X018918Y010256D01*
X018918Y010259D02*
X018548Y010259D01*
X018548Y010262D02*
X018918Y010262D01*
X018918Y010265D02*
X018548Y010265D01*
X018548Y010268D02*
X018918Y010268D01*
X018918Y010271D02*
X018548Y010271D01*
X018548Y010274D02*
X018918Y010274D01*
X018918Y010277D02*
X018548Y010277D01*
X018548Y010280D02*
X018918Y010280D01*
X018918Y010283D02*
X018548Y010283D01*
X018548Y010286D02*
X018918Y010286D01*
X018918Y010289D02*
X018548Y010289D01*
X018548Y010292D02*
X018918Y010292D01*
X018918Y010295D02*
X018548Y010295D01*
X018548Y010298D02*
X018918Y010298D01*
X018918Y010301D02*
X018548Y010301D01*
X018548Y010304D02*
X018918Y010304D01*
X018918Y010307D02*
X018548Y010307D01*
X018548Y010310D02*
X018918Y010310D01*
X018918Y010313D02*
X018548Y010313D01*
X018548Y010316D02*
X018918Y010316D01*
X018918Y010319D02*
X018548Y010319D01*
X018548Y010322D02*
X018918Y010322D01*
X018918Y010325D02*
X018548Y010325D01*
X018548Y010328D02*
X018918Y010328D01*
X018918Y010331D02*
X018548Y010331D01*
X018548Y010334D02*
X018918Y010334D01*
X018918Y010337D02*
X018548Y010337D01*
X018548Y010340D02*
X018918Y010340D01*
X018918Y010343D02*
X018548Y010343D01*
X018548Y010346D02*
X018918Y010346D01*
X018918Y010349D02*
X018548Y010349D01*
X018548Y010352D02*
X018918Y010352D01*
X018918Y010355D02*
X018548Y010355D01*
X018548Y010358D02*
X018918Y010358D01*
X018918Y010361D02*
X018548Y010361D01*
X018548Y010364D02*
X018918Y010364D01*
X018918Y010367D02*
X018548Y010367D01*
X018548Y010370D02*
X018918Y010370D01*
X018918Y010373D02*
X018548Y010373D01*
X018548Y010376D02*
X018918Y010376D01*
X018918Y010379D02*
X018548Y010379D01*
X018548Y010382D02*
X018918Y010382D01*
X018918Y010385D02*
X018548Y010385D01*
X018548Y010388D02*
X018918Y010388D01*
X018918Y010391D02*
X018548Y010391D01*
X018548Y010394D02*
X018918Y010394D01*
X018918Y010397D02*
X018548Y010397D01*
X018548Y010400D02*
X018918Y010400D01*
X018918Y010403D02*
X018548Y010403D01*
X018548Y010406D02*
X018918Y010406D01*
X018918Y010409D02*
X018548Y010409D01*
X018548Y010412D02*
X018918Y010412D01*
X018918Y010415D02*
X018548Y010415D01*
X018548Y010418D02*
X018918Y010418D01*
X018918Y010421D02*
X018548Y010421D01*
X018548Y010424D02*
X018918Y010424D01*
X018918Y010427D02*
X018548Y010427D01*
X018548Y010430D02*
X018918Y010430D01*
X018918Y010433D02*
X018548Y010433D01*
X018548Y010436D02*
X018918Y010436D01*
X018918Y010439D02*
X018548Y010439D01*
X018548Y010442D02*
X018918Y010442D01*
X018918Y010445D02*
X018548Y010445D01*
X018548Y010448D02*
X018918Y010448D01*
X018918Y010451D02*
X018548Y010451D01*
X018548Y010454D02*
X018918Y010454D01*
X018918Y010457D02*
X018548Y010457D01*
X018548Y010460D02*
X018918Y010460D01*
X018918Y010463D02*
X018548Y010463D01*
X018548Y010466D02*
X018918Y010466D01*
X018918Y010469D02*
X018548Y010469D01*
X018548Y010472D02*
X018918Y010472D01*
X018076Y010473D02*
X018076Y009749D01*
X018076Y010473D02*
X018446Y010473D01*
X018446Y009749D01*
X018076Y009749D01*
X018076Y009752D02*
X018446Y009752D01*
X018446Y009755D02*
X018076Y009755D01*
X018076Y009758D02*
X018446Y009758D01*
X018446Y009761D02*
X018076Y009761D01*
X018076Y009764D02*
X018446Y009764D01*
X018446Y009767D02*
X018076Y009767D01*
X018076Y009770D02*
X018446Y009770D01*
X018446Y009773D02*
X018076Y009773D01*
X018076Y009776D02*
X018446Y009776D01*
X018446Y009779D02*
X018076Y009779D01*
X018076Y009782D02*
X018446Y009782D01*
X018446Y009785D02*
X018076Y009785D01*
X018076Y009788D02*
X018446Y009788D01*
X018446Y009791D02*
X018076Y009791D01*
X018076Y009794D02*
X018446Y009794D01*
X018446Y009797D02*
X018076Y009797D01*
X018076Y009800D02*
X018446Y009800D01*
X018446Y009803D02*
X018076Y009803D01*
X018076Y009806D02*
X018446Y009806D01*
X018446Y009809D02*
X018076Y009809D01*
X018076Y009812D02*
X018446Y009812D01*
X018446Y009815D02*
X018076Y009815D01*
X018076Y009818D02*
X018446Y009818D01*
X018446Y009821D02*
X018076Y009821D01*
X018076Y009824D02*
X018446Y009824D01*
X018446Y009827D02*
X018076Y009827D01*
X018076Y009830D02*
X018446Y009830D01*
X018446Y009833D02*
X018076Y009833D01*
X018076Y009836D02*
X018446Y009836D01*
X018446Y009839D02*
X018076Y009839D01*
X018076Y009842D02*
X018446Y009842D01*
X018446Y009845D02*
X018076Y009845D01*
X018076Y009848D02*
X018446Y009848D01*
X018446Y009851D02*
X018076Y009851D01*
X018076Y009854D02*
X018446Y009854D01*
X018446Y009857D02*
X018076Y009857D01*
X018076Y009860D02*
X018446Y009860D01*
X018446Y009863D02*
X018076Y009863D01*
X018076Y009866D02*
X018446Y009866D01*
X018446Y009869D02*
X018076Y009869D01*
X018076Y009872D02*
X018446Y009872D01*
X018446Y009875D02*
X018076Y009875D01*
X018076Y009878D02*
X018446Y009878D01*
X018446Y009881D02*
X018076Y009881D01*
X018076Y009884D02*
X018446Y009884D01*
X018446Y009887D02*
X018076Y009887D01*
X018076Y009890D02*
X018446Y009890D01*
X018446Y009893D02*
X018076Y009893D01*
X018076Y009896D02*
X018446Y009896D01*
X018446Y009899D02*
X018076Y009899D01*
X018076Y009902D02*
X018446Y009902D01*
X018446Y009905D02*
X018076Y009905D01*
X018076Y009908D02*
X018446Y009908D01*
X018446Y009911D02*
X018076Y009911D01*
X018076Y009914D02*
X018446Y009914D01*
X018446Y009917D02*
X018076Y009917D01*
X018076Y009920D02*
X018446Y009920D01*
X018446Y009923D02*
X018076Y009923D01*
X018076Y009926D02*
X018446Y009926D01*
X018446Y009929D02*
X018076Y009929D01*
X018076Y009932D02*
X018446Y009932D01*
X018446Y009935D02*
X018076Y009935D01*
X018076Y009938D02*
X018446Y009938D01*
X018446Y009941D02*
X018076Y009941D01*
X018076Y009944D02*
X018446Y009944D01*
X018446Y009947D02*
X018076Y009947D01*
X018076Y009950D02*
X018446Y009950D01*
X018446Y009953D02*
X018076Y009953D01*
X018076Y009956D02*
X018446Y009956D01*
X018446Y009959D02*
X018076Y009959D01*
X018076Y009962D02*
X018446Y009962D01*
X018446Y009965D02*
X018076Y009965D01*
X018076Y009968D02*
X018446Y009968D01*
X018446Y009971D02*
X018076Y009971D01*
X018076Y009974D02*
X018446Y009974D01*
X018446Y009977D02*
X018076Y009977D01*
X018076Y009980D02*
X018446Y009980D01*
X018446Y009983D02*
X018076Y009983D01*
X018076Y009986D02*
X018446Y009986D01*
X018446Y009989D02*
X018076Y009989D01*
X018076Y009992D02*
X018446Y009992D01*
X018446Y009995D02*
X018076Y009995D01*
X018076Y009998D02*
X018446Y009998D01*
X018446Y010001D02*
X018076Y010001D01*
X018076Y010004D02*
X018446Y010004D01*
X018446Y010007D02*
X018076Y010007D01*
X018076Y010010D02*
X018446Y010010D01*
X018446Y010013D02*
X018076Y010013D01*
X018076Y010016D02*
X018446Y010016D01*
X018446Y010019D02*
X018076Y010019D01*
X018076Y010022D02*
X018446Y010022D01*
X018446Y010025D02*
X018076Y010025D01*
X018076Y010028D02*
X018446Y010028D01*
X018446Y010031D02*
X018076Y010031D01*
X018076Y010034D02*
X018446Y010034D01*
X018446Y010037D02*
X018076Y010037D01*
X018076Y010040D02*
X018446Y010040D01*
X018446Y010043D02*
X018076Y010043D01*
X018076Y010046D02*
X018446Y010046D01*
X018446Y010049D02*
X018076Y010049D01*
X018076Y010052D02*
X018446Y010052D01*
X018446Y010055D02*
X018076Y010055D01*
X018076Y010058D02*
X018446Y010058D01*
X018446Y010061D02*
X018076Y010061D01*
X018076Y010064D02*
X018446Y010064D01*
X018446Y010067D02*
X018076Y010067D01*
X018076Y010070D02*
X018446Y010070D01*
X018446Y010073D02*
X018076Y010073D01*
X018076Y010076D02*
X018446Y010076D01*
X018446Y010079D02*
X018076Y010079D01*
X018076Y010082D02*
X018446Y010082D01*
X018446Y010085D02*
X018076Y010085D01*
X018076Y010088D02*
X018446Y010088D01*
X018446Y010091D02*
X018076Y010091D01*
X018076Y010094D02*
X018446Y010094D01*
X018446Y010097D02*
X018076Y010097D01*
X018076Y010100D02*
X018446Y010100D01*
X018446Y010103D02*
X018076Y010103D01*
X018076Y010106D02*
X018446Y010106D01*
X018446Y010109D02*
X018076Y010109D01*
X018076Y010112D02*
X018446Y010112D01*
X018446Y010115D02*
X018076Y010115D01*
X018076Y010118D02*
X018446Y010118D01*
X018446Y010121D02*
X018076Y010121D01*
X018076Y010124D02*
X018446Y010124D01*
X018446Y010127D02*
X018076Y010127D01*
X018076Y010130D02*
X018446Y010130D01*
X018446Y010133D02*
X018076Y010133D01*
X018076Y010136D02*
X018446Y010136D01*
X018446Y010139D02*
X018076Y010139D01*
X018076Y010142D02*
X018446Y010142D01*
X018446Y010145D02*
X018076Y010145D01*
X018076Y010148D02*
X018446Y010148D01*
X018446Y010151D02*
X018076Y010151D01*
X018076Y010154D02*
X018446Y010154D01*
X018446Y010157D02*
X018076Y010157D01*
X018076Y010160D02*
X018446Y010160D01*
X018446Y010163D02*
X018076Y010163D01*
X018076Y010166D02*
X018446Y010166D01*
X018446Y010169D02*
X018076Y010169D01*
X018076Y010172D02*
X018446Y010172D01*
X018446Y010175D02*
X018076Y010175D01*
X018076Y010178D02*
X018446Y010178D01*
X018446Y010181D02*
X018076Y010181D01*
X018076Y010184D02*
X018446Y010184D01*
X018446Y010187D02*
X018076Y010187D01*
X018076Y010190D02*
X018446Y010190D01*
X018446Y010193D02*
X018076Y010193D01*
X018076Y010196D02*
X018446Y010196D01*
X018446Y010199D02*
X018076Y010199D01*
X018076Y010202D02*
X018446Y010202D01*
X018446Y010205D02*
X018076Y010205D01*
X018076Y010208D02*
X018446Y010208D01*
X018446Y010211D02*
X018076Y010211D01*
X018076Y010214D02*
X018446Y010214D01*
X018446Y010217D02*
X018076Y010217D01*
X018076Y010220D02*
X018446Y010220D01*
X018446Y010223D02*
X018076Y010223D01*
X018076Y010226D02*
X018446Y010226D01*
X018446Y010229D02*
X018076Y010229D01*
X018076Y010232D02*
X018446Y010232D01*
X018446Y010235D02*
X018076Y010235D01*
X018076Y010238D02*
X018446Y010238D01*
X018446Y010241D02*
X018076Y010241D01*
X018076Y010244D02*
X018446Y010244D01*
X018446Y010247D02*
X018076Y010247D01*
X018076Y010250D02*
X018446Y010250D01*
X018446Y010253D02*
X018076Y010253D01*
X018076Y010256D02*
X018446Y010256D01*
X018446Y010259D02*
X018076Y010259D01*
X018076Y010262D02*
X018446Y010262D01*
X018446Y010265D02*
X018076Y010265D01*
X018076Y010268D02*
X018446Y010268D01*
X018446Y010271D02*
X018076Y010271D01*
X018076Y010274D02*
X018446Y010274D01*
X018446Y010277D02*
X018076Y010277D01*
X018076Y010280D02*
X018446Y010280D01*
X018446Y010283D02*
X018076Y010283D01*
X018076Y010286D02*
X018446Y010286D01*
X018446Y010289D02*
X018076Y010289D01*
X018076Y010292D02*
X018446Y010292D01*
X018446Y010295D02*
X018076Y010295D01*
X018076Y010298D02*
X018446Y010298D01*
X018446Y010301D02*
X018076Y010301D01*
X018076Y010304D02*
X018446Y010304D01*
X018446Y010307D02*
X018076Y010307D01*
X018076Y010310D02*
X018446Y010310D01*
X018446Y010313D02*
X018076Y010313D01*
X018076Y010316D02*
X018446Y010316D01*
X018446Y010319D02*
X018076Y010319D01*
X018076Y010322D02*
X018446Y010322D01*
X018446Y010325D02*
X018076Y010325D01*
X018076Y010328D02*
X018446Y010328D01*
X018446Y010331D02*
X018076Y010331D01*
X018076Y010334D02*
X018446Y010334D01*
X018446Y010337D02*
X018076Y010337D01*
X018076Y010340D02*
X018446Y010340D01*
X018446Y010343D02*
X018076Y010343D01*
X018076Y010346D02*
X018446Y010346D01*
X018446Y010349D02*
X018076Y010349D01*
X018076Y010352D02*
X018446Y010352D01*
X018446Y010355D02*
X018076Y010355D01*
X018076Y010358D02*
X018446Y010358D01*
X018446Y010361D02*
X018076Y010361D01*
X018076Y010364D02*
X018446Y010364D01*
X018446Y010367D02*
X018076Y010367D01*
X018076Y010370D02*
X018446Y010370D01*
X018446Y010373D02*
X018076Y010373D01*
X018076Y010376D02*
X018446Y010376D01*
X018446Y010379D02*
X018076Y010379D01*
X018076Y010382D02*
X018446Y010382D01*
X018446Y010385D02*
X018076Y010385D01*
X018076Y010388D02*
X018446Y010388D01*
X018446Y010391D02*
X018076Y010391D01*
X018076Y010394D02*
X018446Y010394D01*
X018446Y010397D02*
X018076Y010397D01*
X018076Y010400D02*
X018446Y010400D01*
X018446Y010403D02*
X018076Y010403D01*
X018076Y010406D02*
X018446Y010406D01*
X018446Y010409D02*
X018076Y010409D01*
X018076Y010412D02*
X018446Y010412D01*
X018446Y010415D02*
X018076Y010415D01*
X018076Y010418D02*
X018446Y010418D01*
X018446Y010421D02*
X018076Y010421D01*
X018076Y010424D02*
X018446Y010424D01*
X018446Y010427D02*
X018076Y010427D01*
X018076Y010430D02*
X018446Y010430D01*
X018446Y010433D02*
X018076Y010433D01*
X018076Y010436D02*
X018446Y010436D01*
X018446Y010439D02*
X018076Y010439D01*
X018076Y010442D02*
X018446Y010442D01*
X018446Y010445D02*
X018076Y010445D01*
X018076Y010448D02*
X018446Y010448D01*
X018446Y010451D02*
X018076Y010451D01*
X018076Y010454D02*
X018446Y010454D01*
X018446Y010457D02*
X018076Y010457D01*
X018076Y010460D02*
X018446Y010460D01*
X018446Y010463D02*
X018076Y010463D01*
X018076Y010466D02*
X018446Y010466D01*
X018446Y010469D02*
X018076Y010469D01*
X018076Y010472D02*
X018446Y010472D01*
D12*
X024363Y010977D03*
X024363Y011371D03*
X024363Y011883D03*
X024363Y012355D03*
X024363Y012828D03*
X024363Y013300D03*
X024363Y013812D03*
X024363Y014206D03*
D13*
X024363Y014993D03*
X024363Y010111D03*
D14*
X001130Y002040D03*
X002230Y002220D03*
X004770Y001700D03*
X005380Y002430D03*
X006000Y002980D03*
X006100Y003490D03*
X005380Y003490D03*
X007440Y004930D03*
X006420Y005170D03*
X005640Y005890D03*
X003890Y005100D03*
X003710Y006630D03*
X002990Y006920D03*
X003710Y007180D03*
X003120Y007990D03*
X003520Y008230D03*
X003260Y008470D03*
X003150Y008950D03*
X003400Y009200D03*
X003360Y009550D03*
X003650Y009790D03*
X004910Y009470D03*
X005390Y009500D03*
X005150Y009190D03*
X004880Y008960D03*
X006980Y009260D03*
X007340Y009250D03*
X007030Y010170D03*
X007900Y010440D03*
X008300Y010780D03*
X008620Y010600D03*
X008050Y011030D03*
X007300Y011400D03*
X006780Y011690D03*
X008370Y011740D03*
X008050Y012740D03*
X008180Y013620D03*
X006650Y014050D03*
X004540Y012650D03*
X003240Y011990D03*
X003220Y012650D03*
X003010Y013290D03*
X001910Y013080D03*
X001700Y012790D03*
X001390Y012560D03*
X001910Y012500D03*
X001770Y011840D03*
X001680Y011350D03*
X001740Y011000D03*
X001910Y010260D03*
X001910Y009670D03*
X001910Y008490D03*
X001670Y008230D03*
X001430Y008520D03*
X001670Y006560D03*
X004910Y007000D03*
X004910Y007350D03*
X004910Y007750D03*
X006350Y007580D03*
X007290Y006940D03*
X008350Y007170D03*
X009770Y007580D03*
X011050Y007830D03*
X012160Y007990D03*
X012570Y008550D03*
X012590Y009220D03*
X013820Y008310D03*
X014850Y009170D03*
X015640Y008550D03*
X015990Y009030D03*
X016690Y009150D03*
X016390Y008310D03*
X016400Y007960D03*
X017200Y007160D03*
X017580Y007260D03*
X018230Y007500D03*
X018620Y007950D03*
X019540Y007950D03*
X019800Y007710D03*
X020060Y007950D03*
X019790Y008470D03*
X020600Y008880D03*
X020840Y009570D03*
X021220Y009530D03*
X022000Y009080D03*
X022580Y009570D03*
X022923Y009048D03*
X023238Y009048D03*
X023553Y009048D03*
X023890Y009340D03*
X023830Y009950D03*
X024770Y010240D03*
X023820Y011050D03*
X023410Y010780D03*
X023060Y010790D03*
X022820Y011050D03*
X022510Y011250D03*
X022160Y010660D03*
X023300Y011130D03*
X022180Y012080D03*
X021440Y011720D03*
X021420Y012440D03*
X021050Y012780D03*
X021050Y013260D03*
X020000Y013230D03*
X019380Y013230D03*
X018790Y013230D03*
X018440Y013100D03*
X018120Y012710D03*
X018570Y012690D03*
X019122Y012356D03*
X019516Y012356D03*
X019949Y012356D03*
X019949Y011922D03*
X019556Y011922D03*
X019122Y011922D03*
X018570Y011570D03*
X018230Y011170D03*
X018940Y010860D03*
X019480Y010660D03*
X019780Y011040D03*
X020240Y010780D03*
X021000Y010660D03*
X019760Y009570D03*
X021520Y007870D03*
X022590Y007870D03*
X022923Y008418D03*
X023238Y008418D03*
X023553Y008418D03*
X023560Y007580D03*
X022840Y006800D03*
X023800Y006610D03*
X023780Y006250D03*
X023300Y005990D03*
X022400Y005580D03*
X021740Y005600D03*
X022560Y005080D03*
X021710Y004720D03*
X021920Y004430D03*
X021670Y003700D03*
X021230Y002560D03*
X020280Y002320D03*
X020020Y002560D03*
X019520Y002720D03*
X017680Y004140D03*
X018010Y004660D03*
X017240Y005140D03*
X017490Y005390D03*
X016810Y005560D03*
X016560Y005810D03*
X016300Y006050D03*
X017240Y006440D03*
X017210Y006810D03*
X017590Y006570D03*
X018560Y006450D03*
X018920Y006810D03*
X019410Y006790D03*
X019960Y005970D03*
X018560Y005770D03*
X017830Y005730D03*
X018450Y005300D03*
X019170Y004400D03*
X016860Y004140D03*
X016770Y002450D03*
X016320Y002240D03*
X016110Y001790D03*
X015780Y001620D03*
X015300Y001790D03*
X014740Y001760D03*
X015250Y000940D03*
X012790Y001880D03*
X012220Y001540D03*
X012420Y001060D03*
X012320Y002690D03*
X012410Y003260D03*
X012280Y003630D03*
X011420Y003580D03*
X011390Y004270D03*
X010470Y003670D03*
X010170Y003470D03*
X010210Y004220D03*
X009270Y004240D03*
X008900Y004610D03*
X010460Y005320D03*
X010220Y005980D03*
X009200Y005980D03*
X008560Y005930D03*
X010220Y006790D03*
X008210Y008370D03*
X009070Y009350D03*
X010880Y009420D03*
X011010Y009970D03*
X011230Y011810D03*
X010750Y012140D03*
X011940Y013040D03*
X012510Y012290D03*
X012520Y011940D03*
X009960Y013620D03*
X006150Y010550D03*
X004910Y010550D03*
X014890Y007470D03*
X023650Y012390D03*
X025040Y013760D03*
X022990Y014450D03*
X021710Y014190D03*
X019520Y014050D03*
X018680Y014290D03*
X017630Y013090D03*
X025580Y007640D03*
X024870Y002610D03*
X009850Y001930D03*
X007320Y001700D03*
X006650Y000820D03*
D15*
X024387Y002098D03*
X024387Y002354D03*
X024387Y002610D03*
X024387Y002866D03*
X024387Y003122D03*
D16*
X025430Y004185D03*
X025430Y001035D03*
D17*
X025430Y002110D03*
X025430Y003110D03*
D18*
X023430Y002816D03*
X023430Y002304D03*
X024900Y007834D03*
X024900Y008346D03*
X024940Y009384D03*
X024940Y009896D03*
X025640Y013764D03*
X025640Y014276D03*
X008970Y008306D03*
X008970Y007794D03*
D19*
X025730Y008005D03*
X025730Y008595D03*
X025710Y009115D03*
X025710Y009705D03*
D20*
X021486Y001950D03*
X020974Y001950D03*
X009346Y002360D03*
X008834Y002360D03*
X006786Y002450D03*
X006274Y002450D03*
X004186Y002450D03*
X003674Y002450D03*
X001726Y002480D03*
X001214Y002480D03*
X006114Y007950D03*
X006626Y007950D03*
X008214Y009250D03*
X008726Y009250D03*
X008624Y011380D03*
X009136Y011380D03*
D21*
X002400Y011315D03*
X002400Y011511D03*
X002400Y011708D03*
X002400Y011905D03*
X002400Y012102D03*
X002400Y012299D03*
X002400Y012496D03*
X002400Y012693D03*
X002400Y012889D03*
X002400Y013086D03*
X002400Y013283D03*
X002400Y013480D03*
X002400Y011118D03*
X002400Y010921D03*
X002400Y010724D03*
X002400Y010527D03*
X002400Y010330D03*
X002400Y010134D03*
X002400Y009937D03*
X002400Y009740D03*
X002400Y009543D03*
X002400Y009346D03*
X002400Y009149D03*
X002400Y008952D03*
X002400Y008756D03*
X002400Y008559D03*
X002400Y008362D03*
X002400Y008165D03*
X002400Y007968D03*
X002400Y007771D03*
X002400Y007574D03*
X002400Y007378D03*
X002400Y007181D03*
X002400Y006984D03*
X002400Y006787D03*
X002400Y006590D03*
X002400Y006393D03*
X002400Y006197D03*
X002400Y006000D03*
X002400Y005803D03*
D22*
X001120Y005015D03*
X001120Y014267D03*
D23*
X009096Y010600D03*
X009824Y010344D03*
X009824Y010856D03*
X010534Y009606D03*
X010534Y009094D03*
X009806Y009350D03*
X008274Y008026D03*
X008274Y007514D03*
X007546Y007770D03*
D24*
X006547Y010176D03*
X007413Y010550D03*
X006547Y010924D03*
D25*
X020220Y001020D03*
X021220Y001020D03*
X022220Y001020D03*
X025340Y005610D03*
X025340Y006610D03*
D26*
X020420Y005250D03*
X020420Y003910D03*
D27*
X024260Y008354D03*
X024260Y008866D03*
D28*
X004900Y011760D03*
X004880Y012650D03*
X003260Y011500D03*
X003720Y011320D03*
X003720Y010960D03*
X003500Y010710D03*
X003330Y010050D03*
M02*
