%
M48
M72
T01C0.0150
T02C0.0400
%
T01
X1210Y2040
X2630Y2230
X4110Y3570
X5360Y2570
X4770Y1700
X3910Y950
X7320Y1700
X8170Y1700
X8170Y1220
X9850Y1940
X8410Y2250
X7820Y2960
X7540Y3180
X5910Y3570
X6700Y5430
X6630Y6040
X5450Y6080
X4910Y7040
X4910Y7560
X4910Y8040
X3710Y7180
X2890Y6920
X3710Y6460
X3460Y5800
X1910Y6560
X1770Y7750
X1410Y7990
X1670Y8230
X1910Y8490
X3040Y7990
X3380Y8720
X3090Y8960
X3350Y9200
X3590Y9760
X3330Y10180
X3490Y10520
X3320Y11030
X3460Y11510
X2890Y11980
X3660Y12410
X4560Y12650
X5020Y12530
X4910Y11760
X4910Y11200
X4910Y10760
X6060Y10920
X7030Y10170
X7720Y10960
X8480Y10600
X9140Y10950
X7980Y11620
X6440Y11810
X7100Y13290
X9220Y12880
X10020Y13890
X11230Y11810
X12120Y11560
X9070Y9350
X9780Y8380
X9550Y7800
X8220Y8370
X6780Y9330
X5260Y9570
X4910Y9450
X4880Y8960
X6370Y7560
X8100Y7170
X9260Y6810
X10200Y6810
X11090Y6730
X12820Y6630
X14700Y6150
X15000Y6390
X16020Y6320
X16560Y5810
X16910Y5810
X17590Y5490
X17830Y5220
X17240Y5140
X16860Y4140
X17720Y3670
X18290Y3530
X19520Y2720
X20310Y2360
X21680Y3850
X21920Y4430
X21710Y4720
X22560Y5080
X21840Y5460
X22420Y5560
X23300Y5990
X23780Y6250
X23800Y6610
X22840Y6800
X23560Y7580
X22150Y7820
X22923Y8418
X23238Y8418
X23553Y8418
X23553Y9048
X23238Y9048
X22923Y9048
X22580Y9570
X23830Y9830
X23880Y9350
X24690Y10610
X23820Y11050
X23530Y10660
X23300Y11050
X23060Y10790
X22820Y11050
X22440Y11180
X22150Y10660
X21120Y10780
X20240Y10780
X19780Y11040
X19480Y10660
X18840Y10860
X18320Y11080
X18570Y11570
X19122Y11922
X19122Y12356
X19516Y12356
X19949Y12356
X19949Y11922
X19556Y11922
X18570Y12690
X18220Y12610
X17650Y12950
X18480Y13040
X18790Y13230
X19460Y13250
X20930Y13160
X22180Y12080
X21440Y11710
X22700Y13710
X22990Y14450
X25030Y13770
X18780Y14290
X21120Y9350
X20600Y8630
X19990Y8670
X19540Y7950
X19570Y7600
X19220Y7120
X18610Y7590
X17370Y7130
X17590Y6570
X17240Y6440
X18650Y5310
X19960Y5970
X20040Y6760
X16670Y8790
X16400Y7960
X14850Y9170
X13140Y7960
X11800Y8580
X11330Y4850
X11390Y4270
X11380Y3840
X12160Y4020
X12410Y3690
X12410Y3290
X12320Y2690
X11460Y2640
X12950Y1700
X14370Y1540
X14360Y1190
X14960Y1450
X15300Y1790
X15900Y1550
X16320Y1890
X16320Y2240
X12400Y4710
X10190Y4270
X18960Y9080
X25580Y7640
X24870Y2630
X1910Y13080
X1470Y12560
X1680Y11350
X1670Y11000
X1660Y10650
T02
X20220Y1020
X21220Y1020
X22220Y1020
X25340Y5610
X25340Y6610
M30
