G75*
%MOIN*%
%OFA0B0*%
%FSLAX24Y24*%
%IPPOS*%
%LPD*%
%AMOC8*
5,1,8,0,0,1.08239X$1,22.5*
%
%ADD10R,0.0150X0.0460*%
%ADD11R,0.0180X0.0460*%
%ADD12R,0.0460X0.0150*%
%ADD13R,0.0460X0.0180*%
%ADD14C,0.0050*%
%ADD15R,0.0454X0.0158*%
%ADD16R,0.0158X0.0454*%
%ADD17C,0.0350*%
%ADD18R,0.0414X0.0336*%
%ADD19R,0.0336X0.0414*%
%ADD20R,0.0375X0.0552*%
%ADD21R,0.0414X0.0414*%
%ADD22R,0.0454X0.0611*%
%ADD23R,0.0336X0.0336*%
%ADD24R,0.0139X0.0296*%
%ADD25R,0.1044X0.1044*%
%ADD26C,0.0800*%
%ADD27R,0.0375X0.0375*%
%ADD28C,0.0560*%
D10*
X013115Y002200D03*
X016068Y002200D03*
X016068Y005743D03*
X013115Y005743D03*
D11*
X013312Y005743D03*
X013509Y005743D03*
X013706Y005743D03*
X013903Y005743D03*
X014100Y005743D03*
X014296Y005743D03*
X014493Y005743D03*
X014690Y005743D03*
X014887Y005743D03*
X015084Y005743D03*
X015281Y005743D03*
X015477Y005743D03*
X015674Y005743D03*
X015871Y005743D03*
X015871Y002200D03*
X015674Y002200D03*
X015477Y002200D03*
X015281Y002200D03*
X015084Y002200D03*
X014887Y002200D03*
X014690Y002200D03*
X014493Y002200D03*
X014296Y002200D03*
X014100Y002200D03*
X013903Y002200D03*
X013706Y002200D03*
X013509Y002200D03*
X013312Y002200D03*
D12*
X012820Y002495D03*
X016363Y002495D03*
X016363Y005448D03*
X012820Y005448D03*
D13*
X012820Y005251D03*
X012820Y005054D03*
X012820Y004857D03*
X012820Y004661D03*
X012820Y004464D03*
X012820Y004267D03*
X012820Y004070D03*
X012820Y003873D03*
X012820Y003676D03*
X012820Y003480D03*
X012820Y003283D03*
X012820Y003086D03*
X012820Y002889D03*
X012820Y002692D03*
X016363Y002692D03*
X016363Y002889D03*
X016363Y003086D03*
X016363Y003283D03*
X016363Y003480D03*
X016363Y003676D03*
X016363Y003873D03*
X016363Y004070D03*
X016363Y004267D03*
X016363Y004464D03*
X016363Y004661D03*
X016363Y004857D03*
X016363Y005054D03*
X016363Y005251D03*
D14*
X015773Y005153D02*
X013804Y005153D01*
X013411Y004759D01*
X013411Y002791D01*
X015773Y002791D01*
X015773Y005153D01*
X015773Y005136D02*
X013788Y005136D01*
X013739Y005088D02*
X015773Y005088D01*
X015773Y005039D02*
X013691Y005039D01*
X013642Y004991D02*
X015773Y004991D01*
X015773Y004942D02*
X013594Y004942D01*
X013545Y004894D02*
X015773Y004894D01*
X015773Y004845D02*
X013497Y004845D01*
X013448Y004797D02*
X015773Y004797D01*
X015773Y004748D02*
X013411Y004748D01*
X013411Y004700D02*
X015773Y004700D01*
X015773Y004651D02*
X013411Y004651D01*
X013411Y004603D02*
X015773Y004603D01*
X015773Y004554D02*
X013411Y004554D01*
X013411Y004506D02*
X015773Y004506D01*
X015773Y004457D02*
X013411Y004457D01*
X013411Y004409D02*
X015773Y004409D01*
X015773Y004360D02*
X013411Y004360D01*
X013411Y004312D02*
X015773Y004312D01*
X015773Y004263D02*
X013411Y004263D01*
X013411Y004215D02*
X015773Y004215D01*
X015773Y004166D02*
X013411Y004166D01*
X013411Y004118D02*
X015773Y004118D01*
X015773Y004069D02*
X013411Y004069D01*
X013411Y004021D02*
X015773Y004021D01*
X015773Y003972D02*
X013411Y003972D01*
X013411Y003924D02*
X015773Y003924D01*
X015773Y003875D02*
X013411Y003875D01*
X013411Y003827D02*
X015773Y003827D01*
X015773Y003778D02*
X013411Y003778D01*
X013411Y003730D02*
X015773Y003730D01*
X015773Y003681D02*
X013411Y003681D01*
X013411Y003633D02*
X015773Y003633D01*
X015773Y003584D02*
X013411Y003584D01*
X013411Y003536D02*
X015773Y003536D01*
X015773Y003487D02*
X013411Y003487D01*
X013411Y003439D02*
X015773Y003439D01*
X015773Y003390D02*
X013411Y003390D01*
X013411Y003342D02*
X015773Y003342D01*
X015773Y003293D02*
X013411Y003293D01*
X013411Y003245D02*
X015773Y003245D01*
X015773Y003196D02*
X013411Y003196D01*
X013411Y003148D02*
X015773Y003148D01*
X015773Y003099D02*
X013411Y003099D01*
X013411Y003051D02*
X015773Y003051D01*
X015773Y003002D02*
X013411Y003002D01*
X013411Y002954D02*
X015773Y002954D01*
X015773Y002905D02*
X013411Y002905D01*
X013411Y002857D02*
X015773Y002857D01*
X015773Y002808D02*
X013411Y002808D01*
X018935Y011735D02*
X020136Y011735D01*
X020136Y011985D01*
X020619Y011985D01*
X020619Y012293D01*
X020136Y012293D01*
X020136Y012543D01*
X018935Y012543D01*
X018935Y012293D01*
X018453Y012293D01*
X018453Y011985D01*
X018935Y011985D01*
X018935Y011735D01*
X020136Y011735D01*
X020136Y011985D01*
X020619Y011985D01*
X020619Y012293D01*
X020136Y012293D01*
X020136Y012543D01*
X018935Y012543D01*
X018935Y012293D01*
X018453Y012293D01*
X018453Y011985D01*
X018935Y011985D01*
X018935Y011735D01*
X018935Y011781D02*
X020136Y011781D01*
X018935Y011781D01*
X018935Y011829D02*
X020136Y011829D01*
X018935Y011829D01*
X018935Y011878D02*
X020136Y011878D01*
X018935Y011878D01*
X018935Y011926D02*
X020136Y011926D01*
X018935Y011926D01*
X018935Y011975D02*
X020136Y011975D01*
X018935Y011975D01*
X018935Y012314D02*
X020136Y012314D01*
X018935Y012314D01*
X018935Y012363D02*
X020136Y012363D01*
X018935Y012363D01*
X018935Y012411D02*
X020136Y012411D01*
X018935Y012411D01*
X018935Y012460D02*
X020136Y012460D01*
X018935Y012460D01*
X018935Y012508D02*
X020136Y012508D01*
X018935Y012508D01*
X018453Y012266D02*
X020619Y012266D01*
X018453Y012266D01*
X018453Y012217D02*
X020619Y012217D01*
X018453Y012217D01*
X018453Y012169D02*
X020619Y012169D01*
X018453Y012169D01*
X018453Y012120D02*
X020619Y012120D01*
X018453Y012120D01*
X018453Y012072D02*
X020619Y012072D01*
X018453Y012072D01*
X018453Y012023D02*
X020619Y012023D01*
X018453Y012023D01*
D15*
X018650Y011844D03*
X018650Y012434D03*
X020422Y012434D03*
X020422Y011844D03*
D16*
X020205Y011450D03*
X020008Y011450D03*
X019811Y011450D03*
X019615Y011450D03*
X019418Y011450D03*
X019221Y011450D03*
X019024Y011450D03*
X018827Y011450D03*
X018827Y012828D03*
X019024Y012828D03*
X019221Y012828D03*
X019418Y012828D03*
X019615Y012828D03*
X019811Y012828D03*
X020008Y012828D03*
X020205Y012828D03*
D17*
X019949Y012356D03*
X019516Y012356D03*
X019122Y012356D03*
X019122Y011922D03*
X019556Y011922D03*
X019949Y011922D03*
X018570Y011570D03*
X018320Y011080D03*
X018840Y010860D03*
X019480Y010660D03*
X019780Y011040D03*
X020240Y010780D03*
X021120Y010780D03*
X022150Y010660D03*
X022820Y011050D03*
X022440Y011180D03*
X023060Y010790D03*
X023300Y011050D03*
X023530Y010660D03*
X023820Y011050D03*
X024690Y010610D03*
X023830Y009830D03*
X023880Y009350D03*
X023553Y009048D03*
X023238Y009048D03*
X022923Y009048D03*
X022923Y008418D03*
X023238Y008418D03*
X023553Y008418D03*
X022150Y007820D03*
X023560Y007580D03*
X022840Y006800D03*
X023800Y006610D03*
X023780Y006250D03*
X023300Y005990D03*
X022420Y005560D03*
X021840Y005460D03*
X022560Y005080D03*
X021710Y004720D03*
X021920Y004430D03*
X021680Y003850D03*
X019520Y002720D03*
X020310Y002360D03*
X018290Y003530D03*
X017720Y003670D03*
X016860Y004140D03*
X017240Y005140D03*
X017590Y005490D03*
X017830Y005220D03*
X018650Y005310D03*
X019960Y005970D03*
X020040Y006760D03*
X019220Y007120D03*
X019570Y007600D03*
X019540Y007950D03*
X019990Y008670D03*
X020600Y008630D03*
X021120Y009350D03*
X022580Y009570D03*
X025580Y007640D03*
X018960Y009080D03*
X016670Y008790D03*
X016400Y007960D03*
X017370Y007130D03*
X017590Y006570D03*
X017240Y006440D03*
X016910Y005810D03*
X016560Y005810D03*
X016020Y006320D03*
X015000Y006390D03*
X014700Y006150D03*
X012820Y006630D03*
X011090Y006730D03*
X010200Y006810D03*
X009260Y006810D03*
X008100Y007170D03*
X009550Y007800D03*
X009780Y008380D03*
X009070Y009350D03*
X008220Y008370D03*
X006780Y009330D03*
X007030Y010170D03*
X006060Y010920D03*
X004910Y010760D03*
X004910Y011200D03*
X004910Y011760D03*
X005020Y012530D03*
X004560Y012650D03*
X003660Y012410D03*
X002890Y011980D03*
X003460Y011510D03*
X003320Y011030D03*
X003490Y010520D03*
X003330Y010180D03*
X003590Y009760D03*
X003350Y009200D03*
X003090Y008960D03*
X003380Y008720D03*
X003040Y007990D03*
X001910Y008490D03*
X001670Y008230D03*
X001410Y007990D03*
X001770Y007750D03*
X002890Y006920D03*
X003710Y007180D03*
X003710Y006460D03*
X003460Y005800D03*
X001910Y006560D03*
X004910Y007040D03*
X004910Y007560D03*
X004910Y008040D03*
X006370Y007560D03*
X006630Y006040D03*
X006700Y005430D03*
X005450Y006080D03*
X005910Y003570D03*
X005360Y002570D03*
X004770Y001700D03*
X003910Y000950D03*
X002630Y002230D03*
X001210Y002040D03*
X004110Y003570D03*
X007540Y003180D03*
X007820Y002960D03*
X008410Y002250D03*
X008170Y001700D03*
X008170Y001220D03*
X007320Y001700D03*
X009850Y001940D03*
X011460Y002640D03*
X012320Y002690D03*
X012410Y003290D03*
X012410Y003690D03*
X012160Y004020D03*
X011380Y003840D03*
X011390Y004270D03*
X012400Y004710D03*
X011330Y004850D03*
X010190Y004270D03*
X012950Y001700D03*
X014370Y001540D03*
X014360Y001190D03*
X014960Y001450D03*
X015300Y001790D03*
X015900Y001550D03*
X016320Y001890D03*
X016320Y002240D03*
X024870Y002630D03*
X018610Y007590D03*
X014850Y009170D03*
X013140Y007960D03*
X011800Y008580D03*
X008480Y010600D03*
X009140Y010950D03*
X007980Y011620D03*
X007720Y010960D03*
X006440Y011810D03*
X007100Y013290D03*
X009220Y012880D03*
X010020Y013890D03*
X011230Y011810D03*
X012120Y011560D03*
X017650Y012950D03*
X018220Y012610D03*
X018570Y012690D03*
X018480Y013040D03*
X018790Y013230D03*
X019460Y013250D03*
X020930Y013160D03*
X022180Y012080D03*
X021440Y011710D03*
X022700Y013710D03*
X022990Y014450D03*
X025030Y013770D03*
X018780Y014290D03*
X005260Y009570D03*
X004910Y009450D03*
X004880Y008960D03*
X001660Y010650D03*
X001670Y011000D03*
X001680Y011350D03*
X001470Y012560D03*
X001910Y013080D03*
D18*
X000940Y013076D03*
X000940Y012564D03*
X001120Y011346D03*
X001120Y010834D03*
X008570Y013394D03*
X008570Y013906D03*
X009610Y013356D03*
X009610Y012844D03*
X018500Y010186D03*
X019250Y010236D03*
X019250Y009724D03*
X018500Y009674D03*
X021450Y008726D03*
X021950Y008726D03*
X021950Y008214D03*
X021450Y008214D03*
X021410Y006456D03*
X020910Y006456D03*
X020350Y006456D03*
X020350Y005944D03*
X020910Y005944D03*
X021410Y005944D03*
X021930Y005944D03*
X022430Y005944D03*
X022910Y005944D03*
X022910Y006456D03*
X022430Y006456D03*
X021930Y006456D03*
X017330Y004396D03*
X017330Y003884D03*
X011770Y003836D03*
X011770Y003324D03*
X011850Y002416D03*
X011850Y001904D03*
X006030Y005324D03*
X006030Y005836D03*
D19*
X004566Y006560D03*
X004054Y006560D03*
X004054Y007060D03*
X004566Y007060D03*
X004566Y007560D03*
X004054Y007560D03*
X004054Y008060D03*
X004566Y008060D03*
X004566Y008660D03*
X004054Y008660D03*
X004054Y009260D03*
X004566Y009260D03*
X004566Y009760D03*
X004054Y009760D03*
X004054Y010260D03*
X004566Y010260D03*
X004566Y010760D03*
X004054Y010760D03*
X004054Y011260D03*
X004566Y011260D03*
X004566Y011760D03*
X004054Y011760D03*
X004054Y012260D03*
X004566Y012260D03*
X004566Y013160D03*
X004054Y013160D03*
X006964Y012880D03*
X007476Y012880D03*
X007296Y012080D03*
X006784Y012080D03*
X006626Y007210D03*
X006114Y007210D03*
X004206Y003180D03*
X003694Y003180D03*
X001736Y003210D03*
X001224Y003210D03*
X006354Y003130D03*
X006866Y003130D03*
X008854Y003180D03*
X009366Y003180D03*
X018874Y008690D03*
X019386Y008690D03*
X022894Y010140D03*
X023406Y010140D03*
X021996Y013810D03*
X021484Y013810D03*
X018936Y013760D03*
X018424Y013760D03*
D20*
X009506Y001580D03*
X009053Y001580D03*
X008600Y001580D03*
X006956Y001580D03*
X006503Y001580D03*
X006050Y001580D03*
X004406Y001580D03*
X003953Y001580D03*
X003500Y001580D03*
X001856Y001580D03*
X001403Y001580D03*
X000950Y001580D03*
D21*
X000478Y000674D03*
X002328Y000674D03*
X003028Y000674D03*
X004878Y000674D03*
X005578Y000674D03*
X007428Y000674D03*
X008128Y000674D03*
X009978Y000674D03*
D22*
X008050Y004577D03*
X007676Y005443D03*
X008424Y005443D03*
X009206Y005497D03*
X009954Y005497D03*
X009580Y006363D03*
X011026Y010457D03*
X011774Y010457D03*
X011400Y011323D03*
D23*
X006646Y009674D03*
X006134Y009674D03*
X006390Y008946D03*
D24*
X022844Y009520D03*
X023001Y009520D03*
X023159Y009520D03*
X023316Y009520D03*
X023474Y009520D03*
X023631Y009520D03*
X023631Y007945D03*
X023474Y007945D03*
X023316Y007945D03*
X023159Y007945D03*
X023001Y007945D03*
X022844Y007945D03*
D25*
X023218Y008733D03*
D26*
X025340Y006610D03*
X025340Y005610D03*
X022220Y001020D03*
X021220Y001020D03*
X020220Y001020D03*
D27*
X009365Y002400D03*
X008775Y002400D03*
X006865Y002510D03*
X006275Y002510D03*
X004285Y002430D03*
X003695Y002430D03*
X001715Y002460D03*
X001125Y002460D03*
D28*
X003460Y004940D03*
X004350Y005030D03*
X004680Y005770D03*
X007880Y006460D03*
X010540Y007120D03*
X011460Y007620D03*
X013300Y008550D03*
X012250Y008880D03*
X014450Y007310D03*
X010730Y005970D03*
X010680Y004760D03*
X009730Y004300D03*
X010860Y003920D03*
X013340Y001210D03*
X020160Y005170D03*
X020900Y005140D03*
X021510Y005130D03*
X022100Y005070D03*
X022450Y004430D03*
X020140Y009250D03*
X021670Y009400D03*
X021900Y011710D03*
X022760Y011650D03*
X012910Y012520D03*
X012120Y012540D03*
X011360Y012550D03*
X000970Y006560D03*
M02*
