%
M48
M72
T01C0.0130
T02C0.0150
T03C0.0400
%
T01
X3330Y10050
X3500Y10710
X3720Y10960
X3720Y11320
X3260Y11500
X4900Y11760
X4880Y12650
T02
X1130Y2040
X2230Y2220
X4770Y1700
X5380Y2430
X6000Y2980
X6100Y3490
X5380Y3490
X7440Y4930
X6420Y5170
X5640Y5890
X3890Y5100
X3710Y6630
X2990Y6920
X3710Y7180
X3120Y7990
X3520Y8230
X3260Y8470
X3150Y8950
X3400Y9200
X3360Y9550
X3650Y9790
X4910Y9470
X5390Y9500
X5150Y9190
X4880Y8960
X6980Y9260
X7340Y9250
X7030Y10170
X7900Y10440
X8300Y10780
X8620Y10600
X8050Y11030
X7300Y11400
X6780Y11690
X8370Y11740
X8050Y12740
X8180Y13620
X6650Y14050
X4540Y12650
X3240Y11990
X3220Y12650
X3010Y13290
X1910Y13080
X1700Y12790
X1390Y12560
X1910Y12500
X1770Y11840
X1680Y11350
X1740Y11000
X1910Y10260
X1910Y9670
X1910Y8490
X1670Y8230
X1430Y8520
X1670Y6560
X4910Y7000
X4910Y7350
X4910Y7750
X6350Y7580
X7290Y6940
X8350Y7170
X9770Y7580
X11050Y7830
X12160Y7990
X12570Y8550
X12590Y9220
X13820Y8310
X14850Y9170
X15640Y8550
X15990Y9030
X16690Y9150
X16390Y8310
X16400Y7960
X17200Y7160
X17580Y7260
X18230Y7500
X18620Y7950
X19540Y7950
X19800Y7710
X20060Y7950
X19790Y8470
X20600Y8880
X20840Y9570
X21220Y9530
X22000Y9080
X22580Y9570
X22923Y9048
X23238Y9048
X23553Y9048
X23890Y9340
X23830Y9950
X24770Y10240
X23820Y11050
X23410Y10780
X23060Y10790
X22820Y11050
X22510Y11250
X22160Y10660
X23300Y11130
X22180Y12080
X21440Y11720
X21420Y12440
X21050Y12780
X21050Y13260
X20000Y13230
X19380Y13230
X18790Y13230
X18440Y13100
X18120Y12710
X18570Y12690
X19122Y12356
X19516Y12356
X19949Y12356
X19949Y11922
X19556Y11922
X19122Y11922
X18570Y11570
X18230Y11170
X18940Y10860
X19480Y10660
X19780Y11040
X20240Y10780
X21000Y10660
X19760Y9570
X21520Y7870
X22590Y7870
X22923Y8418
X23238Y8418
X23553Y8418
X23560Y7580
X22840Y6800
X23800Y6610
X23780Y6250
X23300Y5990
X22400Y5580
X21740Y5600
X22560Y5080
X21710Y4720
X21920Y4430
X21670Y3700
X21230Y2560
X20280Y2320
X20020Y2560
X19520Y2720
X17680Y4140
X18010Y4660
X17240Y5140
X17490Y5390
X16810Y5560
X16560Y5810
X16300Y6050
X17240Y6440
X17210Y6810
X17590Y6570
X18560Y6450
X18920Y6810
X19410Y6790
X19960Y5970
X18560Y5770
X17830Y5730
X18450Y5300
X19170Y4400
X16860Y4140
X16770Y2450
X16320Y2240
X16110Y1790
X15780Y1620
X15300Y1790
X14740Y1760
X15250Y940
X12790Y1880
X12220Y1540
X12420Y1060
X12320Y2690
X12410Y3260
X12280Y3630
X11420Y3580
X11390Y4270
X10470Y3670
X10170Y3470
X10210Y4220
X9270Y4240
X8900Y4610
X10460Y5320
X10220Y5980
X9200Y5980
X8560Y5930
X10220Y6790
X8210Y8370
X9070Y9350
X10880Y9420
X11010Y9970
X11230Y11810
X10750Y12140
X11940Y13040
X12510Y12290
X12520Y11940
X9960Y13620
X6150Y10550
X4910Y10550
X14890Y7470
X23650Y12390
X25040Y13760
X22990Y14450
X21710Y14190
X19520Y14050
X18680Y14290
X17630Y13090
X25580Y7640
X24870Y2610
X9850Y1930
X7320Y1700
X6650Y820
T03
X20220Y1020
X21220Y1020
X22220Y1020
X25340Y5610
X25340Y6610
M30
