G75*
%MOIN*%
%OFA0B0*%
%FSLAX24Y24*%
%IPPOS*%
%LPD*%
%AMOC8*
5,1,8,0,0,1.08239X$1,22.5*
%
%ADD10C,0.0000*%
%ADD11C,0.0050*%
%ADD12C,0.0080*%
%ADD13C,0.0010*%
%ADD14C,0.0020*%
%ADD15C,0.0160*%
%ADD16R,0.0280X0.0160*%
%ADD17R,0.0160X0.0280*%
%ADD18C,0.0060*%
%ADD19C,0.0040*%
%ADD20R,0.0305X0.0050*%
D10*
X000100Y000480D02*
X000100Y015480D01*
X026100Y015480D01*
X026100Y000480D01*
X000100Y000480D01*
D11*
X000195Y005094D02*
X000195Y014189D01*
X002400Y014189D01*
X002400Y005094D01*
X000195Y005094D01*
X000235Y005606D02*
X000431Y005606D01*
X000431Y013677D01*
X000235Y013677D01*
X001809Y013874D02*
X001811Y013901D01*
X001817Y013928D01*
X001826Y013954D01*
X001839Y013978D01*
X001855Y014001D01*
X001874Y014020D01*
X001896Y014037D01*
X001920Y014051D01*
X001945Y014061D01*
X001972Y014068D01*
X001999Y014071D01*
X002027Y014070D01*
X002054Y014065D01*
X002080Y014057D01*
X002104Y014045D01*
X002127Y014029D01*
X002148Y014011D01*
X002165Y013990D01*
X002180Y013966D01*
X002191Y013941D01*
X002199Y013915D01*
X002203Y013888D01*
X002203Y013860D01*
X002199Y013833D01*
X002191Y013807D01*
X002180Y013782D01*
X002165Y013758D01*
X002148Y013737D01*
X002127Y013719D01*
X002105Y013703D01*
X002080Y013691D01*
X002054Y013683D01*
X002027Y013678D01*
X001999Y013677D01*
X001972Y013680D01*
X001945Y013687D01*
X001920Y013697D01*
X001896Y013711D01*
X001874Y013728D01*
X001855Y013747D01*
X001839Y013770D01*
X001826Y013794D01*
X001817Y013820D01*
X001811Y013847D01*
X001809Y013874D01*
X014403Y015190D02*
X014403Y009914D01*
X024560Y009914D01*
X024560Y015190D01*
X014403Y015190D01*
X019245Y005875D02*
X021595Y005875D01*
X021595Y003275D01*
X019245Y003275D01*
X019245Y005875D01*
D12*
X024308Y003949D02*
X024308Y003476D01*
X024859Y003476D01*
X024859Y001744D01*
X024308Y001744D01*
X024308Y001271D01*
X024938Y001271D01*
X026001Y001271D02*
X026001Y003949D01*
X024938Y003949D02*
X024308Y003949D01*
X025638Y008245D02*
X025730Y008367D01*
X025911Y008367D01*
X025816Y008245D02*
X025740Y008361D01*
X025730Y008367D02*
X025549Y008367D01*
X025618Y009355D02*
X025710Y009477D01*
X025891Y009477D01*
X025796Y009355D02*
X025720Y009471D01*
X025710Y009477D02*
X025529Y009477D01*
X010209Y009783D02*
X009894Y009783D01*
X009894Y009665D01*
X009894Y009035D02*
X009894Y008917D01*
X010209Y008917D01*
X009499Y010167D02*
X009184Y010167D01*
X009184Y010285D01*
X009184Y010915D02*
X009184Y011033D01*
X009499Y011033D01*
X007949Y008203D02*
X007634Y008203D01*
X007634Y008085D01*
X007634Y007455D02*
X007634Y007337D01*
X007949Y007337D01*
D13*
X007390Y007330D02*
X007390Y007430D01*
X007365Y007430D01*
X007264Y007330D01*
X007239Y007330D01*
X007239Y007283D02*
X007390Y007283D01*
X007390Y007183D02*
X007239Y007283D01*
X007239Y007183D02*
X007390Y007183D01*
X007365Y007136D02*
X007390Y007111D01*
X007390Y007061D01*
X007365Y007036D01*
X007365Y007136D02*
X007340Y007136D01*
X007239Y007036D01*
X007239Y007136D01*
X007239Y006989D02*
X007239Y006888D01*
X007390Y006888D01*
X007390Y006841D02*
X007390Y006741D01*
X007239Y006741D01*
X007239Y006841D01*
X007315Y006791D02*
X007315Y006741D01*
X007390Y006694D02*
X007239Y006694D01*
X007390Y006594D01*
X007239Y006594D01*
X007239Y006547D02*
X007390Y006547D01*
X007390Y006446D02*
X007239Y006446D01*
X007239Y006399D02*
X007340Y006399D01*
X007390Y006349D01*
X007340Y006299D01*
X007239Y006299D01*
X007239Y006252D02*
X007390Y006252D01*
X007315Y006252D02*
X007315Y006152D01*
X007365Y006105D02*
X007390Y006080D01*
X007390Y006029D01*
X007365Y006004D01*
X007264Y006004D01*
X007239Y006029D01*
X007239Y006080D01*
X007264Y006105D01*
X007239Y006152D02*
X007390Y006152D01*
X007315Y006299D02*
X007315Y006399D01*
X007390Y006446D02*
X007239Y006547D01*
X007239Y005957D02*
X007390Y005957D01*
X007390Y005857D02*
X007239Y005857D01*
X007315Y005810D02*
X007315Y005710D01*
X007390Y005663D02*
X007390Y005563D01*
X007390Y005515D02*
X007390Y005415D01*
X007239Y005415D01*
X007239Y005515D01*
X007315Y005465D02*
X007315Y005415D01*
X007390Y005368D02*
X007390Y005268D01*
X007239Y005268D01*
X007264Y005221D02*
X007239Y005196D01*
X007239Y005146D01*
X007264Y005121D01*
X007264Y005073D02*
X007365Y005073D01*
X007390Y005048D01*
X007390Y004998D01*
X007365Y004973D01*
X007264Y004973D01*
X007239Y004998D01*
X007239Y005048D01*
X007264Y005073D01*
X007315Y005146D02*
X007315Y005196D01*
X007289Y005221D01*
X007264Y005221D01*
X007315Y005268D02*
X007315Y005318D01*
X007365Y005221D02*
X007390Y005196D01*
X007390Y005146D01*
X007365Y005121D01*
X007340Y005121D01*
X007315Y005146D01*
X007390Y004926D02*
X007239Y004926D01*
X007239Y004826D02*
X007390Y004826D01*
X007340Y004876D01*
X007390Y004926D01*
X007390Y005613D02*
X007239Y005613D01*
X007390Y005857D02*
X007239Y005957D01*
X009499Y006406D02*
X009650Y006406D01*
X009600Y006456D01*
X009650Y006506D01*
X009499Y006506D01*
X009524Y006553D02*
X009499Y006578D01*
X009499Y006628D01*
X009524Y006653D01*
X009625Y006653D01*
X009650Y006628D01*
X009650Y006578D01*
X009625Y006553D01*
X009524Y006553D01*
X009524Y006701D02*
X009499Y006726D01*
X009499Y006776D01*
X009524Y006801D01*
X009549Y006801D01*
X009575Y006776D01*
X009575Y006726D01*
X009600Y006701D01*
X009625Y006701D01*
X009650Y006726D01*
X009650Y006776D01*
X009625Y006801D01*
X009650Y006848D02*
X009650Y006948D01*
X009650Y006995D02*
X009499Y006995D01*
X009499Y007095D01*
X009575Y007045D02*
X009575Y006995D01*
X009650Y006995D02*
X009650Y007095D01*
X009650Y007143D02*
X009650Y007243D01*
X009650Y007193D02*
X009499Y007193D01*
X009575Y007290D02*
X009575Y007390D01*
X009650Y007437D02*
X009499Y007537D01*
X009650Y007537D01*
X009625Y007584D02*
X009524Y007584D01*
X009499Y007609D01*
X009499Y007660D01*
X009524Y007685D01*
X009499Y007732D02*
X009650Y007732D01*
X009625Y007685D02*
X009650Y007660D01*
X009650Y007609D01*
X009625Y007584D01*
X009650Y007437D02*
X009499Y007437D01*
X009575Y007732D02*
X009575Y007832D01*
X009575Y007879D02*
X009575Y007979D01*
X009600Y007979D02*
X009499Y007979D01*
X009499Y008026D02*
X009650Y008026D01*
X009499Y008127D01*
X009650Y008127D01*
X009650Y008174D02*
X009499Y008274D01*
X009650Y008274D01*
X009650Y008321D02*
X009499Y008321D01*
X009499Y008421D01*
X009499Y008468D02*
X009499Y008569D01*
X009499Y008616D02*
X009600Y008716D01*
X009625Y008716D01*
X009650Y008691D01*
X009650Y008641D01*
X009625Y008616D01*
X009499Y008616D02*
X009499Y008716D01*
X009499Y008763D02*
X009650Y008763D01*
X009499Y008863D01*
X009650Y008863D01*
X009650Y008910D02*
X009650Y009010D01*
X009625Y009010D01*
X009524Y008910D01*
X009499Y008910D01*
X009524Y009058D02*
X009625Y009158D01*
X009524Y009158D01*
X009499Y009133D01*
X009499Y009083D01*
X009524Y009058D01*
X009625Y009058D01*
X009650Y009083D01*
X009650Y009133D01*
X009625Y009158D01*
X009625Y009205D02*
X009650Y009230D01*
X009650Y009280D01*
X009625Y009305D01*
X009524Y009205D01*
X009499Y009230D01*
X009499Y009280D01*
X009524Y009305D01*
X009625Y009305D01*
X009625Y009352D02*
X009650Y009377D01*
X009650Y009427D01*
X009625Y009452D01*
X009600Y009452D01*
X009499Y009352D01*
X009499Y009452D01*
X009499Y009500D02*
X009650Y009500D01*
X009650Y009575D01*
X009625Y009600D01*
X009575Y009600D01*
X009549Y009575D01*
X009549Y009500D01*
X009499Y009647D02*
X009549Y009697D01*
X009499Y009747D01*
X009650Y009747D01*
X009650Y009647D02*
X009499Y009647D01*
X009426Y009632D02*
X009407Y009651D01*
X009334Y009651D01*
X009316Y009632D01*
X009316Y009595D01*
X009334Y009577D01*
X009407Y009577D01*
X009426Y009595D01*
X009426Y009632D01*
X009389Y009688D02*
X009426Y009724D01*
X009316Y009724D01*
X009316Y009688D02*
X009316Y009761D01*
X009316Y009651D02*
X009352Y009614D01*
X008940Y009571D02*
X008789Y009571D01*
X008789Y009671D01*
X008815Y009640D02*
X008760Y009640D01*
X008742Y009622D01*
X008742Y009585D01*
X008760Y009567D01*
X008815Y009567D01*
X008778Y009567D02*
X008742Y009530D01*
X008705Y009530D02*
X008631Y009530D01*
X008668Y009530D02*
X008668Y009640D01*
X008705Y009603D01*
X008594Y009622D02*
X008576Y009640D01*
X008539Y009640D01*
X008521Y009622D01*
X008521Y009603D01*
X008539Y009585D01*
X008521Y009567D01*
X008521Y009548D01*
X008539Y009530D01*
X008576Y009530D01*
X008594Y009548D01*
X008557Y009585D02*
X008539Y009585D01*
X008789Y009524D02*
X008940Y009524D01*
X008940Y009571D02*
X008940Y009671D01*
X008940Y009718D02*
X008789Y009718D01*
X008789Y009819D01*
X008789Y009866D02*
X008890Y009966D01*
X008915Y009966D01*
X008940Y009941D01*
X008940Y009891D01*
X008915Y009866D01*
X008789Y009866D02*
X008789Y009966D01*
X008789Y010013D02*
X008940Y010013D01*
X008789Y010113D01*
X008940Y010113D01*
X008940Y010160D02*
X008940Y010260D01*
X008915Y010260D01*
X008814Y010160D01*
X008789Y010160D01*
X008814Y010308D02*
X008915Y010408D01*
X008814Y010408D01*
X008789Y010383D01*
X008789Y010333D01*
X008814Y010308D01*
X008915Y010308D01*
X008940Y010333D01*
X008940Y010383D01*
X008915Y010408D01*
X008915Y010455D02*
X008940Y010480D01*
X008940Y010530D01*
X008915Y010555D01*
X008814Y010455D01*
X008789Y010480D01*
X008789Y010530D01*
X008814Y010555D01*
X008915Y010555D01*
X008915Y010602D02*
X008940Y010627D01*
X008940Y010677D01*
X008915Y010702D01*
X008890Y010702D01*
X008789Y010602D01*
X008789Y010702D01*
X008789Y010750D02*
X008940Y010750D01*
X008940Y010825D01*
X008915Y010850D01*
X008865Y010850D01*
X008839Y010825D01*
X008839Y010750D01*
X008789Y010897D02*
X008839Y010947D01*
X008789Y010997D01*
X008940Y010997D01*
X008940Y010897D02*
X008789Y010897D01*
X008716Y010882D02*
X008697Y010901D01*
X008624Y010901D01*
X008606Y010882D01*
X008606Y010845D01*
X008624Y010827D01*
X008697Y010827D01*
X008716Y010845D01*
X008716Y010882D01*
X008697Y010938D02*
X008716Y010956D01*
X008716Y010993D01*
X008697Y011011D01*
X008679Y011011D01*
X008606Y010938D01*
X008606Y011011D01*
X008606Y010901D02*
X008642Y010864D01*
X008814Y010455D02*
X008915Y010455D01*
X007845Y009971D02*
X007827Y009989D01*
X007808Y009989D01*
X007790Y009971D01*
X007772Y009989D01*
X007753Y009989D01*
X007735Y009971D01*
X007735Y009934D01*
X007753Y009915D01*
X007753Y009878D02*
X007827Y009878D01*
X007845Y009860D01*
X007845Y009805D01*
X007735Y009805D01*
X007735Y009860D01*
X007753Y009878D01*
X007827Y009915D02*
X007845Y009934D01*
X007845Y009971D01*
X007790Y009971D02*
X007790Y009952D01*
X008815Y009640D02*
X008815Y009530D01*
X008789Y009524D02*
X008940Y009424D01*
X008789Y009424D01*
X008789Y009377D02*
X008940Y009377D01*
X008940Y009276D02*
X008789Y009276D01*
X008789Y009229D02*
X008890Y009229D01*
X008940Y009179D01*
X008890Y009129D01*
X008789Y009129D01*
X008789Y009082D02*
X008940Y009082D01*
X008865Y009082D02*
X008865Y008982D01*
X008915Y008935D02*
X008940Y008910D01*
X008940Y008859D01*
X008915Y008834D01*
X008814Y008834D01*
X008789Y008859D01*
X008789Y008910D01*
X008814Y008935D01*
X008789Y008982D02*
X008940Y008982D01*
X008865Y009129D02*
X008865Y009229D01*
X008940Y009276D02*
X008789Y009377D01*
X008865Y009571D02*
X008865Y009621D01*
X009524Y009205D02*
X009625Y009205D01*
X008940Y008787D02*
X008789Y008787D01*
X008940Y008687D01*
X008789Y008687D01*
X008865Y008640D02*
X008865Y008540D01*
X008940Y008493D02*
X008940Y008393D01*
X008940Y008345D02*
X008940Y008245D01*
X008789Y008245D01*
X008789Y008345D01*
X008865Y008295D02*
X008865Y008245D01*
X008940Y008198D02*
X008940Y008098D01*
X008789Y008098D01*
X008814Y008051D02*
X008789Y008026D01*
X008789Y007976D01*
X008814Y007951D01*
X008814Y007903D02*
X008915Y007903D01*
X008940Y007878D01*
X008940Y007828D01*
X008915Y007803D01*
X008814Y007803D01*
X008789Y007828D01*
X008789Y007878D01*
X008814Y007903D01*
X008865Y007976D02*
X008865Y008026D01*
X008839Y008051D01*
X008814Y008051D01*
X008865Y008098D02*
X008865Y008148D01*
X008915Y008051D02*
X008940Y008026D01*
X008940Y007976D01*
X008915Y007951D01*
X008890Y007951D01*
X008865Y007976D01*
X008690Y008074D02*
X008690Y008129D01*
X008672Y008147D01*
X008635Y008147D01*
X008617Y008129D01*
X008617Y008074D01*
X008617Y008110D02*
X008580Y008147D01*
X008580Y008184D02*
X008580Y008257D01*
X008580Y008221D02*
X008690Y008221D01*
X008653Y008184D01*
X008672Y008295D02*
X008690Y008313D01*
X008690Y008350D01*
X008672Y008368D01*
X008653Y008368D01*
X008580Y008295D01*
X008580Y008368D01*
X008789Y008443D02*
X008940Y008443D01*
X009499Y008468D02*
X009650Y008468D01*
X009650Y008421D02*
X009650Y008321D01*
X009575Y008321D02*
X009575Y008371D01*
X009650Y008174D02*
X009499Y008174D01*
X009600Y007979D02*
X009650Y007929D01*
X009600Y007879D01*
X009499Y007879D01*
X009499Y007832D02*
X009650Y007832D01*
X008940Y007756D02*
X008789Y007756D01*
X008789Y007656D02*
X008940Y007656D01*
X008890Y007706D01*
X008940Y007756D01*
X008690Y008074D02*
X008580Y008074D01*
X007390Y008067D02*
X007239Y008067D01*
X007289Y008117D01*
X007239Y008167D01*
X007390Y008167D01*
X007365Y008020D02*
X007315Y008020D01*
X007289Y007995D01*
X007289Y007920D01*
X007239Y007920D02*
X007390Y007920D01*
X007390Y007995D01*
X007365Y008020D01*
X007365Y007872D02*
X007390Y007847D01*
X007390Y007797D01*
X007365Y007772D01*
X007365Y007725D02*
X007264Y007625D01*
X007239Y007650D01*
X007239Y007700D01*
X007264Y007725D01*
X007365Y007725D01*
X007390Y007700D01*
X007390Y007650D01*
X007365Y007625D01*
X007264Y007625D01*
X007264Y007578D02*
X007239Y007553D01*
X007239Y007503D01*
X007264Y007478D01*
X007365Y007578D01*
X007264Y007578D01*
X007264Y007478D02*
X007365Y007478D01*
X007390Y007503D01*
X007390Y007553D01*
X007365Y007578D01*
X007239Y007772D02*
X007340Y007872D01*
X007365Y007872D01*
X007239Y007872D02*
X007239Y007772D01*
X007147Y007997D02*
X007166Y008015D01*
X007166Y008052D01*
X007147Y008071D01*
X007074Y008071D01*
X007056Y008052D01*
X007056Y008015D01*
X007074Y007997D01*
X007147Y007997D01*
X007092Y008034D02*
X007056Y008071D01*
X007074Y008108D02*
X007056Y008126D01*
X007056Y008163D01*
X007074Y008181D01*
X007092Y008181D01*
X007111Y008163D01*
X007111Y008144D01*
X007111Y008163D02*
X007129Y008181D01*
X007147Y008181D01*
X007166Y008163D01*
X007166Y008126D01*
X007147Y008108D01*
X006346Y007670D02*
X006291Y007670D01*
X006273Y007652D01*
X006273Y007615D01*
X006291Y007597D01*
X006346Y007597D01*
X006310Y007597D02*
X006273Y007560D01*
X006236Y007560D02*
X006163Y007560D01*
X006199Y007560D02*
X006199Y007670D01*
X006236Y007633D01*
X006125Y007615D02*
X006052Y007615D01*
X006070Y007560D02*
X006070Y007670D01*
X006125Y007615D01*
X006346Y007560D02*
X006346Y007670D01*
X009499Y006848D02*
X009650Y006848D01*
X009575Y006848D02*
X009575Y006898D01*
X006492Y002895D02*
X006492Y002745D01*
X006542Y002745D02*
X006442Y002745D01*
X006395Y002770D02*
X006295Y002870D01*
X006295Y002770D01*
X006320Y002745D01*
X006370Y002745D01*
X006395Y002770D01*
X006395Y002870D01*
X006370Y002895D01*
X006320Y002895D01*
X006295Y002870D01*
X006247Y002895D02*
X006247Y002745D01*
X006247Y002795D02*
X006147Y002895D01*
X006222Y002820D02*
X006147Y002745D01*
X006492Y002895D02*
X006542Y002845D01*
X006396Y002170D02*
X006341Y002170D01*
X006323Y002152D01*
X006323Y002115D01*
X006341Y002097D01*
X006396Y002097D01*
X006359Y002097D02*
X006323Y002060D01*
X006285Y002078D02*
X006267Y002060D01*
X006230Y002060D01*
X006212Y002078D01*
X006212Y002152D01*
X006230Y002170D01*
X006267Y002170D01*
X006285Y002152D01*
X006285Y002133D01*
X006267Y002115D01*
X006212Y002115D01*
X006396Y002060D02*
X006396Y002170D01*
X008707Y002655D02*
X008782Y002730D01*
X008807Y002705D02*
X008707Y002805D01*
X008807Y002805D02*
X008807Y002655D01*
X008855Y002680D02*
X008880Y002655D01*
X008930Y002655D01*
X008955Y002680D01*
X008855Y002780D01*
X008855Y002680D01*
X008955Y002680D02*
X008955Y002780D01*
X008930Y002805D01*
X008880Y002805D01*
X008855Y002780D01*
X009002Y002655D02*
X009102Y002655D01*
X009052Y002655D02*
X009052Y002805D01*
X009102Y002755D01*
X009066Y002080D02*
X009011Y002080D01*
X008993Y002062D01*
X008993Y002025D01*
X009011Y002007D01*
X009066Y002007D01*
X009030Y002007D02*
X008993Y001970D01*
X008956Y001970D02*
X008883Y001970D01*
X008919Y001970D02*
X008919Y002080D01*
X008956Y002043D01*
X008845Y002062D02*
X008827Y002080D01*
X008790Y002080D01*
X008772Y002062D01*
X008845Y001988D01*
X008827Y001970D01*
X008790Y001970D01*
X008772Y001988D01*
X008772Y002062D01*
X008845Y002062D02*
X008845Y001988D01*
X009066Y001970D02*
X009066Y002080D01*
X003942Y002745D02*
X003842Y002745D01*
X003892Y002745D02*
X003892Y002895D01*
X003942Y002845D01*
X003795Y002870D02*
X003795Y002770D01*
X003695Y002870D01*
X003695Y002770D01*
X003720Y002745D01*
X003770Y002745D01*
X003795Y002770D01*
X003795Y002870D02*
X003770Y002895D01*
X003720Y002895D01*
X003695Y002870D01*
X003647Y002895D02*
X003647Y002745D01*
X003647Y002795D02*
X003547Y002895D01*
X003622Y002820D02*
X003547Y002745D01*
X003630Y002170D02*
X003612Y002152D01*
X003612Y002133D01*
X003630Y002115D01*
X003667Y002115D01*
X003685Y002133D01*
X003685Y002152D01*
X003667Y002170D01*
X003630Y002170D01*
X003630Y002115D02*
X003612Y002097D01*
X003612Y002078D01*
X003630Y002060D01*
X003667Y002060D01*
X003685Y002078D01*
X003685Y002097D01*
X003667Y002115D01*
X003723Y002115D02*
X003741Y002097D01*
X003796Y002097D01*
X003759Y002097D02*
X003723Y002060D01*
X003723Y002115D02*
X003723Y002152D01*
X003741Y002170D01*
X003796Y002170D01*
X003796Y002060D01*
X001890Y002035D02*
X001790Y002035D01*
X001840Y002035D02*
X001840Y002185D01*
X001890Y002135D01*
X001743Y002160D02*
X001743Y002060D01*
X001643Y002160D01*
X001643Y002060D01*
X001668Y002035D01*
X001718Y002035D01*
X001743Y002060D01*
X001743Y002160D02*
X001718Y002185D01*
X001668Y002185D01*
X001643Y002160D01*
X001595Y002185D02*
X001595Y002035D01*
X001595Y002085D02*
X001495Y002185D01*
X001570Y002110D02*
X001495Y002035D01*
X001705Y002760D02*
X001705Y002778D01*
X001631Y002852D01*
X001631Y002870D01*
X001705Y002870D01*
X001742Y002852D02*
X001760Y002870D01*
X001815Y002870D01*
X001815Y002760D01*
X001815Y002797D02*
X001760Y002797D01*
X001742Y002815D01*
X001742Y002852D01*
X001778Y002797D02*
X001742Y002760D01*
X008949Y011660D02*
X008949Y011770D01*
X009004Y011715D01*
X008931Y011715D01*
X009041Y011660D02*
X009115Y011660D01*
X009078Y011660D02*
X009078Y011770D01*
X009115Y011733D01*
X009152Y011752D02*
X009170Y011770D01*
X009207Y011770D01*
X009225Y011752D01*
X009225Y011678D01*
X009207Y011660D01*
X009170Y011660D01*
X009152Y011678D01*
X023925Y008870D02*
X023943Y008888D01*
X024017Y008888D01*
X024035Y008870D01*
X024035Y008833D01*
X024017Y008815D01*
X023998Y008815D01*
X023980Y008833D01*
X023980Y008888D01*
X023925Y008870D02*
X023925Y008833D01*
X023943Y008815D01*
X023943Y008777D02*
X024017Y008777D01*
X024035Y008759D01*
X024035Y008704D01*
X023925Y008704D01*
X023925Y008759D01*
X023943Y008777D01*
X024495Y009220D02*
X024495Y009320D01*
X024495Y009367D02*
X024495Y009392D01*
X024520Y009392D01*
X024520Y009367D01*
X024495Y009367D01*
X024520Y009441D02*
X024495Y009466D01*
X024495Y009516D01*
X024520Y009541D01*
X024570Y009541D01*
X024595Y009516D01*
X024595Y009491D01*
X024570Y009441D01*
X024645Y009441D01*
X024645Y009541D01*
X024645Y009588D02*
X024495Y009588D01*
X024545Y009588D02*
X024645Y009688D01*
X024570Y009613D02*
X024495Y009688D01*
X024495Y009270D02*
X024645Y009270D01*
X024595Y009220D01*
X025220Y009295D02*
X025330Y009295D01*
X025330Y009350D01*
X025312Y009368D01*
X025275Y009368D01*
X025257Y009350D01*
X025257Y009295D01*
X025257Y009332D02*
X025220Y009368D01*
X025275Y009405D02*
X025275Y009479D01*
X025290Y009457D02*
X025290Y009557D01*
X025365Y009507D02*
X025365Y009457D01*
X025330Y009461D02*
X025275Y009405D01*
X025290Y009385D02*
X025315Y009410D01*
X025440Y009410D01*
X025440Y009457D02*
X025290Y009457D01*
X025330Y009461D02*
X025220Y009461D01*
X025290Y009385D02*
X025290Y009335D01*
X025315Y009310D01*
X025440Y009310D01*
X025440Y009457D02*
X025440Y009557D01*
X025290Y009262D02*
X025290Y009162D01*
X025440Y009162D01*
X025415Y009115D02*
X025390Y009115D01*
X025365Y009090D01*
X025365Y009015D01*
X025290Y009015D02*
X025440Y009015D01*
X025440Y009090D01*
X025415Y009115D01*
X025365Y009090D02*
X025340Y009115D01*
X025315Y009115D01*
X025290Y009090D01*
X025290Y009015D01*
X025310Y008447D02*
X025310Y008347D01*
X025460Y008347D01*
X025460Y008447D01*
X025385Y008397D02*
X025385Y008347D01*
X025335Y008300D02*
X025460Y008300D01*
X025460Y008200D02*
X025335Y008200D01*
X025310Y008225D01*
X025310Y008275D01*
X025335Y008300D01*
X025310Y008152D02*
X025310Y008052D01*
X025460Y008052D01*
X025435Y008005D02*
X025410Y008005D01*
X025385Y007980D01*
X025385Y007905D01*
X025310Y007905D02*
X025460Y007905D01*
X025460Y007980D01*
X025435Y008005D01*
X025385Y007980D02*
X025360Y008005D01*
X025335Y008005D01*
X025310Y007980D01*
X025310Y007905D01*
X025290Y007911D02*
X025272Y007929D01*
X025253Y007929D01*
X025235Y007911D01*
X025217Y007929D01*
X025198Y007929D01*
X025180Y007911D01*
X025180Y007874D01*
X025198Y007855D01*
X025180Y007818D02*
X025217Y007782D01*
X025217Y007800D02*
X025217Y007745D01*
X025180Y007745D02*
X025290Y007745D01*
X025290Y007800D01*
X025272Y007818D01*
X025235Y007818D01*
X025217Y007800D01*
X025272Y007855D02*
X025290Y007874D01*
X025290Y007911D01*
X025235Y007911D02*
X025235Y007892D01*
X024605Y007891D02*
X024530Y007891D01*
X024555Y007941D01*
X024555Y007966D01*
X024530Y007991D01*
X024480Y007991D01*
X024455Y007966D01*
X024455Y007916D01*
X024480Y007891D01*
X024480Y007842D02*
X024455Y007842D01*
X024455Y007817D01*
X024480Y007817D01*
X024480Y007842D01*
X024455Y007770D02*
X024455Y007670D01*
X024455Y007720D02*
X024605Y007720D01*
X024555Y007670D01*
X024605Y007891D02*
X024605Y007991D01*
X024605Y008038D02*
X024455Y008038D01*
X024505Y008038D02*
X024605Y008138D01*
X024530Y008063D02*
X024455Y008138D01*
X026010Y008139D02*
X026010Y008065D01*
X026083Y008139D01*
X026102Y008139D01*
X026120Y008121D01*
X026120Y008084D01*
X026102Y008065D01*
X026102Y008028D02*
X026120Y008010D01*
X026120Y007955D01*
X026010Y007955D01*
X026010Y008010D01*
X026028Y008028D01*
X026102Y008028D01*
X026100Y009065D02*
X026100Y009120D01*
X026082Y009138D01*
X026008Y009138D01*
X025990Y009120D01*
X025990Y009065D01*
X026100Y009065D01*
X026063Y009175D02*
X026100Y009212D01*
X025990Y009212D01*
X025990Y009175D02*
X025990Y009249D01*
X025320Y013600D02*
X025345Y013625D01*
X025345Y013675D01*
X025320Y013700D01*
X025220Y013600D01*
X025195Y013625D01*
X025195Y013675D01*
X025220Y013700D01*
X025320Y013700D01*
X025320Y013600D02*
X025220Y013600D01*
X025220Y013747D02*
X025220Y013772D01*
X025195Y013772D01*
X025195Y013747D01*
X025220Y013747D01*
X025195Y013821D02*
X025195Y013921D01*
X025195Y013871D02*
X025345Y013871D01*
X025295Y013821D01*
X025295Y013968D02*
X025220Y013968D01*
X025195Y013993D01*
X025195Y014068D01*
X025295Y014068D01*
X025270Y014116D02*
X025270Y014166D01*
X025345Y014116D02*
X025345Y014216D01*
X025345Y014116D02*
X025195Y014116D01*
X025920Y013896D02*
X025938Y013896D01*
X026012Y013969D01*
X026030Y013969D01*
X026030Y013896D01*
X026012Y013859D02*
X026030Y013841D01*
X026030Y013804D01*
X026012Y013785D01*
X026012Y013748D02*
X026030Y013730D01*
X026030Y013693D01*
X026012Y013675D01*
X025938Y013675D01*
X025920Y013693D01*
X025920Y013730D01*
X025938Y013748D01*
X025920Y013785D02*
X025993Y013859D01*
X026012Y013859D01*
X025920Y013859D02*
X025920Y013785D01*
X025453Y003208D02*
X025453Y003134D01*
X025453Y003171D02*
X025563Y003171D01*
X025526Y003134D01*
X025508Y003097D02*
X025489Y003079D01*
X025489Y003024D01*
X025453Y003024D02*
X025563Y003024D01*
X025563Y003079D01*
X025545Y003097D01*
X025508Y003097D01*
X025563Y002987D02*
X025563Y002950D01*
X025563Y002968D02*
X025471Y002968D01*
X025453Y002950D01*
X025453Y002932D01*
X025471Y002913D01*
X023875Y002943D02*
X023875Y002843D01*
X023725Y002843D01*
X023725Y002795D02*
X023825Y002795D01*
X023800Y002843D02*
X023800Y002893D01*
X023725Y002795D02*
X023725Y002720D01*
X023750Y002695D01*
X023825Y002695D01*
X023875Y002598D02*
X023725Y002598D01*
X023725Y002548D02*
X023725Y002648D01*
X023825Y002548D02*
X023875Y002598D01*
X023750Y002499D02*
X023725Y002499D01*
X023725Y002474D01*
X023750Y002474D01*
X023750Y002499D01*
X023750Y002427D02*
X023725Y002402D01*
X023725Y002352D01*
X023750Y002327D01*
X023850Y002427D01*
X023750Y002427D01*
X023750Y002327D02*
X023850Y002327D01*
X023875Y002352D01*
X023875Y002402D01*
X023850Y002427D01*
X023150Y002712D02*
X023132Y002694D01*
X023058Y002694D01*
X023040Y002712D01*
X023040Y002749D01*
X023058Y002767D01*
X023040Y002805D02*
X023040Y002878D01*
X023040Y002841D02*
X023150Y002841D01*
X023113Y002805D01*
X023132Y002767D02*
X023150Y002749D01*
X023150Y002712D01*
X021206Y001652D02*
X021206Y001578D01*
X021188Y001560D01*
X021151Y001560D01*
X021133Y001578D01*
X021096Y001560D02*
X021023Y001633D01*
X021023Y001652D01*
X021041Y001670D01*
X021078Y001670D01*
X021096Y001652D01*
X021133Y001652D02*
X021151Y001670D01*
X021188Y001670D01*
X021206Y001652D01*
X021096Y001560D02*
X021023Y001560D01*
X020985Y001578D02*
X020967Y001560D01*
X020930Y001560D01*
X020912Y001578D01*
X020912Y001597D01*
X020930Y001615D01*
X020985Y001615D01*
X020985Y001578D01*
X020985Y001615D02*
X020949Y001652D01*
X020912Y001670D01*
D14*
X026390Y001805D02*
X026670Y001805D01*
X026577Y001898D01*
X026670Y001991D01*
X026390Y001991D01*
X026390Y002081D02*
X026390Y002174D01*
X026390Y002128D02*
X026670Y002128D01*
X026670Y002174D02*
X026670Y002081D01*
X026624Y002265D02*
X026437Y002265D01*
X026390Y002312D01*
X026390Y002405D01*
X026437Y002452D01*
X026483Y002541D02*
X026483Y002681D01*
X026530Y002728D01*
X026624Y002728D01*
X026670Y002681D01*
X026670Y002541D01*
X026390Y002541D01*
X026483Y002635D02*
X026390Y002728D01*
X026437Y002818D02*
X026390Y002864D01*
X026390Y002958D01*
X026437Y003004D01*
X026624Y003004D01*
X026670Y002958D01*
X026670Y002864D01*
X026624Y002818D01*
X026437Y002818D01*
X026390Y003094D02*
X026390Y003234D01*
X026437Y003281D01*
X026483Y003281D01*
X026530Y003234D01*
X026530Y003094D01*
X026530Y003234D02*
X026577Y003281D01*
X026624Y003281D01*
X026670Y003234D01*
X026670Y003094D01*
X026390Y003094D01*
X026624Y002452D02*
X026670Y002405D01*
X026670Y002312D01*
X026624Y002265D01*
X026530Y001715D02*
X026530Y001528D01*
X026483Y001439D02*
X026437Y001439D01*
X026390Y001392D01*
X026390Y001252D01*
X026670Y001252D01*
X026670Y001392D01*
X026624Y001439D01*
X026577Y001439D01*
X026530Y001392D01*
X026530Y001252D01*
X026483Y001163D02*
X026437Y001163D01*
X026390Y001116D01*
X026390Y001023D01*
X026437Y000976D01*
X026437Y000887D02*
X026670Y000887D01*
X026624Y000976D02*
X026577Y000976D01*
X026530Y001023D01*
X026530Y001116D01*
X026483Y001163D01*
X026624Y001163D02*
X026670Y001116D01*
X026670Y001023D01*
X026624Y000976D01*
X026437Y000887D02*
X026390Y000840D01*
X026390Y000746D01*
X026437Y000700D01*
X026670Y000700D01*
X026530Y001392D02*
X026483Y001439D01*
D15*
X023442Y002560D02*
X023418Y002560D01*
X021230Y001962D02*
X021230Y001938D01*
X008880Y011368D02*
X008880Y011392D01*
X025628Y014020D02*
X025652Y014020D01*
D16*
X024940Y009640D03*
X024900Y008090D03*
X008970Y008050D03*
D17*
X008470Y009250D03*
X006370Y007950D03*
X006530Y002450D03*
X009090Y002360D03*
X003930Y002450D03*
X001470Y002480D03*
D18*
X006920Y009990D02*
X007240Y009990D01*
X007240Y010210D01*
X007240Y010890D02*
X007240Y011110D01*
X006920Y011110D01*
D19*
X006210Y011048D02*
X006210Y010741D01*
X006210Y010894D02*
X005750Y010894D01*
X005750Y010587D02*
X006057Y010587D01*
X006210Y010434D01*
X006057Y010280D01*
X005750Y010280D01*
X005827Y010127D02*
X005750Y010050D01*
X005750Y009820D01*
X006210Y009820D01*
X006210Y010050D01*
X006134Y010127D01*
X006057Y010127D01*
X005980Y010050D01*
X005980Y009820D01*
X005980Y010050D02*
X005903Y010127D01*
X005827Y010127D01*
X005980Y010280D02*
X005980Y010587D01*
X005980Y011201D02*
X006057Y011355D01*
X006057Y011431D01*
X005980Y011508D01*
X005827Y011508D01*
X005750Y011431D01*
X005750Y011278D01*
X005827Y011201D01*
X005980Y011201D02*
X006210Y011201D01*
X006210Y011508D01*
X005980Y011662D02*
X005980Y011968D01*
X006057Y012122D02*
X005980Y012199D01*
X005980Y012352D01*
X005903Y012429D01*
X005827Y012429D01*
X005750Y012352D01*
X005750Y012199D01*
X005827Y012122D01*
X006057Y012122D02*
X006134Y012122D01*
X006210Y012199D01*
X006210Y012352D01*
X006134Y012429D01*
X006210Y011892D02*
X005750Y011892D01*
X005980Y011662D02*
X006210Y011892D01*
X024103Y008862D02*
X024103Y008398D01*
X024417Y008398D02*
X024417Y008862D01*
D20*
X024263Y008660D03*
M02*
