G75*
%MOIN*%
%OFA0B0*%
%FSLAX24Y24*%
%IPPOS*%
%LPD*%
%AMOC8*
5,1,8,0,0,1.08239X$1,22.5*
%
%ADD10R,0.0090X0.0400*%
%ADD11R,0.0120X0.0400*%
%ADD12R,0.0400X0.0090*%
%ADD13R,0.0400X0.0120*%
%ADD14C,0.0050*%
%ADD15R,0.0394X0.0098*%
%ADD16R,0.0098X0.0394*%
%ADD17C,0.0290*%
%ADD18R,0.0354X0.0276*%
%ADD19R,0.0276X0.0354*%
%ADD20R,0.0315X0.0492*%
%ADD21R,0.0354X0.0354*%
%ADD22R,0.0394X0.0551*%
%ADD23R,0.0276X0.0276*%
%ADD24R,0.0079X0.0236*%
%ADD25R,0.0984X0.0984*%
%ADD26C,0.0740*%
%ADD27R,0.0315X0.0315*%
%ADD28C,0.0500*%
%ADD29C,0.0100*%
%ADD30C,0.0060*%
D10*
X013115Y002200D03*
X016068Y002200D03*
X016068Y005743D03*
X013115Y005743D03*
D11*
X013312Y005743D03*
X013509Y005743D03*
X013706Y005743D03*
X013903Y005743D03*
X014100Y005743D03*
X014296Y005743D03*
X014493Y005743D03*
X014690Y005743D03*
X014887Y005743D03*
X015084Y005743D03*
X015281Y005743D03*
X015477Y005743D03*
X015674Y005743D03*
X015871Y005743D03*
X015871Y002200D03*
X015674Y002200D03*
X015477Y002200D03*
X015281Y002200D03*
X015084Y002200D03*
X014887Y002200D03*
X014690Y002200D03*
X014493Y002200D03*
X014296Y002200D03*
X014100Y002200D03*
X013903Y002200D03*
X013706Y002200D03*
X013509Y002200D03*
X013312Y002200D03*
D12*
X012820Y002495D03*
X016363Y002495D03*
X016363Y005448D03*
X012820Y005448D03*
D13*
X012820Y005251D03*
X012820Y005054D03*
X012820Y004857D03*
X012820Y004661D03*
X012820Y004464D03*
X012820Y004267D03*
X012820Y004070D03*
X012820Y003873D03*
X012820Y003676D03*
X012820Y003480D03*
X012820Y003283D03*
X012820Y003086D03*
X012820Y002889D03*
X012820Y002692D03*
X016363Y002692D03*
X016363Y002889D03*
X016363Y003086D03*
X016363Y003283D03*
X016363Y003480D03*
X016363Y003676D03*
X016363Y003873D03*
X016363Y004070D03*
X016363Y004267D03*
X016363Y004464D03*
X016363Y004661D03*
X016363Y004857D03*
X016363Y005054D03*
X016363Y005251D03*
D14*
X015773Y005153D02*
X013804Y005153D01*
X013411Y004759D01*
X013411Y002791D01*
X015773Y002791D01*
X015773Y005153D01*
X015773Y005136D02*
X013788Y005136D01*
X013739Y005088D02*
X015773Y005088D01*
X015773Y005039D02*
X013691Y005039D01*
X013642Y004991D02*
X015773Y004991D01*
X015773Y004942D02*
X013594Y004942D01*
X013545Y004894D02*
X015773Y004894D01*
X015773Y004845D02*
X013497Y004845D01*
X013448Y004797D02*
X015773Y004797D01*
X015773Y004748D02*
X013411Y004748D01*
X013411Y004700D02*
X015773Y004700D01*
X015773Y004651D02*
X013411Y004651D01*
X013411Y004603D02*
X015773Y004603D01*
X015773Y004554D02*
X013411Y004554D01*
X013411Y004506D02*
X015773Y004506D01*
X015773Y004457D02*
X013411Y004457D01*
X013411Y004409D02*
X015773Y004409D01*
X015773Y004360D02*
X013411Y004360D01*
X013411Y004312D02*
X015773Y004312D01*
X015773Y004263D02*
X013411Y004263D01*
X013411Y004215D02*
X015773Y004215D01*
X015773Y004166D02*
X013411Y004166D01*
X013411Y004118D02*
X015773Y004118D01*
X015773Y004069D02*
X013411Y004069D01*
X013411Y004021D02*
X015773Y004021D01*
X015773Y003972D02*
X013411Y003972D01*
X013411Y003924D02*
X015773Y003924D01*
X015773Y003875D02*
X013411Y003875D01*
X013411Y003827D02*
X015773Y003827D01*
X015773Y003778D02*
X013411Y003778D01*
X013411Y003730D02*
X015773Y003730D01*
X015773Y003681D02*
X013411Y003681D01*
X013411Y003633D02*
X015773Y003633D01*
X015773Y003584D02*
X013411Y003584D01*
X013411Y003536D02*
X015773Y003536D01*
X015773Y003487D02*
X013411Y003487D01*
X013411Y003439D02*
X015773Y003439D01*
X015773Y003390D02*
X013411Y003390D01*
X013411Y003342D02*
X015773Y003342D01*
X015773Y003293D02*
X013411Y003293D01*
X013411Y003245D02*
X015773Y003245D01*
X015773Y003196D02*
X013411Y003196D01*
X013411Y003148D02*
X015773Y003148D01*
X015773Y003099D02*
X013411Y003099D01*
X013411Y003051D02*
X015773Y003051D01*
X015773Y003002D02*
X013411Y003002D01*
X013411Y002954D02*
X015773Y002954D01*
X015773Y002905D02*
X013411Y002905D01*
X013411Y002857D02*
X015773Y002857D01*
X015773Y002808D02*
X013411Y002808D01*
X018935Y011735D02*
X020136Y011735D01*
X020136Y011985D01*
X020619Y011985D01*
X020619Y012293D01*
X020136Y012293D01*
X020136Y012543D01*
X018935Y012543D01*
X018935Y012293D01*
X018453Y012293D01*
X018453Y011985D01*
X018935Y011985D01*
X018935Y011735D01*
X018935Y011781D02*
X020136Y011781D01*
X020136Y011829D02*
X018935Y011829D01*
X018935Y011878D02*
X020136Y011878D01*
X020136Y011926D02*
X018935Y011926D01*
X018935Y011975D02*
X020136Y011975D01*
X020136Y012314D02*
X018935Y012314D01*
X018935Y012363D02*
X020136Y012363D01*
X020136Y012411D02*
X018935Y012411D01*
X018935Y012460D02*
X020136Y012460D01*
X020136Y012508D02*
X018935Y012508D01*
X018453Y012266D02*
X020619Y012266D01*
X020619Y012217D02*
X018453Y012217D01*
X018453Y012169D02*
X020619Y012169D01*
X020619Y012120D02*
X018453Y012120D01*
X018453Y012072D02*
X020619Y012072D01*
X020619Y012023D02*
X018453Y012023D01*
D15*
X018650Y011844D03*
X018650Y012434D03*
X020422Y012434D03*
X020422Y011844D03*
D16*
X020205Y011450D03*
X020008Y011450D03*
X019811Y011450D03*
X019615Y011450D03*
X019418Y011450D03*
X019221Y011450D03*
X019024Y011450D03*
X018827Y011450D03*
X018827Y012828D03*
X019024Y012828D03*
X019221Y012828D03*
X019418Y012828D03*
X019615Y012828D03*
X019811Y012828D03*
X020008Y012828D03*
X020205Y012828D03*
D17*
X019949Y012356D03*
X019516Y012356D03*
X019122Y012356D03*
X019122Y011922D03*
X019556Y011922D03*
X019949Y011922D03*
X018570Y011570D03*
X018320Y011080D03*
X018840Y010860D03*
X019480Y010660D03*
X019780Y011040D03*
X020240Y010780D03*
X021120Y010780D03*
X022150Y010660D03*
X022820Y011050D03*
X022440Y011180D03*
X023060Y010790D03*
X023300Y011050D03*
X023530Y010660D03*
X023820Y011050D03*
X024690Y010610D03*
X023830Y009830D03*
X023880Y009350D03*
X023553Y009048D03*
X023238Y009048D03*
X022923Y009048D03*
X022923Y008418D03*
X023238Y008418D03*
X023553Y008418D03*
X022150Y007820D03*
X023560Y007580D03*
X022840Y006800D03*
X023800Y006610D03*
X023780Y006250D03*
X023300Y005990D03*
X022420Y005560D03*
X021840Y005460D03*
X022560Y005080D03*
X021710Y004720D03*
X021920Y004430D03*
X021680Y003850D03*
X019520Y002720D03*
X020310Y002360D03*
X018290Y003530D03*
X017720Y003670D03*
X016860Y004140D03*
X017240Y005140D03*
X017590Y005490D03*
X017830Y005220D03*
X018650Y005310D03*
X019960Y005970D03*
X020040Y006760D03*
X019220Y007120D03*
X019570Y007600D03*
X019540Y007950D03*
X019990Y008670D03*
X020600Y008630D03*
X021120Y009350D03*
X022580Y009570D03*
X025580Y007640D03*
X018960Y009080D03*
X016670Y008790D03*
X016400Y007960D03*
X017370Y007130D03*
X017590Y006570D03*
X017240Y006440D03*
X016910Y005810D03*
X016560Y005810D03*
X016020Y006320D03*
X015000Y006390D03*
X014700Y006150D03*
X012820Y006630D03*
X011090Y006730D03*
X010200Y006810D03*
X009260Y006810D03*
X008100Y007170D03*
X009550Y007800D03*
X009780Y008380D03*
X009070Y009350D03*
X008220Y008370D03*
X006780Y009330D03*
X007030Y010170D03*
X006060Y010920D03*
X004910Y010760D03*
X004910Y011200D03*
X004910Y011760D03*
X005020Y012530D03*
X004560Y012650D03*
X003660Y012410D03*
X002890Y011980D03*
X003460Y011510D03*
X003320Y011030D03*
X003490Y010520D03*
X003330Y010180D03*
X003590Y009760D03*
X003350Y009200D03*
X003090Y008960D03*
X003380Y008720D03*
X003040Y007990D03*
X001910Y008490D03*
X001670Y008230D03*
X001410Y007990D03*
X001770Y007750D03*
X002890Y006920D03*
X003710Y007180D03*
X003710Y006460D03*
X003460Y005800D03*
X001910Y006560D03*
X004910Y007040D03*
X004910Y007560D03*
X004910Y008040D03*
X006370Y007560D03*
X006630Y006040D03*
X006700Y005430D03*
X005450Y006080D03*
X005910Y003570D03*
X005360Y002570D03*
X004770Y001700D03*
X003910Y000950D03*
X002630Y002230D03*
X001210Y002040D03*
X004110Y003570D03*
X007540Y003180D03*
X007820Y002960D03*
X008410Y002250D03*
X008170Y001700D03*
X008170Y001220D03*
X007320Y001700D03*
X009850Y001940D03*
X011460Y002640D03*
X012320Y002690D03*
X012410Y003290D03*
X012410Y003690D03*
X012160Y004020D03*
X011380Y003840D03*
X011390Y004270D03*
X012400Y004710D03*
X011330Y004850D03*
X010190Y004270D03*
X012950Y001700D03*
X014370Y001540D03*
X014360Y001190D03*
X014960Y001450D03*
X015300Y001790D03*
X015900Y001550D03*
X016320Y001890D03*
X016320Y002240D03*
X024870Y002630D03*
X018610Y007590D03*
X014850Y009170D03*
X013140Y007960D03*
X011800Y008580D03*
X008480Y010600D03*
X009140Y010950D03*
X007980Y011620D03*
X007720Y010960D03*
X006440Y011810D03*
X007100Y013290D03*
X009220Y012880D03*
X010020Y013890D03*
X011230Y011810D03*
X012120Y011560D03*
X017650Y012950D03*
X018220Y012610D03*
X018570Y012690D03*
X018480Y013040D03*
X018790Y013230D03*
X019460Y013250D03*
X020930Y013160D03*
X022180Y012080D03*
X021440Y011710D03*
X022700Y013710D03*
X022990Y014450D03*
X025030Y013770D03*
X018780Y014290D03*
X005260Y009570D03*
X004910Y009450D03*
X004880Y008960D03*
X001660Y010650D03*
X001670Y011000D03*
X001680Y011350D03*
X001470Y012560D03*
X001910Y013080D03*
D18*
X000940Y013076D03*
X000940Y012564D03*
X001120Y011346D03*
X001120Y010834D03*
X008570Y013394D03*
X008570Y013906D03*
X009610Y013356D03*
X009610Y012844D03*
X018500Y010186D03*
X019250Y010236D03*
X019250Y009724D03*
X018500Y009674D03*
X021450Y008726D03*
X021950Y008726D03*
X021950Y008214D03*
X021450Y008214D03*
X021410Y006456D03*
X020910Y006456D03*
X020350Y006456D03*
X020350Y005944D03*
X020910Y005944D03*
X021410Y005944D03*
X021930Y005944D03*
X022430Y005944D03*
X022910Y005944D03*
X022910Y006456D03*
X022430Y006456D03*
X021930Y006456D03*
X017330Y004396D03*
X017330Y003884D03*
X011770Y003836D03*
X011770Y003324D03*
X011850Y002416D03*
X011850Y001904D03*
X006030Y005324D03*
X006030Y005836D03*
D19*
X004566Y006560D03*
X004054Y006560D03*
X004054Y007060D03*
X004566Y007060D03*
X004566Y007560D03*
X004054Y007560D03*
X004054Y008060D03*
X004566Y008060D03*
X004566Y008660D03*
X004054Y008660D03*
X004054Y009260D03*
X004566Y009260D03*
X004566Y009760D03*
X004054Y009760D03*
X004054Y010260D03*
X004566Y010260D03*
X004566Y010760D03*
X004054Y010760D03*
X004054Y011260D03*
X004566Y011260D03*
X004566Y011760D03*
X004054Y011760D03*
X004054Y012260D03*
X004566Y012260D03*
X004566Y013160D03*
X004054Y013160D03*
X006964Y012880D03*
X007476Y012880D03*
X007296Y012080D03*
X006784Y012080D03*
X006626Y007210D03*
X006114Y007210D03*
X004206Y003180D03*
X003694Y003180D03*
X001736Y003210D03*
X001224Y003210D03*
X006354Y003130D03*
X006866Y003130D03*
X008854Y003180D03*
X009366Y003180D03*
X018874Y008690D03*
X019386Y008690D03*
X022894Y010140D03*
X023406Y010140D03*
X021996Y013810D03*
X021484Y013810D03*
X018936Y013760D03*
X018424Y013760D03*
D20*
X009506Y001580D03*
X009053Y001580D03*
X008600Y001580D03*
X006956Y001580D03*
X006503Y001580D03*
X006050Y001580D03*
X004406Y001580D03*
X003953Y001580D03*
X003500Y001580D03*
X001856Y001580D03*
X001403Y001580D03*
X000950Y001580D03*
D21*
X000478Y000674D03*
X002328Y000674D03*
X003028Y000674D03*
X004878Y000674D03*
X005578Y000674D03*
X007428Y000674D03*
X008128Y000674D03*
X009978Y000674D03*
D22*
X008050Y004577D03*
X007676Y005443D03*
X008424Y005443D03*
X009206Y005497D03*
X009954Y005497D03*
X009580Y006363D03*
X011026Y010457D03*
X011774Y010457D03*
X011400Y011323D03*
D23*
X006646Y009674D03*
X006134Y009674D03*
X006390Y008946D03*
D24*
X022844Y009520D03*
X023001Y009520D03*
X023159Y009520D03*
X023316Y009520D03*
X023474Y009520D03*
X023631Y009520D03*
X023631Y007945D03*
X023474Y007945D03*
X023316Y007945D03*
X023159Y007945D03*
X023001Y007945D03*
X022844Y007945D03*
D25*
X023218Y008733D03*
D26*
X025340Y006610D03*
X025340Y005610D03*
X022220Y001020D03*
X021220Y001020D03*
X020220Y001020D03*
D27*
X009365Y002400D03*
X008775Y002400D03*
X006865Y002510D03*
X006275Y002510D03*
X004285Y002430D03*
X003695Y002430D03*
X001715Y002460D03*
X001125Y002460D03*
D28*
X003460Y004940D03*
X004350Y005030D03*
X004680Y005770D03*
X007880Y006460D03*
X010540Y007120D03*
X011460Y007620D03*
X013300Y008550D03*
X012250Y008880D03*
X014450Y007310D03*
X010730Y005970D03*
X010680Y004760D03*
X009730Y004300D03*
X010860Y003920D03*
X013340Y001210D03*
X020160Y005170D03*
X020900Y005140D03*
X021510Y005130D03*
X022100Y005070D03*
X022450Y004430D03*
X020140Y009250D03*
X021670Y009400D03*
X021900Y011710D03*
X022760Y011650D03*
X012910Y012520D03*
X012120Y012540D03*
X011360Y012550D03*
X000970Y006560D03*
D29*
X003710Y007180D02*
X004020Y006870D01*
X004060Y006870D01*
X004060Y007060D01*
X004054Y007060D01*
X004060Y007100D01*
X004060Y007520D01*
X004054Y007560D01*
X004060Y007560D01*
X004060Y008020D01*
X004054Y008060D01*
X004060Y008060D01*
X004350Y008350D01*
X004730Y008350D01*
X006050Y009670D01*
X006130Y009670D01*
X006134Y009674D01*
X006020Y009710D01*
X006020Y010920D01*
X006060Y010920D01*
X006020Y010920D02*
X006020Y012180D01*
X004750Y013450D01*
X003870Y013450D01*
X003530Y013110D01*
X001950Y013110D01*
X001910Y013080D01*
X000940Y013080D01*
X000940Y013076D01*
X007296Y012080D02*
X007720Y012080D01*
X007720Y010960D01*
X007720Y012080D02*
X008850Y012080D01*
X009610Y012840D01*
X009610Y012844D01*
X011774Y010457D02*
X011770Y010450D01*
X011770Y009090D01*
X009940Y007260D01*
X009940Y005540D01*
X009954Y005497D01*
X009960Y005490D01*
X009960Y004970D01*
X010530Y004400D01*
X010650Y004400D01*
X010650Y004360D01*
X010230Y003940D01*
X009640Y003940D01*
X008900Y003200D01*
X008854Y003180D01*
X008850Y003180D01*
X008590Y003440D01*
X006700Y003440D01*
X006390Y003130D01*
X006354Y003130D01*
X006320Y003160D01*
X005910Y003570D01*
X004110Y003570D02*
X003740Y003200D01*
X003694Y003180D01*
X003690Y003180D01*
X003430Y002920D01*
X001550Y002920D01*
X001260Y003210D01*
X001224Y003210D01*
X001650Y001940D02*
X003700Y001940D01*
X003715Y001925D01*
X003750Y001960D01*
X005620Y001960D01*
X005620Y005290D01*
X005630Y005330D01*
X004690Y006270D01*
X004350Y006270D01*
X004060Y006560D01*
X004054Y006560D01*
X004060Y006600D01*
X004060Y006870D01*
X005630Y005330D02*
X006030Y005330D01*
X006030Y005324D01*
X010650Y004400D02*
X010890Y004400D01*
X011415Y003875D01*
X011380Y003840D01*
X011415Y003875D02*
X011450Y003840D01*
X011770Y003840D01*
X011770Y003836D01*
X012070Y003350D02*
X012410Y003690D01*
X012590Y003470D02*
X012820Y003470D01*
X012820Y003480D01*
X012590Y003470D02*
X012410Y003290D01*
X012070Y003350D02*
X011810Y003350D01*
X011770Y003324D01*
X011770Y002950D01*
X012430Y002950D01*
X012490Y002890D01*
X012820Y002890D01*
X012820Y002889D01*
X012820Y002692D02*
X012820Y002690D01*
X012320Y002690D01*
X012490Y002490D02*
X012430Y002430D01*
X011890Y002430D01*
X011850Y002416D01*
X011730Y002470D01*
X011660Y002470D01*
X011390Y002200D01*
X009640Y002200D01*
X009380Y001940D01*
X008870Y001940D01*
X008835Y001905D01*
X009050Y001690D01*
X009050Y001580D01*
X009053Y001580D01*
X008835Y001905D02*
X008780Y001960D01*
X006300Y001960D01*
X006265Y001925D01*
X006500Y001690D01*
X006500Y001580D01*
X006503Y001580D01*
X006265Y001925D02*
X006230Y001960D01*
X005620Y001960D01*
X003950Y001690D02*
X003950Y001580D01*
X003953Y001580D01*
X003950Y001690D02*
X003715Y001925D01*
X001650Y001940D02*
X001410Y001700D01*
X001410Y001580D01*
X001403Y001580D01*
X011770Y002500D02*
X011850Y002420D01*
X011850Y002416D01*
X011770Y002500D02*
X011770Y002950D01*
X012490Y002490D02*
X012820Y002490D01*
X012820Y002495D01*
X016363Y003676D02*
X016370Y003680D01*
X016620Y003680D01*
X016820Y003880D01*
X017330Y003880D01*
X017330Y003884D01*
X017370Y003910D01*
X017590Y003910D01*
X018730Y005050D01*
X018760Y005050D01*
X019700Y005990D01*
X019700Y006080D01*
X019850Y006230D01*
X020100Y006230D01*
X020130Y006200D01*
X022160Y006200D01*
X022390Y006430D01*
X022430Y006456D01*
X022430Y006460D01*
X022910Y006460D01*
X022910Y006456D01*
X023070Y006590D01*
X024050Y005610D01*
X025340Y005610D01*
X023100Y006690D02*
X022940Y006530D01*
X022940Y006500D01*
X022910Y006456D01*
X023100Y006690D02*
X023100Y007950D01*
X023010Y007950D01*
X023001Y007945D01*
X023000Y008000D01*
X023000Y008220D01*
X021990Y008220D01*
X021950Y008214D01*
X021950Y008220D01*
X021450Y008220D01*
X021450Y008214D01*
X021410Y008210D01*
X018870Y008210D01*
X018870Y007480D01*
X017450Y006060D01*
X017080Y006060D01*
X017070Y006070D01*
X016450Y006070D01*
X016390Y006010D01*
X016100Y006010D01*
X016060Y005980D01*
X016060Y005750D01*
X016068Y005743D01*
X016060Y005980D02*
X015980Y006060D01*
X014780Y006060D01*
X014750Y006100D01*
X014700Y006150D01*
X014780Y006060D02*
X014700Y005980D01*
X014700Y005750D01*
X014690Y005743D01*
X016855Y004145D02*
X017100Y004390D01*
X017330Y004390D01*
X017330Y004396D01*
X017370Y004420D01*
X017690Y004420D01*
X018615Y005345D01*
X018650Y005310D01*
X018615Y005345D02*
X020000Y006730D01*
X020040Y006760D01*
X020310Y006490D01*
X020350Y006456D01*
X020350Y006460D01*
X020910Y006460D01*
X020910Y006456D01*
X020950Y006460D01*
X021410Y006460D01*
X021410Y006456D01*
X021450Y006460D01*
X021930Y006460D01*
X021930Y006456D01*
X023100Y007950D02*
X023150Y007950D01*
X023159Y007945D01*
X023000Y008220D02*
X023000Y008340D01*
X022930Y008410D01*
X023218Y008733D01*
X023550Y009050D01*
X023553Y009048D01*
X023560Y009050D02*
X023218Y008733D01*
X023360Y008920D01*
X023240Y009040D01*
X023238Y009048D01*
X023560Y009050D02*
X023950Y009050D01*
X024140Y009240D01*
X024140Y009890D01*
X023890Y010140D01*
X023406Y010140D01*
X023530Y010180D01*
X023530Y010660D01*
X022440Y011180D02*
X021150Y011180D01*
X020860Y010890D01*
X020860Y008520D01*
X020710Y008370D01*
X019230Y008370D01*
X019130Y008470D01*
X019130Y008920D01*
X019000Y009050D01*
X018960Y009080D01*
X018960Y010190D01*
X018500Y010190D01*
X018500Y010186D01*
X018210Y009990D02*
X018480Y009720D01*
X018500Y009674D01*
X018500Y009060D01*
X018870Y008690D01*
X018874Y008690D01*
X018870Y008650D01*
X018870Y008210D01*
X018210Y009990D02*
X018210Y010600D01*
X018690Y011080D01*
X018310Y011460D01*
X018310Y012350D01*
X018390Y012430D01*
X018360Y012470D01*
X018220Y012610D01*
X018390Y012430D02*
X018650Y012430D01*
X018650Y012434D01*
X019020Y012830D02*
X019024Y012828D01*
X019020Y012830D02*
X019020Y013040D01*
X018830Y013230D01*
X018790Y013230D01*
X019620Y013040D02*
X019620Y012830D01*
X019615Y012828D01*
X019620Y013040D02*
X019875Y013295D01*
X018880Y014290D01*
X018780Y014290D01*
X019875Y013295D02*
X020390Y013810D01*
X021484Y013810D01*
X021530Y013830D01*
X021800Y014100D01*
X022180Y014100D01*
X022250Y014030D01*
X022250Y013710D01*
X022700Y013710D01*
X022250Y013710D02*
X022250Y013270D01*
X020430Y011450D01*
X020205Y011450D01*
X019024Y011450D02*
X019020Y011450D01*
X019020Y011240D01*
X018900Y011120D01*
X018730Y011120D01*
X018690Y011080D01*
X018960Y010190D02*
X019210Y010190D01*
X019250Y010230D01*
X019250Y010236D01*
X022844Y009520D02*
X022850Y009520D01*
X022850Y009120D01*
X022920Y009050D01*
X023218Y008733D01*
X023110Y008540D01*
X023230Y008420D01*
X023238Y008418D01*
X023290Y008420D01*
X023550Y008420D01*
X023553Y008418D01*
X023218Y008733D02*
X022920Y008420D01*
X022923Y008418D01*
X022923Y009048D02*
X022920Y009050D01*
X023670Y013770D02*
X022990Y014450D01*
X023670Y013770D02*
X025030Y013770D01*
X016860Y004140D02*
X016855Y004145D01*
X016590Y003880D01*
X016370Y003880D01*
X016363Y003873D01*
D30*
X016363Y004267D02*
X016370Y004270D01*
X016650Y004270D01*
X017160Y004780D01*
X017390Y004780D01*
X017830Y005220D01*
X017590Y005150D02*
X017590Y005490D01*
X017590Y005150D02*
X017340Y004900D01*
X017110Y004900D01*
X016680Y004470D01*
X016370Y004470D01*
X016363Y004464D01*
X016363Y004661D02*
X016370Y004670D01*
X016710Y004670D01*
X017180Y005140D01*
X017240Y005140D01*
X016910Y005620D02*
X016550Y005260D01*
X016370Y005260D01*
X016363Y005251D01*
X016363Y005448D02*
X016370Y005450D01*
X016370Y005620D01*
X016560Y005810D01*
X016910Y005810D02*
X016910Y005620D01*
X016650Y005060D02*
X016370Y005060D01*
X016363Y005054D01*
X016370Y004860D02*
X016363Y004857D01*
X016370Y004860D02*
X016620Y004860D01*
X019360Y007600D01*
X019570Y007600D01*
X019540Y007950D02*
X016650Y005060D01*
X017140Y006200D02*
X011470Y011870D01*
X011470Y012440D01*
X011360Y012550D01*
X010020Y013890D01*
X009610Y013360D02*
X009610Y013356D01*
X009620Y013330D01*
X009620Y013280D01*
X010990Y011910D01*
X010990Y010460D01*
X011026Y010457D01*
X011020Y010450D01*
X011020Y008930D01*
X009580Y007490D01*
X009580Y006363D01*
X009310Y006700D02*
X009210Y006600D01*
X009210Y005500D01*
X009206Y005497D01*
X008590Y005440D02*
X009730Y004300D01*
X009760Y004270D01*
X010190Y004270D01*
X010680Y004760D02*
X011240Y004760D01*
X011330Y004850D01*
X011240Y004760D02*
X011530Y004470D01*
X012820Y004470D01*
X012820Y004464D01*
X012820Y004661D02*
X012820Y004670D01*
X012400Y004670D01*
X012400Y004710D01*
X012400Y004670D02*
X012030Y004670D01*
X010730Y005970D01*
X011460Y006220D02*
X011460Y007620D01*
X011800Y007960D01*
X011800Y008580D01*
X012250Y008880D02*
X012800Y008330D01*
X012800Y006630D01*
X012820Y006630D01*
X012800Y006630D02*
X012800Y005470D01*
X012820Y005448D01*
X012820Y005251D01*
X012820Y005060D02*
X012620Y005060D01*
X011460Y006220D01*
X011090Y006730D02*
X011090Y008210D01*
X012100Y009220D01*
X013120Y009220D01*
X016020Y006320D01*
X015000Y006390D02*
X014100Y006390D01*
X014100Y005750D01*
X014100Y005743D01*
X014100Y006390D02*
X014100Y006960D01*
X014450Y007310D01*
X013140Y007960D02*
X013120Y007960D01*
X013120Y005750D01*
X013115Y005743D01*
X012820Y005060D02*
X012820Y005054D01*
X012820Y004860D02*
X012620Y004860D01*
X010540Y006940D01*
X010540Y007120D01*
X010520Y006920D01*
X010310Y006920D01*
X010200Y006810D01*
X009310Y006810D02*
X009260Y006810D01*
X009310Y006810D02*
X009310Y009450D01*
X009090Y009670D01*
X006650Y009670D01*
X006646Y009674D01*
X006470Y009910D02*
X006370Y009810D01*
X006370Y009500D01*
X004930Y008060D01*
X004910Y008040D01*
X004930Y008060D02*
X004566Y008060D01*
X004050Y008380D02*
X004040Y008370D01*
X003830Y008370D01*
X003210Y007750D01*
X002940Y007750D01*
X002820Y007870D01*
X001890Y007870D01*
X001770Y007750D01*
X001410Y007990D02*
X003040Y007990D01*
X002820Y008110D02*
X003190Y008480D01*
X003480Y008480D01*
X003620Y008620D01*
X003620Y008790D01*
X003800Y008970D01*
X004300Y008970D01*
X004310Y008980D01*
X004310Y009540D01*
X004320Y009550D01*
X004570Y009550D01*
X004570Y009760D01*
X004566Y009760D01*
X004054Y009760D02*
X004050Y009760D01*
X004050Y009550D01*
X003810Y009550D01*
X003800Y009540D01*
X003800Y009310D01*
X003450Y008960D01*
X003090Y008960D01*
X003350Y009200D02*
X002620Y009200D01*
X001910Y008490D01*
X001670Y008230D02*
X001790Y008110D01*
X002820Y008110D01*
X003380Y008720D02*
X003890Y009230D01*
X004050Y009230D01*
X004050Y009260D01*
X004054Y009260D01*
X004566Y009260D02*
X004720Y009260D01*
X004910Y009450D01*
X005260Y009570D02*
X004570Y010260D01*
X004566Y010260D01*
X004054Y010260D02*
X004050Y010260D01*
X004050Y010050D01*
X003810Y010050D01*
X003590Y009830D01*
X003590Y009760D01*
X003490Y010180D02*
X003800Y010490D01*
X003800Y010540D01*
X003810Y010550D01*
X004050Y010550D01*
X004050Y010760D01*
X004054Y010760D01*
X004560Y010760D02*
X004566Y010760D01*
X004560Y010760D02*
X004570Y010770D01*
X004580Y010760D01*
X004910Y010760D01*
X004910Y011200D02*
X004570Y011200D01*
X004570Y011260D01*
X004566Y011260D01*
X004054Y011260D02*
X004050Y011260D01*
X004050Y011050D01*
X003810Y011050D01*
X003490Y010730D01*
X003490Y010520D01*
X003490Y010180D02*
X003330Y010180D01*
X003320Y011030D02*
X003800Y011510D01*
X003800Y011540D01*
X003810Y011550D01*
X004050Y011550D01*
X004050Y011760D01*
X004054Y011760D01*
X004050Y012050D02*
X003810Y012050D01*
X003460Y011700D01*
X003460Y011510D01*
X002890Y011880D02*
X001660Y010650D01*
X001510Y010840D02*
X001670Y011000D01*
X001510Y010840D02*
X001120Y010840D01*
X001120Y010834D01*
X001120Y011346D02*
X001120Y011350D01*
X001680Y011350D01*
X002890Y011880D02*
X002890Y011980D01*
X003660Y012410D02*
X003660Y012490D01*
X004050Y012880D01*
X004050Y013160D01*
X004054Y013160D01*
X004566Y013160D02*
X004570Y013160D01*
X004570Y012900D01*
X004580Y012890D01*
X004660Y012890D01*
X005020Y012530D01*
X004560Y012650D02*
X004560Y012260D01*
X004566Y012260D01*
X004054Y012260D02*
X004050Y012260D01*
X004050Y012050D01*
X004560Y011760D02*
X004566Y011760D01*
X004560Y011760D02*
X004570Y011770D01*
X004580Y011760D01*
X004910Y011760D01*
X006440Y011810D02*
X006770Y012140D01*
X006784Y012080D01*
X006790Y012080D01*
X006790Y012710D01*
X006960Y012880D01*
X006964Y012880D01*
X007240Y012710D02*
X007240Y013090D01*
X007540Y013390D01*
X008570Y013390D01*
X008570Y013394D01*
X008570Y013900D02*
X008570Y013906D01*
X008570Y013900D02*
X009070Y013900D01*
X009610Y013360D01*
X009220Y012880D02*
X007476Y012880D01*
X007240Y012710D02*
X007030Y012500D01*
X007030Y010170D01*
X007110Y009910D02*
X006470Y009910D01*
X007110Y009910D02*
X007800Y010600D01*
X008480Y010600D01*
X009140Y010450D02*
X009140Y010950D01*
X009140Y010450D02*
X010310Y009280D01*
X010310Y008560D01*
X009550Y007800D01*
X009780Y008380D02*
X009780Y009640D01*
X007980Y011440D01*
X007980Y011620D01*
X007270Y013290D02*
X008120Y014140D01*
X011290Y014140D01*
X012910Y012520D01*
X012910Y010770D01*
X017240Y006440D01*
X017140Y006200D02*
X017340Y006200D01*
X017590Y006450D01*
X017590Y006570D01*
X017370Y007130D02*
X016890Y007130D01*
X014850Y009170D01*
X013300Y008550D02*
X013120Y008370D01*
X013120Y007960D01*
X016400Y007960D02*
X016990Y007370D01*
X018010Y007370D01*
X018230Y007590D01*
X018610Y007590D01*
X019220Y007120D02*
X019910Y007120D01*
X020610Y007820D01*
X022150Y007820D01*
X022840Y007940D02*
X022844Y007945D01*
X022840Y007940D02*
X022840Y006800D01*
X023320Y006710D02*
X023780Y006250D01*
X023800Y006610D02*
X023800Y007680D01*
X023640Y007840D01*
X023640Y007940D01*
X023631Y007945D01*
X023480Y007940D02*
X023474Y007945D01*
X023480Y007940D02*
X023480Y007660D01*
X023560Y007580D01*
X023320Y007940D02*
X023316Y007945D01*
X023320Y007940D02*
X023320Y006710D01*
X023300Y005990D02*
X022950Y005990D01*
X022910Y005950D01*
X022910Y005944D01*
X022890Y005950D01*
X022430Y005950D01*
X022430Y005944D01*
X022420Y005560D02*
X022800Y005180D01*
X022800Y004290D01*
X022600Y004090D01*
X020380Y004090D01*
X019180Y002890D01*
X016370Y002890D01*
X016363Y002889D01*
X016370Y002700D02*
X016363Y002692D01*
X016370Y002700D02*
X019160Y002700D01*
X020310Y003850D01*
X021680Y003850D01*
X021920Y004430D02*
X022450Y004430D01*
X021710Y004720D02*
X021320Y004720D01*
X020900Y005140D01*
X018850Y003090D01*
X016370Y003090D01*
X016363Y003086D01*
X016363Y003283D02*
X016370Y003290D01*
X018390Y003290D01*
X020160Y005060D01*
X020160Y005170D01*
X020160Y005970D01*
X019960Y005970D01*
X020160Y005970D02*
X020330Y005970D01*
X020350Y005950D01*
X020350Y005944D01*
X020910Y005944D02*
X020910Y005160D01*
X020900Y005140D01*
X021510Y005130D02*
X021840Y005460D01*
X021410Y005890D01*
X021410Y005944D01*
X021930Y005944D02*
X021930Y005750D01*
X022090Y005590D01*
X022090Y005100D01*
X022100Y005070D01*
X022110Y005080D01*
X022560Y005080D01*
X025340Y006610D02*
X025340Y009190D01*
X023480Y011050D01*
X023300Y011050D01*
X023060Y010790D02*
X023060Y011350D01*
X022760Y011650D01*
X022570Y011650D01*
X022290Y011370D01*
X021140Y011370D01*
X020600Y010830D01*
X020600Y008630D01*
X020300Y008920D02*
X020480Y009100D01*
X020480Y010880D01*
X021310Y011710D01*
X021440Y011710D01*
X021900Y011710D01*
X022180Y012080D02*
X022820Y012080D01*
X023820Y011080D01*
X023820Y011050D01*
X024060Y011150D02*
X024060Y010900D01*
X025580Y009380D01*
X025580Y007640D01*
X023880Y009350D02*
X023710Y009520D01*
X023631Y009520D01*
X023480Y009520D02*
X023474Y009520D01*
X023480Y009520D02*
X023480Y009660D01*
X023650Y009830D01*
X023830Y009830D01*
X023316Y009520D02*
X023159Y009520D01*
X023140Y009540D01*
X023140Y010340D01*
X023070Y010410D01*
X022820Y010410D01*
X022820Y011050D01*
X022150Y010660D02*
X022560Y010250D01*
X022720Y010410D01*
X022820Y010410D01*
X022560Y010250D02*
X022010Y009700D01*
X022010Y008790D01*
X021950Y008730D01*
X021950Y008726D01*
X021930Y008730D01*
X021450Y008730D01*
X021450Y008726D01*
X021240Y008490D02*
X022160Y008490D01*
X022560Y008890D01*
X022560Y009550D01*
X022580Y009570D01*
X022980Y009970D01*
X022894Y010140D01*
X022900Y010140D01*
X023000Y010040D01*
X023000Y009520D01*
X023001Y009520D01*
X021670Y009400D02*
X021180Y008910D01*
X021180Y008550D01*
X021240Y008490D01*
X020300Y008920D02*
X020240Y008920D01*
X019990Y008670D01*
X019930Y009040D02*
X019250Y009720D01*
X019250Y009724D01*
X019260Y009750D01*
X019520Y010010D01*
X019520Y010410D01*
X019480Y010450D01*
X019480Y010660D01*
X019700Y010780D02*
X019540Y010940D01*
X019540Y011140D01*
X019610Y011210D01*
X019610Y011450D01*
X019615Y011450D01*
X019780Y011420D02*
X019810Y011450D01*
X019811Y011450D01*
X019780Y011420D02*
X019780Y011040D01*
X020010Y011270D02*
X020010Y011450D01*
X020008Y011450D01*
X020010Y011270D02*
X020120Y011160D01*
X020370Y011160D01*
X021530Y012320D01*
X022890Y012320D01*
X024060Y011150D01*
X024690Y010610D02*
X024690Y012060D01*
X022220Y014530D01*
X018680Y014530D01*
X018540Y014390D01*
X018540Y014090D01*
X018660Y013970D01*
X018660Y013440D01*
X018480Y013260D01*
X018480Y013040D01*
X018700Y012820D02*
X018570Y012690D01*
X018700Y012820D02*
X018820Y012820D01*
X018827Y012828D01*
X019220Y012830D02*
X019220Y013140D01*
X019240Y013160D01*
X019370Y013160D01*
X019460Y013250D01*
X019220Y013140D02*
X018940Y013420D01*
X018940Y013760D01*
X018936Y013760D01*
X018424Y013760D02*
X018420Y013760D01*
X018420Y013370D01*
X017980Y012930D01*
X017980Y011420D01*
X018320Y011080D01*
X018840Y010860D02*
X019220Y011240D01*
X019220Y011450D01*
X019221Y011450D01*
X018827Y011450D02*
X018690Y011450D01*
X018570Y011570D01*
X019700Y010780D02*
X020240Y010780D01*
X021120Y010780D02*
X021120Y009350D01*
X020140Y009250D02*
X019930Y009040D01*
X019580Y008690D01*
X019386Y008690D01*
X017650Y009770D02*
X017650Y012950D01*
X019220Y012830D02*
X019221Y012828D01*
X019250Y012830D01*
X019410Y012830D01*
X019418Y012828D01*
X020008Y012828D02*
X020010Y012830D01*
X020010Y013010D01*
X020160Y013160D01*
X020930Y013160D01*
X020950Y012830D02*
X020210Y012830D01*
X020205Y012828D01*
X020950Y012830D02*
X021930Y013810D01*
X021996Y013810D01*
X017650Y009770D02*
X016670Y008790D01*
X012120Y011560D02*
X012120Y012540D01*
X011230Y011810D02*
X011230Y011500D01*
X011400Y011330D01*
X011400Y011323D01*
X009070Y009350D02*
X007200Y009350D01*
X004910Y007060D01*
X004910Y007040D01*
X004910Y007060D02*
X004566Y007060D01*
X004566Y006560D02*
X004630Y006560D01*
X005590Y005600D01*
X006530Y005600D01*
X008100Y007170D01*
X008220Y007570D02*
X008520Y007270D01*
X008520Y006140D01*
X008050Y005670D01*
X008050Y004577D01*
X007650Y005430D02*
X006700Y005430D01*
X006030Y005836D02*
X006030Y006080D01*
X005450Y006080D01*
X006030Y006080D02*
X006030Y007130D01*
X006110Y007210D01*
X006114Y007210D01*
X006130Y007230D01*
X006370Y007470D01*
X006370Y007560D01*
X006626Y007210D02*
X006630Y007210D01*
X006630Y006040D01*
X007650Y005430D02*
X007676Y005443D01*
X007680Y005450D01*
X007880Y005650D01*
X007880Y006460D01*
X009310Y006700D02*
X009310Y006810D01*
X008220Y007570D02*
X008220Y008370D01*
X006780Y009330D02*
X006770Y009330D01*
X006390Y008950D01*
X006390Y008946D01*
X004880Y008960D02*
X004590Y008960D01*
X004570Y008940D01*
X004570Y008660D01*
X004566Y008660D01*
X004054Y008660D02*
X004050Y008660D01*
X004050Y008380D01*
X004566Y007560D02*
X004910Y007560D01*
X003710Y006460D02*
X004400Y005770D01*
X004680Y005770D01*
X004350Y005460D02*
X002890Y006920D01*
X001910Y006560D02*
X000970Y006560D01*
X003460Y005800D02*
X003460Y004940D01*
X004350Y005030D02*
X004350Y005460D01*
X001730Y003210D02*
X001460Y003480D01*
X001050Y003480D01*
X000990Y003420D01*
X000990Y003000D01*
X001120Y002870D01*
X001120Y002460D01*
X001125Y002460D01*
X001715Y002460D02*
X002400Y002460D01*
X002630Y002230D01*
X003695Y002430D02*
X003700Y002430D01*
X003700Y002680D01*
X004200Y003180D01*
X004206Y003180D01*
X005220Y002430D02*
X005360Y002570D01*
X005220Y002430D02*
X004285Y002430D01*
X004530Y001700D02*
X004410Y001580D01*
X004406Y001580D01*
X004390Y001560D01*
X004390Y001480D01*
X004150Y001240D01*
X003760Y001240D01*
X003500Y001500D01*
X003500Y001580D01*
X003910Y000950D02*
X013110Y000950D01*
X013190Y000870D01*
X014890Y000870D01*
X015660Y001640D01*
X015660Y002190D01*
X015670Y002200D01*
X015674Y002200D01*
X015480Y002200D02*
X015480Y002000D01*
X015540Y001940D01*
X015540Y001690D01*
X015300Y001450D01*
X014960Y001450D01*
X015080Y001910D02*
X014360Y001190D01*
X014370Y001540D02*
X014420Y001540D01*
X014880Y002000D01*
X014880Y002200D01*
X014887Y002200D01*
X015080Y002200D02*
X015084Y002200D01*
X015080Y002200D02*
X015080Y001910D01*
X015300Y001790D02*
X015300Y002190D01*
X015290Y002200D01*
X015281Y002200D01*
X015477Y002200D02*
X015480Y002200D01*
X015871Y002200D02*
X015880Y002200D01*
X015900Y002180D01*
X015900Y001550D01*
X016320Y001890D02*
X016070Y002140D01*
X016070Y002200D01*
X016068Y002200D01*
X016320Y002240D02*
X016320Y002450D01*
X016360Y002490D01*
X016363Y002495D01*
X017720Y003670D02*
X017860Y003530D01*
X018290Y003530D01*
X019520Y002720D02*
X021220Y001020D01*
X020310Y002360D02*
X024000Y002360D01*
X024270Y002630D01*
X024870Y002630D01*
X013509Y002200D02*
X013500Y002200D01*
X013500Y001990D01*
X013030Y001520D01*
X012950Y001600D01*
X012950Y001700D01*
X013030Y001520D02*
X013340Y001210D01*
X012820Y001910D02*
X013110Y002200D01*
X013115Y002200D01*
X012820Y001910D02*
X011850Y001910D01*
X011850Y001904D01*
X011460Y002640D02*
X009980Y002640D01*
X009740Y002400D01*
X009365Y002400D01*
X008780Y002400D02*
X008775Y002400D01*
X008780Y002400D02*
X008780Y002600D01*
X009360Y003180D01*
X009366Y003180D01*
X008410Y002250D02*
X007820Y002840D01*
X007820Y002960D01*
X007540Y003180D02*
X006870Y002510D01*
X006865Y002510D01*
X006280Y002510D02*
X006275Y002510D01*
X006280Y002510D02*
X006280Y002550D01*
X006860Y003130D01*
X006866Y003130D01*
X007080Y001700D02*
X006960Y001580D01*
X006956Y001580D01*
X006940Y001560D01*
X006940Y001480D01*
X006700Y001240D01*
X006310Y001240D01*
X006050Y001500D01*
X006050Y001580D01*
X007080Y001700D02*
X007320Y001700D01*
X008170Y001700D02*
X008170Y001220D01*
X008600Y001500D02*
X008860Y001240D01*
X009250Y001240D01*
X009490Y001480D01*
X009490Y001560D01*
X009506Y001580D01*
X009510Y001580D01*
X009850Y001920D01*
X009850Y001940D01*
X008600Y001580D02*
X008600Y001500D01*
X010860Y003920D02*
X011180Y003600D01*
X011980Y003600D01*
X012280Y003900D01*
X012160Y004020D01*
X012280Y003900D02*
X012450Y004070D01*
X012820Y004070D01*
X012820Y004070D01*
X012820Y004267D02*
X012820Y004270D01*
X011390Y004270D01*
X012820Y004857D02*
X012820Y004860D01*
X008590Y005440D02*
X008430Y005440D01*
X008424Y005443D01*
X004770Y001700D02*
X004530Y001700D01*
X001856Y001580D02*
X001850Y001580D01*
X001850Y001490D01*
X001600Y001240D01*
X001210Y001240D01*
X000970Y001480D01*
X000970Y001560D01*
X000950Y001580D01*
X000950Y001660D01*
X001210Y001920D01*
X001210Y002040D01*
X001730Y003210D02*
X001736Y003210D01*
X001470Y012560D02*
X000940Y012560D01*
X000940Y012564D01*
X007100Y013290D02*
X007270Y013290D01*
M02*
