%
M48
M72
T01C0.0236
T02C0.0240
T03C0.0400
T04C0.0520
%
T01
X15615Y12350
X17815Y12710
X10615Y20200
X9965Y19170
T02
X9885Y14760
X9885Y16760
X8925Y17560
X8445Y17720
X7885Y18920
X12765Y18280
X16045Y19320
T03
X18305Y16020
X18305Y15020
X21405Y10860
X21405Y9860
X11445Y17120
X10445Y17120
X10445Y16120
X10445Y15120
X7265Y21140
T04
X17345Y18040
X20055Y17970
X20625Y20800
M30
