  0
SECTION
  2
HEADER
  9
$ACADVER
  1
AC1009
  9
$MEASUREMENT
 70
     1
  0
ENDSEC
  0
SECTION
  2
ENTITIES
  0
LWPOLYLINE
  8
0
 62
7
 90
9
 70
1
 10
6.430000
 20
15.808438
 10
6.131562
 20
15.808438
 10
6.131562
 20
15.211562
 10
6.728438
 20
15.211562
 10
6.728438
 20
15.808438
 10
6.131562
 20
15.808438
 10
6.131562
 20
15.211562
 10
6.728438
 20
15.211562
 10
6.728438
 20
15.808438
  0
LWPOLYLINE
  8
0
 62
7
 90
9
 70
1
 10
6.430000
 20
14.608438
 10
6.131562
 20
14.608438
 10
6.131562
 20
14.011563
 10
6.728438
 20
14.011563
 10
6.728438
 20
14.608438
 10
6.131562
 20
14.608438
 10
6.131562
 20
14.011563
 10
6.728438
 20
14.011563
 10
6.728438
 20
14.608438
  0
LWPOLYLINE
  8
0
 62
7
 90
9
 70
1
 10
6.430000
 20
13.408437
 10
6.131562
 20
13.408437
 10
6.131562
 20
12.811562
 10
6.728438
 20
12.811562
 10
6.728438
 20
13.408437
 10
6.131562
 20
13.408437
 10
6.131562
 20
12.811562
 10
6.728438
 20
12.811562
 10
6.728438
 20
13.408437
  0
LWPOLYLINE
  8
0
 62
7
 90
9
 70
1
 10
6.430000
 20
12.208438
 10
6.131562
 20
12.208438
 10
6.131562
 20
11.611562
 10
6.728438
 20
11.611562
 10
6.728438
 20
12.208438
 10
6.131562
 20
12.208438
 10
6.131562
 20
11.611562
 10
6.728438
 20
11.611562
 10
6.728438
 20
12.208438
  0
LWPOLYLINE
  8
0
 62
7
 90
9
 70
1
 10
6.430000
 20
11.008438
 10
6.131562
 20
11.008438
 10
6.131562
 20
10.411563
 10
6.728438
 20
10.411563
 10
6.728438
 20
11.008438
 10
6.131562
 20
11.008438
 10
6.131562
 20
10.411563
 10
6.728438
 20
10.411563
 10
6.728438
 20
11.008438
  0
LWPOLYLINE
  8
0
 62
7
 90
9
 70
1
 10
6.430000
 20
9.808438
 10
6.131562
 20
9.808438
 10
6.131562
 20
9.211562
 10
6.728438
 20
9.211562
 10
6.728438
 20
9.808438
 10
6.131562
 20
9.808438
 10
6.131562
 20
9.211562
 10
6.728438
 20
9.211562
 10
6.728438
 20
9.808438
  0
LWPOLYLINE
  8
0
 62
7
 90
9
 70
1
 10
6.430000
 20
8.608438
 10
6.131562
 20
8.608438
 10
6.131562
 20
8.011563
 10
6.728438
 20
8.011563
 10
6.728438
 20
8.608438
 10
6.131562
 20
8.608438
 10
6.131562
 20
8.011563
 10
6.728438
 20
8.011563
 10
6.728438
 20
8.608438
  0
LWPOLYLINE
  8
0
 62
7
 90
9
 70
1
 10
6.430000
 20
7.408438
 10
6.131562
 20
7.408438
 10
6.131562
 20
6.811562
 10
6.728438
 20
6.811562
 10
6.728438
 20
7.408438
 10
6.131562
 20
7.408438
 10
6.131562
 20
6.811562
 10
6.728438
 20
6.811562
 10
6.728438
 20
7.408438
  0
LWPOLYLINE
  8
0
 62
7
 90
9
 70
1
 10
6.430000
 20
6.208438
 10
6.131562
 20
6.208438
 10
6.131562
 20
5.611562
 10
6.728438
 20
5.611562
 10
6.728438
 20
6.208438
 10
6.131562
 20
6.208438
 10
6.131562
 20
5.611562
 10
6.728438
 20
5.611562
 10
6.728438
 20
6.208438
  0
LWPOLYLINE
  8
0
 62
7
 90
9
 70
1
 10
6.430000
 20
3.808437
 10
6.131562
 20
3.808437
 10
6.131562
 20
3.211562
 10
6.728438
 20
3.211562
 10
6.728438
 20
3.808437
 10
6.131562
 20
3.808437
 10
6.131562
 20
3.211562
 10
6.728438
 20
3.211562
 10
6.728438
 20
3.808437
  0
LWPOLYLINE
  8
0
 62
7
 90
9
 70
1
 10
6.430000
 20
2.608437
 10
6.131562
 20
2.608437
 10
6.131562
 20
2.011563
 10
6.728438
 20
2.011563
 10
6.728438
 20
2.608437
 10
6.131562
 20
2.608437
 10
6.131562
 20
2.011563
 10
6.728438
 20
2.011563
 10
6.728438
 20
2.608437
  0
LWPOLYLINE
  8
0
 62
7
 90
9
 70
1
 10
7.630000
 20
15.808438
 10
7.331562
 20
15.808438
 10
7.331562
 20
15.211562
 10
7.928438
 20
15.211562
 10
7.928438
 20
15.808438
 10
7.331562
 20
15.808438
 10
7.331562
 20
15.211562
 10
7.928438
 20
15.211562
 10
7.928438
 20
15.808438
  0
LWPOLYLINE
  8
0
 62
7
 90
9
 70
1
 10
7.630000
 20
14.608438
 10
7.331562
 20
14.608438
 10
7.331562
 20
14.011563
 10
7.928438
 20
14.011563
 10
7.928438
 20
14.608438
 10
7.331562
 20
14.608438
 10
7.331562
 20
14.011563
 10
7.928438
 20
14.011563
 10
7.928438
 20
14.608438
  0
LWPOLYLINE
  8
0
 62
7
 90
9
 70
1
 10
7.630000
 20
13.408437
 10
7.331562
 20
13.408437
 10
7.331562
 20
12.811562
 10
7.928438
 20
12.811562
 10
7.928438
 20
13.408437
 10
7.331562
 20
13.408437
 10
7.331562
 20
12.811562
 10
7.928438
 20
12.811562
 10
7.928438
 20
13.408437
  0
LWPOLYLINE
  8
0
 62
7
 90
9
 70
1
 10
7.630000
 20
12.208438
 10
7.331562
 20
12.208438
 10
7.331562
 20
11.611562
 10
7.928438
 20
11.611562
 10
7.928438
 20
12.208438
 10
7.331562
 20
12.208438
 10
7.331562
 20
11.611562
 10
7.928438
 20
11.611562
 10
7.928438
 20
12.208438
  0
LWPOLYLINE
  8
0
 62
7
 90
9
 70
1
 10
7.630000
 20
11.008438
 10
7.331562
 20
11.008438
 10
7.331562
 20
10.411563
 10
7.928438
 20
10.411563
 10
7.928438
 20
11.008438
 10
7.331562
 20
11.008438
 10
7.331562
 20
10.411563
 10
7.928438
 20
10.411563
 10
7.928438
 20
11.008438
  0
LWPOLYLINE
  8
0
 62
7
 90
9
 70
1
 10
7.630000
 20
9.808438
 10
7.331562
 20
9.808438
 10
7.331562
 20
9.211562
 10
7.928438
 20
9.211562
 10
7.928438
 20
9.808438
 10
7.331562
 20
9.808438
 10
7.331562
 20
9.211562
 10
7.928438
 20
9.211562
 10
7.928438
 20
9.808438
  0
LWPOLYLINE
  8
0
 62
7
 90
9
 70
1
 10
7.630000
 20
8.608438
 10
7.331562
 20
8.608438
 10
7.331562
 20
8.011563
 10
7.928438
 20
8.011563
 10
7.928438
 20
8.608438
 10
7.331562
 20
8.608438
 10
7.331562
 20
8.011563
 10
7.928438
 20
8.011563
 10
7.928438
 20
8.608438
  0
LWPOLYLINE
  8
0
 62
7
 90
9
 70
1
 10
7.630000
 20
7.408438
 10
7.331562
 20
7.408438
 10
7.331562
 20
6.811562
 10
7.928438
 20
6.811562
 10
7.928438
 20
7.408438
 10
7.331562
 20
7.408438
 10
7.331562
 20
6.811562
 10
7.928438
 20
6.811562
 10
7.928438
 20
7.408438
  0
LWPOLYLINE
  8
0
 62
7
 90
9
 70
1
 10
7.630000
 20
6.208438
 10
7.331562
 20
6.208438
 10
7.331562
 20
5.611562
 10
7.928438
 20
5.611562
 10
7.928438
 20
6.208438
 10
7.331562
 20
6.208438
 10
7.331562
 20
5.611562
 10
7.928438
 20
5.611562
 10
7.928438
 20
6.208438
  0
LWPOLYLINE
  8
0
 62
7
 90
9
 70
1
 10
8.830000
 20
15.808438
 10
8.531562
 20
15.808438
 10
8.531562
 20
15.211562
 10
9.128438
 20
15.211562
 10
9.128438
 20
15.808438
 10
8.531562
 20
15.808438
 10
8.531562
 20
15.211562
 10
9.128438
 20
15.211562
 10
9.128438
 20
15.808438
  0
LWPOLYLINE
  8
0
 62
7
 90
9
 70
1
 10
8.830000
 20
14.608438
 10
8.531562
 20
14.608438
 10
8.531562
 20
14.011563
 10
9.128438
 20
14.011563
 10
9.128438
 20
14.608438
 10
8.531562
 20
14.608438
 10
8.531562
 20
14.011563
 10
9.128438
 20
14.011563
 10
9.128438
 20
14.608438
  0
LWPOLYLINE
  8
0
 62
7
 90
9
 70
1
 10
8.830000
 20
13.408437
 10
8.531562
 20
13.408437
 10
8.531562
 20
12.811562
 10
9.128438
 20
12.811562
 10
9.128438
 20
13.408437
 10
8.531562
 20
13.408437
 10
8.531562
 20
12.811562
 10
9.128438
 20
12.811562
 10
9.128438
 20
13.408437
  0
LWPOLYLINE
  8
0
 62
7
 90
9
 70
1
 10
8.830000
 20
12.208438
 10
8.531562
 20
12.208438
 10
8.531562
 20
11.611562
 10
9.128438
 20
11.611562
 10
9.128438
 20
12.208438
 10
8.531562
 20
12.208438
 10
8.531562
 20
11.611562
 10
9.128438
 20
11.611562
 10
9.128438
 20
12.208438
  0
LWPOLYLINE
  8
0
 62
7
 90
9
 70
1
 10
8.830000
 20
11.008438
 10
8.531562
 20
11.008438
 10
8.531562
 20
10.411563
 10
9.128438
 20
10.411563
 10
9.128438
 20
11.008438
 10
8.531562
 20
11.008438
 10
8.531562
 20
10.411563
 10
9.128438
 20
10.411563
 10
9.128438
 20
11.008438
  0
LWPOLYLINE
  8
0
 62
7
 90
9
 70
1
 10
8.830000
 20
9.808438
 10
8.531562
 20
9.808438
 10
8.531562
 20
9.211562
 10
9.128438
 20
9.211562
 10
9.128438
 20
9.808438
 10
8.531562
 20
9.808438
 10
8.531562
 20
9.211562
 10
9.128438
 20
9.211562
 10
9.128438
 20
9.808438
  0
LWPOLYLINE
  8
0
 62
7
 90
9
 70
1
 10
8.830000
 20
8.608438
 10
8.531562
 20
8.608438
 10
8.531562
 20
8.011563
 10
9.128438
 20
8.011563
 10
9.128438
 20
8.608438
 10
8.531562
 20
8.608438
 10
8.531562
 20
8.011563
 10
9.128438
 20
8.011563
 10
9.128438
 20
8.608438
  0
LWPOLYLINE
  8
0
 62
7
 90
9
 70
1
 10
8.830000
 20
7.408438
 10
8.531562
 20
7.408438
 10
8.531562
 20
6.811562
 10
9.128438
 20
6.811562
 10
9.128438
 20
7.408438
 10
8.531562
 20
7.408438
 10
8.531562
 20
6.811562
 10
9.128438
 20
6.811562
 10
9.128438
 20
7.408438
  0
LWPOLYLINE
  8
0
 62
7
 90
9
 70
1
 10
8.830000
 20
6.208438
 10
8.531562
 20
6.208438
 10
8.531562
 20
5.611562
 10
9.128438
 20
5.611562
 10
9.128438
 20
6.208438
 10
8.531562
 20
6.208438
 10
8.531562
 20
5.611562
 10
9.128438
 20
5.611562
 10
9.128438
 20
6.208438
  0
LWPOLYLINE
  8
0
 62
7
 90
9
 70
1
 10
10.030000
 20
15.808438
 10
9.731562
 20
15.808438
 10
9.731562
 20
15.211562
 10
10.328437
 20
15.211562
 10
10.328437
 20
15.808438
 10
9.731562
 20
15.808438
 10
9.731562
 20
15.211562
 10
10.328437
 20
15.211562
 10
10.328437
 20
15.808438
  0
LWPOLYLINE
  8
0
 62
7
 90
9
 70
1
 10
10.030000
 20
14.608438
 10
9.731562
 20
14.608438
 10
9.731562
 20
14.011563
 10
10.328437
 20
14.011563
 10
10.328437
 20
14.608438
 10
9.731562
 20
14.608438
 10
9.731562
 20
14.011563
 10
10.328437
 20
14.011563
 10
10.328437
 20
14.608438
  0
LWPOLYLINE
  8
0
 62
7
 90
9
 70
1
 10
10.030000
 20
13.408437
 10
9.731562
 20
13.408437
 10
9.731562
 20
12.811562
 10
10.328437
 20
12.811562
 10
10.328437
 20
13.408437
 10
9.731562
 20
13.408437
 10
9.731562
 20
12.811562
 10
10.328437
 20
12.811562
 10
10.328437
 20
13.408437
  0
LWPOLYLINE
  8
0
 62
7
 90
9
 70
1
 10
10.030000
 20
12.208438
 10
9.731562
 20
12.208438
 10
9.731562
 20
11.611562
 10
10.328437
 20
11.611562
 10
10.328437
 20
12.208438
 10
9.731562
 20
12.208438
 10
9.731562
 20
11.611562
 10
10.328437
 20
11.611562
 10
10.328437
 20
12.208438
  0
LWPOLYLINE
  8
0
 62
7
 90
9
 70
1
 10
10.030000
 20
11.008438
 10
9.731562
 20
11.008438
 10
9.731562
 20
10.411563
 10
10.328437
 20
10.411563
 10
10.328437
 20
11.008438
 10
9.731562
 20
11.008438
 10
9.731562
 20
10.411563
 10
10.328437
 20
10.411563
 10
10.328437
 20
11.008438
  0
LWPOLYLINE
  8
0
 62
7
 90
9
 70
1
 10
10.030000
 20
9.808438
 10
9.731562
 20
9.808438
 10
9.731562
 20
9.211562
 10
10.328437
 20
9.211562
 10
10.328437
 20
9.808438
 10
9.731562
 20
9.808438
 10
9.731562
 20
9.211562
 10
10.328437
 20
9.211562
 10
10.328437
 20
9.808438
  0
LWPOLYLINE
  8
0
 62
7
 90
9
 70
1
 10
10.030000
 20
8.608438
 10
9.731562
 20
8.608438
 10
9.731562
 20
8.011563
 10
10.328437
 20
8.011563
 10
10.328437
 20
8.608438
 10
9.731562
 20
8.608438
 10
9.731562
 20
8.011563
 10
10.328437
 20
8.011563
 10
10.328437
 20
8.608438
  0
LWPOLYLINE
  8
0
 62
7
 90
9
 70
1
 10
10.030000
 20
7.408438
 10
9.731562
 20
7.408438
 10
9.731562
 20
6.811562
 10
10.328437
 20
6.811562
 10
10.328437
 20
7.408438
 10
9.731562
 20
7.408438
 10
9.731562
 20
6.811562
 10
10.328437
 20
6.811562
 10
10.328437
 20
7.408438
  0
LWPOLYLINE
  8
0
 62
7
 90
9
 70
1
 10
10.030000
 20
6.208438
 10
9.731562
 20
6.208438
 10
9.731562
 20
5.611562
 10
10.328437
 20
5.611562
 10
10.328437
 20
6.208438
 10
9.731562
 20
6.208438
 10
9.731562
 20
5.611562
 10
10.328437
 20
5.611562
 10
10.328437
 20
6.208438
  0
LWPOLYLINE
  8
0
 62
7
 90
9
 70
1
 10
11.230000
 20
15.808438
 10
10.931563
 20
15.808438
 10
10.931563
 20
15.211562
 10
11.528438
 20
15.211562
 10
11.528438
 20
15.808438
 10
10.931563
 20
15.808438
 10
10.931563
 20
15.211562
 10
11.528438
 20
15.211562
 10
11.528438
 20
15.808438
  0
LWPOLYLINE
  8
0
 62
7
 90
9
 70
1
 10
11.230000
 20
14.608438
 10
10.931563
 20
14.608438
 10
10.931563
 20
14.011563
 10
11.528438
 20
14.011563
 10
11.528438
 20
14.608438
 10
10.931563
 20
14.608438
 10
10.931563
 20
14.011563
 10
11.528438
 20
14.011563
 10
11.528438
 20
14.608438
  0
LWPOLYLINE
  8
0
 62
7
 90
9
 70
1
 10
11.230000
 20
13.408437
 10
10.931563
 20
13.408437
 10
10.931563
 20
12.811562
 10
11.528438
 20
12.811562
 10
11.528438
 20
13.408437
 10
10.931563
 20
13.408437
 10
10.931563
 20
12.811562
 10
11.528438
 20
12.811562
 10
11.528438
 20
13.408437
  0
LWPOLYLINE
  8
0
 62
7
 90
9
 70
1
 10
11.230000
 20
12.208438
 10
10.931563
 20
12.208438
 10
10.931563
 20
11.611562
 10
11.528438
 20
11.611562
 10
11.528438
 20
12.208438
 10
10.931563
 20
12.208438
 10
10.931563
 20
11.611562
 10
11.528438
 20
11.611562
 10
11.528438
 20
12.208438
  0
LWPOLYLINE
  8
0
 62
7
 90
9
 70
1
 10
11.230000
 20
11.008438
 10
10.931563
 20
11.008438
 10
10.931563
 20
10.411563
 10
11.528438
 20
10.411563
 10
11.528438
 20
11.008438
 10
10.931563
 20
11.008438
 10
10.931563
 20
10.411563
 10
11.528438
 20
10.411563
 10
11.528438
 20
11.008438
  0
LWPOLYLINE
  8
0
 62
7
 90
9
 70
1
 10
11.230000
 20
9.808438
 10
10.931563
 20
9.808438
 10
10.931563
 20
9.211562
 10
11.528438
 20
9.211562
 10
11.528438
 20
9.808438
 10
10.931563
 20
9.808438
 10
10.931563
 20
9.211562
 10
11.528438
 20
9.211562
 10
11.528438
 20
9.808438
  0
LWPOLYLINE
  8
0
 62
7
 90
9
 70
1
 10
11.230000
 20
8.608438
 10
10.931563
 20
8.608438
 10
10.931563
 20
8.011563
 10
11.528438
 20
8.011563
 10
11.528438
 20
8.608438
 10
10.931563
 20
8.608438
 10
10.931563
 20
8.011563
 10
11.528438
 20
8.011563
 10
11.528438
 20
8.608438
  0
LWPOLYLINE
  8
0
 62
7
 90
9
 70
1
 10
11.230000
 20
7.408438
 10
10.931563
 20
7.408438
 10
10.931563
 20
6.811562
 10
11.528438
 20
6.811562
 10
11.528438
 20
7.408438
 10
10.931563
 20
7.408438
 10
10.931563
 20
6.811562
 10
11.528438
 20
6.811562
 10
11.528438
 20
7.408438
  0
LWPOLYLINE
  8
0
 62
7
 90
9
 70
1
 10
11.230000
 20
6.208438
 10
10.931563
 20
6.208438
 10
10.931563
 20
5.611562
 10
11.528438
 20
5.611562
 10
11.528438
 20
6.208438
 10
10.931563
 20
6.208438
 10
10.931563
 20
5.611562
 10
11.528438
 20
5.611562
 10
11.528438
 20
6.208438
  0
LWPOLYLINE
  8
0
 62
7
 90
9
 70
1
 10
12.430000
 20
15.808438
 10
12.131562
 20
15.808438
 10
12.131562
 20
15.211562
 10
12.728438
 20
15.211562
 10
12.728438
 20
15.808438
 10
12.131562
 20
15.808438
 10
12.131562
 20
15.211562
 10
12.728438
 20
15.211562
 10
12.728438
 20
15.808438
  0
LWPOLYLINE
  8
0
 62
7
 90
9
 70
1
 10
12.430000
 20
14.608438
 10
12.131562
 20
14.608438
 10
12.131562
 20
14.011563
 10
12.728438
 20
14.011563
 10
12.728438
 20
14.608438
 10
12.131562
 20
14.608438
 10
12.131562
 20
14.011563
 10
12.728438
 20
14.011563
 10
12.728438
 20
14.608438
  0
LWPOLYLINE
  8
0
 62
7
 90
9
 70
1
 10
12.430000
 20
13.408437
 10
12.131562
 20
13.408437
 10
12.131562
 20
12.811562
 10
12.728438
 20
12.811562
 10
12.728438
 20
13.408437
 10
12.131562
 20
13.408437
 10
12.131562
 20
12.811562
 10
12.728438
 20
12.811562
 10
12.728438
 20
13.408437
  0
LWPOLYLINE
  8
0
 62
7
 90
9
 70
1
 10
12.430000
 20
12.208438
 10
12.131562
 20
12.208438
 10
12.131562
 20
11.611562
 10
12.728438
 20
11.611562
 10
12.728438
 20
12.208438
 10
12.131562
 20
12.208438
 10
12.131562
 20
11.611562
 10
12.728438
 20
11.611562
 10
12.728438
 20
12.208438
  0
LWPOLYLINE
  8
0
 62
7
 90
9
 70
1
 10
12.430000
 20
11.008438
 10
12.131562
 20
11.008438
 10
12.131562
 20
10.411563
 10
12.728438
 20
10.411563
 10
12.728438
 20
11.008438
 10
12.131562
 20
11.008438
 10
12.131562
 20
10.411563
 10
12.728438
 20
10.411563
 10
12.728438
 20
11.008438
  0
LWPOLYLINE
  8
0
 62
7
 90
9
 70
1
 10
12.430000
 20
9.808438
 10
12.131562
 20
9.808438
 10
12.131562
 20
9.211562
 10
12.728438
 20
9.211562
 10
12.728438
 20
9.808438
 10
12.131562
 20
9.808438
 10
12.131562
 20
9.211562
 10
12.728438
 20
9.211562
 10
12.728438
 20
9.808438
  0
LWPOLYLINE
  8
0
 62
7
 90
9
 70
1
 10
12.430000
 20
8.608438
 10
12.131562
 20
8.608438
 10
12.131562
 20
8.011563
 10
12.728438
 20
8.011563
 10
12.728438
 20
8.608438
 10
12.131562
 20
8.608438
 10
12.131562
 20
8.011563
 10
12.728438
 20
8.011563
 10
12.728438
 20
8.608438
  0
LWPOLYLINE
  8
0
 62
7
 90
9
 70
1
 10
12.430000
 20
7.408438
 10
12.131562
 20
7.408438
 10
12.131562
 20
6.811562
 10
12.728438
 20
6.811562
 10
12.728438
 20
7.408438
 10
12.131562
 20
7.408438
 10
12.131562
 20
6.811562
 10
12.728438
 20
6.811562
 10
12.728438
 20
7.408438
  0
LWPOLYLINE
  8
0
 62
7
 90
9
 70
1
 10
12.430000
 20
6.208438
 10
12.131562
 20
6.208438
 10
12.131562
 20
5.611562
 10
12.728438
 20
5.611562
 10
12.728438
 20
6.208438
 10
12.131562
 20
6.208438
 10
12.131562
 20
5.611562
 10
12.728438
 20
5.611562
 10
12.728438
 20
6.208438
  0
LWPOLYLINE
  8
0
 62
7
 90
9
 70
1
 10
12.430000
 20
3.808437
 10
12.131562
 20
3.808437
 10
12.131562
 20
3.211562
 10
12.728438
 20
3.211562
 10
12.728438
 20
3.808437
 10
12.131562
 20
3.808437
 10
12.131562
 20
3.211562
 10
12.728438
 20
3.211562
 10
12.728438
 20
3.808437
  0
LWPOLYLINE
  8
0
 62
7
 90
9
 70
1
 10
12.430000
 20
2.608437
 10
12.131562
 20
2.608437
 10
12.131562
 20
2.011563
 10
12.728438
 20
2.011563
 10
12.728438
 20
2.608437
 10
12.131562
 20
2.608437
 10
12.131562
 20
2.011563
 10
12.728438
 20
2.011563
 10
12.728438
 20
2.608437
  0
LWPOLYLINE
  8
0
 62
7
 90
9
 70
1
 10
6.430000
 20
15.808438
 10
6.131562
 20
15.808438
 10
6.131562
 20
15.211562
 10
6.728438
 20
15.211562
 10
6.728438
 20
15.808438
 10
6.131562
 20
15.808438
 10
6.131562
 20
15.211562
 10
6.728438
 20
15.211562
 10
6.728438
 20
15.808438
  0
LWPOLYLINE
  8
0
 62
7
 90
9
 70
1
 10
10.030000
 20
15.808438
 10
9.731562
 20
15.808438
 10
9.731562
 20
15.211562
 10
10.328437
 20
15.211562
 10
10.328437
 20
15.808438
 10
9.731562
 20
15.808438
 10
9.731562
 20
15.211562
 10
10.328437
 20
15.211562
 10
10.328437
 20
15.808438
  0
ENDSEC
  0
EOF
