  0
SECTION
  2
HEADER
  9
$ACADVER
  1
AC1009
  9
$MEASUREMENT
 70
     1
  0
ENDSEC
  0
SECTION
  2
ENTITIES
  0
LWPOLYLINE
  8
0
 62
7
 90
9
 70
1
 10
20.018437
 20
13.970000
 10
20.018437
 20
14.468438
 10
18.921563
 20
14.468438
 10
18.921563
 20
13.471563
 10
20.018437
 20
13.471563
 10
20.018437
 20
14.468438
 10
18.921563
 20
14.468438
 10
18.921563
 20
13.471563
 10
20.018437
 20
13.471563
  0
LWPOLYLINE
  8
0
 62
7
 90
9
 70
1
 10
21.718438
 20
13.970000
 10
21.718438
 20
14.468438
 10
20.621563
 20
14.468438
 10
20.621563
 20
13.471563
 10
21.718438
 20
13.471563
 10
21.718438
 20
14.468438
 10
20.621563
 20
14.468438
 10
20.621563
 20
13.471563
 10
21.718438
 20
13.471563
  0
LWPOLYLINE
  8
0
 62
7
 90
9
 70
1
 10
12.700000
 20
20.621563
 10
13.198437
 20
20.621563
 10
13.198437
 20
21.718438
 10
12.201562
 20
21.718438
 10
12.201562
 20
20.621563
 10
13.198437
 20
20.621563
 10
13.198437
 20
21.718438
 10
12.201562
 20
21.718438
 10
12.201562
 20
20.621563
  0
LWPOLYLINE
  8
0
 62
7
 90
9
 70
1
 10
12.700000
 20
18.921563
 10
13.198437
 20
18.921563
 10
13.198437
 20
20.018437
 10
12.201562
 20
20.018437
 10
12.201562
 20
18.921563
 10
13.198437
 20
18.921563
 10
13.198437
 20
20.018437
 10
12.201562
 20
20.018437
 10
12.201562
 20
18.921563
  0
LWPOLYLINE
  8
0
 62
7
 90
9
 70
1
 10
34.290000
 20
24.431563
 10
34.788438
 20
24.431563
 10
34.788438
 20
25.528437
 10
33.791562
 20
25.528437
 10
33.791562
 20
24.431563
 10
34.788438
 20
24.431563
 10
34.788438
 20
25.528437
 10
33.791562
 20
25.528437
 10
33.791562
 20
24.431563
  0
LWPOLYLINE
  8
0
 62
7
 90
9
 70
1
 10
34.290000
 20
22.731563
 10
34.788438
 20
22.731563
 10
34.788438
 20
23.828437
 10
33.791562
 20
23.828437
 10
33.791562
 20
22.731563
 10
34.788438
 20
22.731563
 10
34.788438
 20
23.828437
 10
33.791562
 20
23.828437
 10
33.791562
 20
22.731563
  0
LWPOLYLINE
  8
0
 62
7
 90
9
 70
1
 10
39.890000
 20
13.571563
 10
40.288438
 20
13.571563
 10
40.288438
 20
14.368438
 10
39.491563
 20
14.368438
 10
39.491563
 20
13.571563
 10
40.288438
 20
13.571563
 10
40.288438
 20
14.368438
 10
39.491563
 20
14.368438
 10
39.491563
 20
13.571563
  0
LWPOLYLINE
  8
0
 62
7
 90
9
 70
1
 10
41.390000
 20
13.571563
 10
41.788438
 20
13.571563
 10
41.788438
 20
14.368438
 10
40.991563
 20
14.368438
 10
40.991563
 20
13.571563
 10
41.788438
 20
13.571563
 10
41.788438
 20
14.368438
 10
40.991563
 20
14.368438
 10
40.991563
 20
13.571563
  0
LWPOLYLINE
  8
0
 62
7
 90
9
 70
1
 10
39.890000
 20
16.111563
 10
40.288438
 20
16.111563
 10
40.288438
 20
16.908438
 10
39.491563
 20
16.908438
 10
39.491563
 20
16.111563
 10
40.288438
 20
16.111563
 10
40.288438
 20
16.908438
 10
39.491563
 20
16.908438
 10
39.491563
 20
16.111563
  0
LWPOLYLINE
  8
0
 62
7
 90
9
 70
1
 10
41.390000
 20
16.111563
 10
41.788438
 20
16.111563
 10
41.788438
 20
16.908438
 10
40.991563
 20
16.908438
 10
40.991563
 20
16.111563
 10
41.788438
 20
16.111563
 10
41.788438
 20
16.908438
 10
40.991563
 20
16.908438
 10
40.991563
 20
16.111563
  0
LWPOLYLINE
  8
0
 62
7
 90
9
 70
1
 10
39.890000
 20
18.651563
 10
40.288438
 20
18.651563
 10
40.288438
 20
19.448438
 10
39.491563
 20
19.448438
 10
39.491563
 20
18.651563
 10
40.288438
 20
18.651563
 10
40.288438
 20
19.448438
 10
39.491563
 20
19.448438
 10
39.491563
 20
18.651563
  0
LWPOLYLINE
  8
0
 62
7
 90
9
 70
1
 10
41.390000
 20
18.651563
 10
41.788438
 20
18.651563
 10
41.788438
 20
19.448438
 10
40.991563
 20
19.448438
 10
40.991563
 20
18.651563
 10
41.788438
 20
18.651563
 10
41.788438
 20
19.448438
 10
40.991563
 20
19.448438
 10
40.991563
 20
18.651563
  0
LWPOLYLINE
  8
0
 62
7
 90
9
 70
1
 10
39.890000
 20
21.191562
 10
40.288438
 20
21.191562
 10
40.288438
 20
21.988437
 10
39.491563
 20
21.988437
 10
39.491563
 20
21.191562
 10
40.288438
 20
21.191562
 10
40.288438
 20
21.988437
 10
39.491563
 20
21.988437
 10
39.491563
 20
21.191562
  0
LWPOLYLINE
  8
0
 62
7
 90
9
 70
1
 10
41.390000
 20
21.191562
 10
41.788438
 20
21.191562
 10
41.788438
 20
21.988437
 10
40.991563
 20
21.988437
 10
40.991563
 20
21.191562
 10
41.788438
 20
21.191562
 10
41.788438
 20
21.988437
 10
40.991563
 20
21.988437
 10
40.991563
 20
21.191562
  0
LWPOLYLINE
  8
0
 62
7
 90
9
 70
1
 10
44.751562
 20
13.970000
 10
44.751562
 20
13.471563
 10
45.848437
 20
13.471563
 10
45.848437
 20
14.468438
 10
44.751562
 20
14.468438
 10
44.751562
 20
13.471563
 10
45.848437
 20
13.471563
 10
45.848437
 20
14.468438
 10
44.751562
 20
14.468438
  0
LWPOLYLINE
  8
0
 62
7
 90
9
 70
1
 10
43.051563
 20
13.970000
 10
43.051563
 20
13.471563
 10
44.148438
 20
13.471563
 10
44.148438
 20
14.468438
 10
43.051563
 20
14.468438
 10
43.051563
 20
13.471563
 10
44.148438
 20
13.471563
 10
44.148438
 20
14.468438
 10
43.051563
 20
14.468438
  0
LWPOLYLINE
  8
0
 62
7
 90
9
 70
1
 10
44.751562
 20
16.510000
 10
44.751562
 20
16.011563
 10
45.848437
 20
16.011563
 10
45.848437
 20
17.008438
 10
44.751562
 20
17.008438
 10
44.751562
 20
16.011563
 10
45.848437
 20
16.011563
 10
45.848437
 20
17.008438
 10
44.751562
 20
17.008438
  0
LWPOLYLINE
  8
0
 62
7
 90
9
 70
1
 10
43.051563
 20
16.510000
 10
43.051563
 20
16.011563
 10
44.148438
 20
16.011563
 10
44.148438
 20
17.008438
 10
43.051563
 20
17.008438
 10
43.051563
 20
16.011563
 10
44.148438
 20
16.011563
 10
44.148438
 20
17.008438
 10
43.051563
 20
17.008438
  0
LWPOLYLINE
  8
0
 62
7
 90
9
 70
1
 10
44.751562
 20
19.050000
 10
44.751562
 20
18.551562
 10
45.848437
 20
18.551562
 10
45.848437
 20
19.548438
 10
44.751562
 20
19.548438
 10
44.751562
 20
18.551562
 10
45.848437
 20
18.551562
 10
45.848437
 20
19.548438
 10
44.751562
 20
19.548438
  0
LWPOLYLINE
  8
0
 62
7
 90
9
 70
1
 10
43.051563
 20
19.050000
 10
43.051563
 20
18.551562
 10
44.148438
 20
18.551562
 10
44.148438
 20
19.548438
 10
43.051563
 20
19.548438
 10
43.051563
 20
18.551562
 10
44.148438
 20
18.551562
 10
44.148438
 20
19.548438
 10
43.051563
 20
19.548438
  0
LWPOLYLINE
  8
0
 62
7
 90
9
 70
1
 10
44.751562
 20
21.590000
 10
44.751562
 20
21.091562
 10
45.848437
 20
21.091562
 10
45.848437
 20
22.088438
 10
44.751562
 20
22.088438
 10
44.751562
 20
21.091562
 10
45.848437
 20
21.091562
 10
45.848437
 20
22.088438
 10
44.751562
 20
22.088438
  0
LWPOLYLINE
  8
0
 62
7
 90
9
 70
1
 10
43.051563
 20
21.590000
 10
43.051563
 20
21.091562
 10
44.148438
 20
21.091562
 10
44.148438
 20
22.088438
 10
43.051563
 20
22.088438
 10
43.051563
 20
21.091562
 10
44.148438
 20
21.091562
 10
44.148438
 20
22.088438
 10
43.051563
 20
22.088438
  0
LWPOLYLINE
  8
0
 62
7
 90
9
 70
1
 10
18.543563
 20
28.570000
 10
18.543563
 20
28.419162
 10
19.556438
 20
28.419162
 10
19.556438
 20
28.720838
 10
18.543563
 20
28.720838
 10
18.543563
 20
28.419162
 10
19.556438
 20
28.419162
 10
19.556438
 20
28.720838
 10
18.543563
 20
28.720838
  0
LWPOLYLINE
  8
0
 62
7
 90
9
 70
1
 10
18.543563
 20
28.070000
 10
18.543563
 20
27.919162
 10
19.556438
 20
27.919162
 10
19.556438
 20
28.220838
 10
18.543563
 20
28.220838
 10
18.543563
 20
27.919162
 10
19.556438
 20
27.919162
 10
19.556438
 20
28.220838
 10
18.543563
 20
28.220838
  0
LWPOLYLINE
  8
0
 62
7
 90
9
 70
1
 10
18.543563
 20
27.570000
 10
18.543563
 20
27.419162
 10
19.556438
 20
27.419162
 10
19.556438
 20
27.720838
 10
18.543563
 20
27.720838
 10
18.543563
 20
27.419162
 10
19.556438
 20
27.419162
 10
19.556438
 20
27.720838
 10
18.543563
 20
27.720838
  0
LWPOLYLINE
  8
0
 62
7
 90
9
 70
1
 10
18.543563
 20
27.070000
 10
18.543563
 20
26.919162
 10
19.556438
 20
26.919162
 10
19.556438
 20
27.220838
 10
18.543563
 20
27.220838
 10
18.543563
 20
26.919162
 10
19.556438
 20
26.919162
 10
19.556438
 20
27.220838
 10
18.543563
 20
27.220838
  0
LWPOLYLINE
  8
0
 62
7
 90
9
 70
1
 10
18.543563
 20
26.570000
 10
18.543563
 20
26.419162
 10
19.556438
 20
26.419162
 10
19.556438
 20
26.720838
 10
18.543563
 20
26.720838
 10
18.543563
 20
26.419162
 10
19.556438
 20
26.419162
 10
19.556438
 20
26.720838
 10
18.543563
 20
26.720838
  0
LWPOLYLINE
  8
0
 62
7
 90
9
 70
1
 10
18.543563
 20
26.070000
 10
18.543563
 20
25.919162
 10
19.556438
 20
25.919162
 10
19.556438
 20
26.220838
 10
18.543563
 20
26.220838
 10
18.543563
 20
25.919162
 10
19.556438
 20
25.919162
 10
19.556438
 20
26.220838
 10
18.543563
 20
26.220838
  0
LWPOLYLINE
  8
0
 62
7
 90
9
 70
1
 10
18.543563
 20
25.570000
 10
18.543563
 20
25.419162
 10
19.556438
 20
25.419162
 10
19.556438
 20
25.720838
 10
18.543563
 20
25.720838
 10
18.543563
 20
25.419162
 10
19.556438
 20
25.419162
 10
19.556438
 20
25.720838
 10
18.543563
 20
25.720838
  0
LWPOLYLINE
  8
0
 62
7
 90
9
 70
1
 10
18.543563
 20
25.070000
 10
18.543563
 20
24.919162
 10
19.556438
 20
24.919162
 10
19.556438
 20
25.220838
 10
18.543563
 20
25.220838
 10
18.543563
 20
24.919162
 10
19.556438
 20
24.919162
 10
19.556438
 20
25.220838
 10
18.543563
 20
25.220838
  0
LWPOLYLINE
  8
0
 62
7
 90
9
 70
1
 10
18.543563
 20
24.570000
 10
18.543563
 20
24.419162
 10
19.556438
 20
24.419162
 10
19.556438
 20
24.720838
 10
18.543563
 20
24.720838
 10
18.543563
 20
24.419162
 10
19.556438
 20
24.419162
 10
19.556438
 20
24.720838
 10
18.543563
 20
24.720838
  0
LWPOLYLINE
  8
0
 62
7
 90
9
 70
1
 10
18.543563
 20
24.070000
 10
18.543563
 20
23.919162
 10
19.556438
 20
23.919162
 10
19.556438
 20
24.220838
 10
18.543563
 20
24.220838
 10
18.543563
 20
23.919162
 10
19.556438
 20
23.919162
 10
19.556438
 20
24.220838
 10
18.543563
 20
24.220838
  0
LWPOLYLINE
  8
0
 62
7
 90
9
 70
1
 10
18.543563
 20
23.570000
 10
18.543563
 20
23.419162
 10
19.556438
 20
23.419162
 10
19.556438
 20
23.720838
 10
18.543563
 20
23.720838
 10
18.543563
 20
23.419162
 10
19.556438
 20
23.419162
 10
19.556438
 20
23.720838
 10
18.543563
 20
23.720838
  0
LWPOLYLINE
  8
0
 62
7
 90
9
 70
1
 10
18.543563
 20
23.070000
 10
18.543563
 20
22.919162
 10
19.556438
 20
22.919162
 10
19.556438
 20
23.220838
 10
18.543563
 20
23.220838
 10
18.543563
 20
22.919162
 10
19.556438
 20
22.919162
 10
19.556438
 20
23.220838
 10
18.543563
 20
23.220838
  0
LWPOLYLINE
  8
0
 62
7
 90
9
 70
1
 10
18.543563
 20
22.570000
 10
18.543563
 20
22.419162
 10
19.556438
 20
22.419162
 10
19.556438
 20
22.720838
 10
18.543563
 20
22.720838
 10
18.543563
 20
22.419162
 10
19.556438
 20
22.419162
 10
19.556438
 20
22.720838
 10
18.543563
 20
22.720838
  0
LWPOLYLINE
  8
0
 62
7
 90
9
 70
1
 10
18.543563
 20
22.070000
 10
18.543563
 20
21.919162
 10
19.556438
 20
21.919162
 10
19.556438
 20
22.220838
 10
18.543563
 20
22.220838
 10
18.543563
 20
21.919162
 10
19.556438
 20
21.919162
 10
19.556438
 20
22.220838
 10
18.543563
 20
22.220838
  0
LWPOLYLINE
  8
0
 62
7
 90
9
 70
1
 10
18.543563
 20
21.570000
 10
18.543563
 20
21.419162
 10
19.556438
 20
21.419162
 10
19.556438
 20
21.720838
 10
18.543563
 20
21.720838
 10
18.543563
 20
21.419162
 10
19.556438
 20
21.419162
 10
19.556438
 20
21.720838
 10
18.543563
 20
21.720838
  0
LWPOLYLINE
  8
0
 62
7
 90
9
 70
1
 10
18.543563
 20
21.070000
 10
18.543563
 20
20.919162
 10
19.556438
 20
20.919162
 10
19.556438
 20
21.220838
 10
18.543563
 20
21.220838
 10
18.543563
 20
20.919162
 10
19.556438
 20
20.919162
 10
19.556438
 20
21.220838
 10
18.543563
 20
21.220838
  0
LWPOLYLINE
  8
0
 62
7
 90
9
 70
1
 10
19.800000
 20
20.826438
 10
19.649162
 20
20.826438
 10
19.649162
 20
19.813562
 10
19.950838
 20
19.813562
 10
19.950838
 20
20.826438
 10
19.649162
 20
20.826438
 10
19.649162
 20
19.813562
 10
19.950838
 20
19.813562
 10
19.950838
 20
20.826438
  0
LWPOLYLINE
  8
0
 62
7
 90
9
 70
1
 10
20.300000
 20
20.826438
 10
20.149162
 20
20.826438
 10
20.149162
 20
19.813562
 10
20.450838
 20
19.813562
 10
20.450838
 20
20.826438
 10
20.149162
 20
20.826438
 10
20.149162
 20
19.813562
 10
20.450838
 20
19.813562
 10
20.450838
 20
20.826438
  0
LWPOLYLINE
  8
0
 62
7
 90
9
 70
1
 10
20.800000
 20
20.826438
 10
20.649162
 20
20.826438
 10
20.649162
 20
19.813562
 10
20.950838
 20
19.813562
 10
20.950838
 20
20.826438
 10
20.649162
 20
20.826438
 10
20.649162
 20
19.813562
 10
20.950838
 20
19.813562
 10
20.950838
 20
20.826438
  0
LWPOLYLINE
  8
0
 62
7
 90
9
 70
1
 10
21.300000
 20
20.826438
 10
21.149162
 20
20.826438
 10
21.149162
 20
19.813562
 10
21.450838
 20
19.813562
 10
21.450838
 20
20.826438
 10
21.149162
 20
20.826438
 10
21.149162
 20
19.813562
 10
21.450838
 20
19.813562
 10
21.450838
 20
20.826438
  0
LWPOLYLINE
  8
0
 62
7
 90
9
 70
1
 10
21.800000
 20
20.826438
 10
21.649162
 20
20.826438
 10
21.649162
 20
19.813562
 10
21.950838
 20
19.813562
 10
21.950838
 20
20.826438
 10
21.649162
 20
20.826438
 10
21.649162
 20
19.813562
 10
21.950838
 20
19.813562
 10
21.950838
 20
20.826438
  0
LWPOLYLINE
  8
0
 62
7
 90
9
 70
1
 10
22.300000
 20
20.826438
 10
22.149162
 20
20.826438
 10
22.149162
 20
19.813562
 10
22.450838
 20
19.813562
 10
22.450838
 20
20.826438
 10
22.149162
 20
20.826438
 10
22.149162
 20
19.813562
 10
22.450838
 20
19.813562
 10
22.450838
 20
20.826438
  0
LWPOLYLINE
  8
0
 62
7
 90
9
 70
1
 10
22.800000
 20
20.826438
 10
22.649162
 20
20.826438
 10
22.649162
 20
19.813562
 10
22.950838
 20
19.813562
 10
22.950838
 20
20.826438
 10
22.649162
 20
20.826438
 10
22.649162
 20
19.813562
 10
22.950838
 20
19.813562
 10
22.950838
 20
20.826438
  0
LWPOLYLINE
  8
0
 62
7
 90
9
 70
1
 10
23.300000
 20
20.826438
 10
23.149162
 20
20.826438
 10
23.149162
 20
19.813562
 10
23.450838
 20
19.813562
 10
23.450838
 20
20.826438
 10
23.149162
 20
20.826438
 10
23.149162
 20
19.813562
 10
23.450838
 20
19.813562
 10
23.450838
 20
20.826438
  0
LWPOLYLINE
  8
0
 62
7
 90
9
 70
1
 10
23.800000
 20
20.826438
 10
23.649162
 20
20.826438
 10
23.649162
 20
19.813562
 10
23.950838
 20
19.813562
 10
23.950838
 20
20.826438
 10
23.649162
 20
20.826438
 10
23.649162
 20
19.813562
 10
23.950838
 20
19.813562
 10
23.950838
 20
20.826438
  0
LWPOLYLINE
  8
0
 62
7
 90
9
 70
1
 10
24.300000
 20
20.826438
 10
24.149162
 20
20.826438
 10
24.149162
 20
19.813562
 10
24.450838
 20
19.813562
 10
24.450838
 20
20.826438
 10
24.149162
 20
20.826438
 10
24.149162
 20
19.813562
 10
24.450838
 20
19.813562
 10
24.450838
 20
20.826438
  0
LWPOLYLINE
  8
0
 62
7
 90
9
 70
1
 10
24.800000
 20
20.826438
 10
24.649162
 20
20.826438
 10
24.649162
 20
19.813562
 10
24.950838
 20
19.813562
 10
24.950838
 20
20.826438
 10
24.649162
 20
20.826438
 10
24.649162
 20
19.813562
 10
24.950838
 20
19.813562
 10
24.950838
 20
20.826438
  0
LWPOLYLINE
  8
0
 62
7
 90
9
 70
1
 10
25.300000
 20
20.826438
 10
25.149162
 20
20.826438
 10
25.149162
 20
19.813562
 10
25.450838
 20
19.813562
 10
25.450838
 20
20.826438
 10
25.149162
 20
20.826438
 10
25.149162
 20
19.813562
 10
25.450838
 20
19.813562
 10
25.450838
 20
20.826438
  0
LWPOLYLINE
  8
0
 62
7
 90
9
 70
1
 10
25.800000
 20
20.826438
 10
25.649162
 20
20.826438
 10
25.649162
 20
19.813562
 10
25.950838
 20
19.813562
 10
25.950838
 20
20.826438
 10
25.649162
 20
20.826438
 10
25.649162
 20
19.813562
 10
25.950838
 20
19.813562
 10
25.950838
 20
20.826438
  0
LWPOLYLINE
  8
0
 62
7
 90
9
 70
1
 10
26.300000
 20
20.826438
 10
26.149162
 20
20.826438
 10
26.149162
 20
19.813562
 10
26.450838
 20
19.813562
 10
26.450838
 20
20.826438
 10
26.149162
 20
20.826438
 10
26.149162
 20
19.813562
 10
26.450838
 20
19.813562
 10
26.450838
 20
20.826438
  0
LWPOLYLINE
  8
0
 62
7
 90
9
 70
1
 10
26.800000
 20
20.826438
 10
26.649162
 20
20.826438
 10
26.649162
 20
19.813562
 10
26.950838
 20
19.813562
 10
26.950838
 20
20.826438
 10
26.649162
 20
20.826438
 10
26.649162
 20
19.813562
 10
26.950838
 20
19.813562
 10
26.950838
 20
20.826438
  0
LWPOLYLINE
  8
0
 62
7
 90
9
 70
1
 10
27.300000
 20
20.826438
 10
27.149162
 20
20.826438
 10
27.149162
 20
19.813562
 10
27.450838
 20
19.813562
 10
27.450838
 20
20.826438
 10
27.149162
 20
20.826438
 10
27.149162
 20
19.813562
 10
27.450838
 20
19.813562
 10
27.450838
 20
20.826438
  0
LWPOLYLINE
  8
0
 62
7
 90
9
 70
1
 10
27.543563
 20
21.070000
 10
27.543563
 20
20.919162
 10
28.556438
 20
20.919162
 10
28.556438
 20
21.220838
 10
27.543563
 20
21.220838
 10
27.543563
 20
20.919162
 10
28.556438
 20
20.919162
 10
28.556438
 20
21.220838
 10
27.543563
 20
21.220838
  0
LWPOLYLINE
  8
0
 62
7
 90
9
 70
1
 10
27.543563
 20
21.570000
 10
27.543563
 20
21.419162
 10
28.556438
 20
21.419162
 10
28.556438
 20
21.720838
 10
27.543563
 20
21.720838
 10
27.543563
 20
21.419162
 10
28.556438
 20
21.419162
 10
28.556438
 20
21.720838
 10
27.543563
 20
21.720838
  0
LWPOLYLINE
  8
0
 62
7
 90
9
 70
1
 10
27.543563
 20
22.070000
 10
27.543563
 20
21.919162
 10
28.556438
 20
21.919162
 10
28.556438
 20
22.220838
 10
27.543563
 20
22.220838
 10
27.543563
 20
21.919162
 10
28.556438
 20
21.919162
 10
28.556438
 20
22.220838
 10
27.543563
 20
22.220838
  0
LWPOLYLINE
  8
0
 62
7
 90
9
 70
1
 10
27.543563
 20
22.570000
 10
27.543563
 20
22.419162
 10
28.556438
 20
22.419162
 10
28.556438
 20
22.720838
 10
27.543563
 20
22.720838
 10
27.543563
 20
22.419162
 10
28.556438
 20
22.419162
 10
28.556438
 20
22.720838
 10
27.543563
 20
22.720838
  0
LWPOLYLINE
  8
0
 62
7
 90
9
 70
1
 10
27.543563
 20
23.070000
 10
27.543563
 20
22.919162
 10
28.556438
 20
22.919162
 10
28.556438
 20
23.220838
 10
27.543563
 20
23.220838
 10
27.543563
 20
22.919162
 10
28.556438
 20
22.919162
 10
28.556438
 20
23.220838
 10
27.543563
 20
23.220838
  0
LWPOLYLINE
  8
0
 62
7
 90
9
 70
1
 10
27.543563
 20
23.570000
 10
27.543563
 20
23.419162
 10
28.556438
 20
23.419162
 10
28.556438
 20
23.720838
 10
27.543563
 20
23.720838
 10
27.543563
 20
23.419162
 10
28.556438
 20
23.419162
 10
28.556438
 20
23.720838
 10
27.543563
 20
23.720838
  0
LWPOLYLINE
  8
0
 62
7
 90
9
 70
1
 10
27.543563
 20
24.070000
 10
27.543563
 20
23.919162
 10
28.556438
 20
23.919162
 10
28.556438
 20
24.220838
 10
27.543563
 20
24.220838
 10
27.543563
 20
23.919162
 10
28.556438
 20
23.919162
 10
28.556438
 20
24.220838
 10
27.543563
 20
24.220838
  0
LWPOLYLINE
  8
0
 62
7
 90
9
 70
1
 10
27.543563
 20
24.570000
 10
27.543563
 20
24.419162
 10
28.556438
 20
24.419162
 10
28.556438
 20
24.720838
 10
27.543563
 20
24.720838
 10
27.543563
 20
24.419162
 10
28.556438
 20
24.419162
 10
28.556438
 20
24.720838
 10
27.543563
 20
24.720838
  0
LWPOLYLINE
  8
0
 62
7
 90
9
 70
1
 10
27.543563
 20
25.070000
 10
27.543563
 20
24.919162
 10
28.556438
 20
24.919162
 10
28.556438
 20
25.220838
 10
27.543563
 20
25.220838
 10
27.543563
 20
24.919162
 10
28.556438
 20
24.919162
 10
28.556438
 20
25.220838
 10
27.543563
 20
25.220838
  0
LWPOLYLINE
  8
0
 62
7
 90
9
 70
1
 10
27.543563
 20
25.570000
 10
27.543563
 20
25.419162
 10
28.556438
 20
25.419162
 10
28.556438
 20
25.720838
 10
27.543563
 20
25.720838
 10
27.543563
 20
25.419162
 10
28.556438
 20
25.419162
 10
28.556438
 20
25.720838
 10
27.543563
 20
25.720838
  0
LWPOLYLINE
  8
0
 62
7
 90
9
 70
1
 10
27.543563
 20
26.070000
 10
27.543563
 20
25.919162
 10
28.556438
 20
25.919162
 10
28.556438
 20
26.220838
 10
27.543563
 20
26.220838
 10
27.543563
 20
25.919162
 10
28.556438
 20
25.919162
 10
28.556438
 20
26.220838
 10
27.543563
 20
26.220838
  0
LWPOLYLINE
  8
0
 62
7
 90
9
 70
1
 10
27.543563
 20
26.570000
 10
27.543563
 20
26.419162
 10
28.556438
 20
26.419162
 10
28.556438
 20
26.720838
 10
27.543563
 20
26.720838
 10
27.543563
 20
26.419162
 10
28.556438
 20
26.419162
 10
28.556438
 20
26.720838
 10
27.543563
 20
26.720838
  0
LWPOLYLINE
  8
0
 62
7
 90
9
 70
1
 10
27.543563
 20
27.070000
 10
27.543563
 20
26.919162
 10
28.556438
 20
26.919162
 10
28.556438
 20
27.220838
 10
27.543563
 20
27.220838
 10
27.543563
 20
26.919162
 10
28.556438
 20
26.919162
 10
28.556438
 20
27.220838
 10
27.543563
 20
27.220838
  0
LWPOLYLINE
  8
0
 62
7
 90
9
 70
1
 10
27.543563
 20
27.570000
 10
27.543563
 20
27.419162
 10
28.556438
 20
27.419162
 10
28.556438
 20
27.720838
 10
27.543563
 20
27.720838
 10
27.543563
 20
27.419162
 10
28.556438
 20
27.419162
 10
28.556438
 20
27.720838
 10
27.543563
 20
27.720838
  0
LWPOLYLINE
  8
0
 62
7
 90
9
 70
1
 10
27.543563
 20
28.070000
 10
27.543563
 20
27.919162
 10
28.556438
 20
27.919162
 10
28.556438
 20
28.220838
 10
27.543563
 20
28.220838
 10
27.543563
 20
27.919162
 10
28.556438
 20
27.919162
 10
28.556438
 20
28.220838
 10
27.543563
 20
28.220838
  0
LWPOLYLINE
  8
0
 62
7
 90
9
 70
1
 10
27.543563
 20
28.570000
 10
27.543563
 20
28.419162
 10
28.556438
 20
28.419162
 10
28.556438
 20
28.720838
 10
27.543563
 20
28.720838
 10
27.543563
 20
28.419162
 10
28.556438
 20
28.419162
 10
28.556438
 20
28.720838
 10
27.543563
 20
28.720838
  0
LWPOLYLINE
  8
0
 62
7
 90
9
 70
1
 10
27.300000
 20
29.826438
 10
27.149162
 20
29.826438
 10
27.149162
 20
28.813562
 10
27.450838
 20
28.813562
 10
27.450838
 20
29.826438
 10
27.149162
 20
29.826438
 10
27.149162
 20
28.813562
 10
27.450838
 20
28.813562
 10
27.450838
 20
29.826438
  0
LWPOLYLINE
  8
0
 62
7
 90
9
 70
1
 10
26.800000
 20
29.826438
 10
26.649162
 20
29.826438
 10
26.649162
 20
28.813562
 10
26.950838
 20
28.813562
 10
26.950838
 20
29.826438
 10
26.649162
 20
29.826438
 10
26.649162
 20
28.813562
 10
26.950838
 20
28.813562
 10
26.950838
 20
29.826438
  0
LWPOLYLINE
  8
0
 62
7
 90
9
 70
1
 10
26.300000
 20
29.826438
 10
26.149162
 20
29.826438
 10
26.149162
 20
28.813562
 10
26.450838
 20
28.813562
 10
26.450838
 20
29.826438
 10
26.149162
 20
29.826438
 10
26.149162
 20
28.813562
 10
26.450838
 20
28.813562
 10
26.450838
 20
29.826438
  0
LWPOLYLINE
  8
0
 62
7
 90
9
 70
1
 10
25.800000
 20
29.826438
 10
25.649162
 20
29.826438
 10
25.649162
 20
28.813562
 10
25.950838
 20
28.813562
 10
25.950838
 20
29.826438
 10
25.649162
 20
29.826438
 10
25.649162
 20
28.813562
 10
25.950838
 20
28.813562
 10
25.950838
 20
29.826438
  0
LWPOLYLINE
  8
0
 62
7
 90
9
 70
1
 10
25.300000
 20
29.826438
 10
25.149162
 20
29.826438
 10
25.149162
 20
28.813562
 10
25.450838
 20
28.813562
 10
25.450838
 20
29.826438
 10
25.149162
 20
29.826438
 10
25.149162
 20
28.813562
 10
25.450838
 20
28.813562
 10
25.450838
 20
29.826438
  0
LWPOLYLINE
  8
0
 62
7
 90
9
 70
1
 10
24.800000
 20
29.826438
 10
24.649162
 20
29.826438
 10
24.649162
 20
28.813562
 10
24.950838
 20
28.813562
 10
24.950838
 20
29.826438
 10
24.649162
 20
29.826438
 10
24.649162
 20
28.813562
 10
24.950838
 20
28.813562
 10
24.950838
 20
29.826438
  0
LWPOLYLINE
  8
0
 62
7
 90
9
 70
1
 10
24.300000
 20
29.826438
 10
24.149162
 20
29.826438
 10
24.149162
 20
28.813562
 10
24.450838
 20
28.813562
 10
24.450838
 20
29.826438
 10
24.149162
 20
29.826438
 10
24.149162
 20
28.813562
 10
24.450838
 20
28.813562
 10
24.450838
 20
29.826438
  0
LWPOLYLINE
  8
0
 62
7
 90
9
 70
1
 10
23.800000
 20
29.826438
 10
23.649162
 20
29.826438
 10
23.649162
 20
28.813562
 10
23.950838
 20
28.813562
 10
23.950838
 20
29.826438
 10
23.649162
 20
29.826438
 10
23.649162
 20
28.813562
 10
23.950838
 20
28.813562
 10
23.950838
 20
29.826438
  0
LWPOLYLINE
  8
0
 62
7
 90
9
 70
1
 10
23.300000
 20
29.826438
 10
23.149162
 20
29.826438
 10
23.149162
 20
28.813562
 10
23.450838
 20
28.813562
 10
23.450838
 20
29.826438
 10
23.149162
 20
29.826438
 10
23.149162
 20
28.813562
 10
23.450838
 20
28.813562
 10
23.450838
 20
29.826438
  0
LWPOLYLINE
  8
0
 62
7
 90
9
 70
1
 10
22.800000
 20
29.826438
 10
22.649162
 20
29.826438
 10
22.649162
 20
28.813562
 10
22.950838
 20
28.813562
 10
22.950838
 20
29.826438
 10
22.649162
 20
29.826438
 10
22.649162
 20
28.813562
 10
22.950838
 20
28.813562
 10
22.950838
 20
29.826438
  0
LWPOLYLINE
  8
0
 62
7
 90
9
 70
1
 10
22.300000
 20
29.826438
 10
22.149162
 20
29.826438
 10
22.149162
 20
28.813562
 10
22.450838
 20
28.813562
 10
22.450838
 20
29.826438
 10
22.149162
 20
29.826438
 10
22.149162
 20
28.813562
 10
22.450838
 20
28.813562
 10
22.450838
 20
29.826438
  0
LWPOLYLINE
  8
0
 62
7
 90
9
 70
1
 10
21.800000
 20
29.826438
 10
21.649162
 20
29.826438
 10
21.649162
 20
28.813562
 10
21.950838
 20
28.813562
 10
21.950838
 20
29.826438
 10
21.649162
 20
29.826438
 10
21.649162
 20
28.813562
 10
21.950838
 20
28.813562
 10
21.950838
 20
29.826438
  0
LWPOLYLINE
  8
0
 62
7
 90
9
 70
1
 10
21.300000
 20
29.826438
 10
21.149162
 20
29.826438
 10
21.149162
 20
28.813562
 10
21.450838
 20
28.813562
 10
21.450838
 20
29.826438
 10
21.149162
 20
29.826438
 10
21.149162
 20
28.813562
 10
21.450838
 20
28.813562
 10
21.450838
 20
29.826438
  0
LWPOLYLINE
  8
0
 62
7
 90
9
 70
1
 10
20.800000
 20
29.826438
 10
20.649162
 20
29.826438
 10
20.649162
 20
28.813562
 10
20.950838
 20
28.813562
 10
20.950838
 20
29.826438
 10
20.649162
 20
29.826438
 10
20.649162
 20
28.813562
 10
20.950838
 20
28.813562
 10
20.950838
 20
29.826438
  0
LWPOLYLINE
  8
0
 62
7
 90
9
 70
1
 10
20.300000
 20
29.826438
 10
20.149162
 20
29.826438
 10
20.149162
 20
28.813562
 10
20.450838
 20
28.813562
 10
20.450838
 20
29.826438
 10
20.149162
 20
29.826438
 10
20.149162
 20
28.813562
 10
20.450838
 20
28.813562
 10
20.450838
 20
29.826438
  0
LWPOLYLINE
  8
0
 62
7
 90
9
 70
1
 10
19.800000
 20
29.826438
 10
19.649162
 20
29.826438
 10
19.649162
 20
28.813562
 10
19.950838
 20
28.813562
 10
19.950838
 20
29.826438
 10
19.649162
 20
29.826438
 10
19.649162
 20
28.813562
 10
19.950838
 20
28.813562
 10
19.950838
 20
29.826438
  0
ENDSEC
  0
EOF
